<svg width="27" height="27" viewBox="0 0 27 27" fill="none" xmlns="http://www.w3.org/2000/svg">
<rect width="27" height="27" fill="none"/>
<rect width="1440" height="1590" transform="translate(-160 -573)" fill="none"/>
<circle cx="13.5" cy="13.5" r="13.5" fill="#3D2859"/>
<g clip-path="url(#clip0_97_239)">
<path d="M19.1602 14.9609C19.3436 14.9609 19.4922 14.8122 19.4922 14.6289C19.4922 14.4456 19.3436 14.2969 19.1602 14.2969C18.9769 14.2969 18.8281 14.4456 18.8281 14.6289C18.8281 14.8122 18.9769 14.9609 19.1602 14.9609Z" fill="white"/>
<path d="M7.87109 14.9609C8.05449 14.9609 8.20312 14.8122 8.20312 14.6289C8.20312 14.4456 8.05449 14.2969 7.87109 14.2969C7.68783 14.2969 7.53906 14.4456 7.53906 14.6289C7.53906 14.8122 7.68783 14.9609 7.87109 14.9609Z" fill="white"/>
<mask id="path-5-outside-1_97_239" maskUnits="userSpaceOnUse" x="4.79688" y="4" width="17" height="19" fill="black">
<rect fill="white" x="4.79688" y="4" width="17" height="19"/>
<path d="M5.84657 15.3692C5.69132 16.1961 5.9026 16.9479 6.44112 17.4863C6.87367 17.919 7.41918 18.1314 8.02358 18.1314C8.78194 18.1314 9.6329 17.7966 10.4682 17.1425C10.8191 18.5965 11.7311 20.9567 13.1834 21.297V21.668C13.1834 21.8514 13.3322 22 13.5155 22C13.6989 22 13.8475 21.8514 13.8475 21.668V21.297C15.3029 20.956 16.2135 18.5897 16.5628 17.1425C17.3982 17.7966 18.249 18.1314 19.0075 18.1314C19.6116 18.1313 20.1574 17.919 20.5897 17.4865C21.1284 16.9479 21.3396 16.1959 21.1843 15.3692C21.0264 14.5276 20.496 13.6362 19.6508 12.7911C18.5332 11.6734 16.9168 10.6674 15.6368 10.2675C15.7703 9.97087 15.8397 9.6487 15.8397 9.31641C15.8397 8.3242 15.2147 7.47571 14.3378 7.1429C14.6804 6.25861 15.5311 5.66406 16.5037 5.66406C16.6871 5.66406 16.8358 5.51543 16.8358 5.33203C16.8358 5.14864 16.6871 5 16.5037 5C15.2182 5 14.0983 5.80829 13.6836 6.99893C13.6279 6.99491 13.572 6.99219 13.5155 6.99219C13.459 6.99219 13.4031 6.99491 13.3476 6.99893C12.9327 5.80829 11.8129 5 10.5272 5C10.3439 5 10.1951 5.14864 10.1951 5.33203C10.1951 5.51543 10.3439 5.66406 10.5272 5.66406C11.4999 5.66406 12.3506 6.25861 12.6933 7.1429C11.8164 7.47571 11.1912 8.3242 11.1912 9.31641C11.1912 9.64857 11.2608 9.97087 11.3941 10.2676C9.47467 10.8671 6.286 13.0288 5.84657 15.3692V15.3692ZM13.5155 12.9509C13.6802 13.3757 13.9031 13.83 14.1778 14.2969H12.8532C13.1279 13.83 13.3509 13.3759 13.5155 12.9509ZM12.4327 14.9609H14.5983C14.9261 15.4437 15.2829 15.8954 15.6466 16.2891H11.3845C11.7482 15.8956 12.105 15.4437 12.4327 14.9609ZM15.4354 18.4805H11.5956C11.4003 18.0051 11.2317 17.4785 11.1059 16.9527H15.925C15.7993 17.4787 15.6307 18.0051 15.4354 18.4805V18.4805ZM13.5155 20.6719C12.9945 20.6719 12.4083 20.1094 11.9034 19.1441H15.1278C14.6227 20.1094 14.0366 20.6719 13.5155 20.6719ZM20.5318 15.4918C20.647 16.1053 20.5047 16.6326 20.1202 17.0169C19.7636 17.3736 19.2788 17.5229 18.7188 17.4482C17.2467 17.2522 15.8733 15.6932 15.0531 14.4465C14.3053 13.3093 13.8546 12.2009 13.8475 11.4816C13.8475 11.4811 13.8475 11.4806 13.8475 11.4801C13.8476 11.4697 13.8476 11.4592 13.8475 11.4488C13.8475 11.4483 13.8475 11.4478 13.8475 11.4472C13.8498 11.2024 13.9065 11.0226 14.0164 10.9128C14.128 10.8009 14.3179 10.7441 14.5688 10.7441C14.7149 10.7441 14.8818 10.7635 15.066 10.8024C15.0662 10.8024 15.0662 10.8024 15.0662 10.8025C16.2637 11.0553 18.0328 12.1122 19.1813 13.2607C19.9316 14.0108 20.3986 14.7823 20.5318 15.4918V15.4918ZM13.5155 7.65625C14.4309 7.65625 15.1756 8.40099 15.1756 9.31641C15.1756 9.59785 15.1061 9.86919 14.9733 10.1117C14.34 10.0183 13.8605 10.1291 13.5467 10.4432C13.536 10.454 13.5257 10.4652 13.5155 10.4763C13.5053 10.4652 13.4951 10.4541 13.4845 10.4434C13.1706 10.1291 12.691 10.0185 12.0578 10.1117C11.925 9.86919 11.8553 9.59785 11.8553 9.31641C11.8553 8.40099 12.6002 7.65625 13.5155 7.65625V7.65625ZM11.965 10.8024C12.1491 10.7633 12.316 10.744 12.4622 10.744C12.713 10.744 12.903 10.8009 13.0148 10.9129C13.1245 11.0226 13.1812 11.2024 13.1836 11.4471V11.4488C13.1834 11.4592 13.1834 11.4697 13.1836 11.4801V11.4816C13.1764 12.2009 12.7257 13.3093 11.978 14.4465C11.161 15.6884 9.78763 17.2517 8.3123 17.4481C7.75212 17.5228 7.26743 17.3736 6.91076 17.0168C6.52646 16.6325 6.38418 16.1051 6.49935 15.4917C6.89961 13.3598 10.2302 11.1688 11.965 10.8024V10.8024Z"/>
</mask>
<path d="M5.84657 15.3692C5.69132 16.1961 5.9026 16.9479 6.44112 17.4863C6.87367 17.919 7.41918 18.1314 8.02358 18.1314C8.78194 18.1314 9.6329 17.7966 10.4682 17.1425C10.8191 18.5965 11.7311 20.9567 13.1834 21.297V21.668C13.1834 21.8514 13.3322 22 13.5155 22C13.6989 22 13.8475 21.8514 13.8475 21.668V21.297C15.3029 20.956 16.2135 18.5897 16.5628 17.1425C17.3982 17.7966 18.249 18.1314 19.0075 18.1314C19.6116 18.1313 20.1574 17.919 20.5897 17.4865C21.1284 16.9479 21.3396 16.1959 21.1843 15.3692C21.0264 14.5276 20.496 13.6362 19.6508 12.7911C18.5332 11.6734 16.9168 10.6674 15.6368 10.2675C15.7703 9.97087 15.8397 9.6487 15.8397 9.31641C15.8397 8.3242 15.2147 7.47571 14.3378 7.1429C14.6804 6.25861 15.5311 5.66406 16.5037 5.66406C16.6871 5.66406 16.8358 5.51543 16.8358 5.33203C16.8358 5.14864 16.6871 5 16.5037 5C15.2182 5 14.0983 5.80829 13.6836 6.99893C13.6279 6.99491 13.572 6.99219 13.5155 6.99219C13.459 6.99219 13.4031 6.99491 13.3476 6.99893C12.9327 5.80829 11.8129 5 10.5272 5C10.3439 5 10.1951 5.14864 10.1951 5.33203C10.1951 5.51543 10.3439 5.66406 10.5272 5.66406C11.4999 5.66406 12.3506 6.25861 12.6933 7.1429C11.8164 7.47571 11.1912 8.3242 11.1912 9.31641C11.1912 9.64857 11.2608 9.97087 11.3941 10.2676C9.47467 10.8671 6.286 13.0288 5.84657 15.3692V15.3692ZM13.5155 12.9509C13.6802 13.3757 13.9031 13.83 14.1778 14.2969H12.8532C13.1279 13.83 13.3509 13.3759 13.5155 12.9509ZM12.4327 14.9609H14.5983C14.9261 15.4437 15.2829 15.8954 15.6466 16.2891H11.3845C11.7482 15.8956 12.105 15.4437 12.4327 14.9609ZM15.4354 18.4805H11.5956C11.4003 18.0051 11.2317 17.4785 11.1059 16.9527H15.925C15.7993 17.4787 15.6307 18.0051 15.4354 18.4805V18.4805ZM13.5155 20.6719C12.9945 20.6719 12.4083 20.1094 11.9034 19.1441H15.1278C14.6227 20.1094 14.0366 20.6719 13.5155 20.6719ZM20.5318 15.4918C20.647 16.1053 20.5047 16.6326 20.1202 17.0169C19.7636 17.3736 19.2788 17.5229 18.7188 17.4482C17.2467 17.2522 15.8733 15.6932 15.0531 14.4465C14.3053 13.3093 13.8546 12.2009 13.8475 11.4816C13.8475 11.4811 13.8475 11.4806 13.8475 11.4801C13.8476 11.4697 13.8476 11.4592 13.8475 11.4488C13.8475 11.4483 13.8475 11.4478 13.8475 11.4472C13.8498 11.2024 13.9065 11.0226 14.0164 10.9128C14.128 10.8009 14.3179 10.7441 14.5688 10.7441C14.7149 10.7441 14.8818 10.7635 15.066 10.8024C15.0662 10.8024 15.0662 10.8024 15.0662 10.8025C16.2637 11.0553 18.0328 12.1122 19.1813 13.2607C19.9316 14.0108 20.3986 14.7823 20.5318 15.4918V15.4918ZM13.5155 7.65625C14.4309 7.65625 15.1756 8.40099 15.1756 9.31641C15.1756 9.59785 15.1061 9.86919 14.9733 10.1117C14.34 10.0183 13.8605 10.1291 13.5467 10.4432C13.536 10.454 13.5257 10.4652 13.5155 10.4763C13.5053 10.4652 13.4951 10.4541 13.4845 10.4434C13.1706 10.1291 12.691 10.0185 12.0578 10.1117C11.925 9.86919 11.8553 9.59785 11.8553 9.31641C11.8553 8.40099 12.6002 7.65625 13.5155 7.65625V7.65625ZM11.965 10.8024C12.1491 10.7633 12.316 10.744 12.4622 10.744C12.713 10.744 12.903 10.8009 13.0148 10.9129C13.1245 11.0226 13.1812 11.2024 13.1836 11.4471V11.4488C13.1834 11.4592 13.1834 11.4697 13.1836 11.4801V11.4816C13.1764 12.2009 12.7257 13.3093 11.978 14.4465C11.161 15.6884 9.78763 17.2517 8.3123 17.4481C7.75212 17.5228 7.26743 17.3736 6.91076 17.0168C6.52646 16.6325 6.38418 16.1051 6.49935 15.4917C6.89961 13.3598 10.2302 11.1688 11.965 10.8024V10.8024Z" fill="white"/>
<path d="M5.84657 15.3692C5.69132 16.1961 5.9026 16.9479 6.44112 17.4863C6.87367 17.919 7.41918 18.1314 8.02358 18.1314C8.78194 18.1314 9.6329 17.7966 10.4682 17.1425C10.8191 18.5965 11.7311 20.9567 13.1834 21.297V21.668C13.1834 21.8514 13.3322 22 13.5155 22C13.6989 22 13.8475 21.8514 13.8475 21.668V21.297C15.3029 20.956 16.2135 18.5897 16.5628 17.1425C17.3982 17.7966 18.249 18.1314 19.0075 18.1314C19.6116 18.1313 20.1574 17.919 20.5897 17.4865C21.1284 16.9479 21.3396 16.1959 21.1843 15.3692C21.0264 14.5276 20.496 13.6362 19.6508 12.7911C18.5332 11.6734 16.9168 10.6674 15.6368 10.2675C15.7703 9.97087 15.8397 9.6487 15.8397 9.31641C15.8397 8.3242 15.2147 7.47571 14.3378 7.1429C14.6804 6.25861 15.5311 5.66406 16.5037 5.66406C16.6871 5.66406 16.8358 5.51543 16.8358 5.33203C16.8358 5.14864 16.6871 5 16.5037 5C15.2182 5 14.0983 5.80829 13.6836 6.99893C13.6279 6.99491 13.572 6.99219 13.5155 6.99219C13.459 6.99219 13.4031 6.99491 13.3476 6.99893C12.9327 5.80829 11.8129 5 10.5272 5C10.3439 5 10.1951 5.14864 10.1951 5.33203C10.1951 5.51543 10.3439 5.66406 10.5272 5.66406C11.4999 5.66406 12.3506 6.25861 12.6933 7.1429C11.8164 7.47571 11.1912 8.3242 11.1912 9.31641C11.1912 9.64857 11.2608 9.97087 11.3941 10.2676C9.47467 10.8671 6.286 13.0288 5.84657 15.3692V15.3692ZM13.5155 12.9509C13.6802 13.3757 13.9031 13.83 14.1778 14.2969H12.8532C13.1279 13.83 13.3509 13.3759 13.5155 12.9509ZM12.4327 14.9609H14.5983C14.9261 15.4437 15.2829 15.8954 15.6466 16.2891H11.3845C11.7482 15.8956 12.105 15.4437 12.4327 14.9609ZM15.4354 18.4805H11.5956C11.4003 18.0051 11.2317 17.4785 11.1059 16.9527H15.925C15.7993 17.4787 15.6307 18.0051 15.4354 18.4805V18.4805ZM13.5155 20.6719C12.9945 20.6719 12.4083 20.1094 11.9034 19.1441H15.1278C14.6227 20.1094 14.0366 20.6719 13.5155 20.6719ZM20.5318 15.4918C20.647 16.1053 20.5047 16.6326 20.1202 17.0169C19.7636 17.3736 19.2788 17.5229 18.7188 17.4482C17.2467 17.2522 15.8733 15.6932 15.0531 14.4465C14.3053 13.3093 13.8546 12.2009 13.8475 11.4816C13.8475 11.4811 13.8475 11.4806 13.8475 11.4801C13.8476 11.4697 13.8476 11.4592 13.8475 11.4488C13.8475 11.4483 13.8475 11.4478 13.8475 11.4472C13.8498 11.2024 13.9065 11.0226 14.0164 10.9128C14.128 10.8009 14.3179 10.7441 14.5688 10.7441C14.7149 10.7441 14.8818 10.7635 15.066 10.8024C15.0662 10.8024 15.0662 10.8024 15.0662 10.8025C16.2637 11.0553 18.0328 12.1122 19.1813 13.2607C19.9316 14.0108 20.3986 14.7823 20.5318 15.4918V15.4918ZM13.5155 7.65625C14.4309 7.65625 15.1756 8.40099 15.1756 9.31641C15.1756 9.59785 15.1061 9.86919 14.9733 10.1117C14.34 10.0183 13.8605 10.1291 13.5467 10.4432C13.536 10.454 13.5257 10.4652 13.5155 10.4763C13.5053 10.4652 13.4951 10.4541 13.4845 10.4434C13.1706 10.1291 12.691 10.0185 12.0578 10.1117C11.925 9.86919 11.8553 9.59785 11.8553 9.31641C11.8553 8.40099 12.6002 7.65625 13.5155 7.65625V7.65625ZM11.965 10.8024C12.1491 10.7633 12.316 10.744 12.4622 10.744C12.713 10.744 12.903 10.8009 13.0148 10.9129C13.1245 11.0226 13.1812 11.2024 13.1836 11.4471V11.4488C13.1834 11.4592 13.1834 11.4697 13.1836 11.4801V11.4816C13.1764 12.2009 12.7257 13.3093 11.978 14.4465C11.161 15.6884 9.78763 17.2517 8.3123 17.4481C7.75212 17.5228 7.26743 17.3736 6.91076 17.0168C6.52646 16.6325 6.38418 16.1051 6.49935 15.4917C6.89961 13.3598 10.2302 11.1688 11.965 10.8024V10.8024Z" stroke="white" stroke-width="0.2" mask="url(#path-5-outside-1_97_239)"/>
<path d="M9.04852 13.9521C9.80674 13.2631 10.8084 12.6229 11.6626 12.2811C11.8329 12.2128 11.9157 12.0196 11.8476 11.8494C11.7793 11.6791 11.5861 11.5964 11.4159 11.6645C10.4931 12.0338 9.41492 12.722 8.60196 13.4605C8.46616 13.5839 8.45618 13.7939 8.57939 13.9295C8.70287 14.0655 8.91298 14.0752 9.04852 13.9521Z" fill="white"/>
<path d="M15.3499 12.2821C16.2093 12.6176 17.218 13.2574 17.9825 13.952C18.1179 14.0751 18.3278 14.0656 18.4514 13.9295C18.5748 13.7939 18.5647 13.5839 18.429 13.4605C17.6085 12.715 16.5213 12.0265 15.5916 11.6634C15.4206 11.5968 15.2281 11.6812 15.1615 11.852C15.0948 12.0228 15.1793 12.2153 15.3499 12.2821V12.2821Z" fill="white"/>
</g>
<rect x="-19.5" y="-254.5" width="66" height="594" rx="4.5" stroke="#7B61FF" stroke-dasharray="10 5"/>
<defs>
<clipPath id="clip0_97_239">
<rect width="17" height="17" fill="white" transform="translate(5 5)"/>
</clipPath>
</defs>
</svg>
