<svg width="27" height="27" viewBox="0 0 27 27" fill="none" xmlns="http://www.w3.org/2000/svg">
<circle cx="13.5" cy="13.5" r="13.5" fill="#3D2859"/>
<g clip-path="url(#clip0_1100_73318)">
<path d="M19.1602 14.9609C19.3436 14.9609 19.4922 14.8122 19.4922 14.6289C19.4922 14.4456 19.3436 14.2969 19.1602 14.2969C18.9769 14.2969 18.8281 14.4456 18.8281 14.6289C18.8281 14.8122 18.9769 14.9609 19.1602 14.9609Z" fill="white"/>
<path d="M7.87109 14.9609C8.05449 14.9609 8.20312 14.8122 8.20312 14.6289C8.20312 14.4456 8.05449 14.2969 7.87109 14.2969C7.68783 14.2969 7.53906 14.4456 7.53906 14.6289C7.53906 14.8122 7.68783 14.9609 7.87109 14.9609Z" fill="white"/>
<path d="M6.40576 17.5217C5.85422 16.9703 5.63951 16.2011 5.79743 15.36C6.02036 14.1727 6.93817 13.0377 8.03337 12.1271C9.10973 11.2322 10.3658 10.5472 11.3261 10.2368C11.2045 9.94786 11.1412 9.63654 11.1412 9.31641C11.1412 8.32065 11.7575 7.46683 12.6282 7.11472C12.2815 6.27514 11.4621 5.71406 10.5272 5.71406C10.3163 5.71406 10.1451 5.54305 10.1451 5.33203C10.1451 5.12101 10.3163 4.95 10.5272 4.95C11.8213 4.95 12.9503 5.75561 13.3821 6.94653C13.426 6.94387 13.4705 6.94219 13.5155 6.94219C13.5606 6.94219 13.6051 6.94387 13.6491 6.94653C14.0807 5.75561 15.2098 4.95 16.5037 4.95C16.7148 4.95 16.8858 5.12102 16.8858 5.33203C16.8858 5.54304 16.7148 5.71406 16.5037 5.71406C15.569 5.71406 14.7495 6.27513 14.4029 7.11472C15.2735 7.46683 15.8897 8.32066 15.8897 9.31641C15.8897 9.63664 15.8266 9.94784 15.7048 10.2366C16.9848 10.65 18.5789 11.6485 19.6861 12.7557C20.5358 13.6052 21.0731 14.5053 21.2335 15.36C21.3914 16.2009 21.1768 16.9702 20.625 17.5218C20.625 17.5218 20.625 17.5218 20.625 17.5218M6.40576 17.5217L16.6061 17.1761C17.4275 17.808 18.2621 18.1314 19.0075 18.1314C19.6116 18.1313 20.1574 17.919 20.5897 17.4865L20.625 17.5218M6.40576 17.5217C6.40576 17.5217 6.40576 17.5217 6.40577 17.5217C6.84818 17.9642 7.40663 18.1814 8.02358 18.1814C8.77768 18.1814 9.61627 17.8568 10.4379 17.2291C10.6174 17.9488 10.9283 18.87 11.3691 19.6617C11.8161 20.4645 12.4034 21.1465 13.1334 21.3362V21.668C13.1334 21.879 13.3046 22.05 13.5155 22.05C13.7265 22.05 13.8975 21.879 13.8975 21.668V21.3362C14.629 21.1462 15.2168 20.4625 15.6636 19.6589C16.1042 18.8665 16.4144 17.9456 16.593 17.2291M6.40576 17.5217L6.44112 17.4863C5.9026 16.9479 5.69132 16.1961 5.84657 15.3692C6.28236 13.0482 9.42202 10.9029 11.3461 10.2828L16.593 17.2291M20.625 17.5218C20.1829 17.9642 19.6241 18.1813 19.0075 18.1814C18.2532 18.1814 17.4148 17.8568 16.593 17.2291M20.625 17.5218L16.593 17.2291M20.0848 16.9816L20.0848 16.9816C19.7407 17.3258 19.2721 17.4716 18.7254 17.3986L18.7254 17.3986C18.0038 17.3026 17.3015 16.8714 16.675 16.3043C16.0492 15.7379 15.5034 15.0401 15.0948 14.4191C14.7224 13.8527 14.4245 13.2942 14.2189 12.7885C14.013 12.2823 13.901 11.8321 13.8975 11.4814V11.4814V11.4814V11.4814V11.4814V11.4814V11.4813V11.4813V11.4813V11.4813V11.4813V11.4813V11.4813V11.4813V11.4813V11.4813V11.4813V11.4812V11.4812V11.4812V11.4812V11.4812V11.4812V11.4812V11.4812V11.4812V11.4812V11.4812V11.4811V11.4811V11.4811V11.4811V11.4811V11.4811V11.4811V11.4811V11.4811V11.4811V11.4811V11.481V11.481V11.481V11.481V11.481V11.481V11.481V11.481V11.481V11.481V11.481V11.4809V11.4809V11.4809V11.4809V11.4809V11.4809V11.4809V11.4809V11.4809V11.4809V11.4809V11.4808V11.4808V11.4808V11.4808V11.4808V11.4808V11.4808V11.4808V11.4808V11.4808V11.4808V11.4807V11.4807V11.4807V11.4807V11.4807V11.4807V11.4807V11.4807V11.4807V11.4807V11.4807V11.4806V11.4806V11.4806V11.4806V11.4806V11.4806V11.4806V11.4806V11.4806V11.4806V11.4806V11.4805V11.4805V11.4805V11.4805V11.4805V11.4805V11.4805V11.4805V11.4805V11.4805V11.4805V11.4804V11.4804V11.4804V11.4804V11.4804V11.4804V11.4804V11.4804V11.4804C13.8976 11.4698 13.8976 11.4591 13.8975 11.4485V11.4485V11.4485V11.4485V11.4485V11.4484V11.4484V11.4484V11.4484V11.4484V11.4484V11.4484V11.4484V11.4484V11.4484V11.4484V11.4483V11.4483V11.4483V11.4483V11.4483V11.4483V11.4483V11.4483V11.4483V11.4483V11.4483V11.4482V11.4482V11.4482V11.4482V11.4482V11.4482V11.4482V11.4482V11.4482V11.4482V11.4482V11.4481V11.4481V11.4481V11.4481V11.4481V11.4481V11.4481V11.4481V11.4481V11.4481V11.4481V11.448V11.448V11.448V11.448V11.448V11.448V11.448V11.448V11.448V11.448V11.448V11.4479V11.4479V11.4479V11.4479V11.4479V11.4479V11.4479V11.4479V11.4479V11.4479V11.4479V11.4478V11.4478V11.4478V11.4478V11.4478V11.4478V11.4478V11.4478V11.4478V11.4478V11.4478V11.4477V11.4477V11.4477V11.4477V11.4477V11.4477V11.4477V11.4477V11.4477V11.4477V11.4476V11.4476V11.4476V11.4476V11.4476V11.4476V11.4476V11.4476V11.4476V11.4476V11.4476V11.4475V11.4475V11.4475V11.4475V11.4475V11.4475V11.4475V11.4475V11.4475V11.4475V11.4475V11.4474V11.4474V11.4474V11.4474C13.8998 11.2085 13.9553 11.0445 14.0517 10.9481L14.0517 10.9481C14.1496 10.8501 14.3233 10.7941 14.5688 10.7941C14.7039 10.7941 14.8585 10.8112 15.0298 10.8459L15.0557 10.8514L15.0555 10.8524H15.0603C15.6508 10.9779 16.3852 11.3018 17.1164 11.7386C17.849 12.1762 18.575 12.7252 19.1459 13.2961L19.1459 13.2961C19.8923 14.0422 20.352 14.8051 20.4827 15.501C20.5953 16.1011 20.4558 16.6108 20.0848 16.9816ZM15.066 10.8524C15.0666 10.8524 15.0663 10.8524 15.0655 10.8524H15.066ZM15.0162 10.803C15.0161 10.8023 15.0162 10.802 15.0162 10.8025V10.803ZM14.9733 10.1117C14.3422 10.0187 13.8638 10.1283 13.55 10.44L12.0578 10.1117C11.925 9.86919 11.8553 9.59785 11.8553 9.31641C11.8553 8.40099 12.6002 7.65625 13.5155 7.65625C14.4309 7.65625 15.1756 8.40099 15.1756 9.31641C15.1756 9.59785 15.1061 9.86919 14.9733 10.1117ZM12.0854 10.0573C11.9672 9.82999 11.9053 9.5778 11.9053 9.31641C11.9053 8.4286 12.6278 7.70625 13.5155 7.70625C14.4033 7.70625 15.1256 8.4286 15.1256 9.31641C15.1256 9.57781 15.0638 9.83 14.9457 10.0573C14.3236 9.97213 13.8389 10.0832 13.5155 10.4037C13.1921 10.0832 12.7073 9.97226 12.0854 10.0573ZM11.9754 10.8513L11.9754 10.8513C12.1569 10.8128 12.3202 10.794 12.4622 10.794C12.7076 10.794 12.8814 10.8501 12.9794 10.9482L12.9795 10.9482C13.0758 11.0445 13.1312 11.2085 13.1336 11.4473V11.4485C13.1334 11.4591 13.1334 11.4698 13.1336 11.4803V11.4814C13.13 11.8321 13.018 12.2823 12.8122 12.7885C12.6066 13.2942 12.3086 13.8527 11.9362 14.4191C11.5293 15.0377 10.9843 15.7354 10.3585 16.3023C9.73192 16.8699 9.0289 17.3022 8.3057 17.3985C7.75883 17.4714 7.29035 17.3258 6.94612 16.9815L6.94612 16.9815C6.57536 16.6107 6.43584 16.1009 6.54849 15.5009C6.74512 14.4536 7.66531 13.3826 8.76252 12.5244C9.85841 11.6672 11.1179 11.0324 11.9754 10.8513ZM12.9403 14.2469C13.1715 13.8469 13.3647 13.4567 13.5155 13.0862C13.6664 13.4566 13.8596 13.8469 14.0908 14.2469H12.9403ZM11.4979 16.2391C11.8313 15.8699 12.1573 15.4535 12.4592 15.0109H14.5719C14.8737 15.4535 15.1998 15.8698 15.5332 16.2391H11.4979ZM11.1695 17.0027H15.8615C15.7409 17.4943 15.5832 17.9844 15.4018 18.4305H11.6292C11.4479 17.9844 11.2902 17.4942 11.1695 17.0027ZM13.5155 20.6219C13.2731 20.6219 13.008 20.4907 12.7379 20.2337C12.4822 19.9906 12.2263 19.639 11.9866 19.1941H15.0446C14.8048 19.639 14.5489 19.9906 14.2932 20.2337C14.023 20.4907 13.7579 20.6219 13.5155 20.6219Z" fill="white" stroke="white" stroke-width="0.1"/>
<path d="M9.04852 13.9521C9.80674 13.2631 10.8084 12.6229 11.6626 12.2811C11.8329 12.2128 11.9157 12.0196 11.8476 11.8494C11.7793 11.6791 11.5861 11.5964 11.4159 11.6645C10.4931 12.0338 9.41492 12.722 8.60196 13.4605C8.46616 13.5839 8.45618 13.7939 8.57939 13.9295C8.70287 14.0655 8.91298 14.0752 9.04852 13.9521Z" fill="white"/>
<path d="M15.3499 12.2821C16.2093 12.6176 17.218 13.2574 17.9825 13.952C18.1179 14.0751 18.3278 14.0656 18.4514 13.9295C18.5748 13.7939 18.5647 13.5839 18.429 13.4605C17.6085 12.715 16.5213 12.0265 15.5916 11.6634C15.4206 11.5968 15.2281 11.6812 15.1615 11.852C15.0948 12.0228 15.1793 12.2153 15.3499 12.2821Z" fill="white"/>
</g>
<defs>
<clipPath id="clip0_1100_73318">
<rect width="17" height="17" fill="white" transform="translate(5 5)"/>
</clipPath>
</defs>
</svg>
