<svg width="44" height="44" viewBox="0 0 44 44" fill="none" xmlns="http://www.w3.org/2000/svg">
<ellipse cx="22" cy="22" rx="22" ry="22" fill="#1C6153"/>
<path fill-rule="evenodd" clip-rule="evenodd" d="M14.8661 14.8661C15.3543 14.378 16.1457 14.378 16.6339 14.8661L22 20.2322L27.3661 14.8661C27.8543 14.378 28.6457 14.378 29.1339 14.8661C29.622 15.3543 29.622 16.1457 29.1339 16.6339L23.7678 22L29.1339 27.3661C29.622 27.8543 29.622 28.6457 29.1339 29.1339C28.6457 29.622 27.8543 29.622 27.3661 29.1339L22 23.7678L16.6339 29.1339C16.1457 29.622 15.3543 29.622 14.8661 29.1339C14.378 28.6457 14.378 27.8543 14.8661 27.3661L20.2322 22L14.8661 16.6339C14.378 16.1457 14.378 15.3543 14.8661 14.8661Z" fill="white"/>
</svg>
