<?xml version="1.0" encoding="utf-8"?>
<!-- Generator: Adobe Illustrator 27.1.1, SVG Export Plug-In . SVG Version: 6.00 Build 0)  -->
<svg version="1.1" id="Layer_1" xmlns="http://www.w3.org/2000/svg" xmlns:xlink="http://www.w3.org/1999/xlink" x="0px" y="0px" viewBox="0 0 21 21" style="enable-background:new 0 0 21 21;" xml:space="preserve">
<path class="st0" d="M16.8,9.3c-0.6,0-1,0.5-1,1.1v7.5c0,0.6-0.5,1-1.1,1H3.2c-0.6,0-1.1-0.5-1.1-1V6.3c0-0.6,0.5-1.1,1.1-1.1h7.5 c0.6,0,1.1-0.5,1.1-1.1s-0.5-1-1.1-1H3.2C1.4,3.2,0,4.6,0,6.3v11.6C0,19.6,1.4,21,3.2,21h11.5c1.7,0,3.2-1.4,3.2-3.1v-7.5 C17.9,9.7,17.4,9.3,16.8,9.3z M20.9,0.7c-0.1-0.3-0.3-0.5-0.6-0.6C20.2,0,20.1,0,20,0h-6.3c-0.6,0-1,0.5-1,1s0.5,1,1,1h3.8L6.6,12.9 c-0.4,0.4-0.4,1.1,0,1.5c0,0,0,0,0,0c0.4,0.4,1.1,0.4,1.5,0c0,0,0,0,0,0L18.9,3.6v3.8c0,0.6,0.5,1,1.1,1c0.6,0,1-0.5,1-1V1 C21,0.9,21,0.8,20.9,0.7z" fill="#fff"/>
</svg>
