<svg width="21" height="17" viewBox="0 0 21 17" fill="none" xmlns="http://www.w3.org/2000/svg">
<path d="M18.1334 16.7856C18.3322 16.7856 18.523 16.7066 18.6636 16.566C18.8042 16.4254 18.8832 16.2347 18.8832 16.0358V13.7039C19.4905 13.541 20.0272 13.1823 20.4099 12.6834C20.7927 12.1845 21.0001 11.5733 21.0001 10.9445C21.0001 10.3157 20.7927 9.70446 20.4099 9.20557C20.0272 8.70667 19.4905 8.34799 18.8832 8.18514V0.769357C18.8832 0.570491 18.8042 0.37977 18.6636 0.23915C18.523 0.0985304 18.3322 0.0195312 18.1334 0.0195312C17.9345 0.0195312 17.7438 0.0985304 17.6032 0.23915C17.4625 0.37977 17.3835 0.570491 17.3835 0.769357V8.19264C16.7762 8.35549 16.2395 8.71417 15.8568 9.21307C15.4741 9.71196 15.2666 10.3232 15.2666 10.952C15.2666 11.5808 15.4741 12.192 15.8568 12.6909C16.2395 13.1898 16.7762 13.5485 17.3835 13.7114V16.0433C17.3855 16.2409 17.4654 16.4297 17.6058 16.5687C17.7462 16.7077 17.9358 16.7857 18.1334 16.7856ZM16.7612 10.9445C16.7612 10.6731 16.8417 10.4078 16.9924 10.1822C17.1432 9.9565 17.3575 9.78063 17.6083 9.67677C17.859 9.57291 18.1349 9.54574 18.4011 9.59868C18.6672 9.65163 18.9117 9.78232 19.1036 9.97422C19.2955 10.1661 19.4262 10.4106 19.4792 10.6768C19.5321 10.943 19.505 11.2189 19.4011 11.4696C19.2972 11.7203 19.1214 11.9346 18.8957 12.0854C18.6701 12.2362 18.4048 12.3167 18.1334 12.3167C17.7694 12.3167 17.4204 12.1721 17.1631 11.9148C16.9058 11.6574 16.7612 11.3084 16.7612 10.9445Z" fill="#3D2859"/>
<path d="M10.5003 16.7865C10.6991 16.7865 10.8898 16.7075 11.0305 16.5668C11.1711 16.4262 11.2501 16.2355 11.2501 16.0366V5.64405C11.9221 5.46229 12.5052 5.04262 12.8909 4.46311C13.2767 3.8836 13.4388 3.18371 13.3471 2.49363C13.2554 1.80354 12.9162 1.17025 12.3925 0.711559C11.8689 0.252866 11.1964 0 10.5003 0C9.80411 0 9.13166 0.252866 8.608 0.711559C8.08434 1.17025 7.74512 1.80354 7.65344 2.49363C7.56176 3.18371 7.72386 3.8836 8.1096 4.46311C8.49533 5.04262 9.07843 5.46229 9.75043 5.64405V16.0366C9.75043 16.2355 9.82943 16.4262 9.97005 16.5668C10.1107 16.7075 10.3014 16.7865 10.5003 16.7865ZM9.12808 2.89219C9.12659 2.62048 9.2058 2.35445 9.35568 2.12781C9.50555 1.90118 9.71933 1.72413 9.96993 1.61913C10.2205 1.51412 10.4967 1.48587 10.7633 1.53797C11.03 1.59006 11.2752 1.72016 11.4679 1.91176C11.6605 2.10336 11.7919 2.34784 11.8455 2.61422C11.8991 2.8806 11.8723 3.15688 11.7687 3.40806C11.6651 3.65923 11.4892 3.87398 11.2634 4.02509C11.0376 4.1762 10.772 4.25687 10.5003 4.25687C10.1376 4.25688 9.78974 4.11334 9.53262 3.85762C9.2755 3.60191 9.13006 3.25481 9.12808 2.89219Z" fill="#3D2859"/>
<path d="M2.11694 11.1619V16.0358C2.11694 16.2347 2.19594 16.4254 2.33656 16.566C2.47718 16.7066 2.6679 16.7856 2.86676 16.7856C3.06563 16.7856 3.25635 16.7066 3.39697 16.566C3.53759 16.4254 3.61659 16.2347 3.61659 16.0358V11.1619C4.22393 10.9991 4.76058 10.6404 5.14333 10.1415C5.52607 9.64262 5.73353 9.03139 5.73353 8.40259C5.73353 7.77379 5.52607 7.16255 5.14333 6.66366C4.76058 6.16476 4.22393 5.80608 3.61659 5.64323V0.769357C3.61659 0.570491 3.53759 0.37977 3.39697 0.23915C3.25635 0.0985304 3.06563 0.0195312 2.86676 0.0195312C2.6679 0.0195312 2.47718 0.0985304 2.33656 0.23915C2.19594 0.37977 2.11694 0.570491 2.11694 0.769357V5.64323C1.50959 5.80608 0.972944 6.16476 0.5902 6.66366C0.207455 7.16255 0 7.77379 0 8.40259C0 9.03139 0.207455 9.64262 0.5902 10.1415C0.972944 10.6404 1.50959 10.9991 2.11694 11.1619ZM2.86676 7.03041C3.13847 7.02892 3.4045 7.10813 3.63114 7.25801C3.85778 7.40788 4.03482 7.62166 4.13983 7.87226C4.24484 8.12286 4.27308 8.39899 4.22099 8.66566C4.16889 8.93233 4.0388 9.17753 3.8472 9.37018C3.65559 9.56284 3.41111 9.69427 3.14473 9.74783C2.87835 9.80139 2.60207 9.77465 2.3509 9.67102C2.09973 9.56739 1.88498 9.39152 1.73387 9.1657C1.58275 8.93989 1.50208 8.6743 1.50208 8.40259C1.50207 8.03996 1.64561 7.69207 1.90133 7.43495C2.15704 7.17783 2.50414 7.03239 2.86676 7.03041Z" fill="#3D2859"/>
</svg>
