<svg width="19" height="7" viewBox="0 0 19 7" fill="none" xmlns="http://www.w3.org/2000/svg">
<path d="M1.152 6C0.917333 6 0.746667 5.94667 0.64 5.84C0.538667 5.728 0.488 5.56533 0.488 5.352C0.488 5.20267 0.52 5.06933 0.584 4.952C0.648 4.83467 0.736 4.72 0.848 4.608L2.248 3.144C2.456 2.92533 2.60267 2.736 2.688 2.576C2.77867 2.41067 2.824 2.248 2.824 2.088C2.824 1.68267 2.56533 1.48 2.048 1.48C1.92 1.48 1.78133 1.49867 1.632 1.536C1.488 1.568 1.336 1.62667 1.176 1.712C1.032 1.78133 0.901333 1.80267 0.784 1.776C0.666667 1.744 0.570667 1.68267 0.496 1.592C0.421333 1.50133 0.373333 1.39733 0.352 1.28C0.336 1.16267 0.354667 1.048 0.408 0.936C0.461333 0.818666 0.557333 0.722666 0.696 0.648C0.941333 0.52 1.19467 0.426666 1.456 0.368C1.72267 0.304 1.98933 0.272 2.256 0.272C2.90667 0.272 3.40267 0.413333 3.744 0.696C4.09067 0.978666 4.264 1.38667 4.264 1.92C4.264 2.26133 4.18667 2.58667 4.032 2.896C3.87733 3.20533 3.61867 3.53867 3.256 3.896L2.344 4.808H3.936C4.34133 4.808 4.544 5.00533 4.544 5.4C4.544 5.8 4.34133 6 3.936 6H1.152ZM7.19688 6.088C6.49821 6.088 5.96488 5.83467 5.59688 5.328C5.22888 4.816 5.04488 4.09333 5.04488 3.16C5.04488 2.22133 5.22888 1.50667 5.59688 1.016C5.96488 0.52 6.49821 0.272 7.19688 0.272C7.89554 0.272 8.42888 0.52 8.79688 1.016C9.16488 1.50667 9.34888 2.21867 9.34888 3.152C9.34888 4.09067 9.16488 4.816 8.79688 5.328C8.42888 5.83467 7.89554 6.088 7.19688 6.088ZM7.19688 4.92C7.45288 4.92 7.64221 4.78133 7.76488 4.504C7.89288 4.22133 7.95688 3.77067 7.95688 3.152C7.95688 2.53867 7.89288 2.10133 7.76488 1.84C7.64221 1.57333 7.45288 1.44 7.19688 1.44C6.94088 1.44 6.74888 1.57333 6.62088 1.84C6.49821 2.10133 6.43688 2.53867 6.43688 3.152C6.43688 3.77067 6.49821 4.22133 6.62088 4.504C6.74888 4.78133 6.94088 4.92 7.19688 4.92ZM10.8498 6C10.4444 6 10.2418 5.8 10.2418 5.4C10.2418 5.00533 10.4444 4.808 10.8498 4.808H11.5698V1.952L11.0818 2.248C10.9431 2.33333 10.8124 2.368 10.6898 2.352C10.5671 2.33067 10.4631 2.27733 10.3778 2.192C10.2924 2.10667 10.2364 2.00267 10.2098 1.88C10.1831 1.75733 10.1938 1.63467 10.2418 1.512C10.2898 1.38933 10.3858 1.28533 10.5298 1.2L11.6338 0.512C11.8738 0.362666 12.1271 0.288 12.3938 0.288C12.5964 0.288 12.7538 0.341333 12.8658 0.448C12.9778 0.549333 13.0338 0.698667 13.0338 0.896V4.808H13.6738C14.0791 4.808 14.2818 5.00533 14.2818 5.4C14.2818 5.8 14.0791 6 13.6738 6H10.8498ZM15.8066 6.072C15.5293 6.072 15.3373 5.984 15.2306 5.808C15.1293 5.62667 15.148 5.41067 15.2866 5.16L17.2706 1.56H15.2546C14.8386 1.56 14.6306 1.36 14.6306 0.96C14.6306 0.56 14.8386 0.36 15.2546 0.36H18.2626C18.46 0.36 18.6226 0.413333 18.7506 0.52C18.884 0.626666 18.9506 0.778666 18.9506 0.976C18.9506 1.14667 18.924 1.296 18.8706 1.424C18.8226 1.54667 18.7613 1.67733 18.6866 1.816L16.6386 5.608C16.5533 5.77333 16.444 5.89333 16.3106 5.968C16.1826 6.03733 16.0146 6.072 15.8066 6.072Z" fill="white"/>
</svg>
