<svg width="27" height="27" viewBox="0 0 27 27" fill="none" xmlns="http://www.w3.org/2000/svg">
<circle cx="13.5" cy="13.5" r="13.5" fill="#BB7551"/>
<path d="M7.888 15.832C8.12267 15.832 8.296 15.88 8.408 15.976C8.52533 16.0667 8.584 16.2107 8.584 16.408C8.584 16.6107 8.52533 16.76 8.408 16.856C8.296 16.952 8.12267 17 7.888 17H4.968C4.776 17 4.624 16.944 4.512 16.832C4.4 16.7147 4.344 16.568 4.344 16.392C4.344 16.1627 4.43467 15.9547 4.616 15.768L6.312 14C6.664 13.632 6.84 13.2933 6.84 12.984C6.84 12.8027 6.78667 12.664 6.68 12.568C6.57867 12.472 6.432 12.424 6.24 12.424C6.08533 12.424 5.94133 12.448 5.808 12.496C5.68 12.5387 5.53067 12.6027 5.36 12.688L5.2 12.768C5.17867 12.7787 5.136 12.8027 5.072 12.84C5.01333 12.872 4.96 12.896 4.912 12.912C4.864 12.928 4.81333 12.936 4.76 12.936C4.62667 12.936 4.51467 12.8773 4.424 12.76C4.33333 12.6373 4.288 12.4933 4.288 12.328C4.288 12.2107 4.304 12.1147 4.336 12.04C4.37333 11.9653 4.44 11.896 4.536 11.832C4.78667 11.6613 5.06667 11.528 5.376 11.432C5.69067 11.336 6 11.288 6.304 11.288C6.69867 11.288 7.04533 11.3547 7.344 11.488C7.64267 11.616 7.872 11.8027 8.032 12.048C8.19733 12.288 8.28 12.5653 8.28 12.88C8.28 13.2053 8.21333 13.504 8.08 13.776C7.952 14.0427 7.73067 14.3413 7.416 14.672L6.28 15.832H7.888ZM11.2047 17.072C10.506 17.072 9.97269 16.824 9.60469 16.328C9.23669 15.832 9.05269 15.1147 9.05269 14.176C9.05269 13.2427 9.23669 12.528 9.60469 12.032C9.97269 11.536 10.506 11.288 11.2047 11.288C11.898 11.288 12.4287 11.536 12.7967 12.032C13.17 12.528 13.3567 13.2427 13.3567 14.176C13.3567 15.1147 13.1727 15.832 12.8047 16.328C12.4367 16.824 11.9034 17.072 11.2047 17.072ZM11.2047 15.96C11.4607 15.96 11.6447 15.8213 11.7567 15.544C11.8687 15.2667 11.9247 14.8107 11.9247 14.176C11.9247 13.5467 11.8687 13.0933 11.7567 12.816C11.6447 12.5387 11.4607 12.4 11.2047 12.4C10.9487 12.4 10.7647 12.5387 10.6527 12.816C10.5407 13.088 10.4847 13.5413 10.4847 14.176C10.4847 14.8107 10.5407 15.2667 10.6527 15.544C10.7647 15.8213 10.9487 15.96 11.2047 15.96ZM17.6976 15.832C17.9376 15.832 18.1136 15.88 18.2256 15.976C18.3376 16.072 18.3936 16.216 18.3936 16.408C18.3936 16.8027 18.1616 17 17.6976 17H14.9216C14.4576 17 14.2256 16.8027 14.2256 16.408C14.2256 16.216 14.2816 16.072 14.3936 15.976C14.5056 15.88 14.6816 15.832 14.9216 15.832H15.5696V12.944L14.9296 13.32C14.8389 13.3733 14.7456 13.4 14.6496 13.4C14.5002 13.4 14.3722 13.336 14.2656 13.208C14.1589 13.0747 14.1056 12.928 14.1056 12.768C14.1056 12.5493 14.1989 12.384 14.3856 12.272L15.6656 11.528C15.9002 11.3947 16.1216 11.328 16.3296 11.328C16.5429 11.328 16.7136 11.392 16.8416 11.52C16.9749 11.648 17.0416 11.8213 17.0416 12.04V15.832H17.6976ZM21.1904 13.312C21.5371 13.312 21.8438 13.3893 22.1104 13.544C22.3824 13.6933 22.5931 13.9067 22.7424 14.184C22.8971 14.456 22.9744 14.7707 22.9744 15.128C22.9744 15.512 22.8838 15.8507 22.7024 16.144C22.5211 16.4373 22.2651 16.664 21.9344 16.824C21.6038 16.984 21.2224 17.064 20.7904 17.064C20.4598 17.064 20.1344 17.016 19.8144 16.92C19.4998 16.824 19.2278 16.6907 18.9984 16.52C18.9131 16.4507 18.8491 16.3787 18.8064 16.304C18.7691 16.224 18.7504 16.1307 18.7504 16.024C18.7504 15.8587 18.7958 15.72 18.8864 15.608C18.9771 15.4907 19.0891 15.432 19.2224 15.432C19.3024 15.432 19.3691 15.4427 19.4224 15.464C19.4758 15.4853 19.5558 15.5253 19.6624 15.584L19.8224 15.664C19.9878 15.744 20.1371 15.808 20.2704 15.856C20.4091 15.904 20.5584 15.928 20.7184 15.928C21.0171 15.928 21.2384 15.8693 21.3824 15.752C21.5264 15.6293 21.5984 15.44 21.5984 15.184C21.5984 14.944 21.5238 14.7573 21.3744 14.624C21.2251 14.4907 21.0171 14.424 20.7504 14.424C20.5904 14.424 20.4438 14.4373 20.3104 14.464C20.1824 14.4907 20.0304 14.5387 19.8544 14.608C19.7424 14.6667 19.6224 14.696 19.4944 14.696C19.3451 14.696 19.2198 14.6533 19.1184 14.568C19.0171 14.4773 18.9664 14.36 18.9664 14.216V12.048C18.9664 11.824 19.0251 11.6533 19.1424 11.536C19.2598 11.4187 19.4278 11.36 19.6464 11.36H22.1264C22.5904 11.36 22.8224 11.544 22.8224 11.912C22.8224 12.2853 22.5904 12.472 22.1264 12.472H20.3984V13.456C20.6224 13.36 20.8864 13.312 21.1904 13.312Z" fill="white"/>
</svg>
