<svg width="27" height="27" viewBox="0 0 27 27" fill="none" xmlns="http://www.w3.org/2000/svg">
<circle cx="13.5" cy="13.5" r="13.5" fill="#C70F46"/>
<path d="M7.888 15.832C8.12267 15.832 8.296 15.88 8.408 15.976C8.52533 16.0667 8.584 16.2107 8.584 16.408C8.584 16.6107 8.52533 16.76 8.408 16.856C8.296 16.952 8.12267 17 7.888 17H4.968C4.776 17 4.624 16.944 4.512 16.832C4.4 16.7147 4.344 16.568 4.344 16.392C4.344 16.1627 4.43467 15.9547 4.616 15.768L6.312 14C6.664 13.632 6.84 13.2933 6.84 12.984C6.84 12.8027 6.78667 12.664 6.68 12.568C6.57867 12.472 6.432 12.424 6.24 12.424C6.08533 12.424 5.94133 12.448 5.808 12.496C5.68 12.5387 5.53067 12.6027 5.36 12.688L5.2 12.768C5.17867 12.7787 5.136 12.8027 5.072 12.84C5.01333 12.872 4.96 12.896 4.912 12.912C4.864 12.928 4.81333 12.936 4.76 12.936C4.62667 12.936 4.51467 12.8773 4.424 12.76C4.33333 12.6373 4.288 12.4933 4.288 12.328C4.288 12.2107 4.304 12.1147 4.336 12.04C4.37333 11.9653 4.44 11.896 4.536 11.832C4.78667 11.6613 5.06667 11.528 5.376 11.432C5.69067 11.336 6 11.288 6.304 11.288C6.69867 11.288 7.04533 11.3547 7.344 11.488C7.64267 11.616 7.872 11.8027 8.032 12.048C8.19733 12.288 8.28 12.5653 8.28 12.88C8.28 13.2053 8.21333 13.504 8.08 13.776C7.952 14.0427 7.73067 14.3413 7.416 14.672L6.28 15.832H7.888ZM11.2047 17.072C10.506 17.072 9.97269 16.824 9.60469 16.328C9.23669 15.832 9.05269 15.1147 9.05269 14.176C9.05269 13.2427 9.23669 12.528 9.60469 12.032C9.97269 11.536 10.506 11.288 11.2047 11.288C11.898 11.288 12.4287 11.536 12.7967 12.032C13.17 12.528 13.3567 13.2427 13.3567 14.176C13.3567 15.1147 13.1727 15.832 12.8047 16.328C12.4367 16.824 11.9034 17.072 11.2047 17.072ZM11.2047 15.96C11.4607 15.96 11.6447 15.8213 11.7567 15.544C11.8687 15.2667 11.9247 14.8107 11.9247 14.176C11.9247 13.5467 11.8687 13.0933 11.7567 12.816C11.6447 12.5387 11.4607 12.4 11.2047 12.4C10.9487 12.4 10.7647 12.5387 10.6527 12.816C10.5407 13.088 10.4847 13.5413 10.4847 14.176C10.4847 14.8107 10.5407 15.2667 10.6527 15.544C10.7647 15.8213 10.9487 15.96 11.2047 15.96ZM17.6976 15.832C17.9376 15.832 18.1136 15.88 18.2256 15.976C18.3376 16.072 18.3936 16.216 18.3936 16.408C18.3936 16.8027 18.1616 17 17.6976 17H14.9216C14.4576 17 14.2256 16.8027 14.2256 16.408C14.2256 16.216 14.2816 16.072 14.3936 15.976C14.5056 15.88 14.6816 15.832 14.9216 15.832H15.5696V12.944L14.9296 13.32C14.8389 13.3733 14.7456 13.4 14.6496 13.4C14.5002 13.4 14.3722 13.336 14.2656 13.208C14.1589 13.0747 14.1056 12.928 14.1056 12.768C14.1056 12.5493 14.1989 12.384 14.3856 12.272L15.6656 11.528C15.9002 11.3947 16.1216 11.328 16.3296 11.328C16.5429 11.328 16.7136 11.392 16.8416 11.52C16.9749 11.648 17.0416 11.8213 17.0416 12.04V15.832H17.6976ZM21.2784 13.288C21.5984 13.288 21.8864 13.368 22.1424 13.528C22.3984 13.6827 22.5984 13.9013 22.7424 14.184C22.8918 14.4613 22.9664 14.776 22.9664 15.128C22.9664 15.5013 22.8811 15.8373 22.7104 16.136C22.5451 16.4293 22.3131 16.6587 22.0144 16.824C21.7158 16.9893 21.3771 17.072 20.9984 17.072C20.2464 17.072 19.6651 16.8267 19.2544 16.336C18.8438 15.8453 18.6384 15.1467 18.6384 14.24C18.6384 13.6427 18.7344 13.1227 18.9264 12.68C19.1238 12.232 19.3984 11.888 19.7504 11.648C20.1078 11.408 20.5238 11.288 20.9984 11.288C21.2971 11.288 21.6011 11.336 21.9104 11.432C22.2251 11.528 22.4944 11.6613 22.7184 11.832C22.8091 11.9013 22.8731 11.9733 22.9104 12.048C22.9531 12.1227 22.9744 12.216 22.9744 12.328C22.9744 12.4933 22.9264 12.6347 22.8304 12.752C22.7398 12.864 22.6278 12.92 22.4944 12.92C22.4198 12.92 22.3531 12.9093 22.2944 12.888C22.2358 12.8613 22.1558 12.8213 22.0544 12.768L21.8784 12.68C21.7024 12.5947 21.5558 12.5307 21.4384 12.488C21.3211 12.4453 21.1984 12.424 21.0704 12.424C20.7984 12.424 20.5771 12.5493 20.4064 12.8C20.2411 13.0453 20.1424 13.392 20.1104 13.84C20.2331 13.6693 20.3958 13.536 20.5984 13.44C20.8064 13.3387 21.0331 13.288 21.2784 13.288ZM20.9104 15.944C21.1184 15.944 21.2838 15.8747 21.4064 15.736C21.5291 15.5973 21.5904 15.4133 21.5904 15.184C21.5904 14.9493 21.5291 14.7653 21.4064 14.632C21.2891 14.4933 21.1238 14.424 20.9104 14.424C20.7024 14.424 20.5344 14.4933 20.4064 14.632C20.2838 14.7707 20.2224 14.9547 20.2224 15.184C20.2224 15.408 20.2864 15.592 20.4144 15.736C20.5424 15.8747 20.7078 15.944 20.9104 15.944Z" fill="white"/>
</svg>
