<svg width="27" height="27" viewBox="0 0 27 27" fill="none" xmlns="http://www.w3.org/2000/svg">
<circle cx="13.5" cy="13.5" r="13.5" fill="#00687F"/>
<g clip-path="url(#clip0_1100_73316)">
<path d="M6.36699 13.4998C6.36699 17.4332 9.56696 20.6332 13.5003 20.6332C17.4337 20.6332 20.6337 17.4332 20.6337 13.4998C20.6337 9.56647 17.4337 6.3665 13.5003 6.3665C9.56696 6.3665 6.36699 9.56647 6.36699 13.4998ZM7.52949 13.4998C7.52949 10.2075 10.208 7.529 13.5003 7.529C16.7927 7.529 19.4712 10.2075 19.4712 13.4998C19.4712 16.7922 16.7927 19.4707 13.5003 19.4707C10.208 19.4707 7.52949 16.7922 7.52949 13.4998Z" fill="white" stroke="white" stroke-width="0.1"/>
<path d="M12.9187 8.01042C12.9187 8.33128 13.1791 8.59167 13.5 8.59167C13.8209 8.59167 14.0812 8.33128 14.0812 8.01042V5.53125C14.0812 5.21039 13.8209 4.95 13.5 4.95C13.1791 4.95 12.9187 5.21039 12.9187 5.53125V8.01042Z" fill="white" stroke="white" stroke-width="0.1"/>
<path d="M18.9893 14.0812H21.4684C21.7893 14.0812 22.0497 13.8209 22.0497 13.5C22.0497 13.1791 21.7893 12.9187 21.4684 12.9187H18.9893C18.6684 12.9187 18.408 13.1791 18.408 13.5C18.408 13.8209 18.6684 14.0812 18.9893 14.0812Z" fill="white" stroke="white" stroke-width="0.1"/>
<path d="M12.9187 21.4689C12.9187 21.7898 13.1791 22.0502 13.5 22.0502C13.8209 22.0502 14.0812 21.7898 14.0812 21.4689V18.9897C14.0812 18.6689 13.8209 18.4085 13.5 18.4085C13.1791 18.4085 12.9187 18.6689 12.9187 18.9897V21.4689Z" fill="white" stroke="white" stroke-width="0.1"/>
<path d="M5.53125 14.0812H8.01042C8.33128 14.0812 8.59167 13.8209 8.59167 13.5C8.59167 13.1791 8.33128 12.9187 8.01042 12.9187H5.53125C5.21039 12.9187 4.95 13.1791 4.95 13.5C4.95 13.8209 5.21039 14.0812 5.53125 14.0812Z" fill="white" stroke="white" stroke-width="0.1"/>
<path d="M11.325 13.5C11.325 14.6992 12.3008 15.675 13.5 15.675C14.6992 15.675 15.675 14.6992 15.675 13.5C15.675 12.3008 14.6992 11.325 13.5 11.325C12.3008 11.325 11.325 12.3008 11.325 13.5ZM12.4875 13.5C12.4875 12.9418 12.9418 12.4875 13.5 12.4875C14.0582 12.4875 14.5125 12.9418 14.5125 13.5C14.5125 14.0582 14.0582 14.5125 13.5 14.5125C12.9418 14.5125 12.4875 14.0582 12.4875 13.5Z" fill="white" stroke="white" stroke-width="0.1"/>
</g>
<defs>
<clipPath id="clip0_1100_73316">
<rect width="17" height="17" fill="white" transform="translate(5 5)"/>
</clipPath>
</defs>
</svg>
