<svg width="27" height="27" viewBox="0 0 27 27" fill="none" xmlns="http://www.w3.org/2000/svg">
<circle cx="13.5" cy="13.5" r="13.5" fill="#FFCE42"/>
<path d="M11.5432 16.027L11.5879 16.0493C11.4704 16.2848 11.2019 16.4034 10.9489 16.3319L11.5432 16.027ZM11.5432 16.027L11.5879 16.0493C12.0644 15.0951 13.0223 14.5025 14.0881 14.5025C14.1147 14.5025 14.1438 14.504 14.1746 14.5056C14.3411 14.5144 14.5603 14.5259 14.7374 14.3144L14.699 14.2823M11.5432 16.027L14.699 14.2823M14.699 14.2823L14.7374 14.3144C15.4082 13.5131 16.3917 13.0536 17.4358 13.0536C19.3755 13.0536 20.9537 14.6318 20.9537 16.5715C20.9537 18.5111 19.3755 20.0891 17.4358 20.0891H10.4281C9.37263 20.0891 8.51383 19.2303 8.51383 18.1748C8.51383 17.1192 9.37263 16.2603 10.4281 16.2603C10.6051 16.2603 10.7803 16.2844 10.9488 16.3319L14.699 14.2823ZM10.4281 21.1852H17.4358C19.98 21.1852 22.0498 19.1156 22.0498 16.5715C22.0498 14.0273 19.98 11.9575 17.4358 11.9575C16.9375 11.9575 16.4499 12.0375 15.9885 12.1896C15.5563 10.547 14.0575 9.34648 12.2976 9.34648C10.1929 9.34648 8.48067 11.0587 8.48067 13.1633C8.48067 13.9876 8.74207 14.7721 9.21728 15.4187C8.15875 15.8857 7.41777 16.9452 7.41777 18.1749C7.41774 19.8348 8.76815 21.1852 10.4281 21.1852ZM12.2975 10.4425C13.6227 10.4425 14.7399 11.3973 14.9729 12.6693C14.6479 12.8746 14.3471 13.1214 14.0785 13.4063C12.7419 13.4096 11.5278 14.0825 10.8177 15.1893C10.6976 15.1737 10.5764 15.1654 10.4548 15.1644C9.89453 14.6496 9.57673 13.9308 9.57673 13.1633C9.57673 11.6632 10.7973 10.4425 12.2975 10.4425Z" fill="white" stroke="white" stroke-width="0.1"/>
<path d="M7.10357 8.74096L7.10357 8.74096C6.8896 8.52689 6.88972 8.17987 7.10378 7.96591C7.31781 7.75196 7.66483 7.75195 7.87883 7.9661C7.87883 7.9661 7.87883 7.9661 7.87883 7.9661L9.05678 9.14464C9.27074 9.35871 9.27063 9.70573 9.05656 9.91969L7.10357 8.74096ZM7.10357 8.74096L8.28151 9.91947M7.10357 8.74096L8.28151 9.91947M8.28151 9.91947C8.28151 9.91947 8.28151 9.91947 8.28151 9.91947M8.28151 9.91947L8.28151 9.91947M8.28151 9.91947C8.49536 10.1335 8.84241 10.1338 9.05656 9.91969L8.28151 9.91947Z" fill="white" stroke="white" stroke-width="0.1"/>
<path d="M15.5391 9.14463L16.7171 7.96613C16.7171 7.96613 16.7171 7.96613 16.7171 7.96612C16.931 7.75203 17.278 7.75188 17.4921 7.96591L15.5391 9.14463ZM15.5391 9.14463C15.5391 9.14463 15.5391 9.14464 15.5391 9.14464L15.5391 9.14463ZM16.3144 9.91946L17.4923 8.74096L15.5393 9.91968C15.5393 9.91968 15.5393 9.91968 15.5393 9.91969C15.7533 10.1336 16.1004 10.1336 16.3144 9.91947C16.3144 9.91947 16.3144 9.91947 16.3144 9.91946Z" fill="white" stroke="white" stroke-width="0.1"/>
<path d="M5.49805 13.7111H7.16431C7.46698 13.7111 7.71236 13.4658 7.71236 13.1631C7.71236 12.8604 7.46698 12.615 7.16431 12.615H5.49805C5.19538 12.615 4.95 12.8604 4.95 13.1631C4.95 13.4658 5.19538 13.7111 5.49805 13.7111Z" fill="white" stroke="white" stroke-width="0.1"/>
<path d="M11.7498 6.36328V8.02955C11.7498 8.33222 11.9952 8.57759 12.2979 8.57759C12.6005 8.57759 12.8459 8.33222 12.8459 8.02955V6.36328C12.8459 6.06061 12.6005 5.81523 12.2979 5.81523C11.9952 5.81523 11.7498 6.06058 11.7498 6.36328Z" fill="white" stroke="white" stroke-width="0.1"/>
</svg>
