<svg width="27" height="27" viewBox="0 0 27 27" fill="none" xmlns="http://www.w3.org/2000/svg">
<circle cx="13.5" cy="13.5" r="13.5" fill="#FFCE42"/>
<mask id="path-2-outside-1_1100_73315" maskUnits="userSpaceOnUse" x="6.46777" y="8.39648" width="16" height="13" fill="black">
<rect fill="white" x="6.46777" y="8.39648" width="16" height="13"/>
<path d="M10.4281 21.1352H17.4358C19.9524 21.1352 21.9998 19.0879 21.9998 16.5715C21.9998 14.0549 19.9524 12.0075 17.4358 12.0075C16.9246 12.0075 16.4247 12.0926 15.9534 12.2542C15.545 10.6066 14.0529 9.39648 12.2976 9.39648C10.2205 9.39648 8.53067 11.0863 8.53067 13.1633C8.53067 13.9985 8.80254 14.7922 9.29537 15.4397C8.22348 15.8853 7.46777 16.9435 7.46777 18.1749C7.46774 19.8072 8.79577 21.1352 10.4281 21.1352ZM12.2975 10.3925C13.6587 10.3925 14.8043 11.3816 15.028 12.6937C14.6897 12.9041 14.3773 13.1595 14.1002 13.4564C14.0961 13.4563 14.0922 13.4563 14.0881 13.4563C12.7541 13.4563 11.5429 14.132 10.8427 15.2431C10.7081 15.2242 10.572 15.2146 10.4353 15.2143C9.85584 14.6892 9.52673 13.9514 9.52673 13.1633C9.52673 11.6355 10.7697 10.3925 12.2975 10.3925V10.3925ZM10.4281 16.2103C10.6096 16.2103 10.7894 16.235 10.9624 16.2838C11.1923 16.3488 11.4363 16.2409 11.5432 16.027C12.0281 15.0558 13.0033 14.4525 14.0881 14.4525C14.2731 14.4525 14.5082 14.5102 14.699 14.2823C15.3794 13.4696 16.3769 13.0036 17.4358 13.0036C19.4031 13.0036 21.0037 14.6042 21.0037 16.5715C21.0037 18.5387 19.4031 20.1391 17.4358 20.1391H10.4281C9.34501 20.1391 8.46383 19.2579 8.46383 18.1748C8.46383 17.0916 9.34501 16.2103 10.4281 16.2103V16.2103Z"/>
</mask>
<path d="M10.4281 21.1352H17.4358C19.9524 21.1352 21.9998 19.0879 21.9998 16.5715C21.9998 14.0549 19.9524 12.0075 17.4358 12.0075C16.9246 12.0075 16.4247 12.0926 15.9534 12.2542C15.545 10.6066 14.0529 9.39648 12.2976 9.39648C10.2205 9.39648 8.53067 11.0863 8.53067 13.1633C8.53067 13.9985 8.80254 14.7922 9.29537 15.4397C8.22348 15.8853 7.46777 16.9435 7.46777 18.1749C7.46774 19.8072 8.79577 21.1352 10.4281 21.1352ZM12.2975 10.3925C13.6587 10.3925 14.8043 11.3816 15.028 12.6937C14.6897 12.9041 14.3773 13.1595 14.1002 13.4564C14.0961 13.4563 14.0922 13.4563 14.0881 13.4563C12.7541 13.4563 11.5429 14.132 10.8427 15.2431C10.7081 15.2242 10.572 15.2146 10.4353 15.2143C9.85584 14.6892 9.52673 13.9514 9.52673 13.1633C9.52673 11.6355 10.7697 10.3925 12.2975 10.3925V10.3925ZM10.4281 16.2103C10.6096 16.2103 10.7894 16.235 10.9624 16.2838C11.1923 16.3488 11.4363 16.2409 11.5432 16.027C12.0281 15.0558 13.0033 14.4525 14.0881 14.4525C14.2731 14.4525 14.5082 14.5102 14.699 14.2823C15.3794 13.4696 16.3769 13.0036 17.4358 13.0036C19.4031 13.0036 21.0037 14.6042 21.0037 16.5715C21.0037 18.5387 19.4031 20.1391 17.4358 20.1391H10.4281C9.34501 20.1391 8.46383 19.2579 8.46383 18.1748C8.46383 17.0916 9.34501 16.2103 10.4281 16.2103V16.2103Z" fill="white"/>
<path d="M10.4281 21.1352H17.4358C19.9524 21.1352 21.9998 19.0879 21.9998 16.5715C21.9998 14.0549 19.9524 12.0075 17.4358 12.0075C16.9246 12.0075 16.4247 12.0926 15.9534 12.2542C15.545 10.6066 14.0529 9.39648 12.2976 9.39648C10.2205 9.39648 8.53067 11.0863 8.53067 13.1633C8.53067 13.9985 8.80254 14.7922 9.29537 15.4397C8.22348 15.8853 7.46777 16.9435 7.46777 18.1749C7.46774 19.8072 8.79577 21.1352 10.4281 21.1352ZM12.2975 10.3925C13.6587 10.3925 14.8043 11.3816 15.028 12.6937C14.6897 12.9041 14.3773 13.1595 14.1002 13.4564C14.0961 13.4563 14.0922 13.4563 14.0881 13.4563C12.7541 13.4563 11.5429 14.132 10.8427 15.2431C10.7081 15.2242 10.572 15.2146 10.4353 15.2143C9.85584 14.6892 9.52673 13.9514 9.52673 13.1633C9.52673 11.6355 10.7697 10.3925 12.2975 10.3925V10.3925ZM10.4281 16.2103C10.6096 16.2103 10.7894 16.235 10.9624 16.2838C11.1923 16.3488 11.4363 16.2409 11.5432 16.027C12.0281 15.0558 13.0033 14.4525 14.0881 14.4525C14.2731 14.4525 14.5082 14.5102 14.699 14.2823C15.3794 13.4696 16.3769 13.0036 17.4358 13.0036C19.4031 13.0036 21.0037 14.6042 21.0037 16.5715C21.0037 18.5387 19.4031 20.1391 17.4358 20.1391H10.4281C9.34501 20.1391 8.46383 19.2579 8.46383 18.1748C8.46383 17.0916 9.34501 16.2103 10.4281 16.2103V16.2103Z" stroke="white" stroke-width="0.2" mask="url(#path-2-outside-1_1100_73315)"/>
<mask id="path-3-outside-2_1100_73315" maskUnits="userSpaceOnUse" x="5.99316" y="6.85547" width="4" height="4" fill="black">
<rect fill="white" x="5.99316" y="6.85547" width="4" height="4"/>
<path d="M7.13913 8.00128C6.94459 8.19571 6.94449 8.51108 7.13893 8.70561L8.31688 9.88413C8.51122 10.0786 8.82661 10.0789 9.02122 9.88433C9.21575 9.68989 9.21585 9.37452 9.02141 9.17999L7.84347 8.00144C7.649 7.80684 7.33363 7.80684 7.13913 8.00128V8.00128Z"/>
</mask>
<path d="M7.13913 8.00128C6.94459 8.19571 6.94449 8.51108 7.13893 8.70561L8.31688 9.88413C8.51122 10.0786 8.82661 10.0789 9.02122 9.88433C9.21575 9.68989 9.21585 9.37452 9.02141 9.17999L7.84347 8.00144C7.649 7.80684 7.33363 7.80684 7.13913 8.00128V8.00128Z" fill="white"/>
<path d="M7.13913 8.00128C6.94459 8.19571 6.94449 8.51108 7.13893 8.70561L8.31688 9.88413C8.51122 10.0786 8.82661 10.0789 9.02122 9.88433C9.21575 9.68989 9.21585 9.37452 9.02141 9.17999L7.84347 8.00144C7.649 7.80684 7.33363 7.80684 7.13913 8.00128V8.00128Z" stroke="white" stroke-width="0.2" mask="url(#path-3-outside-2_1100_73315)"/>
<mask id="path-4-outside-3_1100_73315" maskUnits="userSpaceOnUse" x="14.4287" y="6.85547" width="4" height="4" fill="black">
<rect fill="white" x="14.4287" y="6.85547" width="4" height="4"/>
<path d="M16.7524 8.00147L15.5745 9.17998C15.3801 9.37449 15.3801 9.68985 15.5747 9.88432C15.7692 10.0787 16.0846 10.0787 16.279 9.88412L17.457 8.70561C17.6514 8.51111 17.6513 8.19574 17.4568 8.00127C17.2622 7.80677 16.9469 7.8069 16.7524 8.00147Z"/>
</mask>
<path d="M16.7524 8.00147L15.5745 9.17998C15.3801 9.37449 15.3801 9.68985 15.5747 9.88432C15.7692 10.0787 16.0846 10.0787 16.279 9.88412L17.457 8.70561C17.6514 8.51111 17.6513 8.19574 17.4568 8.00127C17.2622 7.80677 16.9469 7.8069 16.7524 8.00147Z" fill="white"/>
<path d="M16.7524 8.00147L15.5745 9.17998C15.3801 9.37449 15.3801 9.68985 15.5747 9.88432C15.7692 10.0787 16.0846 10.0787 16.279 9.88412L17.457 8.70561C17.6514 8.51111 17.6513 8.19574 17.4568 8.00127C17.2622 7.80677 16.9469 7.8069 16.7524 8.00147Z" stroke="white" stroke-width="0.2" mask="url(#path-4-outside-3_1100_73315)"/>
<mask id="path-5-outside-4_1100_73315" maskUnits="userSpaceOnUse" x="4" y="11.665" width="4" height="3" fill="black">
<rect fill="white" x="4" y="11.665" width="4" height="3"/>
<path d="M5.49805 13.6611H7.16431C7.43937 13.6611 7.66236 13.4381 7.66236 13.1631C7.66236 12.888 7.43937 12.665 7.16431 12.665H5.49805C5.22299 12.665 5 12.888 5 13.1631C5 13.4381 5.22299 13.6611 5.49805 13.6611Z"/>
</mask>
<path d="M5.49805 13.6611H7.16431C7.43937 13.6611 7.66236 13.4381 7.66236 13.1631C7.66236 12.888 7.43937 12.665 7.16431 12.665H5.49805C5.22299 12.665 5 12.888 5 13.1631C5 13.4381 5.22299 13.6611 5.49805 13.6611Z" fill="white"/>
<path d="M5.49805 13.6611H7.16431C7.43937 13.6611 7.66236 13.4381 7.66236 13.1631C7.66236 12.888 7.43937 12.665 7.16431 12.665H5.49805C5.22299 12.665 5 12.888 5 13.1631C5 13.4381 5.22299 13.6611 5.49805 13.6611Z" stroke="white" stroke-width="0.2" mask="url(#path-5-outside-4_1100_73315)"/>
<mask id="path-6-outside-5_1100_73315" maskUnits="userSpaceOnUse" x="10.7998" y="4.86523" width="3" height="4" fill="black">
<rect fill="white" x="10.7998" y="4.86523" width="3" height="4"/>
<path d="M11.7998 6.36328V8.02955C11.7998 8.3046 12.0228 8.52759 12.2979 8.52759C12.5729 8.52759 12.7959 8.3046 12.7959 8.02955V6.36328C12.7959 6.08823 12.5729 5.86523 12.2979 5.86523C12.0228 5.86523 11.7998 6.08819 11.7998 6.36328Z"/>
</mask>
<path d="M11.7998 6.36328V8.02955C11.7998 8.3046 12.0228 8.52759 12.2979 8.52759C12.5729 8.52759 12.7959 8.3046 12.7959 8.02955V6.36328C12.7959 6.08823 12.5729 5.86523 12.2979 5.86523C12.0228 5.86523 11.7998 6.08819 11.7998 6.36328Z" fill="white"/>
<path d="M11.7998 6.36328V8.02955C11.7998 8.3046 12.0228 8.52759 12.2979 8.52759C12.5729 8.52759 12.7959 8.3046 12.7959 8.02955V6.36328C12.7959 6.08823 12.5729 5.86523 12.2979 5.86523C12.0228 5.86523 11.7998 6.08819 11.7998 6.36328Z" stroke="white" stroke-width="0.2" mask="url(#path-6-outside-5_1100_73315)"/>
</svg>
