<svg width="27" height="27" viewBox="0 0 27 27" fill="none" xmlns="http://www.w3.org/2000/svg">
<circle cx="13.5" cy="13.5" r="13.5" fill="#85CDDB"/>
<g clip-path="url(#clip0_1100_73317)">
<path d="M10.7672 17.9012C11.5349 17.9012 12.2838 17.713 12.9523 17.3603V22V22.05H13.0023H13.9984H14.0484V22V17.3603C14.717 17.713 15.4659 17.9012 16.2336 17.9012C18.8171 17.9012 20.9189 15.7994 20.9189 13.2159C20.919 11.3572 19.813 9.67741 18.1332 8.93202C17.9763 7.88976 17.4725 6.93204 16.6929 6.206C15.8233 5.39609 14.6894 4.95 13.5004 4.95C12.3114 4.95 11.1776 5.39609 10.3079 6.206C9.52836 6.93204 9.02461 7.88976 8.8676 8.93201C7.18782 9.67744 6.08184 11.3572 6.08184 13.2159C6.08184 15.7994 8.18363 17.9012 10.7672 17.9012ZM15.7455 10.9405L14.0485 11.8328V9.9549V9.9049H13.9985H13.0024H12.9524V9.9549V14.0406L11.2554 13.1483L11.2111 13.125L11.1878 13.1693L10.7243 14.0509L10.701 14.0952L10.7453 14.1185L12.9524 15.279V16.0629C12.3275 16.543 11.5605 16.8051 10.7672 16.8051C8.78814 16.8051 7.178 15.1949 7.178 13.2159C7.178 11.7026 8.13512 10.3439 9.55952 9.83504L9.86419 9.7262L9.89478 9.71527L9.89722 9.68288L9.92159 9.36028C9.98964 8.46082 10.3921 7.62551 11.055 7.00812C11.7211 6.38772 12.5895 6.04609 13.5004 6.04609C14.4113 6.04609 15.2798 6.38772 15.9459 7.00809C16.6088 7.62547 17.0113 8.46075 17.0793 9.36025L17.1037 9.68285L17.1061 9.71524L17.1367 9.72617L17.4414 9.83501C18.8658 10.3439 19.8229 11.7026 19.8229 13.2158C19.8229 15.1949 18.2127 16.8051 16.2337 16.8051C15.4404 16.8051 14.6734 16.543 14.0485 16.0629V13.0712L16.2556 11.9107L16.2999 11.8874L16.2766 11.8432L15.813 10.9615L15.7898 10.9173L15.7455 10.9405Z" fill="white" stroke="white" stroke-width="0.1"/>
</g>
<defs>
<clipPath id="clip0_1100_73317">
<rect width="17" height="18" fill="white" transform="translate(5 4)"/>
</clipPath>
</defs>
</svg>
