<svg width="27" height="27" viewBox="0 0 27 27" fill="none" xmlns="http://www.w3.org/2000/svg">
<circle cx="13.5" cy="13.5" r="13.5" fill="#F5BAC7"/>
<path d="M20.5694 6.91833C20.5619 6.79142 20.5082 6.67165 20.4183 6.58176L20.5194 6.92125M20.5694 6.91833L20.5194 6.92125M20.5694 6.91833C20.5694 6.91832 20.5694 6.91832 20.5694 6.91831L20.5194 6.92125M20.5694 6.91833C20.5774 7.05594 20.6651 8.72985 20.3107 10.8099C19.9565 12.889 19.1595 15.3813 17.3926 17.1482M20.5194 6.92125C20.5354 7.19218 20.8696 13.6005 17.3573 17.1128M17.3926 17.1482C17.3926 17.1482 17.3926 17.1482 17.3926 17.1482L17.3573 17.1128M17.3926 17.1482C16.4509 18.0905 15.1904 18.6459 13.8594 18.7049C12.5438 18.7632 11.2537 18.3321 10.2377 17.4959M17.3926 17.1482L17.3573 17.1128M17.3573 17.1128L10.2377 17.4959M10.2377 17.4959L10.2699 17.4636L10.2346 17.4283L10.2025 17.4666C10.2142 17.4764 10.2259 17.4862 10.2377 17.4959ZM10.2377 17.4959L7.30477 20.4288L7.26881 20.3941L7.30416 20.4294L7.30446 20.4291C7.25667 20.4785 7.19954 20.5179 7.13639 20.5451C7.0731 20.5722 7.00503 20.5865 6.93615 20.5871C6.86727 20.5877 6.79896 20.5746 6.73521 20.5485C6.67146 20.5225 6.61354 20.4839 6.56483 20.4352C6.51612 20.3865 6.4776 20.3286 6.45152 20.2649C6.42544 20.2011 6.41231 20.1328 6.41291 20.0639C6.41351 19.995 6.42782 19.927 6.45501 19.8637C6.48214 19.8005 6.52155 19.7434 6.57094 19.6956C6.57105 19.6955 6.57115 19.6954 6.57126 19.6953L9.50417 16.7647C8.66728 15.7485 8.23583 14.458 8.29411 13.1418C8.35306 11.8103 8.90888 10.5492 9.85191 9.60743C11.6186 7.84053 14.111 7.04351 16.1902 6.68932C18.2703 6.33496 19.9443 6.42261 20.0817 6.43071C20.0817 6.43071 20.0817 6.43071 20.0818 6.43071L20.0788 6.48062L10.2377 17.4959ZM13.3459 14.3877L13.8667 13.8669L17.1479 10.5857L17.1485 10.585C17.243 10.4872 17.2953 10.3562 17.2941 10.2202C17.2929 10.0841 17.2384 9.95403 17.1422 9.85785C17.046 9.76167 16.9159 9.70711 16.7799 9.70593C16.6439 9.70475 16.5129 9.75704 16.415 9.85153L16.4144 9.85214L14.0187 12.2479V10.6877C14.0187 10.5501 13.964 10.4181 13.8667 10.3208C13.7694 10.2236 13.6375 10.1689 13.4999 10.1689C13.3623 10.1689 13.2304 10.2236 13.1331 10.3208C13.0358 10.4181 12.9812 10.5501 12.9812 10.6877V13.2854L11.7269 14.5396L10.2417 16.0248C9.6023 15.2066 9.2802 14.1839 9.33622 13.1457C9.39325 12.0889 9.83803 11.0903 10.5854 10.341C11.9349 8.99146 13.8172 8.26637 15.5501 7.88072C17.2444 7.50366 18.7904 7.45223 19.5439 7.45606C19.5457 8.20731 19.4943 9.75328 19.1178 11.448C18.7326 13.1816 18.0086 15.0651 16.6591 16.4146C15.9098 17.162 14.9112 17.6068 13.8544 17.6638C12.8162 17.7199 11.7935 17.3978 10.9753 16.7583L12.3084 15.4252H14.9062C15.0437 15.4252 15.1757 15.3705 15.273 15.2732C15.3703 15.1759 15.4249 15.044 15.4249 14.9064C15.4249 14.7688 15.3703 14.6369 15.273 14.5396C15.1757 14.4423 15.0437 14.3877 14.9062 14.3877H13.3459Z" fill="white" stroke="white" stroke-width="0.1"/>
</svg>
