<svg width="27" height="27" viewBox="0 0 27 27" fill="none" xmlns="http://www.w3.org/2000/svg">
<circle cx="13.5" cy="13.5" r="13.5" fill="#F5BAC7"/>
<mask id="path-2-outside-1_1100_73314" maskUnits="userSpaceOnUse" x="5.46289" y="5.46533" width="16" height="16" fill="black">
<rect fill="white" x="5.46289" y="5.46533" width="16" height="16"/>
<path d="M20.5194 6.92125C20.5127 6.80657 20.4642 6.69834 20.3829 6.61712C20.3017 6.53589 20.1935 6.48732 20.0788 6.48062C19.8083 6.46468 13.3991 6.13046 9.88725 9.64281C8.95306 10.5758 8.40246 11.825 8.34406 13.144C8.28566 14.463 8.7237 15.7559 9.57178 16.7678L6.60599 19.7313C6.56122 19.7745 6.52551 19.8262 6.50095 19.8834C6.47638 19.9406 6.46345 20.0021 6.46291 20.0643C6.46237 20.1266 6.47423 20.1883 6.4978 20.2459C6.52137 20.3035 6.55617 20.3559 6.60018 20.3999C6.6442 20.4439 6.69653 20.4787 6.75414 20.5023C6.81175 20.5258 6.87347 20.5377 6.93571 20.5372C6.99795 20.5366 7.05946 20.5237 7.11665 20.4991C7.17384 20.4745 7.22557 20.4388 7.26881 20.3941L10.2346 17.4283C11.2463 18.2757 12.5388 18.7133 13.8572 18.6549C15.1757 18.5965 16.4244 18.0463 17.3573 17.1128C20.8696 13.6005 20.5354 7.19218 20.5194 6.92125ZM16.6944 16.45C15.9364 17.2061 14.9262 17.6561 13.8571 17.7138C12.788 17.7715 11.7352 17.4328 10.9002 16.7627L12.2877 15.3752H14.9062C15.0305 15.3752 15.1497 15.3258 15.2376 15.2379C15.3255 15.15 15.3749 15.0307 15.3749 14.9064C15.3749 14.7821 15.3255 14.6629 15.2376 14.5749C15.1497 14.487 15.0305 14.4377 14.9062 14.4377H13.2252L13.8313 13.8316L17.1126 10.5503C17.1979 10.4619 17.2452 10.3435 17.2441 10.2206C17.2431 10.0977 17.1938 9.98012 17.1069 9.89321C17.0199 9.8063 16.9024 9.757 16.7795 9.75593C16.6566 9.75486 16.5382 9.80211 16.4497 9.8875L13.9687 12.3686V10.6877C13.9687 10.5633 13.9193 10.4441 13.8314 10.3562C13.7435 10.2683 13.6242 10.2189 13.4999 10.2189C13.3756 10.2189 13.2564 10.2683 13.1684 10.3562C13.0805 10.4441 13.0312 10.5633 13.0312 10.6877V13.3061L11.7622 14.575L10.2374 16.0998C9.56725 15.2649 9.22861 14.2121 9.28629 13.143C9.34398 12.0739 9.79395 11.0636 10.5501 10.3056C13.2683 7.58734 18.1218 7.39375 19.5937 7.4064C19.6021 8.87312 19.4127 13.7317 16.6944 16.45Z"/>
</mask>
<path d="M20.5194 6.92125C20.5127 6.80657 20.4642 6.69834 20.3829 6.61712C20.3017 6.53589 20.1935 6.48732 20.0788 6.48062C19.8083 6.46468 13.3991 6.13046 9.88725 9.64281C8.95306 10.5758 8.40246 11.825 8.34406 13.144C8.28566 14.463 8.7237 15.7559 9.57178 16.7678L6.60599 19.7313C6.56122 19.7745 6.52551 19.8262 6.50095 19.8834C6.47638 19.9406 6.46345 20.0021 6.46291 20.0643C6.46237 20.1266 6.47423 20.1883 6.4978 20.2459C6.52137 20.3035 6.55617 20.3559 6.60018 20.3999C6.6442 20.4439 6.69653 20.4787 6.75414 20.5023C6.81175 20.5258 6.87347 20.5377 6.93571 20.5372C6.99795 20.5366 7.05946 20.5237 7.11665 20.4991C7.17384 20.4745 7.22557 20.4388 7.26881 20.3941L10.2346 17.4283C11.2463 18.2757 12.5388 18.7133 13.8572 18.6549C15.1757 18.5965 16.4244 18.0463 17.3573 17.1128C20.8696 13.6005 20.5354 7.19218 20.5194 6.92125ZM16.6944 16.45C15.9364 17.2061 14.9262 17.6561 13.8571 17.7138C12.788 17.7715 11.7352 17.4328 10.9002 16.7627L12.2877 15.3752H14.9062C15.0305 15.3752 15.1497 15.3258 15.2376 15.2379C15.3255 15.15 15.3749 15.0307 15.3749 14.9064C15.3749 14.7821 15.3255 14.6629 15.2376 14.5749C15.1497 14.487 15.0305 14.4377 14.9062 14.4377H13.2252L13.8313 13.8316L17.1126 10.5503C17.1979 10.4619 17.2452 10.3435 17.2441 10.2206C17.2431 10.0977 17.1938 9.98012 17.1069 9.89321C17.0199 9.8063 16.9024 9.757 16.7795 9.75593C16.6566 9.75486 16.5382 9.80211 16.4497 9.8875L13.9687 12.3686V10.6877C13.9687 10.5633 13.9193 10.4441 13.8314 10.3562C13.7435 10.2683 13.6242 10.2189 13.4999 10.2189C13.3756 10.2189 13.2564 10.2683 13.1684 10.3562C13.0805 10.4441 13.0312 10.5633 13.0312 10.6877V13.3061L11.7622 14.575L10.2374 16.0998C9.56725 15.2649 9.22861 14.2121 9.28629 13.143C9.34398 12.0739 9.79395 11.0636 10.5501 10.3056C13.2683 7.58734 18.1218 7.39375 19.5937 7.4064C19.6021 8.87312 19.4127 13.7317 16.6944 16.45Z" fill="white"/>
<path d="M20.5194 6.92125C20.5127 6.80657 20.4642 6.69834 20.3829 6.61712C20.3017 6.53589 20.1935 6.48732 20.0788 6.48062C19.8083 6.46468 13.3991 6.13046 9.88725 9.64281C8.95306 10.5758 8.40246 11.825 8.34406 13.144C8.28566 14.463 8.7237 15.7559 9.57178 16.7678L6.60599 19.7313C6.56122 19.7745 6.52551 19.8262 6.50095 19.8834C6.47638 19.9406 6.46345 20.0021 6.46291 20.0643C6.46237 20.1266 6.47423 20.1883 6.4978 20.2459C6.52137 20.3035 6.55617 20.3559 6.60018 20.3999C6.6442 20.4439 6.69653 20.4787 6.75414 20.5023C6.81175 20.5258 6.87347 20.5377 6.93571 20.5372C6.99795 20.5366 7.05946 20.5237 7.11665 20.4991C7.17384 20.4745 7.22557 20.4388 7.26881 20.3941L10.2346 17.4283C11.2463 18.2757 12.5388 18.7133 13.8572 18.6549C15.1757 18.5965 16.4244 18.0463 17.3573 17.1128C20.8696 13.6005 20.5354 7.19218 20.5194 6.92125ZM16.6944 16.45C15.9364 17.2061 14.9262 17.6561 13.8571 17.7138C12.788 17.7715 11.7352 17.4328 10.9002 16.7627L12.2877 15.3752H14.9062C15.0305 15.3752 15.1497 15.3258 15.2376 15.2379C15.3255 15.15 15.3749 15.0307 15.3749 14.9064C15.3749 14.7821 15.3255 14.6629 15.2376 14.5749C15.1497 14.487 15.0305 14.4377 14.9062 14.4377H13.2252L13.8313 13.8316L17.1126 10.5503C17.1979 10.4619 17.2452 10.3435 17.2441 10.2206C17.2431 10.0977 17.1938 9.98012 17.1069 9.89321C17.0199 9.8063 16.9024 9.757 16.7795 9.75593C16.6566 9.75486 16.5382 9.80211 16.4497 9.8875L13.9687 12.3686V10.6877C13.9687 10.5633 13.9193 10.4441 13.8314 10.3562C13.7435 10.2683 13.6242 10.2189 13.4999 10.2189C13.3756 10.2189 13.2564 10.2683 13.1684 10.3562C13.0805 10.4441 13.0312 10.5633 13.0312 10.6877V13.3061L11.7622 14.575L10.2374 16.0998C9.56725 15.2649 9.22861 14.2121 9.28629 13.143C9.34398 12.0739 9.79395 11.0636 10.5501 10.3056C13.2683 7.58734 18.1218 7.39375 19.5937 7.4064C19.6021 8.87312 19.4127 13.7317 16.6944 16.45Z" stroke="white" stroke-width="0.2" mask="url(#path-2-outside-1_1100_73314)"/>
</svg>
