<svg width="23" height="23" viewBox="0 0 23 23" fill="none" xmlns="http://www.w3.org/2000/svg">
<path d="M21.3774 5.79617H18.8012V1.58993C18.8012 1.20579 18.4898 0.894531 18.1058 0.894531H4.89422C4.51017 0.894531 4.19882 1.20579 4.19882 1.58993V5.79617H1.6226C0.727944 5.79617 0 6.52402 0 7.41876V16.3407C0 17.2354 0.727944 17.9633 1.6226 17.9633H4.19882V21.4128C4.19882 21.7969 4.51017 22.1082 4.89422 22.1082H18.1057C18.4897 22.1082 18.8011 21.7969 18.8011 21.4128V17.9633H21.3773C22.272 17.9633 22.9999 17.2354 22.9999 16.3407V7.41876C23 6.52411 22.2721 5.79617 21.3774 5.79617ZM5.58962 2.28533H17.4103V5.79617H5.58962V2.28533ZM17.4103 20.7174H5.58962V13.8187H17.4103V20.7174ZM21.6092 16.3407C21.6092 16.4664 21.503 16.5725 21.3774 16.5725H18.8012V13.1233C18.8012 12.7391 18.4898 12.4279 18.1058 12.4279H4.89422C4.51017 12.4279 4.19882 12.7391 4.19882 13.1233V16.5725H1.6226C1.49696 16.5725 1.3908 16.4664 1.3908 16.3407V7.41876C1.3908 7.29304 1.49696 7.18696 1.6226 7.18696H4.89422H18.1057H21.3773C21.5029 7.18696 21.6091 7.29304 21.6091 7.41876V16.3407H21.6092Z" fill="#3D2859"/>
<path d="M18.1053 10.7947C18.6516 10.7947 19.0945 10.3518 19.0945 9.80554C19.0945 9.25926 18.6516 8.81641 18.1053 8.81641C17.5591 8.81641 17.1162 9.25926 17.1162 9.80554C17.1162 10.3518 17.5591 10.7947 18.1053 10.7947Z" fill="#3D2859"/>
<path d="M14.6636 15.1914H8.33602C7.95198 15.1914 7.64062 15.5027 7.64062 15.8868C7.64062 16.2709 7.95198 16.5822 8.33602 16.5822H14.6636C15.0476 16.5822 15.359 16.2709 15.359 15.8868C15.359 15.5028 15.0477 15.1914 14.6636 15.1914Z" fill="#3D2859"/>
<path d="M14.6636 17.9531H8.33602C7.95198 17.9531 7.64062 18.2644 7.64062 18.6485C7.64062 19.0327 7.95198 19.3439 8.33602 19.3439H14.6636C15.0476 19.3439 15.359 19.0327 15.359 18.6485C15.359 18.2644 15.0477 17.9531 14.6636 17.9531Z" fill="#3D2859"/>
</svg>
