<svg width="27" height="27" viewBox="0 0 27 27" fill="none" xmlns="http://www.w3.org/2000/svg">
<circle cx="13.5" cy="13.5" r="13.5" fill="#00A3A6"/>
<mask id="path-2-outside-1_1100_73321" maskUnits="userSpaceOnUse" x="5.06445" y="4.06396" width="16" height="16" fill="black">
<rect fill="white" x="5.06445" y="4.06396" width="16" height="16"/>
<path d="M13.513 5.06396C12.8254 5.06396 12.2881 5.59162 11.836 6.27883C11.3839 6.96603 10.9962 7.86747 10.6693 8.82668C10.4246 9.54459 10.2152 10.2894 10.0485 10.9969C9.95309 10.7604 9.85337 10.5332 9.74472 10.3318C9.59927 10.0623 9.44311 9.82909 9.25489 9.64628C9.06668 9.46347 8.82745 9.32066 8.54752 9.32066C8.28742 9.32066 8.06063 9.44504 7.88068 9.60783C7.70074 9.77063 7.55112 9.97869 7.41199 10.2192C7.13372 10.7004 6.90019 11.3181 6.70289 11.9697C6.30828 13.2728 6.06445 14.6674 6.06445 15.351C6.06445 16.5972 6.99258 17.6318 8.19211 17.8056V19.2526H6.41952C5.95686 19.2628 5.95686 19.9519 6.41952 19.962H20.6081C21.0708 19.9519 21.0708 19.2628 20.6081 19.2526H18.8338V17.8056C20.034 17.6324 20.9629 16.5977 20.9629 15.351C20.9629 14.6674 20.719 13.2728 20.3244 11.9697C20.1271 11.3181 19.8936 10.7004 19.6153 10.2192C19.4762 9.97869 19.3266 9.77063 19.1466 9.60783C18.9667 9.44504 18.7399 9.32066 18.4798 9.32066C18.1999 9.32066 17.9606 9.46347 17.7724 9.64628C17.5842 9.82909 17.4281 10.0623 17.2826 10.3318C17.174 10.533 17.0742 10.76 16.9788 10.9962C16.8122 10.289 16.6026 9.54435 16.358 8.82668C16.0311 7.86747 15.6424 6.96603 15.1903 6.27883C14.7382 5.59162 14.2005 5.06396 13.513 5.06396ZM13.513 5.77376C13.8049 5.77376 14.2019 6.0649 14.5986 6.66785C14.9953 7.27079 15.3717 8.13037 15.6867 9.05462C16.3167 10.9031 16.7065 13.048 16.7065 13.9317C16.7065 15.5789 15.4673 16.9284 13.868 17.1045V16.2083L14.829 15.2474C15.0605 15.0217 14.8941 14.6292 14.5709 14.6388C14.4789 14.6416 14.3915 14.6801 14.3274 14.7461L13.868 15.2048V14.0793L14.829 13.1187C15.0611 12.893 14.8945 12.4998 14.5709 12.5097C14.4789 12.5126 14.3915 12.5511 14.3274 12.6171L13.868 13.0764V11.8041C13.871 11.604 13.7079 11.441 13.5078 11.4442C13.3119 11.447 13.1554 11.6082 13.1582 11.8041V13.0754L12.6999 12.6171C12.6332 12.5485 12.5417 12.5098 12.446 12.5097C12.1277 12.5098 11.9706 12.8967 12.1987 13.1187L13.1582 14.0779V15.2037L12.6999 14.7461C12.6335 14.6771 12.5419 14.6378 12.446 14.6374C12.1264 14.6365 11.9687 15.0255 12.1987 15.2474L13.1582 16.207V17.1045C11.5591 16.9286 10.3211 15.579 10.3211 13.9317C10.3211 13.048 10.711 10.9031 11.341 9.05462C11.656 8.13037 12.0324 7.27079 12.4291 6.66785C12.8257 6.0649 13.221 5.77376 13.513 5.77376ZM8.54752 10.0301C8.58375 10.0301 8.6526 10.0503 8.76057 10.1552C8.86853 10.26 8.99662 10.439 9.12049 10.6685C9.35808 11.1089 9.58336 11.7306 9.76966 12.3788C9.66741 12.9958 9.61135 13.535 9.61135 13.9317C9.61135 14.6864 9.82785 15.3914 10.2006 15.9894C9.98583 16.546 9.50003 16.967 8.9019 17.0882V15.7057C8.90483 15.5057 8.74196 15.3428 8.54198 15.3458C8.34593 15.3485 8.18924 15.5097 8.19211 15.7057V17.0889C7.38036 16.9254 6.7739 16.2128 6.7739 15.351C6.7739 14.8591 7.00649 13.4158 7.3822 12.1751C7.57005 11.5547 7.79518 10.9741 8.02618 10.5747C8.14167 10.375 8.25949 10.2219 8.35665 10.134C8.45381 10.0461 8.51376 10.0301 8.54752 10.0301ZM18.4798 10.0301C18.5136 10.0301 18.5735 10.0461 18.6707 10.134C18.7678 10.2219 18.8857 10.375 19.0012 10.5747C19.2321 10.9741 19.4573 11.5547 19.6451 12.1751C20.0208 13.4158 20.2534 14.8591 20.2534 15.351C20.2534 16.2133 19.6463 16.9263 18.8338 17.0893V15.7057C18.8368 15.5057 18.6739 15.3428 18.4739 15.3458C18.2785 15.3494 18.1229 15.5103 18.1258 15.7057V17.0882C17.5275 16.9671 17.0415 16.5461 16.8267 15.9894C17.1997 15.3914 17.416 14.6864 17.416 13.9317C17.416 13.5348 17.3603 12.9954 17.258 12.3781C17.4443 11.7302 17.6693 11.1087 17.9068 10.6685C18.0307 10.439 18.1588 10.26 18.2668 10.1552C18.3747 10.0503 18.4436 10.0301 18.4798 10.0301ZM16.3438 16.6133C16.7192 17.2472 17.368 17.6996 18.1258 17.8084V19.2526H13.868V17.8174C14.8388 17.729 15.7085 17.2835 16.3438 16.6133ZM10.6831 16.6136C11.3182 17.2838 12.1875 17.7291 13.1582 17.8174V19.2526H8.9019V17.8081C9.65937 17.6992 10.3078 17.2472 10.6831 16.6136Z"/>
</mask>
<path d="M13.513 5.06396C12.8254 5.06396 12.2881 5.59162 11.836 6.27883C11.3839 6.96603 10.9962 7.86747 10.6693 8.82668C10.4246 9.54459 10.2152 10.2894 10.0485 10.9969C9.95309 10.7604 9.85337 10.5332 9.74472 10.3318C9.59927 10.0623 9.44311 9.82909 9.25489 9.64628C9.06668 9.46347 8.82745 9.32066 8.54752 9.32066C8.28742 9.32066 8.06063 9.44504 7.88068 9.60783C7.70074 9.77063 7.55112 9.97869 7.41199 10.2192C7.13372 10.7004 6.90019 11.3181 6.70289 11.9697C6.30828 13.2728 6.06445 14.6674 6.06445 15.351C6.06445 16.5972 6.99258 17.6318 8.19211 17.8056V19.2526H6.41952C5.95686 19.2628 5.95686 19.9519 6.41952 19.962H20.6081C21.0708 19.9519 21.0708 19.2628 20.6081 19.2526H18.8338V17.8056C20.034 17.6324 20.9629 16.5977 20.9629 15.351C20.9629 14.6674 20.719 13.2728 20.3244 11.9697C20.1271 11.3181 19.8936 10.7004 19.6153 10.2192C19.4762 9.97869 19.3266 9.77063 19.1466 9.60783C18.9667 9.44504 18.7399 9.32066 18.4798 9.32066C18.1999 9.32066 17.9606 9.46347 17.7724 9.64628C17.5842 9.82909 17.4281 10.0623 17.2826 10.3318C17.174 10.533 17.0742 10.76 16.9788 10.9962C16.8122 10.289 16.6026 9.54435 16.358 8.82668C16.0311 7.86747 15.6424 6.96603 15.1903 6.27883C14.7382 5.59162 14.2005 5.06396 13.513 5.06396ZM13.513 5.77376C13.8049 5.77376 14.2019 6.0649 14.5986 6.66785C14.9953 7.27079 15.3717 8.13037 15.6867 9.05462C16.3167 10.9031 16.7065 13.048 16.7065 13.9317C16.7065 15.5789 15.4673 16.9284 13.868 17.1045V16.2083L14.829 15.2474C15.0605 15.0217 14.8941 14.6292 14.5709 14.6388C14.4789 14.6416 14.3915 14.6801 14.3274 14.7461L13.868 15.2048V14.0793L14.829 13.1187C15.0611 12.893 14.8945 12.4998 14.5709 12.5097C14.4789 12.5126 14.3915 12.5511 14.3274 12.6171L13.868 13.0764V11.8041C13.871 11.604 13.7079 11.441 13.5078 11.4442C13.3119 11.447 13.1554 11.6082 13.1582 11.8041V13.0754L12.6999 12.6171C12.6332 12.5485 12.5417 12.5098 12.446 12.5097C12.1277 12.5098 11.9706 12.8967 12.1987 13.1187L13.1582 14.0779V15.2037L12.6999 14.7461C12.6335 14.6771 12.5419 14.6378 12.446 14.6374C12.1264 14.6365 11.9687 15.0255 12.1987 15.2474L13.1582 16.207V17.1045C11.5591 16.9286 10.3211 15.579 10.3211 13.9317C10.3211 13.048 10.711 10.9031 11.341 9.05462C11.656 8.13037 12.0324 7.27079 12.4291 6.66785C12.8257 6.0649 13.221 5.77376 13.513 5.77376ZM8.54752 10.0301C8.58375 10.0301 8.6526 10.0503 8.76057 10.1552C8.86853 10.26 8.99662 10.439 9.12049 10.6685C9.35808 11.1089 9.58336 11.7306 9.76966 12.3788C9.66741 12.9958 9.61135 13.535 9.61135 13.9317C9.61135 14.6864 9.82785 15.3914 10.2006 15.9894C9.98583 16.546 9.50003 16.967 8.9019 17.0882V15.7057C8.90483 15.5057 8.74196 15.3428 8.54198 15.3458C8.34593 15.3485 8.18924 15.5097 8.19211 15.7057V17.0889C7.38036 16.9254 6.7739 16.2128 6.7739 15.351C6.7739 14.8591 7.00649 13.4158 7.3822 12.1751C7.57005 11.5547 7.79518 10.9741 8.02618 10.5747C8.14167 10.375 8.25949 10.2219 8.35665 10.134C8.45381 10.0461 8.51376 10.0301 8.54752 10.0301ZM18.4798 10.0301C18.5136 10.0301 18.5735 10.0461 18.6707 10.134C18.7678 10.2219 18.8857 10.375 19.0012 10.5747C19.2321 10.9741 19.4573 11.5547 19.6451 12.1751C20.0208 13.4158 20.2534 14.8591 20.2534 15.351C20.2534 16.2133 19.6463 16.9263 18.8338 17.0893V15.7057C18.8368 15.5057 18.6739 15.3428 18.4739 15.3458C18.2785 15.3494 18.1229 15.5103 18.1258 15.7057V17.0882C17.5275 16.9671 17.0415 16.5461 16.8267 15.9894C17.1997 15.3914 17.416 14.6864 17.416 13.9317C17.416 13.5348 17.3603 12.9954 17.258 12.3781C17.4443 11.7302 17.6693 11.1087 17.9068 10.6685C18.0307 10.439 18.1588 10.26 18.2668 10.1552C18.3747 10.0503 18.4436 10.0301 18.4798 10.0301ZM16.3438 16.6133C16.7192 17.2472 17.368 17.6996 18.1258 17.8084V19.2526H13.868V17.8174C14.8388 17.729 15.7085 17.2835 16.3438 16.6133ZM10.6831 16.6136C11.3182 17.2838 12.1875 17.7291 13.1582 17.8174V19.2526H8.9019V17.8081C9.65937 17.6992 10.3078 17.2472 10.6831 16.6136Z" fill="white"/>
<path d="M13.513 5.06396C12.8254 5.06396 12.2881 5.59162 11.836 6.27883C11.3839 6.96603 10.9962 7.86747 10.6693 8.82668C10.4246 9.54459 10.2152 10.2894 10.0485 10.9969C9.95309 10.7604 9.85337 10.5332 9.74472 10.3318C9.59927 10.0623 9.44311 9.82909 9.25489 9.64628C9.06668 9.46347 8.82745 9.32066 8.54752 9.32066C8.28742 9.32066 8.06063 9.44504 7.88068 9.60783C7.70074 9.77063 7.55112 9.97869 7.41199 10.2192C7.13372 10.7004 6.90019 11.3181 6.70289 11.9697C6.30828 13.2728 6.06445 14.6674 6.06445 15.351C6.06445 16.5972 6.99258 17.6318 8.19211 17.8056V19.2526H6.41952C5.95686 19.2628 5.95686 19.9519 6.41952 19.962H20.6081C21.0708 19.9519 21.0708 19.2628 20.6081 19.2526H18.8338V17.8056C20.034 17.6324 20.9629 16.5977 20.9629 15.351C20.9629 14.6674 20.719 13.2728 20.3244 11.9697C20.1271 11.3181 19.8936 10.7004 19.6153 10.2192C19.4762 9.97869 19.3266 9.77063 19.1466 9.60783C18.9667 9.44504 18.7399 9.32066 18.4798 9.32066C18.1999 9.32066 17.9606 9.46347 17.7724 9.64628C17.5842 9.82909 17.4281 10.0623 17.2826 10.3318C17.174 10.533 17.0742 10.76 16.9788 10.9962C16.8122 10.289 16.6026 9.54435 16.358 8.82668C16.0311 7.86747 15.6424 6.96603 15.1903 6.27883C14.7382 5.59162 14.2005 5.06396 13.513 5.06396ZM13.513 5.77376C13.8049 5.77376 14.2019 6.0649 14.5986 6.66785C14.9953 7.27079 15.3717 8.13037 15.6867 9.05462C16.3167 10.9031 16.7065 13.048 16.7065 13.9317C16.7065 15.5789 15.4673 16.9284 13.868 17.1045V16.2083L14.829 15.2474C15.0605 15.0217 14.8941 14.6292 14.5709 14.6388C14.4789 14.6416 14.3915 14.6801 14.3274 14.7461L13.868 15.2048V14.0793L14.829 13.1187C15.0611 12.893 14.8945 12.4998 14.5709 12.5097C14.4789 12.5126 14.3915 12.5511 14.3274 12.6171L13.868 13.0764V11.8041C13.871 11.604 13.7079 11.441 13.5078 11.4442C13.3119 11.447 13.1554 11.6082 13.1582 11.8041V13.0754L12.6999 12.6171C12.6332 12.5485 12.5417 12.5098 12.446 12.5097C12.1277 12.5098 11.9706 12.8967 12.1987 13.1187L13.1582 14.0779V15.2037L12.6999 14.7461C12.6335 14.6771 12.5419 14.6378 12.446 14.6374C12.1264 14.6365 11.9687 15.0255 12.1987 15.2474L13.1582 16.207V17.1045C11.5591 16.9286 10.3211 15.579 10.3211 13.9317C10.3211 13.048 10.711 10.9031 11.341 9.05462C11.656 8.13037 12.0324 7.27079 12.4291 6.66785C12.8257 6.0649 13.221 5.77376 13.513 5.77376ZM8.54752 10.0301C8.58375 10.0301 8.6526 10.0503 8.76057 10.1552C8.86853 10.26 8.99662 10.439 9.12049 10.6685C9.35808 11.1089 9.58336 11.7306 9.76966 12.3788C9.66741 12.9958 9.61135 13.535 9.61135 13.9317C9.61135 14.6864 9.82785 15.3914 10.2006 15.9894C9.98583 16.546 9.50003 16.967 8.9019 17.0882V15.7057C8.90483 15.5057 8.74196 15.3428 8.54198 15.3458C8.34593 15.3485 8.18924 15.5097 8.19211 15.7057V17.0889C7.38036 16.9254 6.7739 16.2128 6.7739 15.351C6.7739 14.8591 7.00649 13.4158 7.3822 12.1751C7.57005 11.5547 7.79518 10.9741 8.02618 10.5747C8.14167 10.375 8.25949 10.2219 8.35665 10.134C8.45381 10.0461 8.51376 10.0301 8.54752 10.0301ZM18.4798 10.0301C18.5136 10.0301 18.5735 10.0461 18.6707 10.134C18.7678 10.2219 18.8857 10.375 19.0012 10.5747C19.2321 10.9741 19.4573 11.5547 19.6451 12.1751C20.0208 13.4158 20.2534 14.8591 20.2534 15.351C20.2534 16.2133 19.6463 16.9263 18.8338 17.0893V15.7057C18.8368 15.5057 18.6739 15.3428 18.4739 15.3458C18.2785 15.3494 18.1229 15.5103 18.1258 15.7057V17.0882C17.5275 16.9671 17.0415 16.5461 16.8267 15.9894C17.1997 15.3914 17.416 14.6864 17.416 13.9317C17.416 13.5348 17.3603 12.9954 17.258 12.3781C17.4443 11.7302 17.6693 11.1087 17.9068 10.6685C18.0307 10.439 18.1588 10.26 18.2668 10.1552C18.3747 10.0503 18.4436 10.0301 18.4798 10.0301ZM16.3438 16.6133C16.7192 17.2472 17.368 17.6996 18.1258 17.8084V19.2526H13.868V17.8174C14.8388 17.729 15.7085 17.2835 16.3438 16.6133ZM10.6831 16.6136C11.3182 17.2838 12.1875 17.7291 13.1582 17.8174V19.2526H8.9019V17.8081C9.65937 17.6992 10.3078 17.2472 10.6831 16.6136Z" stroke="white" stroke-width="0.2" mask="url(#path-2-outside-1_1100_73321)"/>
</svg>
