<svg width="27" height="27" viewBox="0 0 27 27" fill="none" xmlns="http://www.w3.org/2000/svg">
<circle cx="13.5" cy="13.5" r="13.5" fill="#EB5B3E"/>
<g clip-path="url(#clip0_2977_8793)">
<path d="M13.1343 20.8043C13.2158 20.9266 13.3531 21 13.5 21C13.6469 21 13.7842 20.9266 13.8657 20.8043C14.9057 19.2443 16.4375 17.3177 17.505 15.3583C18.3585 13.7917 18.7734 12.4554 18.7734 11.2734C18.7734 8.36566 16.4078 6 13.5 6C10.5922 6 8.22656 8.36566 8.22656 11.2734C8.22656 12.4554 8.64149 13.7917 9.49503 15.3583C10.5617 17.3162 12.0965 19.2475 13.1343 20.8043ZM13.5 6.87891C15.9231 6.87891 17.8945 8.85029 17.8945 11.2734C17.8945 12.3048 17.5146 13.5035 16.7332 14.9379C15.813 16.6268 14.5 18.34 13.5 19.7803C12.5001 18.3403 11.187 16.6269 10.2668 14.9379C9.48536 13.5035 9.10547 12.3048 9.10547 11.2734C9.10547 8.85029 11.0769 6.87891 13.5 6.87891Z" fill="white"/>
<path d="M13.5 13.9102C14.9539 13.9102 16.1367 12.7273 16.1367 11.2734C16.1367 9.81955 14.9539 8.63672 13.5 8.63672C12.0461 8.63672 10.8633 9.81955 10.8633 11.2734C10.8633 12.7273 12.0461 13.9102 13.5 13.9102ZM13.5 9.51562C14.4693 9.51562 15.2578 10.3042 15.2578 11.2734C15.2578 12.2427 14.4693 13.0312 13.5 13.0312C12.5307 13.0312 11.7422 12.2427 11.7422 11.2734C11.7422 10.3042 12.5307 9.51562 13.5 9.51562Z" fill="white"/>
</g>
<defs>
<clipPath id="clip0_2977_8793">
<rect width="15" height="15" fill="white" transform="translate(6 6)"/>
</clipPath>
</defs>
</svg>
