<svg width="27" height="27" viewBox="0 0 27 27" fill="none" xmlns="http://www.w3.org/2000/svg">
<circle cx="13.5" cy="13.5" r="13.5" fill="#008C5D"/>
<path d="M7.93991 19.2168L7.9405 19.2168C8.09605 19.215 8.2474 19.1661 8.37463 19.0766C8.50186 18.9871 8.59902 18.8611 8.65331 18.7154L8.65353 18.7147L9.99388 14.9668H17.0103L18.3521 18.7232L18.3521 18.7232L18.3525 18.7243C18.4075 18.8679 18.5044 18.9916 18.6306 19.0794C18.7568 19.1672 18.9065 19.2151 19.0602 19.2168H19.0607H19.7266C19.8482 19.2168 19.9681 19.1876 20.0761 19.1315C20.1841 19.0754 20.277 18.9942 20.347 18.8946C20.4169 18.7951 20.4619 18.6802 20.4782 18.5596C20.4944 18.439 20.4814 18.3163 20.4402 18.2018L19.284 14.9668H20.9378C21.139 14.9668 21.3318 14.8869 21.4741 14.7447C21.6163 14.6025 21.6962 14.4096 21.6962 14.2085V13.5002C21.6962 13.299 21.6163 13.1062 21.4741 12.9639C21.3318 12.8217 21.139 12.7418 20.9378 12.7418H18.4886L17.5128 10.0085H18.1045C18.3056 10.0085 18.4985 9.9286 18.6407 9.78638C18.7829 9.64417 18.8628 9.45128 18.8628 9.25016V8.54183C18.8628 8.34071 18.7829 8.14782 18.6407 8.00561C18.4985 7.86339 18.3056 7.7835 18.1045 7.7835H8.89616C8.69504 7.7835 8.50215 7.86339 8.35994 8.00561C8.21772 8.14782 8.13783 8.34071 8.13783 8.54183V9.25016C8.13783 9.45128 8.21772 9.64417 8.35994 9.78638C8.50215 9.9286 8.69504 10.0085 8.89616 10.0085H9.48787L8.51206 12.7418H6.06283C5.8617 12.7418 5.66882 12.8217 5.5266 12.9639C5.38439 13.1062 5.30449 13.299 5.30449 13.5002V14.2085C5.30449 14.4096 5.38439 14.6025 5.5266 14.7447C5.66882 14.8869 5.8617 14.9668 6.06283 14.9668H7.71665L6.56199 18.198C6.56197 18.1981 6.56194 18.1981 6.56192 18.1982C6.52007 18.3127 6.50645 18.4356 6.52222 18.5566C6.53799 18.6775 6.58273 18.7929 6.65262 18.8929C6.72251 18.9929 6.81549 19.0746 6.92368 19.131C7.03187 19.1874 7.15207 19.2168 7.27407 19.2168L7.93991 19.2168ZM16.6544 10.0085L17.6302 12.7418H17.0719L16.0961 10.0085H16.6544ZM11.7647 10.0085H15.2377L16.2135 12.7418H10.7872L11.7647 10.0085ZM8.94616 8.59183H18.0545V9.20016H8.94616V8.59183ZM9.37054 12.7418L10.348 10.0085H10.9063L9.9305 12.7418H9.37054ZM9.13369 14.9668L7.90467 18.4085H7.34575L8.57545 14.9668H9.13369ZM18.4252 14.9668L19.6556 18.4085H19.096L17.867 14.9668H18.4252ZM6.11283 14.1585V13.5502H20.8878V14.1585H6.11283Z" fill="white" stroke="white" stroke-width="0.1"/>
</svg>
