<svg width="27" height="27" viewBox="0 0 27 27" fill="none" xmlns="http://www.w3.org/2000/svg">
<circle cx="13.5" cy="13.5" r="13.5" fill="#F69E4B"/>
<g clip-path="url(#clip0_1100_73319)">
<mask id="path-2-outside-1_1100_73319" maskUnits="userSpaceOnUse" x="6" y="6.00049" width="15" height="15" fill="black">
<rect fill="white" x="6" y="6.00049" width="15" height="15"/>
<path d="M19.6139 17.7468L19.0753 17.2082C18.6531 16.786 18.0138 16.7104 17.5135 16.9808L16.1907 15.658C17.1061 14.711 17.8747 13.6543 18.4816 12.5066C19.2978 10.9633 19.8076 9.27799 19.9969 7.49749C20.0091 7.38309 19.9688 7.26929 19.8875 7.18794L19.8116 7.11203C19.7302 7.03065 19.6165 6.99054 19.502 7.0026C17.7215 7.19193 16.0362 7.70175 14.4929 8.5179C13.3452 9.12484 12.2886 9.89339 11.3415 10.8088L10.0208 9.48809C10.2888 8.98835 10.2124 8.35119 9.79129 7.93001L9.2527 7.39144C9.00406 7.1428 8.67252 7.00587 8.31912 7.00587C7.96575 7.00587 7.63418 7.1428 7.38557 7.39144C7.13693 7.64006 7 7.97159 7 8.32499C7 8.67837 7.13693 9.00993 7.38557 9.25855L7.92416 9.79716C8.18153 10.0545 8.51962 10.1832 8.85771 10.1832C9.07284 10.1832 9.28789 10.1309 9.48222 10.0267L10.808 11.3524C10.7653 11.3982 10.7229 11.4443 10.6807 11.4907C9.64469 12.6327 8.79561 13.9275 8.15708 15.3394C7.53953 16.7049 7.15109 18.1054 7.00259 19.502C6.99043 19.6164 7.03065 19.7302 7.11202 19.8116L7.18793 19.8875C7.25974 19.9593 7.35675 19.9991 7.45719 19.9991C7.47057 19.9991 7.48403 19.9984 7.49749 19.9969C8.8941 19.8484 10.2946 19.46 11.6601 18.8424C13.072 18.2039 14.3668 17.3549 15.5088 16.3188C15.5552 16.2767 15.6012 16.2342 15.6471 16.1915L16.9766 17.5211C16.711 18.0202 16.7881 18.6553 17.2082 19.0754L17.7468 19.614C18.0042 19.8714 18.3423 20.0001 18.6804 20.0001C19.0185 20.0001 19.3566 19.8714 19.614 19.614C20.1287 19.0992 20.1287 18.2616 19.6139 17.7468ZM19.1925 7.80704C18.7896 10.7958 17.467 13.2628 15.6677 15.135L14.8972 14.3645L15.6182 13.6434C15.9194 13.3422 16.0853 12.9405 16.0853 12.5123C16.0853 12.0841 15.9194 11.6824 15.6182 11.3813C15.317 11.0801 14.9154 10.9142 14.4872 10.9142C14.059 10.9142 13.6573 11.0801 13.3561 11.3813L12.6351 12.1023L11.8645 11.3318C13.7367 9.53243 16.2037 8.20985 19.1925 7.80704ZM13.1737 12.6409L13.8947 11.9199C14.052 11.7626 14.2624 11.6759 14.4872 11.6759C14.7119 11.6759 14.9223 11.7626 15.0796 11.9199C15.2369 12.0772 15.3236 12.2876 15.3236 12.5123C15.3236 12.7371 15.2369 12.9475 15.0796 13.1048L14.3585 13.8258L13.1737 12.6409ZM13.82 14.3644L13.1084 15.0761C12.9511 15.2333 12.7407 15.32 12.5159 15.32C12.2912 15.32 12.0808 15.2333 11.9235 15.0761C11.7662 14.9187 11.6795 14.7083 11.6795 14.4836C11.6795 14.2589 11.7662 14.0485 11.9235 13.8911L12.6351 13.1796L13.82 14.3644ZM8.46275 9.25857L7.92413 8.71995C7.81938 8.6152 7.76169 8.47494 7.76169 8.32499C7.76169 8.17504 7.8194 8.03479 7.92416 7.93001C8.02892 7.82525 8.16919 7.76754 8.31912 7.76754C8.46905 7.76754 8.60932 7.82522 8.71411 7.93001L9.2527 8.4686C9.47049 8.68639 9.47049 9.04075 9.2527 9.25855C9.03488 9.47634 8.68052 9.47634 8.46275 9.25857ZM7.80815 19.1914C8.16699 16.623 9.37495 13.9799 11.3306 11.875L12.0965 12.641L11.3849 13.3526C10.7612 13.9762 10.7612 14.991 11.3849 15.6147C11.6861 15.9158 12.0878 16.0817 12.516 16.0817C12.9442 16.0817 13.3458 15.9158 13.647 15.6147L14.3586 14.903L15.1246 15.669C13.0196 17.6246 10.3765 18.8325 7.80815 19.1914ZM19.0754 19.0753C18.8575 19.2931 18.5032 19.2931 18.2854 19.0753L17.7468 18.5367C17.529 18.3189 17.529 17.9646 17.7468 17.7468L17.676 17.676L17.7468 17.7468C17.9646 17.529 18.319 17.529 18.5368 17.7468L19.0754 18.2854C19.2931 18.5032 19.2931 18.8576 19.0754 19.0753Z"/>
</mask>
<path d="M19.6139 17.7468L19.0753 17.2082C18.6531 16.786 18.0138 16.7104 17.5135 16.9808L16.1907 15.658C17.1061 14.711 17.8747 13.6543 18.4816 12.5066C19.2978 10.9633 19.8076 9.27799 19.9969 7.49749C20.0091 7.38309 19.9688 7.26929 19.8875 7.18794L19.8116 7.11203C19.7302 7.03065 19.6165 6.99054 19.502 7.0026C17.7215 7.19193 16.0362 7.70175 14.4929 8.5179C13.3452 9.12484 12.2886 9.89339 11.3415 10.8088L10.0208 9.48809C10.2888 8.98835 10.2124 8.35119 9.79129 7.93001L9.2527 7.39144C9.00406 7.1428 8.67252 7.00587 8.31912 7.00587C7.96575 7.00587 7.63418 7.1428 7.38557 7.39144C7.13693 7.64006 7 7.97159 7 8.32499C7 8.67837 7.13693 9.00993 7.38557 9.25855L7.92416 9.79716C8.18153 10.0545 8.51962 10.1832 8.85771 10.1832C9.07284 10.1832 9.28789 10.1309 9.48222 10.0267L10.808 11.3524C10.7653 11.3982 10.7229 11.4443 10.6807 11.4907C9.64469 12.6327 8.79561 13.9275 8.15708 15.3394C7.53953 16.7049 7.15109 18.1054 7.00259 19.502C6.99043 19.6164 7.03065 19.7302 7.11202 19.8116L7.18793 19.8875C7.25974 19.9593 7.35675 19.9991 7.45719 19.9991C7.47057 19.9991 7.48403 19.9984 7.49749 19.9969C8.8941 19.8484 10.2946 19.46 11.6601 18.8424C13.072 18.2039 14.3668 17.3549 15.5088 16.3188C15.5552 16.2767 15.6012 16.2342 15.6471 16.1915L16.9766 17.5211C16.711 18.0202 16.7881 18.6553 17.2082 19.0754L17.7468 19.614C18.0042 19.8714 18.3423 20.0001 18.6804 20.0001C19.0185 20.0001 19.3566 19.8714 19.614 19.614C20.1287 19.0992 20.1287 18.2616 19.6139 17.7468ZM19.1925 7.80704C18.7896 10.7958 17.467 13.2628 15.6677 15.135L14.8972 14.3645L15.6182 13.6434C15.9194 13.3422 16.0853 12.9405 16.0853 12.5123C16.0853 12.0841 15.9194 11.6824 15.6182 11.3813C15.317 11.0801 14.9154 10.9142 14.4872 10.9142C14.059 10.9142 13.6573 11.0801 13.3561 11.3813L12.6351 12.1023L11.8645 11.3318C13.7367 9.53243 16.2037 8.20985 19.1925 7.80704ZM13.1737 12.6409L13.8947 11.9199C14.052 11.7626 14.2624 11.6759 14.4872 11.6759C14.7119 11.6759 14.9223 11.7626 15.0796 11.9199C15.2369 12.0772 15.3236 12.2876 15.3236 12.5123C15.3236 12.7371 15.2369 12.9475 15.0796 13.1048L14.3585 13.8258L13.1737 12.6409ZM13.82 14.3644L13.1084 15.0761C12.9511 15.2333 12.7407 15.32 12.5159 15.32C12.2912 15.32 12.0808 15.2333 11.9235 15.0761C11.7662 14.9187 11.6795 14.7083 11.6795 14.4836C11.6795 14.2589 11.7662 14.0485 11.9235 13.8911L12.6351 13.1796L13.82 14.3644ZM8.46275 9.25857L7.92413 8.71995C7.81938 8.6152 7.76169 8.47494 7.76169 8.32499C7.76169 8.17504 7.8194 8.03479 7.92416 7.93001C8.02892 7.82525 8.16919 7.76754 8.31912 7.76754C8.46905 7.76754 8.60932 7.82522 8.71411 7.93001L9.2527 8.4686C9.47049 8.68639 9.47049 9.04075 9.2527 9.25855C9.03488 9.47634 8.68052 9.47634 8.46275 9.25857ZM7.80815 19.1914C8.16699 16.623 9.37495 13.9799 11.3306 11.875L12.0965 12.641L11.3849 13.3526C10.7612 13.9762 10.7612 14.991 11.3849 15.6147C11.6861 15.9158 12.0878 16.0817 12.516 16.0817C12.9442 16.0817 13.3458 15.9158 13.647 15.6147L14.3586 14.903L15.1246 15.669C13.0196 17.6246 10.3765 18.8325 7.80815 19.1914ZM19.0754 19.0753C18.8575 19.2931 18.5032 19.2931 18.2854 19.0753L17.7468 18.5367C17.529 18.3189 17.529 17.9646 17.7468 17.7468L17.676 17.676L17.7468 17.7468C17.9646 17.529 18.319 17.529 18.5368 17.7468L19.0754 18.2854C19.2931 18.5032 19.2931 18.8576 19.0754 19.0753Z" fill="white"/>
<path d="M19.6139 17.7468L19.0753 17.2082C18.6531 16.786 18.0138 16.7104 17.5135 16.9808L16.1907 15.658C17.1061 14.711 17.8747 13.6543 18.4816 12.5066C19.2978 10.9633 19.8076 9.27799 19.9969 7.49749C20.0091 7.38309 19.9688 7.26929 19.8875 7.18794L19.8116 7.11203C19.7302 7.03065 19.6165 6.99054 19.502 7.0026C17.7215 7.19193 16.0362 7.70175 14.4929 8.5179C13.3452 9.12484 12.2886 9.89339 11.3415 10.8088L10.0208 9.48809C10.2888 8.98835 10.2124 8.35119 9.79129 7.93001L9.2527 7.39144C9.00406 7.1428 8.67252 7.00587 8.31912 7.00587C7.96575 7.00587 7.63418 7.1428 7.38557 7.39144C7.13693 7.64006 7 7.97159 7 8.32499C7 8.67837 7.13693 9.00993 7.38557 9.25855L7.92416 9.79716C8.18153 10.0545 8.51962 10.1832 8.85771 10.1832C9.07284 10.1832 9.28789 10.1309 9.48222 10.0267L10.808 11.3524C10.7653 11.3982 10.7229 11.4443 10.6807 11.4907C9.64469 12.6327 8.79561 13.9275 8.15708 15.3394C7.53953 16.7049 7.15109 18.1054 7.00259 19.502C6.99043 19.6164 7.03065 19.7302 7.11202 19.8116L7.18793 19.8875C7.25974 19.9593 7.35675 19.9991 7.45719 19.9991C7.47057 19.9991 7.48403 19.9984 7.49749 19.9969C8.8941 19.8484 10.2946 19.46 11.6601 18.8424C13.072 18.2039 14.3668 17.3549 15.5088 16.3188C15.5552 16.2767 15.6012 16.2342 15.6471 16.1915L16.9766 17.5211C16.711 18.0202 16.7881 18.6553 17.2082 19.0754L17.7468 19.614C18.0042 19.8714 18.3423 20.0001 18.6804 20.0001C19.0185 20.0001 19.3566 19.8714 19.614 19.614C20.1287 19.0992 20.1287 18.2616 19.6139 17.7468ZM19.1925 7.80704C18.7896 10.7958 17.467 13.2628 15.6677 15.135L14.8972 14.3645L15.6182 13.6434C15.9194 13.3422 16.0853 12.9405 16.0853 12.5123C16.0853 12.0841 15.9194 11.6824 15.6182 11.3813C15.317 11.0801 14.9154 10.9142 14.4872 10.9142C14.059 10.9142 13.6573 11.0801 13.3561 11.3813L12.6351 12.1023L11.8645 11.3318C13.7367 9.53243 16.2037 8.20985 19.1925 7.80704ZM13.1737 12.6409L13.8947 11.9199C14.052 11.7626 14.2624 11.6759 14.4872 11.6759C14.7119 11.6759 14.9223 11.7626 15.0796 11.9199C15.2369 12.0772 15.3236 12.2876 15.3236 12.5123C15.3236 12.7371 15.2369 12.9475 15.0796 13.1048L14.3585 13.8258L13.1737 12.6409ZM13.82 14.3644L13.1084 15.0761C12.9511 15.2333 12.7407 15.32 12.5159 15.32C12.2912 15.32 12.0808 15.2333 11.9235 15.0761C11.7662 14.9187 11.6795 14.7083 11.6795 14.4836C11.6795 14.2589 11.7662 14.0485 11.9235 13.8911L12.6351 13.1796L13.82 14.3644ZM8.46275 9.25857L7.92413 8.71995C7.81938 8.6152 7.76169 8.47494 7.76169 8.32499C7.76169 8.17504 7.8194 8.03479 7.92416 7.93001C8.02892 7.82525 8.16919 7.76754 8.31912 7.76754C8.46905 7.76754 8.60932 7.82522 8.71411 7.93001L9.2527 8.4686C9.47049 8.68639 9.47049 9.04075 9.2527 9.25855C9.03488 9.47634 8.68052 9.47634 8.46275 9.25857ZM7.80815 19.1914C8.16699 16.623 9.37495 13.9799 11.3306 11.875L12.0965 12.641L11.3849 13.3526C10.7612 13.9762 10.7612 14.991 11.3849 15.6147C11.6861 15.9158 12.0878 16.0817 12.516 16.0817C12.9442 16.0817 13.3458 15.9158 13.647 15.6147L14.3586 14.903L15.1246 15.669C13.0196 17.6246 10.3765 18.8325 7.80815 19.1914ZM19.0754 19.0753C18.8575 19.2931 18.5032 19.2931 18.2854 19.0753L17.7468 18.5367C17.529 18.3189 17.529 17.9646 17.7468 17.7468L17.676 17.676L17.7468 17.7468C17.9646 17.529 18.319 17.529 18.5368 17.7468L19.0754 18.2854C19.2931 18.5032 19.2931 18.8576 19.0754 19.0753Z" stroke="white" stroke-width="0.2" mask="url(#path-2-outside-1_1100_73319)"/>
</g>
<defs>
<clipPath id="clip0_1100_73319">
<rect width="13" height="13" fill="white" transform="translate(7 7)"/>
</clipPath>
</defs>
</svg>
