<svg width="27" height="27" viewBox="0 0 27 27" fill="none" xmlns="http://www.w3.org/2000/svg">
<circle cx="13.5" cy="13.5" r="13.5" fill="#F69E4B"/>
<g clip-path="url(#clip0_1100_73319)">
<path d="M19.0753 17.2082L19.1107 17.1729L19.6493 17.7115C20.1836 18.2458 20.1836 19.115 19.6493 19.6493L19.614 19.614L19.6493 19.6493C19.3821 19.9165 19.0312 20.0501 18.6804 20.0501C18.3296 20.0501 17.9786 19.9165 17.7115 19.6493L17.1729 19.1107C16.746 18.6838 16.6604 18.0433 16.9154 17.5306L15.6458 16.261C15.6115 16.2927 15.5771 16.3244 15.5424 16.3558C14.3966 17.3954 13.0973 18.2473 11.6807 18.888C10.3107 19.5076 8.90502 19.8976 7.50277 20.0467L7.50274 20.0467C7.48755 20.0483 7.47234 20.0491 7.45719 20.0491C7.34356 20.0491 7.2338 20.0041 7.15258 19.9229L7.07667 19.847C7.07667 19.847 7.07667 19.847 7.07666 19.8469C6.98461 19.7549 6.93911 19.6262 6.95287 19.4968L7.00259 19.502L6.95287 19.4968C7.10197 18.0945 7.49193 16.6888 8.11153 15.3188C8.75219 13.9022 9.60414 12.6029 10.6437 11.4571M19.0753 17.2082L10.6807 11.4907M19.0753 17.2082L19.1107 17.1729C18.6816 16.7438 18.0369 16.6597 17.5229 16.9195L16.2608 15.6574C17.1644 14.7161 17.9242 13.6676 18.5258 12.53C19.345 10.9809 19.8567 9.28944 20.0466 7.50278C20.0604 7.37335 20.0149 7.24461 19.9228 7.15258M19.0753 17.2082L19.8875 7.18794M10.6437 11.4571L10.6807 11.4907M10.6437 11.4571C10.6437 11.4571 10.6437 11.4571 10.6437 11.4571L10.6807 11.4907M10.6437 11.4571C10.6752 11.4224 10.7068 11.388 10.7386 11.3537M10.6807 11.4907C10.7229 11.4443 10.7653 11.3982 10.808 11.3524M10.7386 11.3537L10.7726 11.3878L10.808 11.3524M10.7386 11.3537L9.47275 10.0879M10.7386 11.3537C10.7495 11.3419 10.7604 11.3301 10.7714 11.3184L10.808 11.3524M10.808 11.3524L9.47275 10.0879M9.47275 10.0879C9.48385 10.0823 9.49488 10.0766 9.50585 10.0707L9.48222 10.0267L9.44687 10.062L9.47275 10.0879ZM9.47275 10.0879C9.27984 10.1847 9.06879 10.2332 8.85771 10.2332C8.50695 10.2332 8.15596 10.0997 7.8888 9.83252L7.35021 9.2939L7.38557 9.25855L7.35021 9.2939C7.09214 9.03585 6.95 8.69155 6.95 8.32499C6.95 7.95841 7.09214 7.61413 7.35021 7.35608M9.47275 10.0879L11.3415 10.8088M7.35021 7.35608L7.38557 7.39144L7.35021 7.35609C7.35021 7.35608 7.35021 7.35608 7.35021 7.35608ZM7.35021 7.35608C7.60826 7.09801 7.95256 6.95587 8.31912 6.95587C8.68571 6.95587 9.02998 7.09801 9.28805 7.35608L9.82665 7.89465L9.82665 7.89465C10.2546 8.32265 10.3395 8.96526 10.082 9.47862M10.082 9.47862L10.0562 9.45274L10.0208 9.48809L10.0649 9.51172C10.0708 9.50075 10.0765 9.48972 10.082 9.47862ZM10.082 9.47862L11.3421 10.7387M11.3421 10.7387C11.3303 10.7501 11.3185 10.7614 11.3067 10.7728L11.3415 10.8088M11.3421 10.7387L11.3768 10.7734L11.3415 10.8088M11.3421 10.7387C12.2835 9.83512 13.3319 9.07533 14.4695 8.4737C16.0186 7.6545 17.7101 7.14286 19.4967 6.95288L19.4968 6.95287C19.6262 6.93924 19.7549 6.98459 19.8469 7.07668M11.3415 10.8088L19.502 7.0026C19.6165 6.99054 19.7302 7.03065 19.8116 7.11203L19.8875 7.18794M19.8469 7.07668L19.8116 7.11202L19.8469 7.07667L19.8469 7.07668ZM19.8469 7.07668L19.9228 7.15258M19.9228 7.15258L19.8875 7.18794M19.9228 7.15258L19.9228 7.15259L19.8875 7.18794M7.95949 8.6846L8.49811 9.22322C8.69634 9.42145 9.01905 9.42146 9.21734 9.22319L7.95949 8.6846ZM7.95949 8.6846C7.86423 8.58935 7.81169 8.46186 7.81169 8.32499M7.95949 8.6846L7.81169 8.32499M7.81169 8.32499C7.81169 8.18813 7.86425 8.06065 7.95951 7.96536M7.81169 8.32499L7.95951 7.96536M7.95951 7.96536C7.95952 7.96536 7.95952 7.96536 7.95952 7.96536M7.95951 7.96536L7.95952 7.96536M7.95952 7.96536C8.05478 7.8701 8.18228 7.81754 8.31912 7.81754C8.45597 7.81754 8.58347 7.87008 8.67875 7.96536L9.21734 8.50395C9.41561 8.70222 9.41561 9.02492 9.21735 9.22319L7.95952 7.96536ZM15.0443 13.0694L14.3585 13.7551L13.2444 12.6409L13.9301 11.9552L13.9301 11.9552C14.0779 11.8074 14.2755 11.7259 14.4872 11.7259C14.6988 11.7259 14.8964 11.8074 15.0443 11.9552C15.1921 12.103 15.2736 12.3007 15.2736 12.5123C15.2736 12.724 15.1921 12.9216 15.0443 13.0694L15.0796 13.1048L15.0443 13.0694ZM17.7822 17.7822C17.9804 17.5839 18.3031 17.5839 18.5014 17.7822L19.04 18.3208C19.2382 18.519 19.2382 18.8417 19.04 19.04C18.8417 19.2382 18.519 19.2383 18.3208 19.04L17.7822 18.5014C17.5839 18.3031 17.5839 17.9804 17.7822 17.7822ZM13.3208 11.3459L12.6351 12.0316L11.936 11.3326C13.7828 9.57112 16.2052 8.27445 19.134 7.86554C18.725 10.7943 17.4283 13.2167 15.6669 15.0635L14.9679 14.3645L15.6536 13.6788C15.9642 13.3681 16.1353 12.9537 16.1353 12.5123C16.1353 12.071 15.9642 11.6565 15.6536 11.3459C15.343 11.0353 14.9285 10.8642 14.4872 10.8642C14.0458 10.8642 13.6314 11.0353 13.3208 11.3459ZM12.6351 13.2503L13.7493 14.3644L13.073 15.0407C12.9252 15.1885 12.7276 15.27 12.5159 15.27C12.3043 15.27 12.1066 15.1885 11.9588 15.0407C11.811 14.8929 11.7295 14.6952 11.7295 14.4836C11.7295 14.272 11.811 14.0743 11.9588 13.9265C11.9588 13.9265 11.9588 13.9265 11.9588 13.9265L12.6351 13.2503ZM7.86705 19.1325C8.23354 16.6104 9.42069 14.0202 11.332 11.9471L12.0258 12.641L11.3495 13.3172C10.7063 13.9604 10.7063 15.0068 11.3495 15.65C11.6601 15.9606 12.0746 16.1317 12.516 16.1317C12.9573 16.1317 13.3718 15.9606 13.6824 15.65L14.3586 14.9737L15.0525 15.6676C12.9793 17.5788 10.3892 18.766 7.86705 19.1325Z" fill="white" stroke="white" stroke-width="0.1"/>
</g>
<defs>
<clipPath id="clip0_1100_73319">
<rect width="13" height="13" fill="white" transform="translate(7 7)"/>
</clipPath>
</defs>
</svg>
