<?xml version="1.0" encoding="UTF-8"?><svg id="Layer_1" xmlns="http://www.w3.org/2000/svg" viewBox="0 0 252.64 87.5"><defs><style>.cls-1{fill:#fad1d6;}.cls-2{fill:#00687f;}.cls-3{fill:#add5e0;}.cls-4{fill:#d8eaf0;}.cls-5{fill:#231042;}</style></defs><path class="cls-3" d="M214.24,12.66l-.26-.08c-.85-.28-2.05-2.02-2.8-2.62-1.28-.75-2.78-1.05-4.25-.85-3.09,.51-4.74,3.71-7.65,4.63-4.06,1.28-8.14-1.68-12.28-.99-.74,.09-1.45,.35-2.08,.75-.63,.4-1.17,.93-1.58,1.55-.99,1.66,.86,2.98,.29,4.47-1.15,3.04-7.61,1.62-9.94,2.63-1.46,.63-3.03,1.73-3.06,3.34,.03,.59,.23,1.16,.56,1.65,.33,.49,.8,.87,1.33,1.11,3.3,1.66,8.37,1.1,11.99,1.55,1.68,.21,3.72,.77,4.06,2.44,.68,3.28-4.38,3.49-4.01,6.61,.11,.63,.38,1.23,.78,1.72,.4,.49,.93,.87,1.52,1.1,1.2,.44,2.5,.49,3.73,.16,3.12-.69,5.62-2.87,8.48-4.22,3.92-1.84,4.98-.51,8.22,1.64,2.3,1.51,5.05,2.18,7.78,1.89,1.77-.23,3.55-1.24,4.19-2.92,.36-.97,.36-2.13,1.06-2.88,.33-.3,.73-.52,1.16-.62,.43-.1,.88-.09,1.31,.04,1.98,.48,3.48,2.19,5.46,2.67,1.49,.36,3.04,.37,4.53,.02,1.49-.35,2.88-1.04,4.06-2.02,.64-.69,1.4-1.24,2.25-1.64,2.13-.69,4.09,1.31,6.06,1.8,2.39,.59,4.46-.21,6.18-1.93,.62-.6,1.05-1.37,1.21-2.22,.16-.85,.06-1.73-.3-2.52-.93-1.75-2.81-2.07-4.21-3.26-.38-.3-.7-.68-.94-1.1-.23-.43-.38-.9-.43-1.39-.19-3.63,6.78-2.89,4.46-7.76-.96-2.01-3.73-2.8-5.75-2.82-2.29,0-4.5,.69-6.7,1.38-4.37,1.28-9.19,2.18-12.41-1.57-1.15-1.22-2.68-2.01-4.33-2.25-2.04-.26-4.09,.27-5.75,1.49-.87,.57-1.04,1.21-1.97,1.01Z"/><path class="cls-4" d="M158.65,51.07c-.2-.02-.4-.09-.57-.2-1.31-.73-1.36-2.84-2.08-4-.89-1.49-2.14-2.72-3.63-3.59-6.01-2.95-21.1-4.45-27.56,.13-.71,.44-1.3,1.04-1.75,1.75-.45,.71-.73,1.5-.82,2.33-.11,1.86,1.25,3.05,2.04,4.57,.79,1.52-1.27,1.19-2.18,1.19-3.06,0-6.11-.12-9.18-.11-4.37,0-8.73,.03-13.1-.12-18.32-.68-30.03,11.06-12.89,15.94,3.39,.96,11.57-.1,12.47,4.43,.86,4.38-5.23,4.33-6.98,8-3.92,8.3,12.67,5.11,16.12,4.51,3.79-.68,7.52-1.51,11.36-1.82,6.66-.54,13.18,.31,19.75,1.32,7.27,1.11,14.6,1.82,21.95,2.1,1.51,.06,3-.2,4.52-.2,3.62,0,8.06-.31,10.24-3.65,.51-.81,.86-1.71,1.02-2.66,.16-.94,.14-1.91-.07-2.85-.25-1.12-.86-1.52,.52-1.77,1.12-.17,2.26-.28,3.39-.34,1.89-.14,3.79-.24,5.69-.35,7.06-.28,14.13,0,21.14,.84,7.06,.77,14.19,.56,21.2-.63,2.37-.4,14.01-2.13,12.13-6.46-.56-1.29-2.04-2.13-3.13-2.88-2.04-1.36-4.3-2.31-6.22-3.84-1.92-1.54-3.25-4.51-.57-6.07,1.02-.49,2.11-.82,3.23-.95,1.12-.13,2.2-.54,3.13-1.19,.42-.36,.75-.81,.98-1.31,.23-.5,.35-1.04,.35-1.6s-.12-1.09-.35-1.6c-.23-.5-.56-.95-.98-1.31-1.69-1.52-4.2-2.04-6.37-2.41-5.98-.98-11.99-1.22-18.03-1.46-4.25-.25-8.52,.05-12.7,.89-2.5,.61-4.42,2.33-6.38,3.88-1.19,.94-5.66,4.44-6.89,2.04-.45-.9-.33-2.19-.82-3.18-.44-.88-1.07-1.66-1.83-2.29-3.21-2.72-8.11-2.86-12.06-2.3-.36,.05-.72,.11-1.08,.18-3.39,.63-7.26,1.77-9.76,4.29-.81,.81-1.84,2.91-3.24,2.73Z"/><path class="cls-1" d="M23.6,17.9c-.53-1.18-3.07-3.06-4.17-3.69-.43-.22-1.22-.3-1.53-.6-.31-.31-.05-.93-.77-1.14-.04-.28-.09-.56-.15-.84-.03-.26-.07-.51-.13-.77-.12-.52-.21-1.05-.27-1.58-.21-.51-.24-1.08-.08-1.61,0-.18-.21-.24-.18-.42,.03-.18,.3-.39,.28-.6,0-.35,.14-.51-.28-.64,.24-.61,.4-1.25,.47-1.91,.1-.57,1-1.68,0-2.04,.23-.77,1.7-1.88,.63-2.05-.66-.11-1.33,.51-1.89,.77-.71,.32-1.46,.51-2.15,.9-2.19,1.2-3.92,3.64-5.29,5.67-1.47,2.07-2.26,4.55-2.25,7.09-.03,1.13,.37,2.22,1.13,3.06,.6,.61,1.12,1.29,1.53,2.04"/><path class="cls-1" d="M48.61,22.75c-4.84-.63-10.19-.88-10.19-.88,0,0,2.85-.08,4.6-.26,1.52-.22,2.98-.75,4.28-1.57-2.25,.77-6.67,1.02-9.04,.89-4.53-.24-8.68-1.73-13.03-2.96-2.59-.61-5.25-.89-7.91-.82-6.64,.34-7.59,.64-7.59,.64-1.7,.31-3.35,.84-4.9,1.58-1.36,.64-2.42,1.77-2.97,3.17-.37,.88-1.09,1.14-1.87,2.13,3.59,1.53,3.83,1.12,4.98,1.58,1.74,.75,3.63,1.14,5.53,1.12,4.94-.05,11.81-.94,11.81-.94,1.77-.42,8.35-1.53,12.32-2.68l-5.92-.7c1.28,.05,3.88,0,5.12,0,1.66,.02,14.78-.31,14.78-.31Z"/><path class="cls-5" d="M5.15,22c-.77-.44-1.34,1.1-.27,.98,.7-.08,1.01-1.32,.09-1.16"/><path class="cls-2" d="M66.68,57.94c-1.53-4.1,1.44-8.19,2.63-9.73,8.69-11.2,24.93-13.18,26.15-13.58,.8-.37,1.67-.58,2.55-.63-.5,.9-2.3,1.47-3.16,1.98-.57,.32-1.16,.6-1.73,.93-.27,.13-.52,.31-.72,.54-.06,.07,.15,.15,.08,.24-1.08,1.58-3.07,2.48-4.6,3.64,.56,.38-.77,1.23-1.08,1.48-.96,.77-1.97,1.45-2.9,2.3,.15,0,.31,.03,.45,.09-.35,.83-1.75,.91-2.38,1.53,.16-.07,.2,.29,.37,.24,.17,.94-2.11,1.88-2.61,2.49,.1,0,.13,.36,.23,.36,0,.81-1.8,1.97-2.3,2.57,.51,.28,.17,.69-.08,1.01-.09,.11-.37,.2-.42,.33-.14,.33,0,.18,0,.48s.11,.44,.06,.72c0,.16-.59,.41-.59,.54,0,.41,.36,.58-.09,1.12,.77,.55,0,.71-.11,1.2-.11,.49,.27,.87-.31,1.35,.95,.48-.06,1.37-.42,1.74"/><path class="cls-2" d="M60.77,55.06c-1-.51-1.69-2.35-1.89-3.47-.32-1.8-.92-9.18,4.84-14.09,.82-.7,1.63-1.37,2.51-2.03,.62-.59,1.36-1.05,2.15-1.36-.21,.87-.56,1.7-1.03,2.46,.41,.54-.09,1.45-.21,2.03,.77,.06,.28,2.15,.22,2.65,.81,0,.37,1.22,.33,1.68-.06,.38-.03,.77,.07,1.14,.12,.34,.28,.38,.41,.77,.13,.39,0,.7,0,.99s-.11,.31,0,.47c.11,.17,.31,.1,.38,.26,.29,.63,.97,8.96,1.01,9.65"/><path class="cls-2" d="M66.08,54.71c-1.89,0-4.8,0-6.55,.77-.96,.44-1.26,1.1-1.84,1.91-.51,.63-1.07,1.21-1.69,1.72,.69,.29,1.48,.26,2.15,.51,.88,.32,1.53,1.06,2.43,1.39,2.63,1.04,5.38,1.74,8.19,2.09,2.31,.16,4.64,.16,6.95,0,2.3,0,4.32-.77,6.63-.65,2.31,.11,4.48,0,6.79-.09,1.23-.04,2.71-.16,3.93-.15,.86,0,2.81-.08,3.68-.15-.57-.32-2.38-.38-3-.44-.62-.05-1.44-.05-2.15-.13-1.16-.14-2.3-.28-3.45-.47,1.36,.07,2.71,.07,4.07,0,1.77-.09,4.25-.47,4.25-.47-.99-.19-2-.31-3-.38-1.07,.08-2.15,.1-3.23,.05-2.19-.15-4.4,0-6.54-.47-2.41-.52-4.9-.99-7.06-2.21"/><path class="cls-5" d="M59.9,56.82c-.77,.18-.1,1.14,.36,.62,.03-.03,.06-.08,.08-.12,.02-.04,.03-.09,.03-.14,0-.05-.01-.1-.03-.14s-.05-.08-.08-.12c-.03-.03-.08-.06-.12-.08-.04-.02-.09-.03-.14-.03-.05,0-.1,.01-.14,.03-.04,.02-.08,.05-.12,.08"/><path class="cls-1" d="M11.04,22.49c-.2,3.64,.88,7.23,3.07,10.15,3.26,4.94,7.72,9.6,13.12,12.17,1.45,.69,2.96,1.23,4.45,1.8,.97,.48,2.06,.66,3.13,.52,.06-.22,.03-.45-.07-.64-.11-.2-.29-.34-.5-.41,0-.9-1-2.4-2.01-2.53-.05-.61-.26-1.19-.61-1.69-.35-.5-.82-.91-1.37-1.18,.82-.92-1.23-2.3-1.79-2.88,.61-.77-1.1-2.3-1.68-2.85,.44-.51-.15-1.16-.48-1.61-.53-.71-.29-.82-.59-1.66-.21-.59-.77-.9-.94-1.44-.25-.71,.07-1.22-.81-1.65,.77-.77-.11-1.26-.52-1.87,.21-.15,.35-.37,.4-.62,.05-.25,0-.51-.13-.73-.18,.11-.24,.08-.36,.25,.85-.44,.49-.92,.77-1.53,.07-.18,.49-.47,.52-.59,0-.2,0-.41-.04-.61,.08-.18,.18-.35,.29-.52,0,0,0-.7,0-.58,.08-.25,.5-1.26,.25-1.06"/></svg>