<?xml version="1.0" encoding="UTF-8"?><svg id="Layer_2" xmlns="http://www.w3.org/2000/svg" viewBox="0 0 357.02 283.37"><defs><style>.cls-1{fill:#8ec89a;}.cls-2{fill:none;stroke:#f5a04c;stroke-linecap:round;stroke-linejoin:round;stroke-width:5px;}</style></defs><g id="Layer_1-2"><path class="cls-2" d="M354.52,238.4c-28.74-6.28-65.2-49.67-84.62-70.2-17.7-18.71-36.23-36.6-53.49-55.77-15.04-16.7-29.52-34.66-41.65-53.64-3.26-5.1-10.51-16.39-15.18-27.91"/><path class="cls-1" d="M159.92,30.65c-13.67-4.13-24.98-18.13-32.23-30.65,13.52,2.43,29.88,16.55,32.23,30.65Z"/><path class="cls-1" d="M168.24,49.65c-17.46-18.66-29.97-23.1-45.02-21.83,9.54,18.51,29.23,21.83,45.02,21.83Z"/><path class="cls-1" d="M182.71,72.29c-15.32-5.78-35.43-10.69-51.17-4.09,6.87,4.07,20.14,9.97,29.13,11.39,7.34,1.15,16.77-3.57,22.05-7.29Z"/><path class="cls-1" d="M202.62,97.92c-33.38-14.35-33.62-2.78-49.89-3.86,6.18,6.72,17.86,11.05,27.42,10.36,7.13-.51,16.38-7.87,22.47-6.5Z"/><path class="cls-1" d="M225.11,124.03c-19.43-20.28-30.17-5.64-44.5-4.2,20.26,15.87,29.88,3.83,44.5,4.2Z"/><path class="cls-1" d="M169.76,48.6c-3.6-8.46-7.35-14.82-3.74-27.05,1.87-6.33,7.45-11.09,9.22-17.21,.97,8.52,3.64,15.97,2.06,24.71-1.29,7.12-6.02,13.59-7.55,19.55Z"/><path class="cls-1" d="M184.86,71.93c-9.66-10.37,3.9-34.46,15.35-37.88-2.15,4.34-1.13,14.66-4.02,20.92-2.8,6.01-8.93,10.27-11.34,16.96Z"/><path class="cls-1" d="M203.42,97.38c-7.29-8.53,4.65-32.1,13.37-36.01,3.82,14.97-3.75,24.59-13.37,36.01Z"/><path class="cls-1" d="M225.35,122.75c-3.37-13.59-4.75-26.83,8.4-38.4,12.8,21.54,.18,27.81-8.4,38.4Z"/><path class="cls-1" d="M241.61,139.81c-15.58-6.39-28.85-3.35-41.6,4.9,6.44,4.69,11.93,10.9,25.27,6.45,11.98-4.02,12.34-8,16.34-11.35Z"/><path class="cls-1" d="M242.82,139.94c-7.23-15.26-2.42-27.09,5.09-34.99,11.98,16.07,.61,27.55-5.09,34.99Z"/><path class="cls-1" d="M260.16,158.58c-10.11-7.15-33.95,1.53-40.72,9.45,6.99,4.22,23.7,4.7,29.9,.9,4.73-2.89,9.38-5.64,10.81-10.35Z"/><path class="cls-1" d="M272.43,173.12c-6.04,2.15-13.51,2.29-19.58,5.92-6.17,3.67-11.68,4.84-19.05,16.34,8.42-.6,21.29-1.24,27.52-6.4,4.97-4.14,8.14-10.18,11.11-15.86Z"/><path class="cls-2" d="M47.28,117.26c47.62-4.43,96.17,29.48,128.39,60.15,22.68,21.59,43.86,44.68,66.18,66.76,12.66,12.51,24.46,27.28,39.61,36.7"/><path class="cls-1" d="M49.4,118.04c-24.43,13.66-33.56-9.69-49.4-18.81,19.98-6.38,36.8-5.61,49.4,18.81Z"/><path class="cls-1" d="M64.62,117.68c-14.36-11.22-22.63-20.73-27.56-38.36,18.1,7.67,23.49,19.16,27.56,38.36Z"/><path class="cls-1" d="M62.68,118.4c-12.43-3.56-27.01,19.41-31.13,28.25,12.54,.06,32.76-16.58,31.13-28.25Z"/><path class="cls-1" d="M83.72,120.26c-9.5-7.86-10.69-33.24-6.51-43.87,18.18,12.61,14.22,33.18,6.51,43.87Z"/><path class="cls-1" d="M83.21,122.08c-13.89,3.28-31.67,20.7-29.5,35.52,15.4,2.76,29.67-25.47,29.5-35.52Z"/><path class="cls-1" d="M106.12,129.22c-9.37-5.91-22.32,21.48-23.53,29.5,13.06,5.24,30.13-19.49,23.53-29.5Z"/><path class="cls-1" d="M138.16,147.98c-11.24-3.57-27.54,15.62-30.73,25.58,13.11-2.59,30.57-10.86,30.73-25.58Z"/><path class="cls-1" d="M137.42,145.93c-7.31-4.29-1.09-21.41,1.59-25.84,2.55-4.21,6.57-7.27,9.06-11.57,2.87,5.86,4.97,15.41,3.78,21.48-.89,4.47-3.9,7.7-7.1,11.06-1.95,2.07-6.33,2.09-7.34,4.88Z"/><path class="cls-1" d="M164.45,168.19c-4.73-2.36-14,6.77-17.11,9.47-4.79,4.07-11.03,11.46-12.43,17.83,8.64,2.32,21.45-9.69,26.14-15.64,1.59-2.02,3.01-4.06,3.25-6.6,.13-1.49-.43-3.2,.14-5.07Z"/><path class="cls-1" d="M161.9,164.41c-5.11-6.08,.14-19.17,2.43-24.93,2.74-6.96,7.3-14.83,12.43-20.35,4.14,9.31,3.81,21.64,.21,31.02-1.84,4.79-4.38,8.78-8.31,12.1-1.47,1.24-4.47,3.19-4.96,4.11"/><path class="cls-1" d="M184.8,186.59c-7.04-2.64-18.6,7.14-23,11.58-6.28,6.32-10.96,14.52-12.33,23.34,.92-1.74,3.24-1.89,5.03-2.54,7.72-2.77,14.18-5.46,20.04-11.44,1.25-1.24,14.52-18.68,10.27-20.95Z"/><path class="cls-1" d="M185.63,185.84c-3.52-4.63-1.8-13.23-1.26-18.46,.76-7.25,3.18-13.96,5.95-20.57,1.13-2.69,3.1-5.67,2.91-8.68,7.51,11.15,7.77,23.07,2.99,35.31-1.59,4.12-6.3,13.6-10.59,12.4Z"/><path class="cls-1" d="M105.23,127.93c-5.77-11.33,.87-31.62,8.11-40.45,3.72,8.72,8.13,15.28,4.98,24.04-2.72,7.65-10.78,9.48-13.1,16.41Z"/></g></svg>