<svg width="116" height="57" viewBox="0 0 116 57" fill="none" xmlns="http://www.w3.org/2000/svg">
<path d="M103.678 42.1756C102.967 40.4384 97.9274 34.594 95.7683 36.3865" stroke="#3F2B59" stroke-width="2" stroke-miterlimit="10"/>
<path d="M103.678 42.1753C101.674 37.8724 99.5303 34.0916 102.351 31.5762" stroke="#3F2B59" stroke-width="2" stroke-miterlimit="10"/>
<path d="M106.659 47.7485C107.866 49.8573 109.955 55.4355 105.812 56.6505C100.497 58.202 99.0244 49.1192 101.469 45.9058C86.4407 42.592 99.2698 32.9368 104.379 43.5761C102.706 40.659 100.698 31.8172 106.639 32.982C108.642 33.3737 109.795 39.7301 107.14 42.346C110.461 40.3376 118.792 46.6539 114.463 50.1736C112.054 52.1317 108.507 48.9635 106.644 47.7485" fill="#C71748"/>
<path d="M102.631 32.2293C103.245 32.2293 103.743 31.7302 103.743 31.1146C103.743 30.499 103.245 30 102.631 30C102.017 30 101.519 30.499 101.519 31.1146C101.519 31.7302 102.017 32.2293 102.631 32.2293Z" fill="#3F2B59"/>
<path d="M95.1121 37.6013C95.7263 37.6013 96.2242 37.1023 96.2242 36.4867C96.2242 35.8711 95.7263 35.3721 95.1121 35.3721C94.4979 35.3721 94 35.8711 94 36.4867C94 37.1023 94.4979 37.6013 95.1121 37.6013Z" fill="#3F2B59"/>
<path d="M62.6939 15.3793C62.9433 13.5187 61.488 5.94016 58.7228 6.41773" stroke="#3F2B59" stroke-width="2" stroke-miterlimit="10"/>
<path d="M62.694 15.379C63.1019 10.65 63.128 6.30369 66.8269 5.52899" stroke="#3F2B59" stroke-width="2" stroke-miterlimit="10"/>
<path d="M62.4998 21.6964C62.4952 24.1263 61.5253 30.0033 57.3282 28.9914C51.9473 27.6868 55.1984 19.0789 58.9195 17.5119C47.5435 7.14757 63.4781 5.17294 62.6039 16.9432C62.6076 13.5803 65.2739 4.91403 69.8436 8.88551C71.3854 10.2239 69.2155 16.3086 65.6099 17.2527C69.4902 17.1674 73.5633 26.7957 68.0567 27.6893C64.9918 28.1856 63.4965 23.6711 62.4868 21.6889" fill="#C71748"/>
<path d="M66.7446 6.23545C67.277 6.54162 67.9574 6.35721 68.2643 5.82355C68.5712 5.2899 68.3883 4.60908 67.8559 4.30291C67.3235 3.99674 66.6431 4.18115 66.3362 4.7148C66.0293 5.24846 66.2122 5.92927 66.7446 6.23545Z" fill="#3F2B59"/>
<path d="M57.5483 7.14414C58.0808 7.45032 58.7612 7.26591 59.068 6.73225C59.3749 6.1986 59.1921 5.51778 58.6596 5.21161C58.1272 4.90543 57.4468 5.08984 57.1399 5.62349C56.833 6.15715 57.0159 6.83797 57.5483 7.14414Z" fill="#3F2B59"/>
<path d="M11.4411 41.3623C12.3327 39.7104 13.6452 32.0988 10.895 31.5615" stroke="#3F2B59" stroke-width="2" stroke-miterlimit="10"/>
<path d="M11.4409 41.3624C13.4798 37.0645 15.0527 33.0227 18.7797 33.6151" stroke="#3F2B59" stroke-width="2" stroke-miterlimit="10"/>
<path d="M9.03155 47.2065C8.16993 49.476 5.18931 54.6375 1.6276 52.1923C-2.93599 49.0592 3.13044 42.1505 7.16303 42.0149C0.209939 28.2778 15.7792 32.0886 10.8049 42.7932C11.9971 39.6451 17.5476 32.4853 20.413 37.8275C21.3748 39.6149 17.2069 44.5505 13.515 44.1639C17.1769 45.4593 17.5776 55.9278 12.1174 54.8031C9.08163 54.1755 9.27702 49.4208 9.03155 47.2065" fill="#FFCE44"/>
<path d="M19.3108 34.6546C19.925 34.6546 20.4229 34.1555 20.4229 33.5399C20.4229 32.9243 19.925 32.4253 19.3108 32.4253C18.6966 32.4253 18.1987 32.9243 18.1987 33.5399C18.1987 34.1555 18.6966 34.6546 19.3108 34.6546Z" fill="#3F2B59"/>
<path d="M10.3992 32.2293C11.0134 32.2293 11.5113 31.7302 11.5113 31.1146C11.5113 30.499 11.0134 30 10.3992 30C9.78501 30 9.28711 30.499 9.28711 31.1146C9.28711 31.7302 9.78501 32.2293 10.3992 32.2293Z" fill="#3F2B59"/>
<path d="M15.0157 13.6463C16.6813 13.6463 18.0315 12.2988 18.0315 10.6366C18.0315 8.97442 16.6813 7.62695 15.0157 7.62695C13.3502 7.62695 12 8.97442 12 10.6366C12 12.2988 13.3502 13.6463 15.0157 13.6463Z" fill="#F6BAC8"/>
<path d="M43.2611 53.7436C45.1699 53.7436 46.7173 52.1994 46.7173 50.2944C46.7173 48.3895 45.1699 46.8452 43.2611 46.8452C41.3523 46.8452 39.8049 48.3895 39.8049 50.2944C39.8049 52.1994 41.3523 53.7436 43.2611 53.7436Z" fill="#F6BAC8"/>
<path d="M84.6783 43.9857C85.5111 43.9857 86.1861 43.312 86.1861 42.4809C86.1861 41.6498 85.5111 40.9761 84.6783 40.9761C83.8455 40.9761 83.1704 41.6498 83.1704 42.4809C83.1704 43.312 83.8455 43.9857 84.6783 43.9857Z" fill="#00687F"/>
<path d="M98.8501 23.3578C99.6829 23.3578 100.358 22.6841 100.358 21.853C100.358 21.0219 99.6829 20.3481 98.8501 20.3481C98.0174 20.3481 97.3423 21.0219 97.3423 21.853C97.3423 22.6841 98.0174 23.3578 98.8501 23.3578Z" fill="#F6BAC8"/>
<path d="M61.112 45.5266C62.0649 45.5266 62.8375 44.7556 62.8375 43.8045C62.8375 42.8535 62.0649 42.0825 61.112 42.0825C60.159 42.0825 59.3865 42.8535 59.3865 43.8045C59.3865 44.7556 60.159 45.5266 61.112 45.5266Z" fill="#00687F"/>
<path d="M39.4214 31.9159C40.2542 31.9159 40.9293 31.2422 40.9293 30.4111C40.9293 29.58 40.2542 28.9062 39.4214 28.9062C38.5887 28.9062 37.9136 29.58 37.9136 30.4111C37.9136 31.2422 38.5887 31.9159 39.4214 31.9159Z" fill="#00687F"/>
<path d="M33.7007 8.00965C34.5335 8.00965 35.2086 7.33592 35.2086 6.50483C35.2086 5.67374 34.5335 5 33.7007 5C32.868 5 32.1929 5.67374 32.1929 6.50483C32.1929 7.33592 32.868 8.00965 33.7007 8.00965Z" fill="#00A3A6"/>
</svg>
