<svg width="108" height="34" viewBox="0 0 108 34" fill="none" xmlns="http://www.w3.org/2000/svg">
<path d="M63.2522 11.6166C63.3765 11.1822 63.3714 9.37741 61.905 8.71032C58.6301 7.11241 47.9818 7.50543 44.4686 9.98244C42.7897 11.1718 42.1057 12.4026 44.2872 14.6986C40.9191 14.5383 32.7684 15.4743 28.224 16.6895C23.4154 17.9772 14.0003 21.6436 23.8196 23.8258C25.6798 24.2395 30.1153 23.7741 30.6024 26.2252C31.0739 28.5988 27.7525 28.573 26.8094 30.5639C24.146 36.1747 37.8827 32.3583 41.0435 32.0429C49.8524 31.1689 58.4487 34.6543 67.2421 33.7235C72.0558 33.2064 69.9106 32.7668 71.9056 30.1864C72.4704 29.4573 71.7035 28.6712 72.5533 27.9111C73.2994 27.2492 76.9629 27.5387 78.2221 27.4767C86.5128 27.0527 95.2128 29.3694 103.457 27.1716C115.131 24.0689 100.42 21.4832 101.571 18.0961C102.218 16.1931 106.037 17.2015 106.597 14.9934C107.452 11.5752 101.255 11.3735 99.0472 11.2339C94.1298 10.9546 88.6113 10.6754 83.8234 11.8441C80.9372 12.5474 78.8387 13.6178 75.7296 13.2558C75.6364 5.62827 68.3095 11.3683 63.2522 11.6166Z" fill="#A4D8E2"/>
<path d="M20.322 1.55349C20.0956 1.16308 19.7791 0.832243 19.3987 0.588497C19.0184 0.344751 18.5853 0.195141 18.1353 0.152096C17.147 0.083691 16.1546 0.197634 15.2077 0.488223C13.135 1.00534 10.4561 1.20185 8.52329 2.10682C8.56993 2.10682 3.49705 5.03373 6.61124 5.15784C5.25882 5.10612 0.823297 4.64072 0.818115 6.80746C0.818115 9.51201 4.24321 8.35883 5.69926 9.39307C8.59583 11.4616 6.93251 14.1041 11.6686 14.6057C15.7569 15.04 20.0888 15.4382 23.7937 13.6645C25.3482 12.9302 26.68 11.8546 28.2397 11.1823C31.1673 9.92054 33.8773 12.682 36.463 11.3426C40.2145 9.40342 34.5561 7.47972 34.981 5.88181C35.2452 4.88894 36.8309 4.88893 37.2713 3.96845C37.7118 3.04798 36.5355 2.01374 35.4733 1.71898C32.2451 0.824355 29.7734 3.12555 27.0012 2.70668C26.0374 2.56189 26.395 1.39319 25.5193 1.1036C23.7471 0.519251 21.7625 -0.137498 20.4256 1.7862C20.3962 1.70645 20.3616 1.62872 20.322 1.55349Z" fill="#D5ECF1"/>
</svg>
