<?xml version="1.0" encoding="UTF-8"?><svg id="Layer_2" xmlns="http://www.w3.org/2000/svg" viewBox="0 0 140.47 183.99"><defs><style>.cls-1{fill:#f5a04c;}.cls-2{fill:#a4542a;}</style></defs><g id="Layer_1-2"><path class="cls-1" d="M99.54,106.56c-.97,1.12-4.47,10.17-6.64,13.69-2.42,3.91-6.14,8.33,1.12,8.56,10.19,.32,14.06-16.2,8.03-22.51"/><path class="cls-1" d="M97.63,76.14c-.07-2.06-1.13-11.29-2.65-14.63-1.86-4.1-3.59-9.46,3.31-7.76,9.67,2.39,8.96,18.95,1.62,23.31"/><path class="cls-1" d="M133.05,80.3c-8.42-5.77-17.69-10.19-27.48-13.11,0,0-8.3,3.38-8.7,6.2-.4,2.82-3.74,5.19-3.74,16.27s3.07,15.35,3.07,15.35l3.5,7,4.89,.57c5.42-.96,10.58-3.03,15.15-6.1l15.74-9.28s4.98-2.82,4.98-8.75-7.41-8.15-7.41-8.15Z"/><path class="cls-2" d="M109.59,101.11c2.66,1.43,2.72-4.6,.68-4.24-1.65,.3-1.69,3.07-.68,4.24Z"/><path class="cls-2" d="M109.15,81.44c2.12,2.5,3.67-2.65,2.16-3.64-1.96-1.28-2.77,2.16-2.16,3.64Z"/><path class="cls-2" d="M99.84,105.95c0,6.14-5.87,4.41-7.41,4.6-3.53,.46-5.56,5.85-6.64,8.49-4.07,9.97-4.75,20.39-11.15,29.35-5.83,8.16-14.75,11.16-22.83,16.4-7.55,4.9-11.75,13.04-20.94,16.11-6.14,2.03-22.42,5.86-27.02-.12,2.65-1.19,7.42,0,10.49-.31,4.45-.47,8.84-1.32,13.14-2.55,6.49-1.84,11.51-7.19,15.24-12.42-2.77,1.21-14.51,.81-16.53-1.53,3.97-.54,10.27,.63,13.76-1.53-10.49-4.22-16.06-1.78-22.62-3.84-5.29-1.65-12.94-3.18-17.34-6.49,15.12-1.16,29.76,4.94,44.97,4.94s26.16-11.77,30.34-26.79c-6.72,6.28-17.75,11.51-26.6,6.35,9.34,0,16.02-1.66,23.02-7.92,2.56-2.3,4.99-4.27,6.91-7.15,2.03-3.01,1.71-5.82,4.16-8.61-5.22,2.3-5.49,9.6-11.86,8.22-3.23-.7-12.38-4.6-14.17-7.47,3.59,.7,7.14,.97,10.74,1.91,2.8,.77,3.84,1.1,6.54-.42,2.71-1.53,6.58-6.9,8.97-8.97,3.07-2.67,9.05-1.44,10.74-6.48,1.41-4.02,6.09-.87,6.09,6.23Z"/><path class="cls-2" d="M94.23,80.63c-1-2.56-3.15-4.96-4.9-5.81-6.23-3.03-8.66-11.7-11.3-17.45-2.3-5.02-7.27-4.83-12.11-3.38,1.3-3.71,5.31-2.88,8.03-4.6-3.54-7.07-5.77-14.62-18.98-16.25-6.46-.77-15.23,1.43-21.21,4.07,9.47-8.05,20.44-9.48,31.17-7.54-1.04-4.5-7.93-6.54-11.82-7.14-4.68-.72-9.13,.77-13.6,2.17-6.51,1.93-12.73,4.71-18.5,8.28-3.07,1.94-5.95,3.51-9.21,5.16-2.7,1.38-4.49,4-7.67,2.84,.72-1.43,3.84-5.71,5.42-6.5,3.07-1.58,3.36-.9,5.64-3.47,4.02-4.53,29.39-14.69,29.39-14.69,0,0-8.23-5.28-12.87-7.45-5.22-2.44-10.74-1.96-16.31-1.3-2.88,.34-6.25,.21-9.02,.98-2,.55-3.65,2.07-5.75,2.06C5.77,3.28,15.49-.43,24.31,.04c4.37,.23,9.43,1.25,13.21,3.51,4.2,2.5,7.45,6.48,12,8.27,8.91,3.53,18.41,6.37,22.88,15.77,2.17,4.56,3.46,8.71,5.95,13.12,2.22,3.94,4.8,7.93,6.61,12.1,1.73,3.96,3.28,11.02,6.39,14.12,4.48,4.48,8.9,.84,8.9,7.78,.05,5.97-4.66,9.43-6.02,5.92Z"/></g></svg>