<svg width="136" height="72" viewBox="0 0 136 72" fill="none" xmlns="http://www.w3.org/2000/svg">
<path d="M96.7663 38.5284L131.282 12.5362C131.282 12.5362 135.157 7.74596 127.625 7.97879C120.093 8.21163 101.044 22.3662 95.4945 37.9015" fill="#9BCEA4"/>
<path d="M94.7931 39.4476C94.7931 39.4476 70.7414 66.879 65.0757 64.7025C59.41 62.5259 72.0548 49.8355 78.5197 46.1543C84.9845 42.4731 94.3364 38.063 94.3364 38.063" fill="#9BCEA4"/>
<path d="M92.383 38.1353C91.9304 38.0257 58.575 37.8567 59.2956 40.7511C60.0163 43.6455 72.8757 43.1044 80.548 41.6318C88.2204 40.1591 92.6449 39.6496 92.6449 39.6496" fill="#9BCEA4"/>
<path d="M97.0366 39.5466C97.5515 39.6302 136.232 36.5435 135.176 33.1061C134.12 29.6687 119.26 31.5825 110.479 34.1512C101.697 36.72 96.6062 37.7686 96.6062 37.7686" fill="#9BCEA4"/>
<path d="M104.435 42.8975C104.746 40.7382 100.049 38.4831 98.4113 37.9155C96.5046 37.2593 94.387 37.42 92.5297 36.6482C90.0849 35.6304 88.1907 32.3227 86.0194 30.6011C82.6966 27.965 78.9257 25.8165 75.6477 23.0628C72.9257 20.7847 70.2973 18.4733 66.7178 17.7889C65.373 19.9293 66.9318 20.4536 68.6975 21.5932C70.5562 22.7937 72.4264 23.8885 74.2351 25.1709C77.13 27.1865 79.9145 29.3565 82.5764 31.6716C84.7355 33.582 86.5925 35.5212 88.9693 37.0903C89.9249 37.717 91.1796 38.2746 91.8559 39.1854C92.7248 40.3212 92.5974 41.884 93.3551 43.1838C94.5183 45.1822 97.3037 49.0304 99.7324 49.0787" fill="#2FAC66"/>
<path d="M100.136 49.3261C98.547 48.6317 98.1377 46.786 98.8982 45.2796C99.7128 43.671 101.718 43.1288 103.441 43.075C105.605 42.9919 106.265 43.389 106.322 45.4509C106.379 47.5127 106.667 49.1006 104.576 49.9971C103.026 50.6556 100.754 50.9542 100.136 49.3261Z" fill="#246254"/>
<path d="M44.134 17.2778C45.3126 17.2778 46.2681 16.3202 46.2681 15.1389C46.2681 13.9576 45.3126 13 44.134 13C42.9554 13 42 13.9576 42 15.1389C42 16.3202 42.9554 17.2778 44.134 17.2778Z" fill="#A499B3"/>
<path d="M34.9437 34.8962C36.0172 34.8962 36.8873 34.024 36.8873 32.9481C36.8873 31.8722 36.0172 31 34.9437 31C33.8703 31 33 31.8722 33 32.9481C33 34.024 33.8703 34.8962 34.9437 34.8962Z" fill="#008C5E"/>
<path d="M42.5246 50.7812C43.3667 51.1815 44.3745 50.8218 44.7758 49.9779C45.177 49.1339 44.8197 48.1252 43.9776 47.7249C43.1356 47.3246 42.1276 47.6842 41.7264 48.5281C41.3251 49.3721 41.6826 50.3808 42.5246 50.7812Z" fill="#008C5E"/>
<path d="M22.2385 26.8231C23.1709 26.8231 23.9266 26.0655 23.9266 25.131C23.9266 24.1965 23.1709 23.439 22.2385 23.439C21.3062 23.439 20.5503 24.1965 20.5503 25.131C20.5503 26.0655 21.3062 26.8231 22.2385 26.8231Z" fill="#008C5E"/>
<path d="M24.3495 50.7096C25.647 50.7096 26.6989 49.6553 26.6989 48.3548C26.6989 47.0543 25.647 46 24.3495 46C23.052 46 22 47.0543 22 48.3548C22 49.6553 23.052 50.7096 24.3495 50.7096Z" fill="#6FBC85"/>
<path d="M19.688 11.3841C20.6204 11.3841 21.3762 10.6265 21.3762 9.69205C21.3762 8.75756 20.6204 8 19.688 8C18.7557 8 18 8.75756 18 9.69205C18 10.6265 18.7557 11.3841 19.688 11.3841Z" fill="#3F2B59"/>
<path d="M53.134 31.2778C54.3126 31.2778 55.2681 30.3202 55.2681 29.1389C55.2681 27.9576 54.3126 27 53.134 27C51.9554 27 51 27.9576 51 29.1389C51 30.3202 51.9554 31.2778 53.134 31.2778Z" fill="#A499B3"/>
<path d="M2.34943 22.7096C3.64699 22.7096 4.69885 21.6553 4.69885 20.3548C4.69885 19.0543 3.64699 18 2.34943 18C1.05186 18 0 19.0543 0 20.3548C0 21.6553 1.05186 22.7096 2.34943 22.7096Z" fill="#A499B3"/>
<path d="M11.6881 36.3841C12.6205 36.3841 13.3763 35.6265 13.3763 34.6921C13.3763 33.7576 12.6205 33 11.6881 33C10.7558 33 10 33.7576 10 34.6921C10 35.6265 10.7558 36.3841 11.6881 36.3841Z" fill="#A499B3"/>
</svg>
