<svg width="114" height="56" viewBox="0 0 114 56" fill="none" xmlns="http://www.w3.org/2000/svg">
<path d="M49.6297 39.8659C49.6297 39.8659 51.7938 35.799 47.1951 29.2919C42.5965 22.7848 43.949 16.2727 50.7017 12.4769C57.4544 8.68113 62.6091 0 62.6091 0C62.6091 0 67.4783 2.71129 67.4783 14.3748C67.4783 26.0384 60.7155 40.4082 60.7155 40.4082L49.6297 39.8659Z" fill="#BB7752"/>
<path d="M113.75 45.7701L108.741 46.227C98.2213 48.2755 70.5392 55.3198 70.5392 55.3198C64.688 55.9644 58.7766 55.8124 52.9661 54.8679C51.9091 54.7123 50.8822 54.5315 49.8703 54.3658C46.9318 50.1083 45.2005 45.1317 44.8608 39.9659C45.2967 39.8404 45.7075 39.7048 46.0832 39.5693C48.8183 38.6253 51.7187 37.2195 52.42 37.104C51.4182 39.3082 49.75 40.8797 50.4163 41.8136C51.4182 43.1793 55.8615 44.4295 55.8615 44.4295C78.6544 45.3332 81.2543 40.1065 81.2543 40.1065C80.2352 39.2458 79.331 38.2568 78.5643 37.1643C88.2826 38.4145 96.7185 40.4831 102.008 41.0153C112.163 42.0295 113.75 45.7701 113.75 45.7701Z" fill="#BB7752"/>
<path d="M49.8904 54.3512C42.246 52.8951 35.9841 50.7211 32.4725 49.8324C32.222 49.7621 31.9716 49.7068 31.7812 49.6566C31.666 49.6265 31.5408 49.6014 31.4155 49.5813C33.6308 46.1945 36.4416 43.2394 39.7111 40.86V40.86C39.9917 40.86 40.2472 40.8199 40.5177 40.7897C41.9976 40.6387 43.4621 40.3632 44.896 39.9663C45.2338 45.1254 46.9597 50.0964 49.8904 54.3512V54.3512Z" fill="#CA9070"/>
<path d="M36.5151 40.9404C33.4171 43.2318 30.7363 46.041 28.5902 49.245C22.3484 48.9789 13.7723 50.6608 13.7723 50.6608L11.6132 51.1328L10.6614 51.3387C9.66016 49.6554 8.87103 47.8542 8.31201 45.9763L8.36711 45.9161L8.828 45.414C10.6063 43.5663 12.3697 41.6985 16.3972 40.1872C23.6459 37.4559 24.6728 40.3027 35.1024 40.8701C35.5733 40.9203 36.0442 40.9404 36.5151 40.9404Z" fill="#2FAC66"/>
<path d="M10.6315 51.3384L1.17369 53.3869C1.17369 53.3869 -2.57336 52.4831 3.32276 49.6413C5.1876 48.7371 6.86906 47.4944 8.28207 45.9761C8.84109 47.854 9.63028 49.6551 10.6315 51.3384V51.3384Z" fill="#FFCE44"/>
<path d="M39.7111 40.8447C36.4415 43.2241 33.6307 46.1792 31.4154 49.566C30.9145 49.4706 30.4136 49.3903 29.8475 49.3351C29.4367 49.2949 29.0159 49.2648 28.5801 49.2447C30.7322 46.0391 33.4199 43.2297 36.5251 40.9401C36.7906 40.9401 37.0611 40.9401 37.3216 40.9401C38.1582 40.9401 38.9546 40.91 39.7111 40.8447Z" fill="#EDEDED"/>
<path d="M82.0558 40.137C82.0558 40.137 79.3858 45.4993 56.0068 44.5704C56.0068 44.5704 51.4633 43.2851 50.4213 41.8842C49.71 40.9303 51.4232 39.3186 52.4502 37.0592C52.987 35.9525 53.2122 34.7199 53.1014 33.4943C52.6005 29.3019 49.7401 28.5287 49.2592 23.8191C47.9767 11.2367 76.2349 9.36892 76.4703 0.979004C76.4703 0.979004 86.925 10.1873 79.8868 18.989C77.5785 21.7481 76.372 25.2666 76.5004 28.865C76.6386 31.8238 77.6037 34.684 79.2856 37.1194C80.0762 38.2401 81.0073 39.2542 82.0558 40.137V40.137Z" fill="#CA9070"/>
</svg>
