<svg width="190" height="191" viewBox="0 0 190 191" fill="none" xmlns="http://www.w3.org/2000/svg">
<path d="M120.012 184.735C130.978 173.945 140.273 175.988 146.955 178.827C153.463 181.714 159.35 185.833 164.289 190.956C164.71 186.9 163.377 183.158 163.722 179.202C157.492 181.283 152.388 187.673 145.33 189.694C137.66 191.882 125.851 190.466 120.012 184.735Z" fill="#00687F"/>
<path d="M49.1719 121.835C71.6553 104.869 84.8051 132.158 107.495 131.99C105.817 127.161 106.729 115.805 106.729 115.805C106.729 115.805 100.514 119.287 97.0354 122.47C92.039 127.061 83.2418 131.997 76.0615 132.625C65.226 133.574 55.3023 130.467 49.1719 121.835Z" fill="#00687F"/>
<path d="M16.4297 91.2254C38.9131 74.26 52.063 101.549 74.7534 101.38C73.0751 96.5515 73.9871 85.1953 73.9871 85.1953C73.9871 85.1953 67.7723 88.6772 64.2933 91.8606C59.2969 96.452 50.4997 101.388 43.3194 102.015C32.4838 102.98 22.5601 99.865 16.4297 91.2254Z" fill="#87CEDA"/>
<path d="M137.422 151.68C153.223 135.036 172.427 150.372 179.645 157.198C179.553 153.287 183.577 149.316 180.871 144.717C165.959 153.792 153.844 162.822 137.422 151.68Z" fill="#87CEDA"/>
<path d="M2.65911 71.5881C4.12768 71.5881 5.31818 70.3992 5.31818 68.9327C5.31818 67.4662 4.12768 66.2773 2.65911 66.2773C1.19054 66.2773 0 67.4662 0 68.9327C0 70.3992 1.19054 71.5881 2.65911 71.5881Z" fill="#CAE0EA"/>
<path d="M16.3762 31.481C17.557 31.481 18.5142 30.5251 18.5142 29.346C18.5142 28.1668 17.557 27.2109 16.3762 27.2109C15.1955 27.2109 14.2383 28.1668 14.2383 29.346C14.2383 30.5251 15.1955 31.481 16.3762 31.481Z" fill="#CAE0EA"/>
<path d="M4.64452 61.226C5.52904 61.226 6.24611 60.51 6.24611 59.6267C6.24611 58.7434 5.52904 58.0273 4.64452 58.0273C3.75999 58.0273 3.04297 58.7434 3.04297 59.6267C3.04297 60.51 3.75999 61.226 4.64452 61.226Z" fill="#CAE0EA"/>
<path d="M2.39059 32.5073C3.2751 32.5073 3.99216 31.7912 3.99216 30.9079C3.99216 30.0246 3.2751 29.3086 2.39059 29.3086C1.50608 29.3086 0.789062 30.0246 0.789062 30.9079C0.789062 31.7912 1.50608 32.5073 2.39059 32.5073Z" fill="#CAE0EA"/>
<path d="M6.02347 84.7964C6.90802 84.7964 7.62511 84.0803 7.62511 83.197C7.62511 82.3137 6.90802 81.5977 6.02347 81.5977C5.13892 81.5977 4.42188 82.3137 4.42188 83.197C4.42188 84.0803 5.13892 84.7964 6.02347 84.7964Z" fill="#CAE0EA"/>
<path d="M11.7785 47.9952C12.4091 47.9952 12.9203 47.4847 12.9203 46.855C12.9203 46.2253 12.4091 45.7148 11.7785 45.7148C11.1479 45.7148 10.6367 46.2253 10.6367 46.855C10.6367 47.4847 11.1479 47.9952 11.7785 47.9952Z" fill="#CAE0EA"/>
<path d="M10.673 72.9367C11.3036 72.9367 11.8148 72.4262 11.8148 71.7965C11.8148 71.1667 11.3036 70.6562 10.673 70.6562C10.0424 70.6562 9.53125 71.1667 9.53125 71.7965C9.53125 72.4262 10.0424 72.9367 10.673 72.9367Z" fill="#CAE0EA"/>
<path d="M29.3019 19.2296C29.9325 19.2296 30.4437 18.7192 30.4437 18.0894C30.4437 17.4597 29.9325 16.9492 29.3019 16.9492C28.6713 16.9492 28.1602 17.4597 28.1602 18.0894C28.1602 18.7192 28.6713 19.2296 29.3019 19.2296Z" fill="#CAE0EA"/>
<path d="M144.432 115.414C145.257 115.414 145.926 114.746 145.926 113.922C145.926 113.098 145.257 112.43 144.432 112.43C143.607 112.43 142.938 113.098 142.938 113.922C142.938 114.746 143.607 115.414 144.432 115.414Z" fill="#CAE0EA"/>
<path d="M143.997 98.8794C145.178 98.8794 146.135 97.9235 146.135 96.7444C146.135 95.5653 145.178 94.6094 143.997 94.6094C142.817 94.6094 141.859 95.5653 141.859 96.7444C141.859 97.9235 142.817 98.8794 143.997 98.8794Z" fill="#CAE0EA"/>
<path d="M132.348 121.39C133.232 121.39 133.949 120.674 133.949 119.791C133.949 118.907 133.232 118.191 132.348 118.191C131.463 118.191 130.746 118.907 130.746 119.791C130.746 120.674 131.463 121.39 132.348 121.39Z" fill="#CAE0EA"/>
<path d="M133.32 89.1518C134.205 89.1518 134.922 88.4358 134.922 87.5525C134.922 86.6692 134.205 85.9531 133.32 85.9531C132.436 85.9531 131.719 86.6692 131.719 87.5525C131.719 88.4358 132.436 89.1518 133.32 89.1518Z" fill="#CAE0EA"/>
<path d="M136.953 141.441C137.838 141.441 138.555 140.725 138.555 139.842C138.555 138.958 137.838 138.242 136.953 138.242C136.069 138.242 135.352 138.958 135.352 139.842C135.352 140.725 136.069 141.441 136.953 141.441Z" fill="#CAE0EA"/>
<path d="M125.075 102.741C125.706 102.741 126.217 102.231 126.217 101.601C126.217 100.971 125.706 100.461 125.075 100.461C124.445 100.461 123.934 100.971 123.934 101.601C123.934 102.231 124.445 102.741 125.075 102.741Z" fill="#CAE0EA"/>
<path d="M141.607 129.577C142.237 129.577 142.748 129.067 142.748 128.437C142.748 127.807 142.237 127.297 141.607 127.297C140.976 127.297 140.465 127.807 140.465 128.437C140.465 129.067 140.976 129.577 141.607 129.577Z" fill="#CAE0EA"/>
<path d="M128.634 62.9249C129.265 62.9249 129.776 62.4145 129.776 61.7848C129.776 61.155 129.265 60.6445 128.634 60.6445C128.003 60.6445 127.492 61.155 127.492 61.7848C127.492 62.4145 128.003 62.9249 128.634 62.9249Z" fill="#CAE0EA"/>
<path d="M23.0871 2.28044C23.7177 2.28044 24.2289 1.76996 24.2289 1.14023C24.2289 0.510508 23.7177 0 23.0871 0C22.4565 0 21.9453 0.510508 21.9453 1.14023C21.9453 1.76996 22.4565 2.28044 23.0871 2.28044Z" fill="#CAE0EA"/>
<path d="M170.577 69.3385C169.857 62.5355 184.156 54.7989 189.957 55.8932C186.654 64.7011 179.451 66.905 170.577 69.3385Z" fill="#8EC89A"/>
<path d="M150.725 49.2216C141.338 37.9572 149.001 27.4122 148.051 15C151.446 20.8617 155.829 24.3819 156.021 31.7205C156.174 37.4981 153.27 44.9515 150.725 49.2216Z" fill="#8EC89A"/>
<path d="M100 66.2559C100.651 53.7825 116.468 51.349 126.629 46C125.863 52.3668 121.265 56.9812 115.295 60.4248C110.177 63.3633 104.72 62.7358 100 66.2559Z" fill="#FFCE44"/>
</svg>
