<svg width="210" height="52" viewBox="0 0 210 52" fill="none" xmlns="http://www.w3.org/2000/svg">
<path d="M74.9667 8.79602C76.1858 8.79602 77.1741 7.80973 77.1741 6.59308C77.1741 5.37643 76.1858 4.39014 74.9667 4.39014C73.7476 4.39014 72.7593 5.37643 72.7593 6.59308C72.7593 7.80973 73.7476 8.79602 74.9667 8.79602Z" fill="#A499B3"/>
<path d="M147.837 27.9971C149.179 27.9971 150.267 26.9112 150.267 25.5718C150.267 24.2323 149.179 23.1465 147.837 23.1465C146.495 23.1465 145.407 24.2323 145.407 25.5718C145.407 26.9112 146.495 27.9971 147.837 27.9971Z" fill="#6FBC85"/>
<path d="M187.513 37.1759C188.732 37.1759 189.72 36.1896 189.72 34.973C189.72 33.7563 188.732 32.77 187.513 32.77C186.294 32.77 185.306 33.7563 185.306 34.973C185.306 36.1896 186.294 37.1759 187.513 37.1759Z" fill="#6FBC85"/>
<path d="M157.754 49.442C158.974 49.442 159.962 48.4557 159.962 47.2391C159.962 46.0224 158.974 45.0361 157.754 45.0361C156.535 45.0361 155.547 46.0224 155.547 47.2391C155.547 48.4557 156.535 49.442 157.754 49.442Z" fill="#A499B3"/>
<path d="M108.047 22.3345C109.011 22.3345 109.793 21.5543 109.793 20.5918C109.793 19.6294 109.011 18.8491 108.047 18.8491C107.082 18.8491 106.3 19.6294 106.3 20.5918C106.3 21.5543 107.082 22.3345 108.047 22.3345Z" fill="#A499B3"/>
<path d="M81.0966 47.875C82.061 47.875 82.8428 47.0948 82.8428 46.1323C82.8428 45.1699 82.061 44.3896 81.0966 44.3896C80.1322 44.3896 79.3503 45.1699 79.3503 46.1323C79.3503 47.0948 80.1322 47.875 81.0966 47.875Z" fill="#6FBC85"/>
<path d="M49.0426 7.2603C50.007 7.2603 50.7888 6.48007 50.7888 5.5176C50.7888 4.55514 50.007 3.7749 49.0426 3.7749C48.0782 3.7749 47.2964 4.55514 47.2964 5.5176C47.2964 6.48007 48.0782 7.2603 49.0426 7.2603Z" fill="#A499B3"/>
<path d="M134.649 8.5689C135.614 8.5689 136.396 7.78867 136.396 6.8262C136.396 5.86373 135.614 5.0835 134.649 5.0835C133.685 5.0835 132.903 5.86373 132.903 6.8262C132.903 7.78867 133.685 8.5689 134.649 8.5689Z" fill="#A499B3"/>
<path d="M94.9628 25.8043C95.9272 25.8043 96.709 25.024 96.709 24.0616C96.709 23.0991 95.9272 22.3188 94.9628 22.3188C93.9984 22.3188 93.2166 23.0991 93.2166 24.0616C93.2166 25.024 93.9984 25.8043 94.9628 25.8043Z" fill="#008C5E"/>
<path d="M130.934 41.9903C132.276 41.9903 133.364 40.9044 133.364 39.565C133.364 38.2255 132.276 37.1396 130.934 37.1396C129.592 37.1396 128.504 38.2255 128.504 39.565C128.504 40.9044 129.592 41.9903 130.934 41.9903Z" fill="#008C5E"/>
<path d="M169.242 30.5669C170.585 30.5669 171.673 29.4811 171.673 28.1416C171.673 26.8022 170.585 25.7163 169.242 25.7163C167.9 25.7163 166.812 26.8022 166.812 28.1416C166.812 29.4811 167.9 30.5669 169.242 30.5669Z" fill="#A499B3"/>
<path d="M105.124 51.2725C106.089 51.2725 106.87 50.4923 106.87 49.5298C106.87 48.5673 106.089 47.7871 105.124 47.7871C104.16 47.7871 103.378 48.5673 103.378 49.5298C103.378 50.4923 104.16 51.2725 105.124 51.2725Z" fill="#6FBC85"/>
<path d="M67.7382 34.4195C69.0804 34.4195 70.1684 33.3336 70.1684 31.9942C70.1684 30.6547 69.0804 29.5688 67.7382 29.5688C66.3961 29.5688 65.3081 30.6547 65.3081 31.9942C65.3081 33.3336 66.3961 34.4195 67.7382 34.4195Z" fill="#6FBC85"/>
<path d="M106.134 4.85061C107.477 4.85061 108.565 3.76476 108.565 2.4253C108.565 1.08585 107.477 0 106.134 0C104.792 0 103.704 1.08585 103.704 2.4253C103.704 3.76476 104.792 4.85061 106.134 4.85061Z" fill="#6FBC85"/>
<path d="M207.664 42.9519C206.022 44.2241 202.763 44.374 201.405 41.4006C200.047 38.4271 199.939 36.6069 200.695 34.6418C201.452 32.6767 196.177 27.3193 193.182 25.9541C190.187 24.5889 184.772 21.6931 180.31 12.9744C175.849 4.25569 183.938 2.22857 185.979 3.44898C188.021 4.66939 192.544 8.07206 197.063 16.5891C201.581 25.1061 208.571 37.667 208.571 37.667C208.571 37.667 210.152 41.0282 207.664 42.9519Z" fill="#9DBA8B"/>
<path d="M204.431 36.3586C204.431 36.3586 205.923 35.9501 206.613 36.4931C206.613 36.4931 198.322 19.0506 193.296 12.7055C188.269 6.36039 185.352 5.84326 185.352 5.84326C185.352 5.84326 191.57 11.0145 195 17.2975C198.431 23.5806 204.431 36.3586 204.431 36.3586Z" fill="#7DA567"/>
<path d="M202.996 35.7898C202.652 35.9827 202.349 36.2414 202.106 36.5511C201.862 36.8608 201.682 37.2154 201.576 37.5946C200.918 39.57 202.612 42.1194 204.576 42.7089C209.799 44.2758 208.473 32.9146 202.996 35.7898Z" fill="#5B9146"/>
<path d="M0.45922 4.14719C1.46446 2.33209 4.40243 0.915175 6.82227 3.11294C9.24211 5.31071 10.066 6.94482 10.1437 9.04951C10.2215 11.1542 17.1856 14.0035 20.5071 14.0759C23.8285 14.1483 29.917 14.6861 37.4563 20.9433C44.9956 27.2005 38.3839 32.2424 36.0107 31.9322C33.6375 31.6219 28.1501 30.267 20.6366 24.2115C13.1232 18.156 1.70796 9.37012 1.70796 9.37012C1.70796 9.37012 -1.06937 6.89311 0.45922 4.14719Z" fill="#9DBA8B"/>
<path d="M6.02971 8.93604C6.02971 8.93604 4.82237 9.90305 3.95703 9.67035C3.95703 9.67035 18.4657 22.4433 25.5854 26.2958C32.705 30.1484 35.5964 29.4865 35.5964 29.4865C35.5964 29.4865 27.8239 27.1853 22.2069 22.7639C16.59 18.3425 6.02971 8.93604 6.02971 8.93604Z" fill="#7DA567"/>
<path d="M7.57373 8.89964C8.05761 8.26758 8.2701 7.46959 8.16445 6.68119C7.98827 4.6127 5.42329 2.92688 3.39207 3.15442C-2.03316 3.76979 3.66673 13.6882 7.57373 8.89964Z" fill="#5B9146"/>
</svg>
