<svg width="284" height="78" viewBox="0 0 284 78" fill="none" xmlns="http://www.w3.org/2000/svg">
<path d="M226.476 46.159L219.784 46.3799C213.271 33.6971 197.427 14.3416 167.57 8.13578C123.062 -1.20309 97.0577 25.1365 97.0577 25.1365L89.9994 23.093C89.9994 23.093 118.253 -7.188 168.532 3.05964C203.533 10.1943 220.821 33.0093 226.476 46.159Z" fill="#5C4973"/>
<path d="M219.784 46.3802L213.096 46.6011C205.742 34.3903 191.31 18.5343 166.604 13.2122C127.856 4.8574 104.121 27.1753 104.121 27.1753L97.0577 25.1368C97.0577 25.1368 123.062 -1.20282 167.57 8.14609C197.427 14.3419 213.282 33.6974 219.784 46.3802Z" fill="#C71748"/>
<path d="M213.096 46.601L206.409 46.8169C198.198 35.073 185.199 22.6864 165.642 18.2831C132.66 10.8622 111.179 29.2337 111.179 29.2337L104.121 27.1952C104.121 27.1952 127.856 4.85724 166.599 13.212C191.31 18.5342 205.742 34.3902 213.096 46.601Z" fill="#EB5D40"/>
<path d="M206.409 46.8069L199.721 47.0278C190.644 35.761 179.122 26.8187 164.675 23.3593C137.469 16.8322 118.238 31.2572 118.238 31.2572L111.179 29.2338C111.179 29.2338 132.66 10.8824 165.642 18.3033C185.199 22.7066 198.198 35.0731 206.409 46.8069Z" fill="#F6BAC8"/>
<path d="M199.721 47.038L193.033 47.2539C160.257 11.5603 125.301 33.2958 125.301 33.2958L118.238 31.2422C118.238 31.2422 137.469 16.8222 164.675 23.3443C179.122 26.8188 190.644 35.761 199.721 47.038Z" fill="#FFCE44"/>
<path d="M97.6939 24.0419C96.8674 23.2034 96.151 22.2495 95.3145 21.416C90.4453 16.5809 83.0263 17.098 76.8247 18.2729C72.8672 19.021 68.8096 19.4076 64.9423 20.6126C61.3505 21.7323 60.7093 23.2436 58.5703 26.0101C56.1758 29.108 53.4106 30.5741 49.2828 30.8603C45.7361 31.1013 42.1895 30.4586 38.6428 30.1724C34.4299 29.831 29.9114 29.816 25.8988 31.3373C23.2638 32.3415 16.1454 35.9063 20.5437 39.1699C23.4191 41.3038 25.2075 41.5649 20.7842 43.292C18.1442 44.3213 15.0434 44.2159 12.2681 44.7682C8.44595 45.5314 1.32755 46.6761 0.120279 51.2552C-1.63803 57.948 13.24 57.9983 17.3227 57.9983C24.8368 57.9983 31.4092 55.5782 38.6628 54.4033C42.7605 53.7405 51.7825 51.0493 55.6348 53.0225C56.5615 53.4995 57.333 55.7389 58.3298 56.5372C59.7071 57.6407 61.3934 58.2866 63.1539 58.3849C67.963 58.887 69.5961 56.5422 73.6737 55.2518C85.6613 51.4711 88.4516 55.0711 100.76 55.0409C106.606 55.0409 112.667 55.0409 118.423 53.8861C119.976 53.5748 124.965 52.6409 124.975 50.1104C124.975 47.8711 120.572 48.1021 122.275 45.2351C123.117 43.8293 136.717 43.5632 138.105 43.2017C140.8 42.5088 147.192 42.0418 146.055 37.754C141.696 36.3259 137.25 35.1805 132.745 34.3247C127.856 33.3507 128.818 31.2871 125.672 28.4402C121.859 24.9909 116.89 24.1524 111.916 24.4235C108.094 24.6394 101.897 27.436 98.5405 24.8202C98.2426 24.5785 97.9599 24.3186 97.6939 24.0419Z" fill="#D5ECF1"/>
<path d="M219.934 45.5917C220.114 44.9691 220.104 42.3984 218.025 41.4495C213.372 39.1649 198.243 39.7273 193.254 43.262C190.864 44.954 189.897 46.7114 192.993 49.99C188.209 49.7641 176.628 51.0996 170.19 52.8318C163.358 54.6695 149.987 59.8962 163.939 63.0142C166.579 63.6067 172.88 62.9389 173.572 66.4385C174.238 69.8225 169.524 69.7874 168.182 72.6292C164.399 80.6325 183.916 75.1899 188.41 74.743C200.963 73.4928 213.136 78.4585 225.625 77.138C232.468 76.415 229.417 75.7723 232.272 72.087C233.069 71.0527 231.982 69.923 233.184 68.8435C234.246 67.8945 239.451 68.3163 241.239 68.2209C253.041 67.6184 265.38 70.9271 277.097 67.7891C293.678 63.3506 272.778 59.6452 274.412 54.8402C275.333 52.1189 280.759 53.5649 281.55 50.3967C282.772 45.5164 273.966 45.2151 270.83 45.0344C263.847 44.6327 256.002 44.2361 249.199 45.903C245.096 46.9072 242.116 48.4386 237.677 47.9114C237.532 37.0512 227.118 45.2402 219.934 45.5917Z" fill="#D5ECF1"/>
</svg>
