<?xml version="1.0" encoding="UTF-8"?><svg id="Layer_2" xmlns="http://www.w3.org/2000/svg" viewBox="0 0 218.71 198.54"><defs><style>.cls-1{fill:#7da567;}.cls-2{fill:#9a5129;}.cls-3{fill:#5b9146;}.cls-4{fill:#3c642f;}.cls-5{fill:none;stroke:#cec0ae;stroke-linecap:round;stroke-linejoin:round;stroke-width:2px;}</style></defs><g id="Layer_1-2"><path class="cls-4" d="M186.4,170.2c3.9-3.5,2.9-8.8,2.9-8.8-11-9.6-62.3-46.9-74.6-54.7-9.2-5.8-18.6-11.8-28.4-16.4-7-3.4-17.4-8.9-25.1-9.4,21.4,13.2,42.9,25.4,62.4,41.6,12.6,10.5,24.7,21,36.5,32.2,6.5,6.1,15.6,13.4,19.8,20.9,.1,0,2.6-1.9,6.5-5.4Z"/><path class="cls-3" d="M197.2,157.3c-1.7,1.6-3.8,2.6-6.2,2.8-19-20.9-47.3-26.1-67.9-46.2-16-15.6-42.1-44.2-47.3-65.6,11.4,18.8,30.4,43.2,51.7,60.1,11.4,9,24.9,15.9,37.3,23.5,9.5,5.8,24,19.1,35.3,18.8,0,0-.3,4.1-2.9,6.6Z"/><path class="cls-5" d="M176.1,173.9c-11.6-10.3-104.6-82.4-145.8-107.1"/><path class="cls-5" d="M5.6,49c-1.2-.5-3.1-1.8-4.6-2.5"/><path class="cls-5" d="M206.5,138.6c-4.8-.8-82.7-56.2-87-59.2-6-4.2-11.7-8.7-17.4-13.1-6.8-5.2-13.6-10.5-20.1-16.2-5.9-5.2-10.6-12-16.9-16.5"/><path class="cls-5" d="M95,4.1c-.1,1.4-.7,2.8-1.7,3.8"/><path class="cls-5" d="M193.3,153.6c-27.6-20.5-85.3-56.8-113.6-76.8-20.7-14.8-27.8-21.6-44.9-37.4"/><path class="cls-5" d="M121.4,12.4c.1,.7-.6,3.2-1.7,4.6"/><path class="cls-5" d="M208.5,112.7c-9.4-6.7-69.1-55.6-76-62.3-10.6-10.3-23.4-19.6-32.9-30.9"/><path class="cls-5" d="M55.8,1l-3.6,4.1"/><path class="cls-4" d="M165.1,193.2c-8.7-6.2-15.5-16.1-24.4-22.7-6.6-4.9-13.6-8.9-20.4-13.5,10.5,.4,18.9,5.3,27.4,10.6,7,4.3,18.3,11.8,22.1,18.6,3.1,5.5-4.7,7-4.7,7Z"/><path class="cls-3" d="M166.5,193c-4.2-4.4-11.4-5.7-15.8-10.1-3.3-3.3-7.7-7.1-10.7-10.6-.9,7.5,3.9,11.4,7.3,15.9,2.8,3.7,7.6,9.6,12.8,10.3,4.1,.6,6.3-5.5,6.4-5.5Z"/><path class="cls-3" d="M169.2,187.2c-4.9-7.5-65.8-53.7-73.3-58.3-12.5-7.7-26.8-13.9-38.6-22.4,15.5,3.2,30.4,8.3,43.9,16.4,12.7,7.5,70.5,41,76.6,54.6,2.8,6.2-8.6,9.7-8.6,9.7Z"/><path class="cls-1" d="M176.8,178.8c-19.1-22.9-56-27.6-63.7-62.6,7.4,12.8,19.4,21.9,31.4,29.4,24.5,15.3,35.7,18.6,45.1,19-3.8,15.7-12.8,14.2-12.8,14.2Z"/><path class="cls-1" d="M217.5,134.5c2.4-3,.5-5.5,.5-5.5-8.7-5.7-41-31.7-49.8-37.4-8.4-5.4-18.7-12.2-26.1-19.2,9.8,12.7,57.9,51.8,69.8,63,0,0,3.3,2.1,5.6-.9Z"/><path class="cls-4" d="M210.2,144.3c.9-1,1.5-2.1,1.9-3.3s.5-2.6,.3-3.8c-6.6-9.4-66.4-50.7-76-58.5-16.5-13.5-39.2-39.9-58.2-49.5,21.2,21.3,37.2,45.5,62,62.7,25.5,17.8,46.8,28.6,62.1,55.6,.1-.1,4.8,.2,7.9-3.2Z"/><path class="cls-1" d="M202.5,151.4c4-4.5,4.3-8.3,4.3-8.3-11.8-8-31.1-14.2-74.1-48.2-10.7-8.5-25.5-17-34.5-27.3,10,19.5,82,71.9,96.3,88.6,0-.1,4.1-.3,8-4.8Z"/><path class="cls-2" d="M88.6,17.7c3.4,3.1,11.7,12.4,16.7,12.8,1.9,.2,5.4-1,5.9-3.8,.6-4.1-6.1-7.7-8.6-9.7-3.4-2.6-16.6-18.1-19.9-10.6-3.5,5.1,1.9,7.6,5.9,11.3Z"/><path class="cls-2" d="M63.8,35.5c8.7-2.9-5.2-14.9-7.3-17.3-1.6-1.8-13.8-17.2-14.1-8-3.1,3.5,14.6,27.6,21.4,25.3Z"/><path class="cls-2" d="M23.8,30.4c2.4,2.9,4.6,12.1,9.3,10.7,11.6-3.5-12.4-27.6-16-25.2-6.8,3.7,4.2,11.4,6.7,14.5Z"/><path class="cls-2" d="M30.4,68c6.3-7.7-24.1-24.8-25.5-21-8.2,10.2,23.6,24.6,25.5,21Z"/></g></svg>