<?xml version="1.0" encoding="UTF-8"?><svg id="Layer_2" xmlns="http://www.w3.org/2000/svg" viewBox="0 0 261.19 229.68"><defs><style>.cls-1{fill:#f4a698;}.cls-2{fill:#f9c5b8;}.cls-3{fill:#fff;}.cls-4{fill:#a499b3;}.cls-5{fill:#95cbd8;}.cls-6{fill:#2b667e;}.cls-7{fill:#5c4973;}</style></defs><g id="Layer_1-2"><path class="cls-7" d="M149.5,73.18c3.7-.5,5.8-1.8,6.4-2.5,2.6-2.9,1.2-5.9-3-8.6-6.3-4-24.3-8.9-33.5-.3-3.1,2.9,2.4,8.4,7,8.8,0,0-5.3,3.6-4.2,3.6s4.5,2.5,14,3.6c9.4,1.1,14,1.8,16.2,.4l-2.9-5Z"/><path class="cls-7" d="M127.6,75.48c-3.7-.1-4.4,.5-6.2,3.5-1.7,2.6-3.7,5.8-6.9,6.7-4.1,1.2-8.2,.2-12.1,1.5-1.9,.6-3.4,1.9-4.9,3.2-3.2,2.7-7.2,4.1-11.4,3.9,4.1,0,8-1.7,10.9-4.5,1.5-1.4,3-2.9,5-3.7,3.8-1.6,8.2-.9,11.9-2.3,3.2-1.1,4.5-4.7,6.2-7.5,1.5-3,4.4-4,7.5-4v3.2h0Z"/><path class="cls-7" d="M132.3,75.18c-1.7,.1-3.3,.1-4.6,.6-2,.8-3.2,3-3.4,5.1,0,4.4,.5,7.5-4.7,8.9-2.5,.7-5,1.2-7.4,2.2-3.1,1.4-5.8,3.6-7.9,6.4,1.8-3,4.4-5.4,7.5-7.1,2.3-1.2,4.9-1.9,7.3-2.8,2.7-.9,3.6-2.1,3.3-5-.7-3.8,.5-8.3,4.2-10.1,1.9-.9,3.8-1,5.5-1.2l.2,3h0Z"/><path class="cls-7" d="M134.9,74.98s0,.1,.1,.4c.7,1.2,2,2.3,2.3,3.8,.5,2.2-.9,4-2.6,5.1-3,2.5-7,3.6-9.6,6.6-2.2,2.4,.6,5.3,.3,8.1,0,1.8-2.3,2.1-3.7,2.4-2,.3-4,.3-5.9,.6-2,.2-3.9,.6-5.7,1.3,3.6-1.6,7.7-1.6,11.5-2.3,1.1-.3,3.2-.5,3.1-1.9,0-2-1.4-3.6-1.6-5.7-.4-5.1,7.1-7.6,10.1-10.7,.9-.8,2-1.7,1.4-3-.6-1-1.5-1.7-2.1-2.8-.5-.7-.7-1.5-.6-2.4l3,.5h0Z"/><path class="cls-7" d="M145.2,75.18c2.4,2.1,3.8,5.6,2.8,8.8-1.2,3.3-5.1,3.6-7.9,3.3-1.2-.1-2.4,0-3.5,.5s-2,1.2-2.7,2.2c-1.3,2.1-2.1,5.1-4.8,6-3.3,1.1-6.8,1.2-10.2,1.7,3.7-.7,7.8-.7,11.1-2.6,1.7-1.4,2-3.6,3-5.5,.7-1.2,1.7-2.2,3-2.9,1.2-.7,2.6-1.1,4-1.1,1.9-.1,4.7-.2,5.2-2.4,.3-1.9-.7-3.9-2.3-4.9l2.3-3.1h0Z"/><path class="cls-7" d="M150.7,76.38c4.6,3.7,5.1,7.8,.6,12-2.1,1.8-4,3.4-5,6l-.8,1.9c-1.5,3.2-4.7,5.2-7.7,6.7,2.3-1.5,4.5-3.1,5.9-5.4,1.5-2.4,1.7-5.2,3.5-7.5,1.5-2,3.4-3.2,4.3-5.4,.6-1.2,.7-2.6-.1-3.7-.7-.9-1.6-1.8-2.6-2.4l1.9-2.2Z"/><path class="cls-7" d="M134.8,74.08c-.4,2.1-2.6,2.9-4.1,3.9-1.1,.7-2.2,1-2.6,2.3-.4,1.2,0,2.9-.3,4.4-.2,.9-.5,1.7-1.1,2.5-4.7,6.4-9.9,8.8-17.7,9.6,6.4-1.3,11.1-3.3,14.9-8.8,.7-1.1,1.7-2.3,1.8-3.5,.1-1.5-.3-3,0-4.7,.3-1.9,2.1-3.2,3.5-4,.9-.6,2.2-1.5,2.6-2l3,.3h0Z"/><path class="cls-7" d="M140.2,76.18c1,1.3,3,2.6,3.2,4.5,.8,4.1-2.6,6.8-5.2,9.3-1.8,1.7-3.3,3.5-3.8,5.9-.1,.9-.5,1.8-1.1,2.5-1,1-2.4,1.4-2.2,2.9,0,.1-.1,.3-.2,.4-1.4,1.4-3.5,1.7-5.2,2.3-1.6,.5-3.3,.7-4.9,.8,2.5-.1,4.9-1,7.2-1.9,.9-.4,1.9-.8,2.6-1.5,0,0,.1-.1,.1-.2-.1-.6,0-1.2,.3-1.7,.5-.8,1.3-1.3,1.8-1.9s.7-1.3,.7-2.1c.1-.9,.3-1.8,.7-2.6,1-2.4,3-4.3,4.6-6.2,1.2-1.4,2.5-2.8,2.4-4.7,0-.4-.1-.9-.3-1.3s-.5-.7-.9-1c-.7-.6-1.4-1.2-2-1.9l2.2-1.6h0Z"/><path class="cls-4" d="M140.7,60.78c.8-.8,1.8-1.4,2.9-1.6-.8-.3-1.7-.3-2.5-.3-.8,.1-1.7,.3-2.4,.7-.2,0-.5-.1-.7-.1h-.1c-1.4-1-3.1-2-4.9-1.6,1.1,.4,1.8,1.5,2.3,2.6-1.5,.1-3,.2-4.4,.4-2.1,.4-4.3,.7-6,2,1.9-.9,4.1-.7,6.1-.6,2.1,.2,4.1,.5,6.1,.9,.2,0,.3,.1,.5,.1,.9,1.3,.2,3.1-.5,4.5,1.5-1,2.8-2.6,3-4.4l1.1,.1c3.1,.3,6.5,1.8,7.5,5-.5-4-4.4-6.5-8-7.7Z"/><path class="cls-7" d="M56.3,15.68c1.7,0,3.1-1.4,3.1-3.1s-1.4-3.1-3.1-3.1-3.1,1.4-3.1,3.1,1.4,3.1,3.1,3.1Z"/><path class="cls-4" d="M88.8,20.58c.8,0,1.5-.7,1.5-1.5,0-.9-.7-1.5-1.5-1.5s-1.5,.7-1.5,1.5,.7,1.5,1.5,1.5Z"/><path class="cls-4" d="M67.8,36.48c.8,0,1.5-.7,1.5-1.5s-.7-1.5-1.5-1.5-1.5,.7-1.5,1.5,.7,1.5,1.5,1.5Z"/><path class="cls-2" d="M92.6,35.78c6.8,0,17.5-.8,19.4-7.8,2.7-10.1-7.8-18.9-15.4-23C87.4-.02,72.8-1.32,62.4,1.38c-5.4,1.5-17.4,6.1-19.7,11.4-4,9.2,8.6,18.4,16.1,19.2,0,0-7.8,5.5-6.1,5.5s6.7,3.9,20.5,5.5c13.9,1.7,20.5,2.8,23.8,.6l-4.4-7.8Z"/><path class="cls-1" d="M77.1,5.78c-9.3-2.9-13-.3-17.6-1.3,3.3,.5,6.2,2.9,13.6,5.3-4.5,2.5-13.3,6.5-16.9,9.4,9.4-2.9,15.8-5.2,23-5.4,4.3-.1,14.3,7,17.4,10.8-3.3-6.5-8.8-10.2-12.3-12.6,5-.9,12.5,2.3,17.6,2.1-6.5-4.9-11.4-4.6-14.3-5.4-3.1-.8-3.7-4.3-5.1-7.5-.5-.4-2.3,0-2.9-.2-.2,1.5-2.7,3.8-2.5,4.8Z"/><path class="cls-2" d="M61.1,37.68c-5.5-.2-6.4,.9-9,5.4-5.7,9.5-8.4,11.2-19.4,11.5-4.3,.1-8.9,.5-12.4,3.3-1.2,.9-2.3,1.9-3.4,2.9-4.8,4.1-10.6,6.4-16.9,6.1,6.2-.1,11.7-2.6,16-7,3.5-3.7,6.7-6.2,11.9-7,4.3-.8,9.2-.6,13.1-2.2,2.7-1,4.3-3.2,5.7-5.6,1.1-1.8,2.2-4,3.2-5.9,.8-1.7,2-3.1,3.5-4.2,2.2-1.6,5.3-1.9,7.7-1.9v4.6h0Z"/><path class="cls-2" d="M68.4,39.48c-7,.3-10.5,1-11.8,8.5-.5,6,1.4,11.4-6,13.7-3.7,1.1-7.3,2.1-10.5,4.1-2.2,1.2-3.9,3-5.1,5.2-.8,1.6-1.7,3.6-.7,5.3,.4,.5,.9,.9,1.4,1.2-.6-.2-1.2-.6-1.6-1.1-1.2-1.7-.5-3.9,.3-5.6,.8-1.8,2-3.4,3.5-4.7,1.5-1.2,3.2-2.3,4.9-3.2,2.2-1.2,4.8-2,7.1-3,2.2-.9,3.8-1.9,3.9-4.5,.2-2.8-.6-5.7-.2-8.7,.6-4.1,2.4-8.1,6.4-9.8,2.6-1.2,5.3-1.5,8.1-1.8l.3,4.4h0Z"/><path class="cls-2" d="M74.7,38.68c-.1,.2-.1,.4,0,.6,.8,1.7,2.5,3.1,2.8,5.2,.7,4-1.8,6.4-4.5,8.5-4.4,3.6-10.4,5.4-13.7,10.1-2.4,3.4,.6,7,.8,10.9v1.5c-.2,1.7-.8,3.3-1,5-.2,1.1-.3,2.4,.3,3.5,.6,1,1.6,1.8,2.7,2.3-2.7-.9-4-2.9-3.6-5.8,.2-2.5,1-4.9,.4-7.1-.3-1.2-.7-2.3-1.1-3.4-4.2-8.8,5.5-13.3,11.2-17.7,.9-.7,1.8-1.5,2.7-2.3,1.5-1.5,2.7-2.5,2.2-4.6-.4-1.2-2.7-3-3.2-4.8-.3-.8-.3-1.6-.2-2.4l4.2,.5h0Z"/><path class="cls-2" d="M77.1,36.78c4.1,1,8.4,2.4,11.6,5.4,.9,.8,1.6,1.8,2.1,2.9,.5,1.1,.8,2.3,.8,3.5s-.2,2.4-.7,3.5-1.1,2.1-2,3c-2,2.1-4.3,3.5-6.2,5.2-1.9,1.6-3.3,3.6-3.4,6.1-.1,4.6,6,6.3,8.7,9.2,1.9,2,1.6,5.2,3.5,7.1,.5,.4,1.1,.8,1.7,.9-.7-.1-1.3-.4-1.8-.8-2.1-1.7-2-4.9-4-6.7-2.7-2.3-6.2-3.3-8.6-6.1-2.8-3.6-.7-8.6,2.2-11.4,1.9-2,4.1-3.5,5.6-5.4,3.3-4.2,1.2-8.2-3.5-10.1-2.3-.9-4.7-1.6-7.1-1.9l1.1-4.4h0Z"/><path class="cls-2" d="M88.6,38.58c8.7,2.3,12.4,6.6,10.3,15.7-.5,2.1-1.1,4.1-1.4,6.1-.1,.8-.4,2.3-.6,3.1-.2,.9-.3,1.9-.2,2.8,.4,1.8,2.3,2.9,3.9,3.8,2.7,1.6,5.7,2.5,8.7,3.4,.8,.2,1.4,.7,2.2,.8,.1,0,.3,0,.4,.1,0,.2-.1,.2-.2,.3,.3-.3,.3-.4-.2-.4-.8,0-1.5-.4-2.3-.6-1-.3-2-.5-3.1-.7-3.3-.7-10.1-2.8-11.1-6.5-.4-1.8-.1-3.3,.1-5,0-5.3,3.8-14-2.2-17.1-1.7-.8-3.6-1.3-5.5-1.6l1.2-4.2h0Z"/><path class="cls-2" d="M75.8,35.98c-.9,4-5.9,5.4-8.7,7.6-.7,.6-1.2,1.5-1.3,2.4-.3,2,.1,3.9-.3,6.2-.4,3.3-3.1,5.8-5.9,7.1-5.1,2.3-10.2,3.3-10.5,10-.3,2.7,.3,5.7-1.1,8.3-.7,1.2-1.7,2.3-2.9,3.1-2.3,1.6-4.5,3.2-7.1,4.1,1.2-.6,2.4-1.3,3.5-2.1,3.4-2.5,6.8-4.6,6.4-9.3-.1-2.8-.5-5.7,.6-8.5s3.8-4.7,6.4-6c3.1-1.7,7.3-3.1,7.6-7.1,.2-1.8-.3-4.1-.1-6.2,.1-1.6,.7-3.1,1.8-4.3,2-2.2,4.9-3.4,6.9-5.5l.2-.3c.1-.1,.1-.2,.2-.3,0,0-.1,.1,0,.1l4.3,.7h0Z"/><path class="cls-2" d="M81.4,38.98c.8,1.3,2.3,2.4,3.4,3.9,1.3,1.8,1.6,4.2,1.3,6.4-1,6.3-7.3,9.5-10.7,14.3-1.8,2.5-3.4,5.7-2.6,8.8,.4,1,.8,2,1.4,3,.9,1.5,1.7,3.3,1.5,5.1-.2,1.2-.6,2.3-1.3,3.3-.7,1-1.5,1.8-2.5,2.5-.5,.3-1.1,.4-1.7,.4,2.9,0,5.5-5.2,4.5-7.7-.7-2.2-2.5-3.8-3.3-6-1.2-3.5,.2-7.5,2.1-10.6,1.3-2,2.8-3.8,4.3-5.6,2.1-2.5,4.3-4.7,4.6-7.8,.1-.9-.1-1.7-.3-2.6-.8-1.7-3-2.7-4.3-4.5l3.6-2.9h0Z"/><path class="cls-6" d="M215.1,225.08c8.1-8,15-6.5,19.9-4.4,4.8,2.1,9.1,5.2,12.8,9,.3-3-.7-5.8-.4-8.7-4.6,1.5-8.4,6.3-13.6,7.8-5.7,1.5-14.4,.5-18.7-3.7Z"/><path class="cls-5" d="M164.8,211.58c6.2-6.1,11.4-4.9,15.1-3.3,3.7,1.6,7,3.9,9.7,6.8,.2-2.3-.5-4.4-.3-6.6-3.5,1.2-6.4,4.8-10.3,5.9-4.3,1.2-10.9,.4-14.2-2.8Z"/><path class="cls-6" d="M173.4,175.28c10.1-7.6,16,4.6,26.2,4.6-.8-2.2-.4-7.3-.4-7.3-1.5,.9-3,1.9-4.3,3-2.3,2.1-6.2,4.3-9.4,4.6-4.9,.4-9.3-1-12.1-4.9Z"/><path class="cls-6" d="M109,189.68c16.6-12.5,26.3,7.6,43,7.5-1.2-3.6-.6-12-.6-12,0,0-4.6,2.6-7.2,4.9-3.7,3.4-10.2,7.1-15.5,7.5-7.8,.7-15.2-1.6-19.7-7.9Z"/><path class="cls-5" d="M139.1,144.18c16.6-12.5,26.3,7.6,43,7.5-1.2-3.6-.6-12-.6-12,0,0-4.6,2.6-7.2,4.9-3.7,3.4-10.2,7-15.5,7.5-7.8,.8-15.1-1.5-19.7-7.9Z"/><path class="cls-5" d="M228.4,188.98c11.7-12.3,25.8-1,31.2,4.1-.1-2.9,2.9-5.8,.9-9.2-11,6.6-19.9,13.3-32.1,5.1Z"/><path class="cls-3" d="M129,129.68c1.1,0,2-.9,2-2s-.9-2-2-2-2,.9-2,2,.9,2,2,2Z"/><path class="cls-3" d="M131.5,139.48c.7,0,1.2-.5,1.2-1.2s-.5-1.2-1.2-1.2-1.2,.5-1.2,1.2,.5,1.2,1.2,1.2Z"/><path class="cls-3" d="M134.9,130.68c.5,0,.8-.4,.8-.8,0-.5-.4-.8-.8-.8-.5,0-.8,.4-.8,.8,0,.4,.3,.8,.8,.8Z"/><path class="cls-3" d="M228.1,181.38c.7,0,1.2-.5,1.2-1.2s-.5-1.2-1.2-1.2-1.2,.5-1.2,1.2,.5,1.2,1.2,1.2Z"/><path class="cls-3" d="M231.5,172.58c.5,0,.8-.4,.8-.8s-.4-.8-.8-.8-.8,.4-.8,.8,.4,.8,.8,.8Z"/></g></svg>