<?xml version="1.0" encoding="utf-8"?>
<!-- Generator: Adobe Illustrator 26.3.1, SVG Export Plug-In . SVG Version: 6.00 Build 0)  -->
<svg version="1.1" id="Layer_1" xmlns="http://www.w3.org/2000/svg" xmlns:xlink="http://www.w3.org/1999/xlink" x="0px" y="0px"
	 viewBox="0 0 580 580" style="enable-background:new 0 0 580 580;" xml:space="preserve">
<style type="text/css">
	.st0{fill:#EFE3D7;filter:url(#Adobe_OpacityMaskFilter);stroke:#EFE3D7;stroke-width:1.3669;stroke-miterlimit:10;}
	.st1{mask:url(#mask0_1918_128300_00000020363265261175252470000010592555694487462059_);}
	.st2{fill:none;}
	
		.st3{fill:#EFE3D7;filter:url(#Adobe_OpacityMaskFilter_00000038399331562423120540000013683667708116525496_);stroke:#EFE3D7;stroke-width:1.3669;stroke-miterlimit:10;}
	.st4{mask:url(#mask1_1918_128300_00000163038697462854632060000018238849885580844688_);}
	
		.st5{fill:#EFE3D7;filter:url(#Adobe_OpacityMaskFilter_00000110448187830116177470000006615456331184652722_);stroke:#EFE3D7;stroke-width:1.3669;stroke-miterlimit:10;}
	.st6{mask:url(#mask2_1918_128300_00000166637067036993254640000005350462908405127325_);}
	
		.st7{fill:#EFE3D7;filter:url(#Adobe_OpacityMaskFilter_00000165235798874791150890000015097400734037593245_);stroke:#EFE3D7;stroke-width:1.3669;stroke-miterlimit:10;}
	.st8{mask:url(#mask3_1918_128300_00000137104976706615404510000002565293892240450967_);}
	
		.st9{fill:#EFE3D7;filter:url(#Adobe_OpacityMaskFilter_00000095327279112705642540000012521676214383049104_);stroke:#EFE3D7;stroke-width:1.3669;stroke-miterlimit:10;}
	.st10{mask:url(#mask4_1918_128300_00000089559497845667715220000007369634873339556486_);}
	
		.st11{fill:#EFE3D7;filter:url(#Adobe_OpacityMaskFilter_00000130605823622510323900000001429044703096496290_);stroke:#EFE3D7;stroke-width:1.3669;stroke-miterlimit:10;}
	.st12{mask:url(#mask5_1918_128300_00000007395203470448760370000003602623166874429321_);}
	
		.st13{fill:#EFE3D7;filter:url(#Adobe_OpacityMaskFilter_00000059305511941411006250000012354188638763294134_);stroke:#EFE3D7;stroke-width:1.3669;stroke-miterlimit:10;}
	.st14{mask:url(#mask6_1918_128300_00000073696739953670769160000013861953355876736680_);}
	
		.st15{fill:#EFE3D7;filter:url(#Adobe_OpacityMaskFilter_00000152234284181910072580000004805457634769353139_);stroke:#EFE3D7;stroke-width:1.3669;stroke-miterlimit:10;}
	.st16{mask:url(#mask7_1918_128300_00000183214808146658946060000006054551131492933822_);}
	
		.st17{fill:#EFE3D7;filter:url(#Adobe_OpacityMaskFilter_00000119092149389987047280000005100823418865307060_);stroke:#EFE3D7;stroke-width:1.3669;stroke-miterlimit:10;}
	.st18{mask:url(#mask8_1918_128300_00000002376312820510485980000010620300873080711328_);}
	
		.st19{fill:#EFE3D7;filter:url(#Adobe_OpacityMaskFilter_00000183226528574092841440000008948782408372390035_);stroke:#EFE3D7;stroke-width:1.3669;stroke-miterlimit:10;}
	.st20{mask:url(#mask9_1918_128300_00000065784531995691059970000002826995529718019748_);}
	
		.st21{fill:#EFE3D7;filter:url(#Adobe_OpacityMaskFilter_00000085930648742489874410000008435588053637683088_);stroke:#EFE3D7;stroke-width:1.3669;stroke-miterlimit:10;}
	.st22{mask:url(#mask10_1918_128300_00000052783096238149542490000005044003899978243740_);}
	
		.st23{fill:#EFE3D7;filter:url(#Adobe_OpacityMaskFilter_00000159458072440644016310000017485347572777319839_);stroke:#EFE3D7;stroke-width:1.3669;stroke-miterlimit:10;}
	.st24{mask:url(#mask11_1918_128300_00000072976209487053962780000013127591289072187297_);}
</style>
<defs>
	<filter id="Adobe_OpacityMaskFilter" filterUnits="userSpaceOnUse" x="96" y="19.7" width="177" height="231.7">
		<feColorMatrix  type="matrix" values="1 0 0 0 0  0 1 0 0 0  0 0 1 0 0  0 0 0 1 0"/>
	</filter>
</defs>
<mask maskUnits="userSpaceOnUse" x="96" y="19.7" width="177" height="231.7" id="mask0_1918_128300_00000020363265261175252470000010592555694487462059_">
	<path class="st0" d="M249.6,247.4c1.2,1.3,2.7,2.3,4.4,3c1.6,0.7,3.4,1.1,5.2,1.1c2.1,0,4.2-0.5,6.2-1.5c1.9-0.9,3.6-2.3,4.9-4
		c1.3-1.6,2.1-3.6,2.5-5.6c0.4-2,0.3-4.2-0.3-6.2L217.7,29.9c-0.8-2.9-2.5-5.5-4.9-7.3c-2.4-1.8-5.3-2.8-8.3-2.8
		c-1.4,0-2.9,0.2-4.3,0.7c-36.9,12.1-70.8,31.7-99.7,57.5c-1.4,1.2-2.5,2.7-3.3,4.4c-0.8,1.7-1.2,3.5-1.2,5.3
		c-0.1,1.9,0.3,3.7,1,5.4c0.7,1.7,1.7,3.3,3,4.6L249.6,247.4z"/>
</mask>
<g class="st1">
	<path class="st2" d="M249.6,247.4c1.2,1.3,2.7,2.3,4.4,3c1.6,0.7,3.4,1.1,5.2,1.1c2.1,0,4.2-0.5,6.2-1.5c1.9-0.9,3.6-2.3,4.9-4
		c1.3-1.6,2.1-3.6,2.5-5.6c0.4-2,0.3-4.2-0.3-6.2L217.7,29.9c-0.8-2.9-2.5-5.5-4.9-7.3c-2.4-1.8-5.3-2.8-8.3-2.8
		c-1.4,0-2.9,0.2-4.3,0.7c-36.9,12.1-70.8,31.7-99.7,57.5c-1.4,1.2-2.5,2.7-3.3,4.4c-0.8,1.7-1.2,3.5-1.2,5.3
		c-0.1,1.9,0.3,3.7,1,5.4c0.7,1.7,1.7,3.3,3,4.6L249.6,247.4z"/>
</g>
<defs>
	
		<filter id="Adobe_OpacityMaskFilter_00000018210193719157670740000016137255662404444320_" filterUnits="userSpaceOnUse" x="19.3" y="96.4" width="231.7" height="176.9">
		<feColorMatrix  type="matrix" values="1 0 0 0 0  0 1 0 0 0  0 0 1 0 0  0 0 0 1 0"/>
	</filter>
</defs>
<mask maskUnits="userSpaceOnUse" x="19.3" y="96.4" width="231.7" height="176.9" id="mask1_1918_128300_00000163038697462854632060000018238849885580844688_">
	
		<path style="fill:#EFE3D7;filter:url(#Adobe_OpacityMaskFilter_00000018210193719157670740000016137255662404444320_);stroke:#EFE3D7;stroke-width:1.3669;stroke-miterlimit:10;" d="
		M29.5,218.1l204.3,54.7c1.2,0.3,2.4,0.5,3.7,0.5c2.7,0,5.3-0.8,7.5-2.4c2.2-1.5,3.9-3.7,5-6.2c1.1-2.5,1.3-5.2,0.8-7.9
		c-0.5-2.6-1.9-5.1-3.8-7L97.4,100.4c-1.3-1.3-2.8-2.3-4.4-3c-1.7-0.7-3.4-1-5.2-1c-1.9,0-3.8,0.4-5.6,1.2c-1.8,0.8-3.3,1.9-4.6,3.4
		c-25.8,29-45.3,62.9-57.6,99.7c-0.6,1.8-0.8,3.6-0.7,5.5c0.2,1.9,0.7,3.6,1.6,5.3c0.9,1.6,2.1,3.1,3.6,4.2
		C26,216.8,27.7,217.6,29.5,218.1z"/>
</mask>
<g class="st4">
	<path class="st2" d="M29.5,218.1l204.3,54.7c1.2,0.3,2.4,0.5,3.7,0.5c2.7,0,5.3-0.8,7.5-2.4c2.2-1.5,3.9-3.7,5-6.2
		c1.1-2.5,1.3-5.2,0.8-7.9c-0.5-2.6-1.9-5.1-3.8-7L97.4,100.4c-1.3-1.3-2.8-2.3-4.4-3c-1.7-0.7-3.4-1-5.2-1c-1.9,0-3.8,0.4-5.6,1.2
		c-1.8,0.8-3.3,1.9-4.6,3.4c-25.8,29-45.3,62.9-57.6,99.7c-0.6,1.8-0.8,3.6-0.7,5.5c0.2,1.9,0.7,3.6,1.6,5.3
		c0.9,1.6,2.1,3.1,3.6,4.2C26,216.8,27.7,217.6,29.5,218.1z"/>
</g>
<defs>
	
		<filter id="Adobe_OpacityMaskFilter_00000021815006126383819330000010547983951897559945_" filterUnits="userSpaceOnUse" x="5.7" y="221.2" width="237.3" height="136.8">
		<feColorMatrix  type="matrix" values="1 0 0 0 0  0 1 0 0 0  0 0 1 0 0  0 0 0 1 0"/>
	</filter>
</defs>
<mask maskUnits="userSpaceOnUse" x="5.7" y="221.2" width="237.3" height="136.8" id="mask2_1918_128300_00000166637067036993254640000005350462908405127325_">
	
		<path style="fill:#EFE3D7;filter:url(#Adobe_OpacityMaskFilter_00000021815006126383819330000010547983951897559945_);stroke:#EFE3D7;stroke-width:1.3669;stroke-miterlimit:10;" d="
		M28.5,357.6l204.3-54.7c2.9-0.8,5.5-2.5,7.3-4.9c1.8-2.4,2.8-5.3,2.8-8.3s-1-5.9-2.8-8.3c-1.8-2.4-4.4-4.1-7.3-4.9L28.5,221.7
		c-1.2-0.3-2.4-0.5-3.6-0.5c-3.1,0-6.2,1.1-8.6,3.1c-2.4,2-4.1,4.7-4.8,7.8c-7.9,38-7.9,77.2,0,115.1c0.6,3.1,2.3,5.8,4.8,7.8
		c2.4,2,5.5,3.1,8.6,3.1C26.2,358,27.4,357.9,28.5,357.6z"/>
</mask>
<g class="st6">
	<path class="st2" d="M28.5,357.6l204.3-54.7c2.9-0.8,5.5-2.5,7.3-4.9c1.8-2.4,2.8-5.3,2.8-8.3s-1-5.9-2.8-8.3
		c-1.8-2.4-4.4-4.1-7.3-4.9L28.5,221.7c-1.2-0.3-2.4-0.5-3.6-0.5c-3.1,0-6.2,1.1-8.6,3.1c-2.4,2-4.1,4.7-4.8,7.8
		c-7.9,38-7.9,77.2,0,115.1c0.6,3.1,2.3,5.8,4.8,7.8c2.4,2,5.5,3.1,8.6,3.1C26.2,358,27.4,357.9,28.5,357.6z"/>
</g>
<defs>
	
		<filter id="Adobe_OpacityMaskFilter_00000177482219019896331380000008888255174746225569_" filterUnits="userSpaceOnUse" x="19.3" y="305.9" width="231.7" height="177">
		<feColorMatrix  type="matrix" values="1 0 0 0 0  0 1 0 0 0  0 0 1 0 0  0 0 0 1 0"/>
	</filter>
</defs>
<mask maskUnits="userSpaceOnUse" x="19.3" y="305.9" width="231.7" height="177" id="mask3_1918_128300_00000137104976706615404510000002565293892240450967_">
	
		<path style="fill:#EFE3D7;filter:url(#Adobe_OpacityMaskFilter_00000177482219019896331380000008888255174746225569_);stroke:#EFE3D7;stroke-width:1.3669;stroke-miterlimit:10;" d="
		M247,329.3c1.9-1.9,3.3-4.3,3.8-7c0.5-2.6,0.3-5.4-0.8-7.9c-1-2.5-2.7-4.6-5-6.2c-2.2-1.5-4.9-2.3-7.5-2.4c-1.2,0-2.5,0.2-3.7,0.5
		L29.5,361.1c-1.8,0.5-3.5,1.3-4.9,2.5s-2.7,2.6-3.6,4.2c-0.9,1.6-1.4,3.4-1.6,5.3c-0.2,1.8,0.1,3.7,0.6,5.5
		c12.1,36.9,31.7,70.8,57.5,99.8c1.2,1.4,2.8,2.5,4.4,3.3c1.7,0.8,3.5,1.2,5.4,1.2c1.9,0,3.7-0.3,5.4-1c1.7-0.7,3.3-1.7,4.6-3
		L247,329.3z"/>
</mask>
<g class="st8">
	<path class="st2" d="M247,329.3c1.9-1.9,3.3-4.3,3.8-7c0.5-2.6,0.3-5.4-0.8-7.9c-1-2.5-2.7-4.6-5-6.2c-2.2-1.5-4.9-2.3-7.5-2.4
		c-1.2,0-2.5,0.2-3.7,0.5L29.5,361.1c-1.8,0.5-3.5,1.3-4.9,2.5s-2.7,2.6-3.6,4.2c-0.9,1.6-1.4,3.4-1.6,5.3c-0.2,1.8,0.1,3.7,0.6,5.5
		c12.1,36.9,31.7,70.8,57.5,99.8c1.2,1.4,2.8,2.5,4.4,3.3c1.7,0.8,3.5,1.2,5.4,1.2c1.9,0,3.7-0.3,5.4-1c1.7-0.7,3.3-1.7,4.6-3
		L247,329.3z"/>
</g>
<defs>
	
		<filter id="Adobe_OpacityMaskFilter_00000005233253754815954920000014779924149457602957_" filterUnits="userSpaceOnUse" x="96" y="327.9" width="177" height="231.7">
		<feColorMatrix  type="matrix" values="1 0 0 0 0  0 1 0 0 0  0 0 1 0 0  0 0 0 1 0"/>
	</filter>
</defs>
<mask maskUnits="userSpaceOnUse" x="96" y="327.9" width="177" height="231.7" id="mask4_1918_128300_00000089559497845667715220000007369634873339556486_">
	
		<path style="fill:#EFE3D7;filter:url(#Adobe_OpacityMaskFilter_00000005233253754815954920000014779924149457602957_);stroke:#EFE3D7;stroke-width:1.3669;stroke-miterlimit:10;" d="
		M270.2,333.3c-1.3-1.7-3-3.1-4.9-4c-1.9-0.9-4-1.4-6.2-1.5c-1.8,0-3.5,0.4-5.2,1.1c-1.6,0.7-3.1,1.7-4.4,3L100,481.5
		c-1.3,1.3-2.4,2.9-3,4.6c-0.7,1.7-1,3.6-1,5.5c0,1.9,0.5,3.7,1.3,5.4c0.8,1.7,1.9,3.2,3.3,4.4c29,25.8,62.9,45.3,99.7,57.6
		c1.8,0.6,3.6,0.8,5.5,0.6c1.9-0.2,3.7-0.7,5.3-1.6c1.6-0.9,3.1-2.1,4.2-3.6c1.1-1.5,2-3.1,2.5-4.9l54.7-204.3
		c0.6-2,0.7-4.1,0.3-6.2C272.4,336.9,271.5,335,270.2,333.3z"/>
</mask>
<g class="st10">
	<path class="st2" d="M270.2,333.3c-1.3-1.7-3-3.1-4.9-4c-1.9-0.9-4-1.4-6.2-1.5c-1.8,0-3.5,0.4-5.2,1.1c-1.6,0.7-3.1,1.7-4.4,3
		L100,481.5c-1.3,1.3-2.4,2.9-3,4.6c-0.7,1.7-1,3.6-1,5.5c0,1.9,0.5,3.7,1.3,5.4c0.8,1.7,1.9,3.2,3.3,4.4
		c29,25.8,62.9,45.3,99.7,57.6c1.8,0.6,3.6,0.8,5.5,0.6c1.9-0.2,3.7-0.7,5.3-1.6c1.6-0.9,3.1-2.1,4.2-3.6c1.1-1.5,2-3.1,2.5-4.9
		l54.7-204.3c0.6-2,0.7-4.1,0.3-6.2C272.4,336.9,271.5,335,270.2,333.3z"/>
</g>
<defs>
	
		<filter id="Adobe_OpacityMaskFilter_00000166634597863690890060000018086869742693822382_" filterUnits="userSpaceOnUse" x="220.8" y="335.9" width="136.8" height="237.3">
		<feColorMatrix  type="matrix" values="1 0 0 0 0  0 1 0 0 0  0 0 1 0 0  0 0 0 1 0"/>
	</filter>
</defs>
<mask maskUnits="userSpaceOnUse" x="220.8" y="335.9" width="136.8" height="237.3" id="mask5_1918_128300_00000007395203470448760370000003602623166874429321_">
	
		<path style="fill:#EFE3D7;filter:url(#Adobe_OpacityMaskFilter_00000166634597863690890060000018086869742693822382_);stroke:#EFE3D7;stroke-width:1.3669;stroke-miterlimit:10;" d="
		M302.4,346c-0.8-2.9-2.5-5.5-4.9-7.3c-2.4-1.8-5.3-2.8-8.3-2.8c-3,0-5.9,1-8.3,2.8c-2.4,1.8-4.1,4.4-4.9,7.3l-54.7,204.4
		c-0.5,1.8-0.6,3.7-0.3,5.5c0.3,1.8,0.9,3.6,1.9,5.2c1,1.6,2.2,2.9,3.8,4c1.5,1.1,3.2,1.8,5,2.2c18.5,3.9,37.4,5.8,56.3,5.9h1.1
		c19.4,0,38.7-2,57.7-6c1.8-0.4,3.6-1.1,5.1-2.2c1.5-1.1,2.8-2.4,3.8-4c1-1.6,1.6-3.3,1.9-5.2c0.3-1.8,0.2-3.7-0.3-5.5L302.4,346z"
		/>
</mask>
<g class="st12">
	<path class="st2" d="M302.4,346c-0.8-2.9-2.5-5.5-4.9-7.3c-2.4-1.8-5.3-2.8-8.3-2.8c-3,0-5.9,1-8.3,2.8c-2.4,1.8-4.1,4.4-4.9,7.3
		l-54.7,204.4c-0.5,1.8-0.6,3.7-0.3,5.5c0.3,1.8,0.9,3.6,1.9,5.2c1,1.6,2.2,2.9,3.8,4c1.5,1.1,3.2,1.8,5,2.2
		c18.5,3.9,37.4,5.8,56.3,5.9h1.1c19.4,0,38.7-2,57.7-6c1.8-0.4,3.6-1.1,5.1-2.2c1.5-1.1,2.8-2.4,3.8-4c1-1.6,1.6-3.3,1.9-5.2
		c0.3-1.8,0.2-3.7-0.3-5.5L302.4,346z"/>
</g>
<defs>
	
		<filter id="Adobe_OpacityMaskFilter_00000169532358203444375420000000363375022579743671_" filterUnits="userSpaceOnUse" x="305.5" y="327.8" width="177" height="231.7">
		<feColorMatrix  type="matrix" values="1 0 0 0 0  0 1 0 0 0  0 0 1 0 0  0 0 0 1 0"/>
	</filter>
</defs>
<mask maskUnits="userSpaceOnUse" x="305.5" y="327.8" width="177" height="231.7" id="mask6_1918_128300_00000073696739953670769160000013861953355876736680_">
	
		<path style="fill:#EFE3D7;filter:url(#Adobe_OpacityMaskFilter_00000169532358203444375420000000363375022579743671_);stroke:#EFE3D7;stroke-width:1.3669;stroke-miterlimit:10;" d="
		M328.9,331.9c-1.2-1.3-2.7-2.3-4.4-3c-1.6-0.7-3.4-1.1-5.2-1.1c-2.1,0-4.2,0.5-6.2,1.5c-1.9,0.9-3.6,2.3-4.9,4
		c-1.3,1.6-2.1,3.6-2.5,5.6c-0.4,2-0.3,4.2,0.3,6.2l54.7,204.3c0.5,1.8,1.3,3.5,2.5,4.9c1.1,1.5,2.6,2.7,4.2,3.6
		c1.6,0.9,3.4,1.4,5.3,1.6c1.9,0.2,3.7,0,5.5-0.6c36.9-12.1,70.8-31.7,99.8-57.5c1.4-1.2,2.5-2.7,3.3-4.4c0.8-1.7,1.2-3.5,1.2-5.3
		c0-1.9-0.3-3.7-1-5.4c-0.7-1.7-1.7-3.3-3-4.6L328.9,331.9z"/>
</mask>
<g class="st14">
	<path class="st2" d="M328.9,331.9c-1.2-1.3-2.7-2.3-4.4-3c-1.6-0.7-3.4-1.1-5.2-1.1c-2.1,0-4.2,0.5-6.2,1.5c-1.9,0.9-3.6,2.3-4.9,4
		c-1.3,1.6-2.1,3.6-2.5,5.6c-0.4,2-0.3,4.2,0.3,6.2l54.7,204.3c0.5,1.8,1.3,3.5,2.5,4.9c1.1,1.5,2.6,2.7,4.2,3.6
		c1.6,0.9,3.4,1.4,5.3,1.6c1.9,0.2,3.7,0,5.5-0.6c36.9-12.1,70.8-31.7,99.8-57.5c1.4-1.2,2.5-2.7,3.3-4.4c0.8-1.7,1.2-3.5,1.2-5.3
		c0-1.9-0.3-3.7-1-5.4c-0.7-1.7-1.7-3.3-3-4.6L328.9,331.9z"/>
</g>
<defs>
	
		<filter id="Adobe_OpacityMaskFilter_00000177442811004578033900000000781742008879844508_" filterUnits="userSpaceOnUse" x="327.5" y="305.9" width="231.7" height="176.9">
		<feColorMatrix  type="matrix" values="1 0 0 0 0  0 1 0 0 0  0 0 1 0 0  0 0 0 1 0"/>
	</filter>
</defs>
<mask maskUnits="userSpaceOnUse" x="327.5" y="305.9" width="231.7" height="176.9" id="mask7_1918_128300_00000183214808146658946060000006054551131492933822_">
	
		<path style="fill:#EFE3D7;filter:url(#Adobe_OpacityMaskFilter_00000177442811004578033900000000781742008879844508_);stroke:#EFE3D7;stroke-width:1.3669;stroke-miterlimit:10;" d="
		M549,361.2l-204.3-54.8c-1.2-0.3-2.4-0.5-3.7-0.5v1.7v-1.7c-2.7,0-5.3,0.8-7.5,2.4c-2.2,1.5-3.9,3.7-4.9,6.2
		c-1.1,2.5-1.3,5.2-0.8,7.9c0.5,2.6,1.9,5.1,3.8,7L481,478.8c1.3,1.3,2.9,2.3,4.6,3c1.7,0.7,3.6,1,5.4,1s3.7-0.5,5.4-1.3
		c1.7-0.8,3.2-1.9,4.4-3.3c25.8-29,45.3-62.9,57.6-99.7c0.6-1.8,0.8-3.6,0.6-5.5c-0.2-1.8-0.7-3.6-1.6-5.3c-0.9-1.6-2.1-3.1-3.5-4.2
		C552.5,362.5,550.8,361.6,549,361.2z"/>
</mask>
<g class="st16">
	<path class="st2" d="M549,361.2l-204.3-54.8c-1.2-0.3-2.4-0.5-3.7-0.5v1.7v-1.7c-2.7,0-5.3,0.8-7.5,2.4c-2.2,1.5-3.9,3.7-4.9,6.2
		c-1.1,2.5-1.3,5.2-0.8,7.9c0.5,2.6,1.9,5.1,3.8,7L481,478.8c1.3,1.3,2.9,2.3,4.6,3c1.7,0.7,3.6,1,5.4,1s3.7-0.5,5.4-1.3
		c1.7-0.8,3.2-1.9,4.4-3.3c25.8-29,45.3-62.9,57.6-99.7c0.6-1.8,0.8-3.6,0.6-5.5c-0.2-1.8-0.7-3.6-1.6-5.3c-0.9-1.6-2.1-3.1-3.5-4.2
		C552.5,362.5,550.8,361.6,549,361.2z"/>
</g>
<defs>
	
		<filter id="Adobe_OpacityMaskFilter_00000136381309018629323230000013257423461895751073_" filterUnits="userSpaceOnUse" x="335.5" y="221.2" width="237.3" height="136.8">
		<feColorMatrix  type="matrix" values="1 0 0 0 0  0 1 0 0 0  0 0 1 0 0  0 0 0 1 0"/>
	</filter>
</defs>
<mask maskUnits="userSpaceOnUse" x="335.5" y="221.2" width="237.3" height="136.8" id="mask8_1918_128300_00000002376312820510485980000010620300873080711328_">
	
		<path style="fill:#EFE3D7;filter:url(#Adobe_OpacityMaskFilter_00000136381309018629323230000013257423461895751073_);stroke:#EFE3D7;stroke-width:1.3669;stroke-miterlimit:10;" d="
		M566.9,232.1c-0.6-3.1-2.3-5.8-4.8-7.8c-2.4-2-5.5-3.1-8.6-3.1c-1.2,0-2.4,0.2-3.5,0.5l-204.3,54.7c-2.9,0.8-5.5,2.5-7.3,4.9
		c-1.8,2.4-2.8,5.3-2.8,8.3s1,5.9,2.8,8.3c1.8,2.4,4.4,4.1,7.3,4.9L550,357.6c1.8,0.5,3.7,0.6,5.5,0.3c1.8-0.3,3.6-0.9,5.2-1.9
		c1.6-1,3-2.3,4-3.8c1.1-1.5,1.8-3.2,2.2-5C574.8,309.3,574.8,270.1,566.9,232.1L566.9,232.1z"/>
</mask>
<g class="st18">
	<path class="st2" d="M566.9,232.1c-0.6-3.1-2.3-5.8-4.8-7.8c-2.4-2-5.5-3.1-8.6-3.1c-1.2,0-2.4,0.2-3.5,0.5l-204.3,54.7
		c-2.9,0.8-5.5,2.5-7.3,4.9c-1.8,2.4-2.8,5.3-2.8,8.3s1,5.9,2.8,8.3c1.8,2.4,4.4,4.1,7.3,4.9L550,357.6c1.8,0.5,3.7,0.6,5.5,0.3
		c1.8-0.3,3.6-0.9,5.2-1.9c1.6-1,3-2.3,4-3.8c1.1-1.5,1.8-3.2,2.2-5C574.8,309.3,574.8,270.1,566.9,232.1L566.9,232.1z"/>
</g>
<defs>
	
		<filter id="Adobe_OpacityMaskFilter_00000044883978047846484670000003973419177241807760_" filterUnits="userSpaceOnUse" x="327.5" y="96.4" width="231.7" height="176.9">
		<feColorMatrix  type="matrix" values="1 0 0 0 0  0 1 0 0 0  0 0 1 0 0  0 0 0 1 0"/>
	</filter>
</defs>
<mask maskUnits="userSpaceOnUse" x="327.5" y="96.4" width="231.7" height="176.9" id="mask9_1918_128300_00000065784531995691059970000002826995529718019748_">
	
		<path style="fill:#EFE3D7;filter:url(#Adobe_OpacityMaskFilter_00000044883978047846484670000003973419177241807760_);stroke:#EFE3D7;stroke-width:1.3669;stroke-miterlimit:10;" d="
		M331.5,250c-1.9,1.9-3.3,4.3-3.8,7s-0.3,5.4,0.8,7.9c1,2.5,2.7,4.6,5,6.2c2.2,1.5,4.9,2.3,7.5,2.4c1.2,0,2.5-0.2,3.7-0.5L549,218.1
		c1.8-0.5,3.5-1.3,4.9-2.5c1.5-1.2,2.7-2.6,3.6-4.2c0.9-1.6,1.4-3.4,1.6-5.3c0.2-1.8-0.1-3.7-0.6-5.5
		c-12.1-36.9-31.7-70.8-57.5-99.7c-1.3-1.4-2.8-2.6-4.6-3.3c-1.7-0.8-3.6-1.2-5.6-1.2c-1.8,0-3.6,0.3-5.2,1c-1.7,0.7-3.2,1.7-4.4,3
		L331.5,250z"/>
</mask>
<g class="st20">
	<path class="st2" d="M331.5,250c-1.9,1.9-3.3,4.3-3.8,7s-0.3,5.4,0.8,7.9c1,2.5,2.7,4.6,5,6.2c2.2,1.5,4.9,2.3,7.5,2.4
		c1.2,0,2.5-0.2,3.7-0.5L549,218.1c1.8-0.5,3.5-1.3,4.9-2.5c1.5-1.2,2.7-2.6,3.6-4.2c0.9-1.6,1.4-3.4,1.6-5.3
		c0.2-1.8-0.1-3.7-0.6-5.5c-12.1-36.9-31.7-70.8-57.5-99.7c-1.3-1.4-2.8-2.6-4.6-3.3c-1.7-0.8-3.6-1.2-5.6-1.2c-1.8,0-3.6,0.3-5.2,1
		c-1.7,0.7-3.2,1.7-4.4,3L331.5,250z"/>
</g>
<defs>
	
		<filter id="Adobe_OpacityMaskFilter_00000158023697406843230370000017341869110903200446_" filterUnits="userSpaceOnUse" x="305.5" y="19.7" width="177" height="231.7">
		<feColorMatrix  type="matrix" values="1 0 0 0 0  0 1 0 0 0  0 0 1 0 0  0 0 0 1 0"/>
	</filter>
</defs>
<mask maskUnits="userSpaceOnUse" x="305.5" y="19.7" width="177" height="231.7" id="mask10_1918_128300_00000052783096238149542490000005044003899978243740_">
	
		<path style="fill:#EFE3D7;filter:url(#Adobe_OpacityMaskFilter_00000158023697406843230370000017341869110903200446_);stroke:#EFE3D7;stroke-width:1.3669;stroke-miterlimit:10;" d="
		M308.3,245.9c1.3,1.7,3,3.1,4.9,4c1.9,0.9,4,1.4,6.2,1.5c1.8,0,3.5-0.4,5.2-1.1c1.6-0.7,3.1-1.7,4.4-3L478.5,97.8
		c1.3-1.3,2.4-2.9,3-4.6c0.7-1.7,1-3.6,1-5.5c0-1.9-0.5-3.7-1.3-5.4c-0.8-1.7-1.9-3.2-3.3-4.4c-29-25.8-62.9-45.3-99.7-57.5
		c-1.4-0.5-2.8-0.7-4.3-0.7c-3,0-5.9,1-8.3,2.8c-2.4,1.8-4.1,4.4-4.9,7.3L306,234.2c-0.6,2-0.7,4.1-0.3,6.2S307,244.3,308.3,245.9z"
		/>
</mask>
<g class="st22">
	<path class="st2" d="M308.3,245.9c1.3,1.7,3,3.1,4.9,4c1.9,0.9,4,1.4,6.2,1.5c1.8,0,3.5-0.4,5.2-1.1c1.6-0.7,3.1-1.7,4.4-3
		L478.5,97.8c1.3-1.3,2.4-2.9,3-4.6c0.7-1.7,1-3.6,1-5.5c0-1.9-0.5-3.7-1.3-5.4c-0.8-1.7-1.9-3.2-3.3-4.4
		c-29-25.8-62.9-45.3-99.7-57.5c-1.4-0.5-2.8-0.7-4.3-0.7c-3,0-5.9,1-8.3,2.8c-2.4,1.8-4.1,4.4-4.9,7.3L306,234.2
		c-0.6,2-0.7,4.1-0.3,6.2S307,244.3,308.3,245.9z"/>
</g>
<defs>
	
		<filter id="Adobe_OpacityMaskFilter_00000023274805087080563730000007318297528617657481_" filterUnits="userSpaceOnUse" x="220.9" y="6" width="136.8" height="237.3">
		<feColorMatrix  type="matrix" values="1 0 0 0 0  0 1 0 0 0  0 0 1 0 0  0 0 0 1 0"/>
	</filter>
</defs>
<mask maskUnits="userSpaceOnUse" x="220.9" y="6" width="136.8" height="237.3" id="mask11_1918_128300_00000072976209487053962780000013127591289072187297_">
	
		<path style="fill:#EFE3D7;filter:url(#Adobe_OpacityMaskFilter_00000023274805087080563730000007318297528617657481_);stroke:#EFE3D7;stroke-width:1.3669;stroke-miterlimit:10;" d="
		M276,233.2c0.8,2.9,2.5,5.5,4.9,7.3c2.4,1.8,5.3,2.8,8.3,2.8c3,0,5.9-1,8.3-2.8c2.4-1.8,4.1-4.4,4.9-7.3l54.7-204.4
		c0.5-1.8,0.6-3.7,0.3-5.5c-0.3-1.8-0.9-3.6-1.9-5.2c-1-1.6-2.2-2.9-3.8-4c-1.5-1.1-3.2-1.8-5-2.2c-18.5-3.9-37.4-5.8-56.3-5.9h-1.1
		c-19.4,0-38.7,2-57.7,6c-1.8,0.4-3.5,1.1-5.1,2.2c-1.5,1.1-2.8,2.4-3.8,4c-1,1.6-1.6,3.4-1.8,5.2c-0.3,1.8-0.1,3.7,0.3,5.5
		L276,233.2z"/>
</mask>
<g class="st24">
	<path class="st2" d="M276,233.2c0.8,2.9,2.5,5.5,4.9,7.3c2.4,1.8,5.3,2.8,8.3,2.8c3,0,5.9-1,8.3-2.8c2.4-1.8,4.1-4.4,4.9-7.3
		l54.7-204.4c0.5-1.8,0.6-3.7,0.3-5.5c-0.3-1.8-0.9-3.6-1.9-5.2c-1-1.6-2.2-2.9-3.8-4c-1.5-1.1-3.2-1.8-5-2.2
		c-18.5-3.9-37.4-5.8-56.3-5.9h-1.1c-19.4,0-38.7,2-57.7,6c-1.8,0.4-3.5,1.1-5.1,2.2c-1.5,1.1-2.8,2.4-3.8,4c-1,1.6-1.6,3.4-1.8,5.2
		c-0.3,1.8-0.1,3.7,0.3,5.5L276,233.2z"/>
</g>
<path class="st2" d="M290,332.4c23.4,0,42.4-19,42.4-42.4c0-23.4-19-42.4-42.4-42.4c-23.4,0-42.4,19-42.4,42.4
	C247.6,313.4,266.6,332.4,290,332.4z"/>
</svg>
