<svg width="171" height="53" viewBox="0 0 171 53" fill="none" xmlns="http://www.w3.org/2000/svg">
<path d="M100.97 39.9819C106.07 39.6656 111.274 39.6706 116.274 41.0514C118.989 41.7995 122.195 43.0196 123.417 46.0422C124.189 47.7191 123.953 50.2246 122.476 51.4195C121.889 51.9048 121.192 52.2372 120.447 52.387C119.701 52.5368 118.93 52.4994 118.202 52.2781L118.162 51.9166C121.864 49.9082 121.409 48.1359 118.353 45.5903C116.574 44.084 114.205 43.2606 111.961 42.6079C108.364 41.5133 104.677 40.9409 100.94 40.3434V39.9819H100.97Z" fill="#719CAE"/>
<path d="M58.3047 17.2776C66.5152 17.855 79.139 18.9446 86.6131 15.435C88.8072 14.3153 90.9462 13.0651 91.6776 10.7253C92.3188 8.06427 89.7189 6.13625 87.7702 4.83082L87.8704 4.48438C92.2487 4.65006 96.0809 8.30528 94.2575 13.1354C91.0314 21.4349 76.8096 20.4257 69.8365 19.6977C65.9437 19.2054 62.0782 18.5167 58.2546 17.6341L58.3047 17.2776V17.2776Z" fill="#719CAE"/>
<path d="M143.575 22.71C148.695 17.5786 156.545 10.1929 164.159 10.8807C166.989 11.177 170.055 12.9795 170.771 16.1577C171.398 19.0748 169.935 22.2932 167.345 23.5585C165.461 24.4522 163.002 24.2865 161.659 22.3233C160.763 20.8171 160.397 18.6531 161.609 17.2372C162.165 16.6397 163.207 16.4489 163.773 17.1167L163.578 17.4129C163.405 17.3529 163.216 17.3557 163.045 17.4209C162.874 17.486 162.731 17.6094 162.641 17.7694C162.08 18.6229 163.047 20.566 163.853 20.8623C165.947 21.525 167.57 18.884 167.33 16.9008C167.253 16.455 167.087 16.0294 166.843 15.649C166.598 15.2687 166.28 14.9414 165.907 14.6866C163.788 13.1803 161.128 13.4665 158.629 14.1845C153.178 15.9016 148.419 19.4363 143.796 22.961L143.575 22.6849V22.71Z" fill="#A0BAC7"/>
<path d="M0 29.9806C8.23049 18.533 21.781 11.9054 35.3365 11.7749C38.5175 11.6042 41.7185 12.4677 44.7242 13.3765C52.6742 15.8368 60.2534 19.6225 67.7676 23.1271C75.2366 26.4459 82.9812 29.1873 90.9512 30.7589C100.66 32.6819 110.889 32.8727 120.251 29.2777C123.897 27.8895 127.328 25.9894 130.441 23.6342C133.461 21.5595 135.803 18.6374 137.173 15.2343C138.335 12.1866 138.626 8.81756 136.146 6.58828C135.002 5.5152 133.53 4.86062 131.968 4.73055C129.013 4.54979 125.06 6.15649 124.84 9.71128C124.695 12.2217 126.107 15.5205 128.792 15.8569C129.739 15.9201 130.682 15.6886 131.493 15.1941L131.828 15.6962C131.007 16.571 129.893 17.1119 128.699 17.2156C127.505 17.3194 126.315 16.9786 125.356 16.2585C124.359 15.4901 123.534 14.5197 122.936 13.4107C122.338 12.3017 121.98 11.0788 121.884 9.82173C121.554 7.12049 123.007 4.22846 125.045 2.64688C133.271 -3.91543 145.043 2.46613 143.49 13.6477C142.949 17.4039 141.422 20.9488 139.067 23.9204C136.161 27.5957 132.139 30.1463 128.106 32.2149C116.299 37.989 102.618 37.9187 90.1647 34.9162C81.9593 32.9781 74.1346 29.7296 66.5803 25.9539C63.3943 24.2267 58.7105 21.7815 55.4945 20.225C49.4832 17.4686 43.3866 14.4309 36.8594 13.5975C33.3187 13.4465 29.7726 13.7144 26.2945 14.3958C18.1757 16.0367 10.6835 19.9402 4.67879 25.6576C3.1482 27.0909 1.74681 28.6568 0.490914 30.3371L0.0200573 29.9907L0 29.9806Z" fill="#A0BAC7"/>
</svg>
