<?xml version="1.0" encoding="UTF-8"?><svg id="Layer_2" xmlns="http://www.w3.org/2000/svg" viewBox="0 0 426.04 179.97"><defs><style>.cls-1{fill:#008c5e;}.cls-2{fill:#7da567;}.cls-3{fill:#9bcea4;}.cls-4{fill:#9dba8b;}.cls-5{fill:#2fac66;}.cls-6{fill:#a0bac7;}.cls-7{fill:#a4d8e2;}.cls-8{fill:#a499b3;}.cls-9{fill:#d5ecf1;}.cls-10{fill:#246254;}.cls-11{fill:#3f2b59;}.cls-12{fill:#6fbc85;}.cls-13{fill:#719cae;}.cls-14{fill:#5b9146;}</style></defs><g id="Layer_1-2"><path class="cls-9" d="M345.8,35.96c-.2,0-.3-.1-.5-.2-1.1-.6-1.2-2.4-1.8-3.4-.8-1.3-1.8-2.3-3.1-3.1-5.2-2.5-18.1-3.8-23.7,.1-.6,.4-1.1,.9-1.5,1.5s-.6,1.3-.7,2c-.1,1.6,1.1,2.6,1.7,3.9,.7,1.3-1.1,1-1.9,1-2.6,0-5.2-.1-7.9-.1-3.8,0-7.5,0-11.3-.1-15.7-.6-25.8,9.4-11.1,13.6,2.9,.8,9.9-.1,10.7,3.8,.7,3.7-4.5,3.7-6,6.8-3.4,7.1,10.9,4.3,13.8,3.8,3.3-.6,6.5-1.3,9.8-1.6,5.7-.5,11.3,.3,17,1.1,6.2,.9,12.5,1.5,18.9,1.8,1.3,.1,2.6-.2,3.9-.2,3.1,0,6.9-.3,8.8-3.1,.4-.7,.7-1.5,.9-2.3,.1-.8,.1-1.6-.1-2.4-.2-1-.7-1.3,.4-1.5,1-.1,1.9-.2,2.9-.3,1.6-.1,3.3-.2,4.9-.3,6.1-.2,12.1,0,18.2,.7s12.2,.5,18.2-.5c2-.3,12-1.8,10.4-5.5-.5-1.1-1.7-1.8-2.7-2.5-1.7-1.2-3.7-2-5.3-3.3-1.6-1.3-2.8-3.8-.5-5.2,.9-.4,1.8-.7,2.8-.8s1.9-.5,2.7-1c.4-.3,.6-.7,.8-1.1,.2-.4,.3-.9,.3-1.4s-.1-.9-.3-1.4c-.2-.4-.5-.8-.8-1.1-1.5-1.3-3.6-1.7-5.5-2.1-5.1-.8-10.3-1-15.5-1.2-3.7-.2-7.3,0-10.9,.8-2.1,.5-3.8,2-5.5,3.3-1,.8-4.9,3.8-5.9,1.7-.4-.8-.3-1.9-.7-2.7-.4-.8-.9-1.4-1.6-2-2.8-2.3-7-2.4-10.4-2-.3,0-.6,.1-.9,.2-2.9,.5-6.2,1.5-8.4,3.7-.5,1-1.4,2.7-2.6,2.6Z"/><path class="cls-7" d="M393.2,3.06l-.2-.1c-.7-.2-1.7-1.7-2.4-2.2-1.1-.6-2.4-.9-3.6-.7-2.6,.4-4,3.1-6.5,3.9-3.5,1.1-7-1.4-10.5-.8-.6,.1-1.2,.3-1.8,.6-.5,.3-1,.8-1.3,1.3-.8,1.4,.7,2.5,.2,3.8-1,2.6-6.5,1.4-8.5,2.2-1.2,.5-2.6,1.5-2.6,2.8,0,.5,.2,1,.5,1.4s.7,.7,1.1,.9c2.8,1.4,7.1,.9,10.2,1.3,1.4,.2,3.2,.7,3.5,2.1,.6,2.8-3.7,3-3.4,5.6,.1,.5,.3,1,.7,1.5,.3,.4,.8,.7,1.3,.9,1,.4,2.1,.4,3.2,.1,2.7-.6,4.8-2.4,7.2-3.6,3.4-1.6,4.3-.4,7,1.4,2,1.3,4.3,1.8,6.6,1.6,1.5-.2,3-1,3.6-2.5,.3-.8,.3-1.8,.9-2.4,.3-.3,.6-.4,1-.5s.8-.1,1.1,0c1.7,.4,3,1.9,4.7,2.3,1.3,.3,2.6,.3,3.9,0s2.5-.9,3.5-1.7c.5-.6,1.2-1.1,1.9-1.4,1.8-.6,3.5,1.1,5.2,1.5,2,.5,3.8-.2,5.3-1.6,.5-.5,.9-1.2,1-1.9,.1-.7,0-1.5-.3-2.1-.8-1.5-2.4-1.8-3.6-2.8-.3-.3-.6-.6-.8-.9-.2-.4-.3-.8-.4-1.2-.2-3.1,5.8-2.4,3.8-6.6-.8-1.7-3.2-2.4-4.9-2.4-2,0-3.8,.6-5.7,1.2-3.7,1.1-7.8,1.8-10.6-1.3-1-1-2.3-1.7-3.7-1.9-1.7-.2-3.5,.2-4.9,1.3-.7,.5-.9,1-1.7,.9Z"/><path class="cls-3" d="M367.8,135.96l23-43.9s1.7-6.9-6.1-2.9c-7.7,3.9-20.5,28-18.6,46.8"/><path class="cls-3" d="M366,138.16s-11.8,41.2-19,41.8c-7.2,.5-.1-19.3,5-26.4,5-7.2,12.8-16.6,12.8-16.6"/><path class="cls-3" d="M363,137.96c-.5,.1-36.1,16.7-33.9,19.4s15.6-4.3,23-9.8c7.4-5.4,11.9-8.2,11.9-8.2"/><path class="cls-3" d="M368.3,136.96c.6-.2,39.3-22.4,36.5-25.4s-17.3,6.2-25.2,13.2c-7.9,7-12.7,10.6-12.7,10.6"/><path class="cls-5" d="M378,136.86c-.8-2.4-6.9-2.4-9-2.2-2.4,.3-4.5,1.5-6.9,1.6-3.1,.2-6.8-2.4-10-3.1-4.9-1.1-10-1.5-14.9-2.7-4.1-1-8-2.1-12.2-1.1-.3,2.9,1.6,2.7,4,3,2.6,.3,5.1,.5,7.7,1,4.1,.7,8.2,1.6,12.2,2.6,3.3,.9,6.2,2,9.6,2.5,1.3,.2,3,.1,4.1,.8,1.5,.8,2.2,2.4,3.6,3.4,2.3,1.5,7.2,4.1,9.8,3"/><path class="cls-10" d="M376.2,146.36c-2,.1-3.3-1.8-3.2-3.8,.1-2.2,1.8-3.8,3.6-4.8,2.2-1.2,3-1.1,4.1,1.1,1.1,2.2,2.1,3.8,.4,5.9-1.3,1.6-3.4,3.1-4.9,1.6Z"/><path class="cls-8" d="M92.5,11.96c1.4,0,2.5-1.1,2.5-2.5s-1.1-2.5-2.5-2.5-2.5,1.1-2.5,2.5,1.1,2.5,2.5,2.5Z"/><path class="cls-8" d="M248.5,118.96c1.4,0,2.5-1.1,2.5-2.5s-1.1-2.5-2.5-2.5-2.5,1.1-2.5,2.5,1.1,2.5,2.5,2.5Z"/><path class="cls-8" d="M63,98.96c1.1,0,2-.9,2-2s-.9-2-2-2-2,.9-2,2,.9,2,2,2Z"/><path class="cls-1" d="M294.5,114.96c1.4,0,2.5-1.1,2.5-2.5s-1.1-2.5-2.5-2.5-2.5,1.1-2.5,2.5,1.1,2.5,2.5,2.5Z"/><path class="cls-12" d="M251.5,73.96c1.4,0,2.5-1.1,2.5-2.5s-1.1-2.5-2.5-2.5-2.5,1.1-2.5,2.5,1.1,2.5,2.5,2.5Z"/><path class="cls-8" d="M197,128.96c1.1,0,2-.9,2-2s-.9-2-2-2-2,.9-2,2,.9,2,2,2Z"/><path class="cls-11" d="M226.5,120.96c1.4,0,2.5-1.3,2.5-3s-1.1-3-2.5-3-2.5,1.3-2.5,3,1.1,3,2.5,3Z"/><path class="cls-1" d="M197.5,110.96c1.4,0,2.5-1.1,2.5-2.5s-1.1-2.5-2.5-2.5-2.5,1.1-2.5,2.5,1.1,2.5,2.5,2.5Z"/><path class="cls-8" d="M224.5,73.96c1.4,0,2.5-1.1,2.5-2.5s-1.1-2.5-2.5-2.5-2.5,1.1-2.5,2.5,1.1,2.5,2.5,2.5Z"/><path class="cls-12" d="M174.5,33.96c1.4,0,2.5-1.3,2.5-3s-1.1-3-2.5-3-2.5,1.3-2.5,3,1.1,3,2.5,3Z"/><path class="cls-11" d="M102.5,113.96c1.4,0,2.5-1.1,2.5-2.5s-1.1-2.5-2.5-2.5-2.5,1.1-2.5,2.5,1.1,2.5,2.5,2.5Z"/><path class="cls-12" d="M219.5,43.96c1.4,0,2.5-1.1,2.5-2.5s-1.1-2.5-2.5-2.5-2.5,1.1-2.5,2.5,1.1,2.5,2.5,2.5Z"/><path class="cls-8" d="M135,120.96c1.1,0,2-1.1,2-2.5s-.9-2.5-2-2.5-2,1.1-2,2.5,.9,2.5,2,2.5Z"/><path class="cls-8" d="M185.5,57.96c1.4,0,2.5-1.1,2.5-2.5s-1.1-2.5-2.5-2.5-2.5,1.1-2.5,2.5,1.1,2.5,2.5,2.5Z"/><path class="cls-1" d="M260,100.96c1.1,0,2-.9,2-2s-.9-2-2-2-2,.9-2,2,.9,2,2,2Z"/><path class="cls-8" d="M130,26.96c1.1,0,2-.9,2-2s-.9-2-2-2-2,.9-2,2,.9,2,2,2Z"/><path class="cls-12" d="M99,55.96c1.1,0,2-.9,2-2s-.9-2-2-2-2,.9-2,2,.9,2,2,2Z"/><path class="cls-11" d="M177,100.96c1.1,0,2-.9,2-2s-.9-2-2-2-2,.9-2,2,.9,2,2,2Z"/><path class="cls-1" d="M317,114.96c1.1,0,2-.9,2-2s-.9-2-2-2-2,.9-2,2,.9,2,2,2Z"/><path class="cls-12" d="M285,133.96c1.7,0,3-1.1,3-2.5s-1.3-2.5-3-2.5-3,1.1-3,2.5,1.3,2.5,3,2.5Z"/><path class="cls-11" d="M274,89.96c1.1,0,2-.9,2-2s-.9-2-2-2-2,.9-2,2,.9,2,2,2Z"/><path class="cls-8" d="M79.5,75.96c1.4,0,2.5-1.1,2.5-2.5s-1.1-2.5-2.5-2.5-2.5,1.1-2.5,2.5,1.1,2.5,2.5,2.5Z"/><path class="cls-8" d="M313,140.96c1.1,0,2-.9,2-2s-.9-2-2-2-2,.9-2,2,.9,2,2,2Z"/><path class="cls-8" d="M63,9.96c1.1,0,2-.9,2-2s-.9-2-2-2-2,.9-2,2,.9,2,2,2Z"/><path class="cls-12" d="M101.5,86.96c1.4,0,2.5-.9,2.5-2s-1.1-2-2.5-2-2.5,.9-2.5,2,1.1,2,2.5,2Z"/><path class="cls-11" d="M138.5,85.96c1.4,0,2.5-1.1,2.5-2.5s-1.1-2.5-2.5-2.5-2.5,1.1-2.5,2.5,1.1,2.5,2.5,2.5Z"/><path class="cls-8" d="M159.5,11.96c.8,0,1.5-.9,1.5-2s-.7-2-1.5-2-1.5,.9-1.5,2,.7,2,1.5,2Z"/><path class="cls-1" d="M115,30.96c1.1,0,2-.9,2-2s-.9-2-2-2-2,.9-2,2,.9,2,2,2Z"/><path class="cls-12" d="M8,64.96c1.1,0,2-.9,2-2s-.9-2-2-2-2,.9-2,2,.9,2,2,2Z"/><path class="cls-1" d="M155.5,48.96c1.4,0,2.5-1.1,2.5-2.5s-1.1-2.5-2.5-2.5-2.5,1.1-2.5,2.5,1.1,2.5,2.5,2.5Z"/><path class="cls-8" d="M198.5,36.96c1.4,0,2.5-1.3,2.5-3s-1.1-3-2.5-3-2.5,1.3-2.5,3,1.1,3,2.5,3Z"/><path class="cls-8" d="M164.5,82.96c1.4,0,2.5-1.1,2.5-2.5s-1.1-2.5-2.5-2.5-2.5,1.1-2.5,2.5,1.1,2.5,2.5,2.5Z"/><path class="cls-8" d="M252.5,141.96c1.4,0,2.5-1.3,2.5-3s-1.1-3-2.5-3-2.5,1.3-2.5,3,1.1,3,2.5,3Z"/><path class="cls-1" d="M163.5,117.96c1.4,0,2.5-1.1,2.5-2.5s-1.1-2.5-2.5-2.5-2.5,1.1-2.5,2.5,1.1,2.5,2.5,2.5Z"/><path class="cls-12" d="M201.5,81.96c1.4,0,2.5-1.1,2.5-2.5s-1.1-2.5-2.5-2.5-2.5,1.1-2.5,2.5,1.1,2.5,2.5,2.5Z"/><path class="cls-12" d="M126,59.96c1.1,0,2-.9,2-2s-.9-2-2-2-2,.9-2,2,.9,2,2,2Z"/><path class="cls-8" d="M229,93.96c1.1,0,2-.7,2-1.5s-.9-1.5-2-1.5-2,.7-2,1.5,.9,1.5,2,1.5Z"/><path class="cls-8" d="M298,95.96c1.1,0,2-.9,2-2s-.9-2-2-2-2,.9-2,2,.9,2,2,2Z"/><path class="cls-11" d="M39,75.96c1.1,0,2-.9,2-2s-.9-2-2-2-2,.9-2,2,.9,2,2,2Z"/><path class="cls-12" d="M84,40.96c1.7,0,3-1.3,3-3s-1.3-3-3-3-3,1.3-3,3,1.3,3,3,3Z"/><path class="cls-12" d="M127.5,7.96c1.4,0,2.5-1.3,2.5-3s-1.1-3-2.5-3-2.5,1.3-2.5,3,1.1,3,2.5,3Z"/><path class="cls-12" d="M2,42.96c1.1,0,2-.9,2-2s-.9-2-2-2-2,.9-2,2,.9,2,2,2Z"/><path class="cls-6" d="M108.3,122.96c22,13.5,46.8,20.3,73.3,18.7,7.5-.4,14.9-1.2,22.5-1.2,7.8,.1,15.4,.6,23,2.9,4,1.2,7.8,3.2,10.7,6.1,4.9,4.8,6.3,12.8,.7,17.7-1.9,1.6-4.1,2.8-6.6,3.3-.8,.2-1.6,.4-2.5,.4-5.4,.3-11.3-2.7-12.6-7.6-.2-.9-.2-1.9,0-2.8s.7-1.8,1.3-2.5l.6,.3c-2.1,4.9,3.1,8.5,8,8.7,1.1,.1,2.2-.1,3.2-.5l.6-.2c2.8-1.1,5.3-3,5.5-5.8,.4-5.5-5.7-9.9-10.9-11.8-17.2-6.4-36.4-2.7-54.4-3.7-22.6-1.2-44.5-9.2-62.5-21.5l.1-.5h0Z"/><path class="cls-6" d="M124.2,128.06c4,1.1,8,1.9,12,2.5,3.5,.6,7.6,.7,10.6-.9,2.3-1.1,.9-3-.3-4.4l.2-.3c.8,.1,1.6,.4,2.3,.8s1.2,1,1.7,1.7c1.4,2.5-1,5.4-3.7,6.1-2.3,.7-4.8,.4-7,.1-5.6-.9-10.8-3-15.8-5.3v-.3h0Z"/><path class="cls-13" d="M145.1,142.96c9.2,2.7,33.4,10.9,31.8,22.1-.8,4.9-6.4,6-10.6,3.9l.1-.3c3.5,0,7.8-.9,6.8-5-2-6.9-10.5-11.4-16.8-14.9-3.7-1.9-7.5-3.7-11.4-5.4l.1-.4h0Z"/><path class="cls-4" d="M241.4,50.96c-1.9,1.4-5.5,1.6-7.1-1.8-1.5-3.4-1.7-5.4-.8-7.6,.9-2.2-5.1-8.3-8.5-9.8s-9.5-4.8-14.5-14.7c-5-9.9,4.1-12.1,6.4-10.8s7.4,5.2,12.5,14.9c5.1,9.6,13,23.8,13,23.8,0,0,1.8,3.9-1,6Z"/><path class="cls-2" d="M238.5,42.86s1.7-.5,2.5,.1c0,0-9.4-19.3-15-26.4-5.7-7-9-7.6-9-7.6,0,0,7,5.7,10.9,12.7,3.9,7,10.6,21.2,10.6,21.2Z"/><path class="cls-14" d="M236.7,42.46c-.4,.2-.7,.5-1,.8s-.5,.7-.6,1.1c-.7,2.1,1.1,4.8,3.3,5.4,5.7,1.7,4.3-10.4-1.7-7.3Z"/><path class="cls-4" d="M8.5,6.36c1.1-2.1,4.4-3.7,7.1-1.2,2.7,2.5,3.6,4.3,3.7,6.7s7.9,5.6,11.6,5.7c3.7,.1,10.6,.7,19,7.8,8.5,7.1,1,12.8-1.6,12.5s-8.8-1.9-17.3-8.8C22.7,22.26,9.9,12.36,9.9,12.36c0,0-3.1-2.8-1.4-6Z"/><path class="cls-2" d="M14.4,11.96s-1.4,1.1-2.4,.8c0,0,16.5,14.3,24.6,18.6,8.1,4.3,11.4,3.6,11.4,3.6,0,0-8.8-2.6-15.2-7.5-6.4-5-18.4-15.5-18.4-15.5Z"/><path class="cls-14" d="M16.3,12.46c.6-.7,.8-1.6,.7-2.5-.2-2.3-3.1-4.2-5.4-4-6.2,.7,.2,11.9,4.7,6.5Z"/></g></svg>