<svg width="301" height="65" viewBox="0 0 301 65" fill="none" xmlns="http://www.w3.org/2000/svg">
<g clip-path="url(#clip0_4454_100895)">
<path d="M52.1171 31.119C53.8544 29.5402 54.723 27.3872 54.8678 24.9472C55.0125 21.2154 52.6962 17.9142 49.2217 16.6224C49.2217 16.1919 49.3665 15.7613 49.3665 15.1871C49.3665 8.72828 44.01 3.41766 37.4954 3.41766C37.0611 3.41766 36.7715 3.41766 36.482 3.41766C35.9029 2.55647 35.3238 1.83882 34.6 1.12117C34.4552 0.977641 34.4552 0.977641 34.3104 0.83411C34.1657 0.69058 33.8761 0.54705 33.5866 0.403519C32.718 -0.0270715 31.7046 -0.170602 30.6912 0.259989C29.8226 0.69058 29.0987 1.55176 28.8092 2.55647L28.5197 3.84825L28.954 3.99178C28.954 3.99178 28.954 3.99178 29.0987 3.99178C29.8226 4.13531 30.5464 4.42237 31.2703 4.85296C31.7046 5.28355 32.1389 5.71414 32.2837 6.28826C32.8627 7.58004 34.1657 8.29769 35.6134 8.29769H37.2058H37.3506C40.9699 8.29769 44.01 11.1683 44.1548 14.7566C44.1548 15.4742 44.1548 16.3354 43.8653 17.053C43.8653 17.1966 43.8653 17.1966 43.7205 17.3401C43.1414 18.9189 43.7205 20.7848 45.1682 21.7895L46.4711 22.6507L46.7607 22.2201C47.0502 21.9331 47.195 21.5025 47.4845 21.0719C48.9322 21.7895 49.8008 23.2248 49.656 24.8037C49.5113 26.0954 49.077 27.8178 46.7607 28.679H46.6159L46.4711 28.8225C46.0368 29.5402 45.6025 31.2625 47.0502 32.8414C48.2083 34.4202 48.7874 36.4296 48.3531 38.4391C47.6293 41.8838 44.1548 44.1803 40.6803 43.6061C39.8117 43.4626 38.9431 43.1756 38.2192 42.745L37.7849 42.4579L37.0611 43.6061C36.482 44.4673 36.482 45.6156 36.9163 46.4768C37.3506 47.3379 38.0745 48.0556 39.0879 48.3426C39.5222 48.4862 39.9565 48.4862 40.246 48.4862C40.6803 48.4862 41.2594 48.6297 41.6937 48.6297C47.0502 48.6297 51.9724 44.8979 53.2753 39.5873C54.1439 37.0038 53.7096 33.8461 52.1171 31.119C52.1171 31.119 52.1171 31.2625 52.1171 31.119Z" fill="#2AAC65"/>
<path d="M24.1765 0.546677C23.3079 0.116086 22.1498 0.116086 21.2812 0.690207C20.9916 0.833738 20.7021 0.977268 20.5573 1.1208C20.4125 1.26433 20.4125 1.26433 20.2678 1.40786C19.5439 1.98198 18.8201 2.84316 18.3858 3.70434C18.0962 3.70434 17.8067 3.70434 17.3724 3.70434C10.8577 3.70434 5.50125 9.01497 5.50125 15.4738C5.50125 15.9044 5.50125 16.335 5.64602 16.9091C2.17155 18.2009 0 21.5021 0 25.2339C0 27.5304 1.01339 29.6833 2.75063 31.4057C2.75063 31.4057 2.75063 31.4057 2.8954 31.5492C1.30293 34.1328 0.723849 37.2904 1.4477 40.3046C2.60586 45.6152 7.52803 49.347 13.0293 49.347C13.4636 49.347 14.0427 49.347 14.477 49.2035C14.9113 49.2035 15.2008 49.0599 15.6351 49.0599C16.6485 48.7729 17.3724 48.1988 17.8067 47.194C18.241 46.1893 18.0962 45.1846 17.6619 44.3234L16.9381 43.1752L16.5038 43.4623C15.7799 43.8928 14.9113 44.1799 14.0427 44.3234C10.5682 44.8976 7.09372 42.4575 6.36987 39.1563C5.93556 37.1469 6.36987 35.1375 7.6728 33.7022C9.12049 32.1234 8.68618 30.401 8.25188 29.6833L8.10711 29.5398H7.96234C5.64602 28.6786 5.21171 26.9563 5.06694 25.6645C4.92217 23.6551 5.79079 22.2198 7.23849 21.5021C7.38326 21.9327 7.6728 22.2198 7.96234 22.6504L8.25188 23.0809L9.5548 22.2198C11.0025 21.215 11.5816 19.3492 11.0025 17.7703C11.0025 17.6268 11.0025 17.6268 10.8577 17.4833C10.5682 16.7656 10.5682 16.048 10.5682 15.1868C10.713 11.5985 13.7531 8.72791 17.5171 8.58438H17.6619H19.2544C20.7021 8.58438 22.005 7.7232 22.5841 6.57495C22.8736 6.00083 23.1632 5.57024 23.5975 5.13965C24.1765 4.70906 24.9004 4.27847 25.769 4.27847C25.769 4.27847 25.769 4.27847 25.9138 4.27847L26.3481 4.13494L26.0586 2.84316C25.769 1.83845 25.1899 0.977268 24.1765 0.546677Z" fill="#2AAC65"/>
<path d="M27.5062 38.8701C28.3748 38.8701 29.2435 38.583 29.8225 38.0089C30.4016 37.4348 30.6912 36.7171 30.6912 35.8559C30.6912 34.9948 30.4016 34.2771 29.8225 33.703C29.2435 33.1289 28.5196 32.8418 27.5062 32.8418C26.4928 32.8418 25.769 33.1289 25.1899 33.703C24.6108 34.2771 24.3213 34.9948 24.3213 35.8559C24.3213 36.7171 24.6108 37.4348 25.1899 38.0089C25.769 38.583 26.4928 38.8701 27.5062 38.8701Z" fill="white"/>
<path d="M39.9565 36.8601L40.2461 36.4295L38.9431 35.7119C37.3507 34.8507 35.4687 35.2813 34.3105 36.7166C33.7314 37.5778 33.0076 38.439 32.2837 39.1566C31.5599 39.8743 30.6913 40.5919 29.8227 41.166C29.0988 41.5966 28.2302 41.8837 27.3616 41.8837C26.4929 41.8837 25.6243 41.5966 25.0452 41.166C24.1766 40.5919 23.308 39.8743 22.5842 39.1566C21.8603 38.439 21.1365 37.5778 20.5574 36.7166C19.544 35.2813 17.5172 34.8507 15.9248 35.7119L14.6218 36.4295L14.9114 36.8601C17.3725 41.3096 20.7022 44.1802 24.9005 46.1896V47.7684C24.9005 48.6296 24.7557 49.6343 24.6109 50.639C24.4662 51.5002 24.0319 52.5049 23.5975 53.5096L18.6754 63.8438L19.8335 64.4179C20.7022 64.8485 21.5708 64.8485 22.4394 64.5615C23.308 64.2744 24.0319 63.5568 24.4662 62.6956L27.5063 55.5191L30.5465 62.6956C30.9808 63.5568 31.7047 64.1309 32.5733 64.4179C33.0076 64.5615 33.2971 64.5615 33.7314 64.5615C34.3105 64.5615 34.7448 64.418 35.1791 64.2744L36.3373 63.7003L31.4151 53.3661C30.9808 52.3614 30.6913 51.5002 30.4017 50.4955C30.1122 49.4908 30.1122 48.4861 30.1122 47.6249V46.0461C34.1657 44.1802 37.4954 41.3096 39.9565 36.8601Z" fill="white"/>
<path d="M76.3888 30.6448C75.3754 30.3577 74.5068 29.9272 73.7829 29.6401C73.0591 29.353 72.3352 28.9224 71.7562 28.3483C71.1771 27.9177 70.7428 27.3436 70.4532 26.626C70.1637 25.9083 70.0189 25.0471 70.0189 24.1859C70.0189 22.32 70.7428 20.7412 72.1905 19.593C73.6382 18.4447 75.6649 17.8706 78.2708 17.8706C79.1394 17.8706 80.1528 17.8706 80.8766 18.0141C81.7453 18.1577 82.3243 18.3012 82.9034 18.5883C83.4825 18.8753 83.9168 19.1624 84.2063 19.593C84.4959 20.0236 84.6407 20.5977 84.6407 21.1718C84.6407 21.7459 84.4959 22.1765 84.2063 22.6071C83.9168 23.0377 83.6273 23.3248 83.193 23.6118C82.7586 23.3248 82.0348 23.0377 81.311 22.7506C80.4423 22.4636 79.5737 22.4636 78.7051 22.4636C77.6917 22.4636 76.9679 22.6071 76.5336 22.8942C76.0992 23.1812 75.8097 23.4683 75.8097 23.8989C75.8097 24.1859 75.9545 24.473 76.244 24.7601C76.5336 24.9036 76.9679 25.1907 77.5469 25.3342L79.2842 25.9083C81.311 26.626 82.9034 27.4871 84.0616 28.4919C85.2197 29.4966 85.654 30.9319 85.654 32.6542C85.654 34.5201 84.9302 36.099 83.4825 37.2472C82.0348 38.3954 79.8633 38.9696 76.9679 38.9696C75.9545 38.9696 75.0859 38.826 74.2172 38.6825C73.3486 38.539 72.6248 38.2519 71.9009 37.9649C71.3218 37.6778 70.7428 37.2472 70.4532 36.8166C70.1637 36.386 69.8741 35.8119 69.8741 35.0942C69.8741 34.3766 70.0189 33.946 70.4532 33.3719C70.8875 32.9413 71.1771 32.5107 71.6114 32.3672C72.1905 32.7978 72.9143 33.2284 73.9277 33.6589C74.7963 33.946 75.8097 34.2331 76.8231 34.2331C77.8365 34.2331 78.7051 34.0895 79.1394 33.8025C79.5737 33.5154 79.8633 33.0848 79.8633 32.6542C79.8633 32.2236 79.7185 31.9366 79.2842 31.6495C78.9946 31.3625 78.4156 31.2189 77.8365 30.9319L76.3888 30.6448Z" fill="white"/>
<path d="M103.895 35.8117C103.75 36.8164 103.461 37.6776 103.026 38.2517C102.592 38.8258 101.868 39.1129 100.855 39.1129C100.131 39.1129 99.5519 38.9693 98.9729 38.5388C98.3938 38.2517 97.8147 37.6776 97.2356 36.8164L94.0507 32.654V38.6823C93.7612 38.6823 93.4716 38.8258 93.0373 38.8258C92.603 38.9693 92.0239 38.9693 91.5896 38.9693C91.1553 38.9693 90.721 38.9693 90.2867 38.8258C89.8524 38.8258 89.5628 38.6823 89.2733 38.3952C88.9837 38.2517 88.839 37.9646 88.6942 37.534C88.5494 37.247 88.5494 36.6729 88.5494 36.2423V17.0092C88.839 17.0092 89.1285 16.8657 89.5628 16.7221C89.9971 16.5786 90.5762 16.5786 91.0105 16.5786C91.4448 16.5786 91.8791 16.5786 92.3134 16.7221C92.7478 16.7221 93.0373 16.8657 93.3268 17.1527C93.6164 17.2963 93.7611 17.5833 93.9059 18.0139C94.0507 18.301 94.0507 18.8751 94.0507 19.3057V28.061L99.6967 22.1763C100.855 22.1763 101.723 22.4634 102.447 22.8939C103.171 23.4681 103.461 24.0422 103.461 24.9034C103.461 25.1904 103.461 25.4775 103.316 25.7646C103.171 26.0516 103.026 26.3387 102.737 26.6257C102.447 26.9128 102.158 27.1999 101.868 27.4869C101.579 27.774 101.144 28.2046 100.565 28.6352L98.6833 30.3575L103.895 35.8117Z" fill="white"/>
<path d="M122.281 30.6446C122.281 32.0799 122.136 33.2281 121.702 34.3763C121.267 35.5246 120.688 36.3858 119.965 37.1034C119.241 37.8211 118.372 38.3952 117.214 38.8258C116.201 39.2564 115.042 39.3999 113.739 39.3999C112.436 39.3999 111.278 39.2564 110.265 38.8258C109.252 38.3952 108.383 37.8211 107.514 37.1034C106.79 36.3858 106.211 35.3811 105.777 34.3763C105.343 33.3716 105.198 32.0799 105.198 30.7881C105.198 29.4963 105.343 28.3481 105.777 27.1998C106.211 26.1951 106.79 25.1904 107.514 24.4728C108.238 23.7551 109.107 23.181 110.265 22.7504C111.278 22.3198 112.436 22.1763 113.739 22.1763C115.042 22.1763 116.201 22.3198 117.214 22.7504C118.227 23.181 119.096 23.7551 119.965 24.4728C120.688 25.1904 121.267 26.1951 121.702 27.1998C122.136 28.061 122.281 29.3528 122.281 30.6446ZM110.844 30.6446C110.844 31.9363 111.134 33.0846 111.568 33.8022C112.147 34.5199 112.726 34.9505 113.739 34.9505C114.753 34.9505 115.332 34.5199 115.911 33.8022C116.345 33.0846 116.635 32.0799 116.635 30.6446C116.635 29.2093 116.345 28.3481 115.911 27.4869C115.332 26.7692 114.608 26.3386 113.739 26.3386C112.871 26.3386 112.147 26.7692 111.568 27.4869C111.134 28.2045 110.844 29.2093 110.844 30.6446Z" fill="white"/>
<path d="M135.31 38.2517C135.02 38.5387 134.586 38.6823 134.007 38.8258C133.428 38.9693 132.704 39.1129 131.98 39.1129C131.112 39.1129 130.388 38.9693 129.809 38.8258C129.23 38.5387 128.795 38.2517 128.506 37.8211C128.361 37.3905 128.071 36.9599 127.782 36.2422C127.492 35.5246 127.203 34.8069 126.913 33.9458C126.624 33.0846 126.334 32.2234 125.9 31.2187C125.61 30.214 125.321 29.3528 125.031 28.3481C124.742 27.3434 124.452 26.4822 124.163 25.621C123.873 24.7598 123.728 24.0422 123.584 23.3245C123.873 23.0375 124.307 22.7504 124.742 22.4633C125.321 22.1763 125.755 22.1763 126.479 22.1763C127.203 22.1763 127.927 22.3198 128.361 22.6069C128.795 22.8939 129.23 23.468 129.519 24.4728L130.822 29.6398C131.112 30.6446 131.256 31.5057 131.546 32.3669C131.836 33.2281 131.98 33.8022 131.98 34.2328H132.125C132.559 32.654 132.994 30.7881 133.428 28.7787C133.862 26.7692 134.297 24.7598 134.731 22.8939C135.165 22.7504 135.455 22.6069 136.034 22.4633C136.468 22.3198 136.902 22.3198 137.337 22.3198C138.061 22.3198 138.784 22.4633 139.219 22.7504C139.798 23.0375 139.943 23.6116 139.943 24.4728C139.943 24.7598 139.798 25.3339 139.653 26.0516C139.508 26.7692 139.219 27.4869 139.074 28.3481C138.784 29.2093 138.495 30.0704 138.205 31.0751C137.916 32.0799 137.482 32.941 137.192 33.9458C136.902 34.8069 136.468 35.6681 136.179 36.5293C135.889 37.3905 135.455 37.8211 135.31 38.2517Z" fill="white"/>
<path d="M150.656 39.2564C149.353 39.2564 148.195 39.1128 147.036 38.6823C145.878 38.2517 145.01 37.8211 144.141 36.9599C143.272 36.2422 142.693 35.2375 142.259 34.2328C141.825 33.2281 141.535 31.7928 141.535 30.3575C141.535 28.9222 141.825 27.6304 142.259 26.6257C142.693 25.621 143.417 24.7598 144.141 24.0422C144.865 23.3245 145.733 22.8939 146.747 22.6069C147.76 22.3198 148.774 22.1763 149.787 22.1763C150.945 22.1763 151.959 22.3198 152.972 22.7504C153.985 23.0375 154.709 23.6116 155.433 24.1857C156.157 24.7598 156.591 25.621 157.026 26.4822C157.46 27.3434 157.605 28.3481 157.605 29.3528C157.605 30.0704 157.46 30.6446 157.026 31.0751C156.591 31.5057 156.012 31.7928 155.288 31.7928L147.181 33.0846C147.471 33.8022 147.905 34.3763 148.629 34.8069C149.353 35.2375 150.221 35.3811 151.235 35.3811C152.103 35.3811 152.972 35.2375 153.841 35.094C154.709 34.8069 155.288 34.5199 155.723 34.2328C156.012 34.5199 156.302 34.8069 156.591 35.2375C156.881 35.6681 156.881 36.0987 156.881 36.5293C156.881 37.534 156.446 38.2517 155.433 38.8258C154.709 39.2564 153.985 39.3999 153.117 39.5434C152.248 39.1128 151.524 39.2564 150.656 39.2564ZM149.787 26.0516C149.208 26.0516 148.774 26.1951 148.484 26.3386C148.05 26.4822 147.76 26.7692 147.615 27.0563C147.471 27.3434 147.181 27.6304 147.036 28.061C146.892 28.3481 146.892 28.7787 146.892 29.0657L152.538 28.061C152.538 27.6304 152.248 27.1998 151.814 26.7692C151.235 26.3386 150.656 26.0516 149.787 26.0516Z" fill="white"/>
<path d="M170.344 28.3485C170.344 27.6309 170.2 27.2003 169.765 26.7697C169.331 26.4826 168.897 26.3391 168.173 26.3391C167.738 26.3391 167.304 26.3391 166.87 26.4826C166.436 26.6262 166.146 26.7697 165.712 27.0568V38.6827C165.422 38.6827 165.133 38.8263 164.698 38.8263C164.264 38.8263 163.685 38.9698 163.251 38.9698C162.816 38.9698 162.382 38.9698 161.948 38.8263C161.513 38.8263 161.224 38.6827 160.934 38.3957C160.645 38.2521 160.5 37.9651 160.355 37.5345C160.21 37.2474 160.21 36.6733 160.21 36.2427V26.1956C160.21 25.6215 160.355 25.0473 160.645 24.7603C160.934 24.3297 161.224 24.0426 161.658 23.7556C162.382 23.1814 163.395 22.7509 164.409 22.4638C165.567 22.1767 166.725 22.0332 168.173 22.0332C170.634 22.0332 172.516 22.6073 173.819 23.7556C175.122 24.9038 175.846 26.3391 175.846 28.3485V38.8263C175.556 38.8263 175.267 38.9698 174.832 38.9698C174.398 38.9698 173.819 39.1133 173.385 39.1133C172.95 39.1133 172.516 39.1133 172.082 38.9698C171.647 38.9698 171.358 38.8263 171.068 38.5392C170.779 38.3957 170.634 38.1086 170.489 37.678C170.344 37.391 170.344 36.8168 170.344 36.3862V28.3485V28.3485Z" fill="white"/>
<path d="M185.835 18.0141C185.835 17.153 186.124 16.4353 186.703 15.8612C187.282 15.2871 188.006 15 188.875 15C189.743 15 190.467 15.2871 191.046 15.8612C191.625 16.4353 191.915 17.153 191.915 18.0141C191.915 18.8753 191.625 19.593 191.046 20.1671C190.467 20.7412 189.743 21.0283 188.875 21.0283C188.006 21.0283 187.282 20.7412 186.703 20.1671C186.124 19.4494 185.835 18.7318 185.835 18.0141ZM191.625 38.6825C191.336 38.6825 191.046 38.826 190.612 38.826C190.178 38.9696 189.599 38.9696 189.164 38.9696C188.73 38.9696 188.296 38.9696 187.861 38.826C187.427 38.826 187.138 38.6825 186.848 38.3954C186.558 38.2519 186.414 37.9649 186.269 37.5343C186.124 37.2472 186.124 36.6731 186.124 36.2425V22.6071C186.414 22.6071 186.703 22.4636 187.138 22.4636C187.572 22.32 188.151 22.32 188.585 22.32C189.02 22.32 189.454 22.32 189.888 22.4636C190.322 22.4636 190.612 22.6071 190.902 22.8942C191.191 23.0377 191.336 23.3248 191.481 23.7554C191.625 24.0424 191.625 24.6165 191.625 25.0471V38.6825Z" fill="white"/>
<path d="M207.84 30.6448C206.826 30.3577 205.958 29.9272 205.234 29.6401C204.51 29.353 203.786 28.9224 203.207 28.3483C202.628 27.9177 202.194 27.3436 201.904 26.626C201.615 25.9083 201.47 25.0471 201.47 24.1859C201.47 22.32 202.194 20.7412 203.641 19.593C205.089 18.4447 207.116 17.8706 209.722 17.8706C210.59 17.8706 211.604 17.8706 212.327 18.0141C213.196 18.1577 213.775 18.3012 214.354 18.5883C214.933 18.8753 215.368 19.1624 215.657 19.593C215.947 20.0236 216.092 20.5977 216.092 21.1718C216.092 21.7459 215.947 22.1765 215.657 22.6071C215.368 23.0377 215.078 23.3248 214.644 23.6118C214.21 23.3248 213.486 23.0377 212.762 22.7506C211.893 22.4636 211.025 22.4636 210.156 22.4636C209.143 22.4636 208.419 22.6071 207.984 22.8942C207.55 23.1812 207.261 23.4683 207.261 23.8989C207.261 24.1859 207.405 24.473 207.695 24.7601C207.984 24.9036 208.419 25.1907 208.998 25.3342L210.735 25.9083C212.762 26.626 214.354 27.4871 215.512 28.4919C216.671 29.4966 217.105 30.9319 217.105 32.6542C217.105 34.5201 216.381 36.099 214.933 37.2472C213.486 38.3954 211.314 38.9696 208.419 38.9696C207.405 38.9696 206.537 38.826 205.668 38.6825C204.799 38.539 204.076 38.2519 203.352 37.9649C202.773 37.6778 202.194 37.2472 201.904 36.8166C201.615 36.386 201.325 35.8119 201.325 35.0942C201.325 34.3766 201.47 33.946 201.904 33.3719C202.338 32.9413 202.628 32.5107 203.062 32.3672C203.641 32.7978 204.365 33.2284 205.379 33.6589C206.247 33.946 207.261 34.2331 208.274 34.2331C209.287 34.2331 210.156 34.0895 210.59 33.8025C211.025 33.5154 211.314 33.0848 211.314 32.6542C211.314 32.2236 211.169 31.9366 210.735 31.6495C210.445 31.3625 209.866 31.2189 209.287 30.9319L207.84 30.6448Z" fill="white"/>
<path d="M235.346 35.8117C235.201 36.8164 234.912 37.6776 234.477 38.2517C234.043 38.8258 233.319 39.1129 232.306 39.1129C231.582 39.1129 231.003 38.9693 230.424 38.5388C229.845 38.2517 229.266 37.6776 228.687 36.8164L225.502 32.654V38.6823C225.212 38.6823 224.923 38.8258 224.488 38.8258C224.054 38.9693 223.475 38.9693 223.041 38.9693C222.606 38.9693 222.172 38.9693 221.738 38.8258C221.303 38.8258 221.014 38.6823 220.724 38.3952C220.435 38.2517 220.29 37.9646 220.145 37.534C220 37.247 220 36.6729 220 36.2423V17.0092C220.29 17.0092 220.579 16.8657 221.014 16.7221C221.448 16.5786 222.027 16.5786 222.461 16.5786C222.896 16.5786 223.33 16.5786 223.764 16.7221C224.199 16.7221 224.488 16.8657 224.778 17.1527C225.067 17.2963 225.212 17.5833 225.357 18.0139C225.502 18.301 225.502 18.8751 225.502 19.3057V28.061L231.148 22.1763C232.306 22.1763 233.174 22.4634 233.898 22.8939C234.622 23.4681 234.912 24.0422 234.912 24.9034C234.912 25.1904 234.912 25.4775 234.767 25.7646C234.622 26.0516 234.477 26.3387 234.188 26.6257C233.898 26.9128 233.609 27.1999 233.319 27.4869C233.03 27.774 232.595 28.2046 232.016 28.6352L230.134 30.3575L235.346 35.8117Z" fill="white"/>
<path d="M253.732 30.6446C253.732 32.0799 253.587 33.2281 253.153 34.3763C252.718 35.5246 252.139 36.3858 251.415 37.1034C250.692 37.8211 249.823 38.3952 248.665 38.8258C247.651 39.2564 246.493 39.3999 245.19 39.3999C243.887 39.3999 242.729 39.2564 241.716 38.8258C240.702 38.3952 239.834 37.8211 238.965 37.1034C238.241 36.3858 237.662 35.3811 237.228 34.3763C236.794 33.3716 236.649 32.0799 236.649 30.7881C236.649 29.4963 236.794 28.3481 237.228 27.1998C237.662 26.1951 238.241 25.1904 238.965 24.4728C239.689 23.7551 240.558 23.181 241.716 22.7504C242.729 22.3198 243.887 22.1763 245.19 22.1763C246.493 22.1763 247.651 22.3198 248.665 22.7504C249.678 23.181 250.547 23.7551 251.415 24.4728C252.139 25.1904 252.718 26.1951 253.153 27.1998C253.587 28.061 253.732 29.3528 253.732 30.6446ZM242.295 30.6446C242.295 31.9363 242.584 33.0846 243.019 33.8022C243.598 34.5199 244.177 34.9505 245.19 34.9505C246.204 34.9505 246.783 34.5199 247.362 33.8022C247.796 33.0846 248.086 32.0799 248.086 30.6446C248.086 29.2093 247.796 28.3481 247.362 27.4869C246.928 26.7692 246.204 26.3386 245.19 26.3386C244.177 26.3386 243.598 26.7692 243.019 27.4869C242.584 28.2045 242.295 29.2093 242.295 30.6446Z" fill="white"/>
<path d="M262.128 38.6823C261.839 38.6823 261.549 38.8258 261.115 38.8258C260.681 38.9693 260.102 38.9693 259.667 38.9693C259.233 38.9693 258.799 38.9693 258.364 38.8258C257.93 38.8258 257.64 38.6823 257.351 38.3952C257.061 38.2517 256.917 37.9646 256.772 37.534C256.627 37.1034 256.627 36.6729 256.627 36.2423V16.8657C256.917 16.8657 257.206 16.7221 257.64 16.7221C258.075 16.5786 258.654 16.5786 259.088 16.5786C259.522 16.5786 259.957 16.5786 260.391 16.7221C260.825 16.7221 261.115 16.8657 261.404 17.1527C261.694 17.2963 261.839 17.5833 261.984 18.0139C262.128 18.301 262.128 18.8751 262.128 19.3057V38.6823Z" fill="white"/>
<path d="M274.144 39.2564C272.841 39.2564 271.683 39.1128 270.525 38.6823C269.367 38.2517 268.498 37.8211 267.63 36.9599C266.761 36.2422 266.182 35.2375 265.748 34.2328C265.313 33.0846 265.024 31.7928 265.024 30.3575C265.024 28.9222 265.313 27.6304 265.748 26.6257C266.182 25.621 266.906 24.7598 267.63 24.0422C268.353 23.3245 269.222 22.8939 270.235 22.6069C271.249 22.3198 272.262 22.1763 273.276 22.1763C274.434 22.1763 275.447 22.3198 276.461 22.7504C277.474 23.0375 278.198 23.6116 278.922 24.1857C279.645 24.7598 280.08 25.621 280.514 26.4822C280.948 27.3434 281.093 28.3481 281.093 29.3528C281.093 30.0704 280.948 30.6446 280.514 31.0751C280.08 31.5057 279.501 31.7928 278.777 31.7928L270.67 33.0846C270.959 33.8022 271.394 34.3763 272.117 34.8069C272.841 35.2375 273.71 35.3811 274.723 35.3811C275.592 35.3811 276.461 35.2375 277.329 35.094C278.198 34.8069 278.777 34.5199 279.211 34.2328C279.501 34.5199 279.79 34.8069 280.08 35.2375C280.369 35.6681 280.369 36.0987 280.369 36.5293C280.369 37.534 279.935 38.2517 278.922 38.8258C278.198 39.2564 277.474 39.3999 276.605 39.5434C275.737 39.1128 274.868 39.2564 274.144 39.2564ZM273.131 26.0516C272.552 26.0516 272.117 26.1951 271.828 26.3386C271.394 26.4822 271.104 26.7692 270.959 27.0563C270.67 27.3434 270.525 27.6304 270.38 28.061C270.235 28.3481 270.235 28.7787 270.235 29.0657L275.881 28.061C275.881 27.6304 275.592 27.1998 275.158 26.7692C274.578 26.3386 273.999 26.0516 273.131 26.0516Z" fill="white"/>
<path d="M293.688 28.3485C293.688 27.6309 293.543 27.2003 293.109 26.7697C292.675 26.4826 292.24 26.3391 291.517 26.3391C291.082 26.3391 290.648 26.3391 290.214 26.4826C289.779 26.6262 289.49 26.7697 289.055 27.0568V38.6827C288.766 38.6827 288.476 38.8263 288.042 38.8263C287.608 38.8263 287.029 38.9698 286.594 38.9698C286.16 38.9698 285.726 38.9698 285.291 38.8263C284.857 38.8263 284.568 38.6827 284.278 38.3957C283.989 38.2521 283.844 37.9651 283.699 37.5345C283.554 37.2474 283.554 36.6733 283.554 36.2427V26.1956C283.554 25.6215 283.699 25.0473 283.989 24.7603C284.278 24.3297 284.568 24.0426 285.002 23.7556C285.726 23.1814 286.739 22.7509 287.753 22.4638C288.911 22.1767 290.069 22.0332 291.517 22.0332C293.978 22.0332 295.86 22.6073 297.163 23.7556C298.466 24.9038 299.189 26.3391 299.189 28.3485V38.8263C298.9 38.8263 298.61 38.9698 298.176 38.9698C297.742 38.9698 297.163 39.1133 296.728 39.1133C296.294 39.1133 295.86 39.1133 295.425 38.9698C294.991 38.9698 294.701 38.8263 294.412 38.5392C294.122 38.3957 293.978 38.1086 293.833 37.678C293.688 37.391 293.688 36.8168 293.688 36.3862V28.3485V28.3485Z" fill="white"/>
<path d="M72.245 55.065C72.0457 55.065 71.8853 55.0043 71.764 54.883C71.6427 54.7617 71.582 54.597 71.582 54.389V46.446C71.582 46.2467 71.6427 46.0863 71.764 45.965C71.8853 45.835 72.0457 45.77 72.245 45.77C72.453 45.77 72.6177 45.8307 72.739 45.952C72.8603 46.0733 72.921 46.238 72.921 46.446V54.389C72.921 54.597 72.8603 54.7617 72.739 54.883C72.6263 55.0043 72.4617 55.065 72.245 55.065ZM78.3108 48.5C79.8275 48.5 80.5858 49.3537 80.5858 51.061V54.441C80.5858 54.6403 80.5251 54.7963 80.4038 54.909C80.2911 55.013 80.1308 55.065 79.9228 55.065C79.7235 55.065 79.5631 55.0087 79.4418 54.896C79.3291 54.7833 79.2728 54.6317 79.2728 54.441V51.126C79.2728 50.5887 79.1645 50.1943 78.9478 49.943C78.7398 49.6917 78.4105 49.566 77.9598 49.566C77.4311 49.566 77.0065 49.7307 76.6858 50.06C76.3651 50.3893 76.2048 50.8313 76.2048 51.386V54.441C76.2048 54.6317 76.1441 54.7833 76.0228 54.896C75.9101 55.0087 75.7541 55.065 75.5548 55.065C75.3555 55.065 75.1951 55.0087 75.0738 54.896C74.9525 54.7833 74.8918 54.6317 74.8918 54.441V49.15C74.8918 48.968 74.9525 48.8207 75.0738 48.708C75.2038 48.5867 75.3641 48.526 75.5548 48.526C75.7455 48.526 75.8971 48.5823 76.0098 48.695C76.1225 48.8077 76.1788 48.955 76.1788 49.137V49.67C76.3868 49.2887 76.6771 48.9983 77.0498 48.799C77.4225 48.5997 77.8428 48.5 78.3108 48.5ZM84.592 55.091C83.708 55.091 82.9844 54.909 82.421 54.545C82.265 54.4497 82.1524 54.35 82.083 54.246C82.0224 54.142 81.992 54.025 81.992 53.895C81.992 53.7563 82.031 53.6393 82.109 53.544C82.187 53.4487 82.2867 53.401 82.408 53.401C82.5207 53.401 82.6984 53.4703 82.941 53.609C83.201 53.7477 83.4524 53.8603 83.695 53.947C83.9464 54.0337 84.2584 54.077 84.631 54.077C85.047 54.077 85.372 54.0033 85.606 53.856C85.84 53.7087 85.957 53.5007 85.957 53.232C85.957 53.0587 85.9094 52.92 85.814 52.816C85.7274 52.712 85.5714 52.621 85.346 52.543C85.1207 52.4563 84.787 52.3653 84.345 52.27C83.5824 52.1053 83.032 51.8843 82.694 51.607C82.3647 51.321 82.2 50.9353 82.2 50.45C82.2 50.0773 82.3084 49.7437 82.525 49.449C82.7417 49.1457 83.0407 48.9117 83.422 48.747C83.8034 48.5823 84.2367 48.5 84.722 48.5C85.0687 48.5 85.4067 48.5477 85.736 48.643C86.0654 48.7297 86.3557 48.8597 86.607 49.033C86.893 49.2237 87.036 49.4447 87.036 49.696C87.036 49.8347 86.9927 49.9517 86.906 50.047C86.828 50.1423 86.7327 50.19 86.62 50.19C86.542 50.19 86.464 50.1727 86.386 50.138C86.308 50.1033 86.204 50.047 86.074 49.969C85.84 49.8303 85.619 49.722 85.411 49.644C85.2117 49.566 84.9604 49.527 84.657 49.527C84.293 49.527 83.9984 49.605 83.773 49.761C83.5564 49.917 83.448 50.1293 83.448 50.398C83.448 50.6407 83.5477 50.8313 83.747 50.97C83.955 51.1 84.3407 51.2257 84.904 51.347C85.4847 51.4683 85.9397 51.607 86.269 51.763C86.5984 51.919 86.8324 52.114 86.971 52.348C87.1184 52.5733 87.192 52.8637 87.192 53.219C87.192 53.7823 86.9537 54.2373 86.477 54.584C86.009 54.922 85.3807 55.091 84.592 55.091ZM92.0595 48.5C92.6055 48.5 93.0909 48.6387 93.5155 48.916C93.9489 49.1933 94.2825 49.5833 94.5165 50.086C94.7592 50.5887 94.8805 51.1693 94.8805 51.828C94.8805 52.478 94.7635 53.05 94.5295 53.544C94.2955 54.038 93.9619 54.4193 93.5285 54.688C93.1039 54.9567 92.6142 55.091 92.0595 55.091C91.5829 55.091 91.1625 54.9913 90.7985 54.792C90.4345 54.584 90.1572 54.2893 89.9665 53.908V56.807C89.9665 56.989 89.9059 57.132 89.7845 57.236C89.6719 57.3487 89.5202 57.405 89.3295 57.405C89.1302 57.405 88.9655 57.3487 88.8355 57.236C88.7142 57.1233 88.6535 56.9717 88.6535 56.781V49.163C88.6535 48.9723 88.7142 48.8207 88.8355 48.708C88.9569 48.5867 89.1172 48.526 89.3165 48.526C89.5072 48.526 89.6632 48.5867 89.7845 48.708C89.9059 48.8207 89.9665 48.9723 89.9665 49.163V49.696C90.1572 49.3147 90.4345 49.02 90.7985 48.812C91.1625 48.604 91.5829 48.5 92.0595 48.5ZM91.7475 54.051C92.3195 54.051 92.7615 53.8603 93.0735 53.479C93.3855 53.089 93.5415 52.5387 93.5415 51.828C93.5415 51.1087 93.3812 50.5497 93.0605 50.151C92.7485 49.7523 92.3109 49.553 91.7475 49.553C91.1755 49.553 90.7335 49.748 90.4215 50.138C90.1182 50.528 89.9665 51.0827 89.9665 51.802C89.9665 52.5213 90.1182 53.076 90.4215 53.466C90.7335 53.856 91.1755 54.051 91.7475 54.051ZM96.9972 55.065C96.8065 55.065 96.6462 55.013 96.5162 54.909C96.3949 54.805 96.3342 54.649 96.3342 54.441V49.163C96.3342 48.955 96.3949 48.799 96.5162 48.695C96.6462 48.5823 96.8065 48.526 96.9972 48.526C97.1879 48.526 97.3439 48.5823 97.4652 48.695C97.5865 48.799 97.6472 48.955 97.6472 49.163V54.441C97.6472 54.649 97.5865 54.805 97.4652 54.909C97.3439 55.013 97.1879 55.065 96.9972 55.065ZM96.9972 47.252C96.7459 47.252 96.5465 47.1827 96.3992 47.044C96.2519 46.9053 96.1782 46.7233 96.1782 46.498C96.1782 46.2727 96.2519 46.095 96.3992 45.965C96.5465 45.8263 96.7459 45.757 96.9972 45.757C97.2399 45.757 97.4349 45.8263 97.5822 45.965C97.7382 46.095 97.8162 46.2727 97.8162 46.498C97.8162 46.7233 97.7425 46.9053 97.5952 47.044C97.4479 47.1827 97.2485 47.252 96.9972 47.252ZM102.811 48.526C103.227 48.5 103.435 48.6777 103.435 49.059C103.435 49.2497 103.387 49.3927 103.292 49.488C103.196 49.5833 103.032 49.6397 102.798 49.657L102.408 49.696C101.862 49.748 101.454 49.9387 101.186 50.268C100.926 50.5973 100.796 50.996 100.796 51.464V54.441C100.796 54.649 100.735 54.805 100.614 54.909C100.492 55.013 100.336 55.065 100.146 55.065C99.955 55.065 99.7946 55.013 99.6646 54.909C99.5433 54.805 99.4826 54.649 99.4826 54.441V49.15C99.4826 48.9507 99.5433 48.799 99.6646 48.695C99.7946 48.5823 99.955 48.526 100.146 48.526C100.319 48.526 100.462 48.5823 100.575 48.695C100.696 48.799 100.757 48.9463 100.757 49.137V49.761C100.93 49.3797 101.181 49.0893 101.511 48.89C101.84 48.6907 102.213 48.5737 102.629 48.539L102.811 48.526ZM106.87 48.5C107.711 48.5 108.335 48.7123 108.742 49.137C109.158 49.5617 109.366 50.2073 109.366 51.074V54.441C109.366 54.6403 109.31 54.7963 109.197 54.909C109.085 55.013 108.929 55.065 108.729 55.065C108.539 55.065 108.387 55.0087 108.274 54.896C108.162 54.7833 108.105 54.6317 108.105 54.441V53.96C107.941 54.324 107.694 54.6057 107.364 54.805C107.044 54.9957 106.667 55.091 106.233 55.091C105.817 55.091 105.436 55.0087 105.089 54.844C104.743 54.6707 104.47 54.4323 104.27 54.129C104.08 53.8257 103.984 53.4877 103.984 53.115C103.984 52.6557 104.101 52.296 104.335 52.036C104.578 51.7673 104.972 51.5767 105.518 51.464C106.073 51.3513 106.831 51.295 107.793 51.295H108.092V50.918C108.092 50.4327 107.993 50.0817 107.793 49.865C107.594 49.6483 107.273 49.54 106.831 49.54C106.528 49.54 106.242 49.579 105.973 49.657C105.705 49.735 105.41 49.8477 105.089 49.995C104.855 50.125 104.691 50.19 104.595 50.19C104.465 50.19 104.357 50.1423 104.27 50.047C104.192 49.9517 104.153 49.8303 104.153 49.683C104.153 49.553 104.188 49.4403 104.257 49.345C104.335 49.241 104.457 49.1413 104.621 49.046C104.925 48.8813 105.28 48.7513 105.687 48.656C106.095 48.552 106.489 48.5 106.87 48.5ZM106.467 54.116C106.944 54.116 107.334 53.9557 107.637 53.635C107.941 53.3057 108.092 52.8853 108.092 52.374V52.036H107.858C107.182 52.036 106.662 52.0663 106.298 52.127C105.934 52.1877 105.674 52.2917 105.518 52.439C105.362 52.5777 105.284 52.7813 105.284 53.05C105.284 53.362 105.397 53.6177 105.622 53.817C105.848 54.0163 106.129 54.116 106.467 54.116ZM114.269 54.064C114.46 54.0813 114.594 54.1333 114.672 54.22C114.759 54.298 114.802 54.4107 114.802 54.558C114.802 54.7313 114.733 54.8657 114.594 54.961C114.464 55.0477 114.269 55.0823 114.009 55.065L113.658 55.039C112.956 54.987 112.432 54.7747 112.085 54.402C111.739 54.0207 111.565 53.4617 111.565 52.725V49.67H110.785C110.404 49.67 110.213 49.501 110.213 49.163C110.213 49.007 110.261 48.8857 110.356 48.799C110.46 48.7037 110.603 48.656 110.785 48.656H111.565V47.317C111.565 47.1177 111.622 46.9617 111.734 46.849C111.856 46.7363 112.016 46.68 112.215 46.68C112.415 46.68 112.575 46.7363 112.696 46.849C112.818 46.9617 112.878 47.1177 112.878 47.317V48.656H114.165C114.347 48.656 114.486 48.7037 114.581 48.799C114.685 48.8857 114.737 49.007 114.737 49.163C114.737 49.3277 114.685 49.4533 114.581 49.54C114.486 49.6267 114.347 49.67 114.165 49.67H112.878V52.816C112.878 53.2233 112.961 53.5223 113.125 53.713C113.299 53.9037 113.559 54.012 113.905 54.038L114.269 54.064ZM116.408 55.065C116.218 55.065 116.057 55.013 115.927 54.909C115.806 54.805 115.745 54.649 115.745 54.441V49.163C115.745 48.955 115.806 48.799 115.927 48.695C116.057 48.5823 116.218 48.526 116.408 48.526C116.599 48.526 116.755 48.5823 116.876 48.695C116.998 48.799 117.058 48.955 117.058 49.163V54.441C117.058 54.649 116.998 54.805 116.876 54.909C116.755 55.013 116.599 55.065 116.408 55.065ZM116.408 47.252C116.157 47.252 115.958 47.1827 115.81 47.044C115.663 46.9053 115.589 46.7233 115.589 46.498C115.589 46.2727 115.663 46.095 115.81 45.965C115.958 45.8263 116.157 45.757 116.408 45.757C116.651 45.757 116.846 45.8263 116.993 45.965C117.149 46.095 117.227 46.2727 117.227 46.498C117.227 46.7233 117.154 46.9053 117.006 47.044C116.859 47.1827 116.66 47.252 116.408 47.252ZM121.65 55.091C121.026 55.091 120.475 54.9567 119.999 54.688C119.531 54.4193 119.167 54.038 118.907 53.544C118.655 53.0413 118.53 52.4607 118.53 51.802C118.53 51.1347 118.655 50.554 118.907 50.06C119.167 49.5573 119.531 49.1717 119.999 48.903C120.475 48.6343 121.026 48.5 121.65 48.5C122.274 48.5 122.82 48.6343 123.288 48.903C123.764 49.1717 124.128 49.5573 124.38 50.06C124.64 50.554 124.77 51.1347 124.77 51.802C124.77 52.4607 124.64 53.0413 124.38 53.544C124.128 54.038 123.764 54.4193 123.288 54.688C122.82 54.9567 122.274 55.091 121.65 55.091ZM121.65 54.051C122.23 54.051 122.672 53.8603 122.976 53.479C123.288 53.0977 123.444 52.5387 123.444 51.802C123.444 51.074 123.288 50.5193 122.976 50.138C122.664 49.748 122.222 49.553 121.65 49.553C121.078 49.553 120.636 49.748 120.324 50.138C120.012 50.5193 119.856 51.074 119.856 51.802C119.856 52.5387 120.007 53.0977 120.311 53.479C120.623 53.8603 121.069 54.051 121.65 54.051ZM129.651 48.5C131.167 48.5 131.926 49.3537 131.926 51.061V54.441C131.926 54.6403 131.865 54.7963 131.744 54.909C131.631 55.013 131.471 55.065 131.263 55.065C131.063 55.065 130.903 55.0087 130.782 54.896C130.669 54.7833 130.613 54.6317 130.613 54.441V51.126C130.613 50.5887 130.504 50.1943 130.288 49.943C130.08 49.6917 129.75 49.566 129.3 49.566C128.771 49.566 128.346 49.7307 128.026 50.06C127.705 50.3893 127.545 50.8313 127.545 51.386V54.441C127.545 54.6317 127.484 54.7833 127.363 54.896C127.25 55.0087 127.094 55.065 126.895 55.065C126.695 55.065 126.535 55.0087 126.414 54.896C126.292 54.7833 126.232 54.6317 126.232 54.441V49.15C126.232 48.968 126.292 48.8207 126.414 48.708C126.544 48.5867 126.704 48.526 126.895 48.526C127.085 48.526 127.237 48.5823 127.35 48.695C127.462 48.8077 127.519 48.955 127.519 49.137V49.67C127.727 49.2887 128.017 48.9983 128.39 48.799C128.762 48.5997 129.183 48.5 129.651 48.5ZM140.257 54.064C140.447 54.0813 140.582 54.1333 140.66 54.22C140.746 54.298 140.79 54.4107 140.79 54.558C140.79 54.7313 140.72 54.8657 140.582 54.961C140.452 55.0477 140.257 55.0823 139.997 55.065L139.646 55.039C138.944 54.987 138.419 54.7747 138.073 54.402C137.726 54.0207 137.553 53.4617 137.553 52.725V49.67H136.773C136.391 49.67 136.201 49.501 136.201 49.163C136.201 49.007 136.248 48.8857 136.344 48.799C136.448 48.7037 136.591 48.656 136.773 48.656H137.553V47.317C137.553 47.1177 137.609 46.9617 137.722 46.849C137.843 46.7363 138.003 46.68 138.203 46.68C138.402 46.68 138.562 46.7363 138.684 46.849C138.805 46.9617 138.866 47.1177 138.866 47.317V48.656H140.153C140.335 48.656 140.473 48.7037 140.569 48.799C140.673 48.8857 140.725 49.007 140.725 49.163C140.725 49.3277 140.673 49.4533 140.569 49.54C140.473 49.6267 140.335 49.67 140.153 49.67H138.866V52.816C138.866 53.2233 138.948 53.5223 139.113 53.713C139.286 53.9037 139.546 54.012 139.893 54.038L140.257 54.064ZM142.396 55.065C142.205 55.065 142.045 55.013 141.915 54.909C141.793 54.805 141.733 54.649 141.733 54.441V49.163C141.733 48.955 141.793 48.799 141.915 48.695C142.045 48.5823 142.205 48.526 142.396 48.526C142.586 48.526 142.742 48.5823 142.864 48.695C142.985 48.799 143.046 48.955 143.046 49.163V54.441C143.046 54.649 142.985 54.805 142.864 54.909C142.742 55.013 142.586 55.065 142.396 55.065ZM142.396 47.252C142.144 47.252 141.945 47.1827 141.798 47.044C141.65 46.9053 141.577 46.7233 141.577 46.498C141.577 46.2727 141.65 46.095 141.798 45.965C141.945 45.8263 142.144 45.757 142.396 45.757C142.638 45.757 142.833 45.8263 142.981 45.965C143.137 46.095 143.215 46.2727 143.215 46.498C143.215 46.7233 143.141 46.9053 142.994 47.044C142.846 47.1827 142.647 47.252 142.396 47.252ZM145.544 55.065C145.353 55.065 145.193 55.013 145.063 54.909C144.942 54.805 144.881 54.649 144.881 54.441V46.407C144.881 46.199 144.942 46.043 145.063 45.939C145.193 45.8263 145.353 45.77 145.544 45.77C145.735 45.77 145.891 45.8263 146.012 45.939C146.133 46.043 146.194 46.199 146.194 46.407V54.441C146.194 54.649 146.133 54.805 146.012 54.909C145.891 55.013 145.735 55.065 145.544 55.065ZM156.371 48.526C156.571 48.526 156.727 48.5823 156.839 48.695C156.961 48.8077 157.021 48.9637 157.021 49.163V54.454C157.021 54.636 156.961 54.7833 156.839 54.896C156.718 55.0087 156.558 55.065 156.358 55.065C156.176 55.065 156.029 55.013 155.916 54.909C155.804 54.7963 155.747 54.649 155.747 54.467V53.973C155.548 54.337 155.271 54.6143 154.915 54.805C154.569 54.9957 154.179 55.091 153.745 55.091C152.203 55.091 151.431 54.2417 151.431 52.543V49.163C151.431 48.9637 151.488 48.8077 151.6 48.695C151.722 48.5823 151.886 48.526 152.094 48.526C152.294 48.526 152.45 48.5823 152.562 48.695C152.684 48.8077 152.744 48.9637 152.744 49.163V52.53C152.744 53.0413 152.848 53.4183 153.056 53.661C153.264 53.9037 153.585 54.025 154.018 54.025C154.53 54.025 154.937 53.8603 155.24 53.531C155.552 53.2017 155.708 52.764 155.708 52.218V49.163C155.708 48.9723 155.769 48.8207 155.89 48.708C156.012 48.5867 156.172 48.526 156.371 48.526ZM164.046 45.77C164.245 45.77 164.405 45.8263 164.527 45.939C164.648 46.0517 164.709 46.2033 164.709 46.394V54.428C164.709 54.6273 164.648 54.7833 164.527 54.896C164.414 55.0087 164.258 55.065 164.059 55.065C163.859 55.065 163.699 55.0087 163.578 54.896C163.465 54.7833 163.409 54.6273 163.409 54.428V53.908C163.218 54.2893 162.941 54.584 162.577 54.792C162.213 54.9913 161.792 55.091 161.316 55.091C160.77 55.091 160.28 54.9523 159.847 54.675C159.422 54.3977 159.088 54.0077 158.846 53.505C158.612 53.0023 158.495 52.426 158.495 51.776C158.495 51.1173 158.612 50.541 158.846 50.047C159.088 49.553 159.422 49.1717 159.847 48.903C160.271 48.6343 160.761 48.5 161.316 48.5C161.792 48.5 162.208 48.604 162.564 48.812C162.928 49.0113 163.205 49.2973 163.396 49.67V46.368C163.396 46.186 163.452 46.043 163.565 45.939C163.686 45.8263 163.846 45.77 164.046 45.77ZM161.628 54.051C162.191 54.051 162.629 53.856 162.941 53.466C163.253 53.076 163.409 52.5213 163.409 51.802C163.409 51.0827 163.253 50.528 162.941 50.138C162.637 49.748 162.2 49.553 161.628 49.553C161.056 49.553 160.609 49.748 160.289 50.138C159.977 50.5193 159.821 51.0653 159.821 51.776C159.821 52.4867 159.981 53.0457 160.302 53.453C160.622 53.8517 161.064 54.051 161.628 54.051ZM171.505 53.401C171.627 53.401 171.726 53.4487 171.804 53.544C171.882 53.6393 171.921 53.7607 171.921 53.908C171.921 54.1593 171.765 54.3717 171.453 54.545C171.15 54.7183 170.816 54.8527 170.452 54.948C170.097 55.0433 169.755 55.091 169.425 55.091C168.42 55.091 167.627 54.8007 167.046 54.22C166.466 53.6307 166.175 52.829 166.175 51.815C166.175 51.165 166.301 50.5887 166.552 50.086C166.812 49.5833 167.172 49.1933 167.631 48.916C168.099 48.6387 168.628 48.5 169.217 48.5C170.067 48.5 170.738 48.773 171.232 49.319C171.726 49.865 171.973 50.6017 171.973 51.529C171.973 51.8757 171.817 52.049 171.505 52.049H167.488C167.575 53.3923 168.221 54.064 169.425 54.064C169.746 54.064 170.023 54.0207 170.257 53.934C170.491 53.8473 170.738 53.7347 170.998 53.596C171.024 53.5787 171.094 53.544 171.206 53.492C171.328 53.4313 171.427 53.401 171.505 53.401ZM169.243 49.462C168.741 49.462 168.338 49.6223 168.034 49.943C167.731 50.2637 167.549 50.7143 167.488 51.295H170.842C170.816 50.7057 170.665 50.255 170.387 49.943C170.119 49.6223 169.737 49.462 169.243 49.462ZM175.63 55.091C174.746 55.091 174.022 54.909 173.459 54.545C173.303 54.4497 173.19 54.35 173.121 54.246C173.06 54.142 173.03 54.025 173.03 53.895C173.03 53.7563 173.069 53.6393 173.147 53.544C173.225 53.4487 173.325 53.401 173.446 53.401C173.559 53.401 173.736 53.4703 173.979 53.609C174.239 53.7477 174.49 53.8603 174.733 53.947C174.984 54.0337 175.296 54.077 175.669 54.077C176.085 54.077 176.41 54.0033 176.644 53.856C176.878 53.7087 176.995 53.5007 176.995 53.232C176.995 53.0587 176.947 52.92 176.852 52.816C176.765 52.712 176.609 52.621 176.384 52.543C176.159 52.4563 175.825 52.3653 175.383 52.27C174.62 52.1053 174.07 51.8843 173.732 51.607C173.403 51.321 173.238 50.9353 173.238 50.45C173.238 50.0773 173.346 49.7437 173.563 49.449C173.78 49.1457 174.079 48.9117 174.46 48.747C174.841 48.5823 175.275 48.5 175.76 48.5C176.107 48.5 176.445 48.5477 176.774 48.643C177.103 48.7297 177.394 48.8597 177.645 49.033C177.931 49.2237 178.074 49.4447 178.074 49.696C178.074 49.8347 178.031 49.9517 177.944 50.047C177.866 50.1423 177.771 50.19 177.658 50.19C177.58 50.19 177.502 50.1727 177.424 50.138C177.346 50.1033 177.242 50.047 177.112 49.969C176.878 49.8303 176.657 49.722 176.449 49.644C176.25 49.566 175.998 49.527 175.695 49.527C175.331 49.527 175.036 49.605 174.811 49.761C174.594 49.917 174.486 50.1293 174.486 50.398C174.486 50.6407 174.586 50.8313 174.785 50.97C174.993 51.1 175.379 51.2257 175.942 51.347C176.523 51.4683 176.978 51.607 177.307 51.763C177.636 51.919 177.87 52.114 178.009 52.348C178.156 52.5733 178.23 52.8637 178.23 53.219C178.23 53.7823 177.992 54.2373 177.515 54.584C177.047 54.922 176.419 55.091 175.63 55.091ZM185.022 53.973C185.178 54.103 185.256 54.2633 185.256 54.454C185.256 54.6187 185.199 54.7617 185.087 54.883C184.974 55.0043 184.84 55.065 184.684 55.065C184.519 55.065 184.372 55.0043 184.242 54.883L181.005 52.023V54.428C181.005 54.636 180.944 54.7963 180.823 54.909C180.701 55.013 180.545 55.065 180.355 55.065C180.164 55.065 180.004 55.013 179.874 54.909C179.752 54.7963 179.692 54.636 179.692 54.428V46.407C179.692 46.199 179.752 46.043 179.874 45.939C180.004 45.8263 180.164 45.77 180.355 45.77C180.545 45.77 180.701 45.8263 180.823 45.939C180.944 46.043 181.005 46.199 181.005 46.407V51.503L183.969 48.734C184.116 48.604 184.259 48.539 184.398 48.539C184.562 48.539 184.705 48.5997 184.827 48.721C184.948 48.8423 185.009 48.9853 185.009 49.15C185.009 49.3147 184.935 49.4663 184.788 49.605L182.474 51.724L185.022 53.973ZM189.062 55.091C188.438 55.091 187.888 54.9567 187.411 54.688C186.943 54.4193 186.579 54.038 186.319 53.544C186.068 53.0413 185.942 52.4607 185.942 51.802C185.942 51.1347 186.068 50.554 186.319 50.06C186.579 49.5573 186.943 49.1717 187.411 48.903C187.888 48.6343 188.438 48.5 189.062 48.5C189.686 48.5 190.232 48.6343 190.7 48.903C191.177 49.1717 191.541 49.5573 191.792 50.06C192.052 50.554 192.182 51.1347 192.182 51.802C192.182 52.4607 192.052 53.0413 191.792 53.544C191.541 54.038 191.177 54.4193 190.7 54.688C190.232 54.9567 189.686 55.091 189.062 55.091ZM189.062 54.051C189.643 54.051 190.085 53.8603 190.388 53.479C190.7 53.0977 190.856 52.5387 190.856 51.802C190.856 51.074 190.7 50.5193 190.388 50.138C190.076 49.748 189.634 49.553 189.062 49.553C188.49 49.553 188.048 49.748 187.736 50.138C187.424 50.5193 187.268 51.074 187.268 51.802C187.268 52.5387 187.42 53.0977 187.723 53.479C188.035 53.8603 188.481 54.051 189.062 54.051ZM194.307 55.065C194.116 55.065 193.956 55.013 193.826 54.909C193.704 54.805 193.644 54.649 193.644 54.441V46.407C193.644 46.199 193.704 46.043 193.826 45.939C193.956 45.8263 194.116 45.77 194.307 45.77C194.497 45.77 194.653 45.8263 194.775 45.939C194.896 46.043 194.957 46.199 194.957 46.407V54.441C194.957 54.649 194.896 54.805 194.775 54.909C194.653 55.013 194.497 55.065 194.307 55.065ZM201.758 53.401C201.88 53.401 201.979 53.4487 202.057 53.544C202.135 53.6393 202.174 53.7607 202.174 53.908C202.174 54.1593 202.018 54.3717 201.706 54.545C201.403 54.7183 201.069 54.8527 200.705 54.948C200.35 55.0433 200.008 55.091 199.678 55.091C198.673 55.091 197.88 54.8007 197.299 54.22C196.719 53.6307 196.428 52.829 196.428 51.815C196.428 51.165 196.554 50.5887 196.805 50.086C197.065 49.5833 197.425 49.1933 197.884 48.916C198.352 48.6387 198.881 48.5 199.47 48.5C200.32 48.5 200.991 48.773 201.485 49.319C201.979 49.865 202.226 50.6017 202.226 51.529C202.226 51.8757 202.07 52.049 201.758 52.049H197.741C197.828 53.3923 198.474 54.064 199.678 54.064C199.999 54.064 200.276 54.0207 200.51 53.934C200.744 53.8473 200.991 53.7347 201.251 53.596C201.277 53.5787 201.347 53.544 201.459 53.492C201.581 53.4313 201.68 53.401 201.758 53.401ZM199.496 49.462C198.994 49.462 198.591 49.6223 198.287 49.943C197.984 50.2637 197.802 50.7143 197.741 51.295H201.095C201.069 50.7057 200.918 50.255 200.64 49.943C200.372 49.6223 199.99 49.462 199.496 49.462ZM207.764 55.065C207.573 55.065 207.413 55.013 207.283 54.909C207.161 54.805 207.101 54.649 207.101 54.441V49.163C207.101 48.955 207.161 48.799 207.283 48.695C207.413 48.5823 207.573 48.526 207.764 48.526C207.954 48.526 208.11 48.5823 208.232 48.695C208.353 48.799 208.414 48.955 208.414 49.163V54.441C208.414 54.649 208.353 54.805 208.232 54.909C208.11 55.013 207.954 55.065 207.764 55.065ZM207.764 47.252C207.512 47.252 207.313 47.1827 207.166 47.044C207.018 46.9053 206.945 46.7233 206.945 46.498C206.945 46.2727 207.018 46.095 207.166 45.965C207.313 45.8263 207.512 45.757 207.764 45.757C208.006 45.757 208.201 45.8263 208.349 45.965C208.505 46.095 208.583 46.2727 208.583 46.498C208.583 46.7233 208.509 46.9053 208.362 47.044C208.214 47.1827 208.015 47.252 207.764 47.252ZM217.096 48.5C218.613 48.5 219.371 49.3537 219.371 51.061V54.441C219.371 54.6403 219.31 54.7963 219.189 54.909C219.076 55.013 218.916 55.065 218.708 55.065C218.509 55.065 218.348 55.0087 218.227 54.896C218.114 54.7833 218.058 54.6317 218.058 54.441V51.126C218.058 50.5887 217.95 50.1943 217.733 49.943C217.525 49.6917 217.196 49.566 216.745 49.566C216.216 49.566 215.792 49.7307 215.471 50.06C215.15 50.3893 214.99 50.8313 214.99 51.386V54.441C214.99 54.6317 214.929 54.7833 214.808 54.896C214.695 55.0087 214.539 55.065 214.34 55.065C214.141 55.065 213.98 55.0087 213.859 54.896C213.738 54.7833 213.677 54.6317 213.677 54.441V49.15C213.677 48.968 213.738 48.8207 213.859 48.708C213.989 48.5867 214.149 48.526 214.34 48.526C214.531 48.526 214.682 48.5823 214.795 48.695C214.908 48.8077 214.964 48.955 214.964 49.137V49.67C215.172 49.2887 215.462 48.9983 215.835 48.799C216.208 48.5997 216.628 48.5 217.096 48.5ZM223.832 48.5C224.673 48.5 225.297 48.7123 225.704 49.137C226.12 49.5617 226.328 50.2073 226.328 51.074V54.441C226.328 54.6403 226.272 54.7963 226.159 54.909C226.047 55.013 225.891 55.065 225.691 55.065C225.501 55.065 225.349 55.0087 225.236 54.896C225.124 54.7833 225.067 54.6317 225.067 54.441V53.96C224.903 54.324 224.656 54.6057 224.326 54.805C224.006 54.9957 223.629 55.091 223.195 55.091C222.779 55.091 222.398 55.0087 222.051 54.844C221.705 54.6707 221.432 54.4323 221.232 54.129C221.042 53.8257 220.946 53.4877 220.946 53.115C220.946 52.6557 221.063 52.296 221.297 52.036C221.54 51.7673 221.934 51.5767 222.48 51.464C223.035 51.3513 223.793 51.295 224.755 51.295H225.054V50.918C225.054 50.4327 224.955 50.0817 224.755 49.865C224.556 49.6483 224.235 49.54 223.793 49.54C223.49 49.54 223.204 49.579 222.935 49.657C222.667 49.735 222.372 49.8477 222.051 49.995C221.817 50.125 221.653 50.19 221.557 50.19C221.427 50.19 221.319 50.1423 221.232 50.047C221.154 49.9517 221.115 49.8303 221.115 49.683C221.115 49.553 221.15 49.4403 221.219 49.345C221.297 49.241 221.419 49.1413 221.583 49.046C221.887 48.8813 222.242 48.7513 222.649 48.656C223.057 48.552 223.451 48.5 223.832 48.5ZM223.429 54.116C223.906 54.116 224.296 53.9557 224.599 53.635C224.903 53.3057 225.054 52.8853 225.054 52.374V52.036H224.82C224.144 52.036 223.624 52.0663 223.26 52.127C222.896 52.1877 222.636 52.2917 222.48 52.439C222.324 52.5777 222.246 52.7813 222.246 53.05C222.246 53.362 222.359 53.6177 222.584 53.817C222.81 54.0163 223.091 54.116 223.429 54.116ZM231.231 54.064C231.422 54.0813 231.556 54.1333 231.634 54.22C231.721 54.298 231.764 54.4107 231.764 54.558C231.764 54.7313 231.695 54.8657 231.556 54.961C231.426 55.0477 231.231 55.0823 230.971 55.065L230.62 55.039C229.918 54.987 229.394 54.7747 229.047 54.402C228.701 54.0207 228.527 53.4617 228.527 52.725V49.67H227.747C227.366 49.67 227.175 49.501 227.175 49.163C227.175 49.007 227.223 48.8857 227.318 48.799C227.422 48.7037 227.565 48.656 227.747 48.656H228.527V47.317C228.527 47.1177 228.584 46.9617 228.696 46.849C228.818 46.7363 228.978 46.68 229.177 46.68C229.377 46.68 229.537 46.7363 229.658 46.849C229.78 46.9617 229.84 47.1177 229.84 47.317V48.656H231.127C231.309 48.656 231.448 48.7037 231.543 48.799C231.647 48.8857 231.699 49.007 231.699 49.163C231.699 49.3277 231.647 49.4533 231.543 49.54C231.448 49.6267 231.309 49.67 231.127 49.67H229.84V52.816C229.84 53.2233 229.923 53.5223 230.087 53.713C230.261 53.9037 230.521 54.012 230.867 54.038L231.231 54.064ZM237.621 48.526C237.821 48.526 237.977 48.5823 238.089 48.695C238.211 48.8077 238.271 48.9637 238.271 49.163V54.454C238.271 54.636 238.211 54.7833 238.089 54.896C237.968 55.0087 237.808 55.065 237.608 55.065C237.426 55.065 237.279 55.013 237.166 54.909C237.054 54.7963 236.997 54.649 236.997 54.467V53.973C236.798 54.337 236.521 54.6143 236.165 54.805C235.819 54.9957 235.429 55.091 234.995 55.091C233.453 55.091 232.681 54.2417 232.681 52.543V49.163C232.681 48.9637 232.738 48.8077 232.85 48.695C232.972 48.5823 233.136 48.526 233.344 48.526C233.544 48.526 233.7 48.5823 233.812 48.695C233.934 48.8077 233.994 48.9637 233.994 49.163V52.53C233.994 53.0413 234.098 53.4183 234.306 53.661C234.514 53.9037 234.835 54.025 235.268 54.025C235.78 54.025 236.187 53.8603 236.49 53.531C236.802 53.2017 236.958 52.764 236.958 52.218V49.163C236.958 48.9723 237.019 48.8207 237.14 48.708C237.262 48.5867 237.422 48.526 237.621 48.526ZM243.437 48.526C243.853 48.5 244.061 48.6777 244.061 49.059C244.061 49.2497 244.013 49.3927 243.918 49.488C243.822 49.5833 243.658 49.6397 243.424 49.657L243.034 49.696C242.488 49.748 242.08 49.9387 241.812 50.268C241.552 50.5973 241.422 50.996 241.422 51.464V54.441C241.422 54.649 241.361 54.805 241.24 54.909C241.118 55.013 240.962 55.065 240.772 55.065C240.581 55.065 240.421 55.013 240.291 54.909C240.169 54.805 240.109 54.649 240.109 54.441V49.15C240.109 48.9507 240.169 48.799 240.291 48.695C240.421 48.5823 240.581 48.526 240.772 48.526C240.945 48.526 241.088 48.5823 241.201 48.695C241.322 48.799 241.383 48.9463 241.383 49.137V49.761C241.556 49.3797 241.807 49.0893 242.137 48.89C242.466 48.6907 242.839 48.5737 243.255 48.539L243.437 48.526ZM251.053 55.091C250.429 55.091 249.879 54.9567 249.402 54.688C248.934 54.4193 248.57 54.038 248.31 53.544C248.059 53.0413 247.933 52.4607 247.933 51.802C247.933 51.1347 248.059 50.554 248.31 50.06C248.57 49.5573 248.934 49.1717 249.402 48.903C249.879 48.6343 250.429 48.5 251.053 48.5C251.677 48.5 252.223 48.6343 252.691 48.903C253.168 49.1717 253.532 49.5573 253.783 50.06C254.043 50.554 254.173 51.1347 254.173 51.802C254.173 52.4607 254.043 53.0413 253.783 53.544C253.532 54.038 253.168 54.4193 252.691 54.688C252.223 54.9567 251.677 55.091 251.053 55.091ZM251.053 54.051C251.634 54.051 252.076 53.8603 252.379 53.479C252.691 53.0977 252.847 52.5387 252.847 51.802C252.847 51.074 252.691 50.5193 252.379 50.138C252.067 49.748 251.625 49.553 251.053 49.553C250.481 49.553 250.039 49.748 249.727 50.138C249.415 50.5193 249.259 51.074 249.259 51.802C249.259 52.5387 249.411 53.0977 249.714 53.479C250.026 53.8603 250.472 54.051 251.053 54.051ZM260.887 48.526C261.086 48.526 261.242 48.5867 261.355 48.708C261.476 48.8207 261.537 48.9723 261.537 49.163V54.493C261.537 55.4637 261.277 56.196 260.757 56.69C260.246 57.184 259.487 57.431 258.482 57.431C257.546 57.431 256.766 57.2533 256.142 56.898C255.821 56.716 255.661 56.4993 255.661 56.248C255.661 56.1007 255.7 55.9793 255.778 55.884C255.865 55.7887 255.969 55.741 256.09 55.741C256.203 55.741 256.38 55.806 256.623 55.936C256.935 56.0833 257.225 56.196 257.494 56.274C257.763 56.3607 258.083 56.404 258.456 56.404C259.652 56.404 260.25 55.8017 260.25 54.597V53.596C260.068 53.9773 259.791 54.2763 259.418 54.493C259.045 54.701 258.612 54.805 258.118 54.805C257.563 54.805 257.069 54.675 256.636 54.415C256.203 54.155 255.865 53.7867 255.622 53.31C255.388 52.8333 255.271 52.283 255.271 51.659C255.271 51.035 255.392 50.4847 255.635 50.008C255.878 49.5313 256.211 49.163 256.636 48.903C257.069 48.6343 257.563 48.5 258.118 48.5C258.603 48.5 259.028 48.604 259.392 48.812C259.765 49.02 260.046 49.3147 260.237 49.696V49.15C260.237 48.9593 260.293 48.8077 260.406 48.695C260.527 48.5823 260.688 48.526 260.887 48.526ZM258.43 53.765C258.993 53.765 259.435 53.5787 259.756 53.206C260.077 52.8333 260.237 52.3177 260.237 51.659C260.237 51.009 260.077 50.4977 259.756 50.125C259.444 49.7437 259.002 49.553 258.43 49.553C257.858 49.553 257.407 49.7393 257.078 50.112C256.757 50.4847 256.597 51.0003 256.597 51.659C256.597 52.3177 256.762 52.8333 257.091 53.206C257.42 53.5787 257.867 53.765 258.43 53.765ZM272.124 53.973C272.28 54.103 272.358 54.2633 272.358 54.454C272.358 54.6187 272.302 54.7617 272.189 54.883C272.076 55.0043 271.942 55.065 271.786 55.065C271.621 55.065 271.474 55.0043 271.344 54.883L268.107 52.023V54.428C268.107 54.636 268.046 54.7963 267.925 54.909C267.804 55.013 267.648 55.065 267.457 55.065C267.266 55.065 267.106 55.013 266.976 54.909C266.855 54.7963 266.794 54.636 266.794 54.428V46.407C266.794 46.199 266.855 46.043 266.976 45.939C267.106 45.8263 267.266 45.77 267.457 45.77C267.648 45.77 267.804 45.8263 267.925 45.939C268.046 46.043 268.107 46.199 268.107 46.407V51.503L271.071 48.734C271.218 48.604 271.361 48.539 271.5 48.539C271.665 48.539 271.808 48.5997 271.929 48.721C272.05 48.8423 272.111 48.9853 272.111 49.15C272.111 49.3147 272.037 49.4663 271.89 49.605L269.576 51.724L272.124 53.973ZM278.424 48.526C278.623 48.526 278.779 48.5823 278.892 48.695C279.013 48.8077 279.074 48.9637 279.074 49.163V54.454C279.074 54.636 279.013 54.7833 278.892 54.896C278.771 55.0087 278.61 55.065 278.411 55.065C278.229 55.065 278.082 55.013 277.969 54.909C277.856 54.7963 277.8 54.649 277.8 54.467V53.973C277.601 54.337 277.323 54.6143 276.968 54.805C276.621 54.9957 276.231 55.091 275.798 55.091C274.255 55.091 273.484 54.2417 273.484 52.543V49.163C273.484 48.9637 273.54 48.8077 273.653 48.695C273.774 48.5823 273.939 48.526 274.147 48.526C274.346 48.526 274.502 48.5823 274.615 48.695C274.736 48.8077 274.797 48.9637 274.797 49.163V52.53C274.797 53.0413 274.901 53.4183 275.109 53.661C275.317 53.9037 275.638 54.025 276.071 54.025C276.582 54.025 276.99 53.8603 277.293 53.531C277.605 53.2017 277.761 52.764 277.761 52.218V49.163C277.761 48.9723 277.822 48.8207 277.943 48.708C278.064 48.5867 278.225 48.526 278.424 48.526ZM281.574 55.065C281.384 55.065 281.223 55.013 281.093 54.909C280.972 54.805 280.911 54.649 280.911 54.441V46.407C280.911 46.199 280.972 46.043 281.093 45.939C281.223 45.8263 281.384 45.77 281.574 45.77C281.765 45.77 281.921 45.8263 282.042 45.939C282.164 46.043 282.224 46.199 282.224 46.407V54.441C282.224 54.649 282.164 54.805 282.042 54.909C281.921 55.013 281.765 55.065 281.574 55.065ZM287.167 54.064C287.357 54.0813 287.492 54.1333 287.57 54.22C287.656 54.298 287.7 54.4107 287.7 54.558C287.7 54.7313 287.63 54.8657 287.492 54.961C287.362 55.0477 287.167 55.0823 286.907 55.065L286.556 55.039C285.854 54.987 285.329 54.7747 284.983 54.402C284.636 54.0207 284.463 53.4617 284.463 52.725V49.67H283.683C283.301 49.67 283.111 49.501 283.111 49.163C283.111 49.007 283.158 48.8857 283.254 48.799C283.358 48.7037 283.501 48.656 283.683 48.656H284.463V47.317C284.463 47.1177 284.519 46.9617 284.632 46.849C284.753 46.7363 284.913 46.68 285.113 46.68C285.312 46.68 285.472 46.7363 285.594 46.849C285.715 46.9617 285.776 47.1177 285.776 47.317V48.656H287.063C287.245 48.656 287.383 48.7037 287.479 48.799C287.583 48.8857 287.635 49.007 287.635 49.163C287.635 49.3277 287.583 49.4533 287.479 49.54C287.383 49.6267 287.245 49.67 287.063 49.67H285.776V52.816C285.776 53.2233 285.858 53.5223 286.023 53.713C286.196 53.9037 286.456 54.012 286.803 54.038L287.167 54.064ZM293.557 48.526C293.756 48.526 293.912 48.5823 294.025 48.695C294.146 48.8077 294.207 48.9637 294.207 49.163V54.454C294.207 54.636 294.146 54.7833 294.025 54.896C293.903 55.0087 293.743 55.065 293.544 55.065C293.362 55.065 293.214 55.013 293.102 54.909C292.989 54.7963 292.933 54.649 292.933 54.467V53.973C292.733 54.337 292.456 54.6143 292.101 54.805C291.754 54.9957 291.364 55.091 290.931 55.091C289.388 55.091 288.617 54.2417 288.617 52.543V49.163C288.617 48.9637 288.673 48.8077 288.786 48.695C288.907 48.5823 289.072 48.526 289.28 48.526C289.479 48.526 289.635 48.5823 289.748 48.695C289.869 48.8077 289.93 48.9637 289.93 49.163V52.53C289.93 53.0413 290.034 53.4183 290.242 53.661C290.45 53.9037 290.77 54.025 291.204 54.025C291.715 54.025 292.122 53.8603 292.426 53.531C292.738 53.2017 292.894 52.764 292.894 52.218V49.163C292.894 48.9723 292.954 48.8207 293.076 48.708C293.197 48.5867 293.357 48.526 293.557 48.526ZM299.372 48.526C299.788 48.5 299.996 48.6777 299.996 49.059C299.996 49.2497 299.948 49.3927 299.853 49.488C299.758 49.5833 299.593 49.6397 299.359 49.657L298.969 49.696C298.423 49.748 298.016 49.9387 297.747 50.268C297.487 50.5973 297.357 50.996 297.357 51.464V54.441C297.357 54.649 297.296 54.805 297.175 54.909C297.054 55.013 296.898 55.065 296.707 55.065C296.516 55.065 296.356 55.013 296.226 54.909C296.105 54.805 296.044 54.649 296.044 54.441V49.15C296.044 48.9507 296.105 48.799 296.226 48.695C296.356 48.5823 296.516 48.526 296.707 48.526C296.88 48.526 297.023 48.5823 297.136 48.695C297.257 48.799 297.318 48.9463 297.318 49.137V49.761C297.491 49.3797 297.743 49.0893 298.072 48.89C298.401 48.6907 298.774 48.5737 299.19 48.539L299.372 48.526Z" fill="white"/>
</g>
<defs>
<clipPath id="clip0_4454_100895">
<rect width="300.516" height="64.7615" fill="white"/>
</clipPath>
</defs>
</svg>
