<?xml version="1.0" encoding="utf-8"?>
<!-- Generator: Adobe Illustrator 26.5.0, SVG Export Plug-In . SVG Version: 6.00 Build 0)  -->
<svg version="1.1" id="Layer_1" xmlns="http://www.w3.org/2000/svg" xmlns:xlink="http://www.w3.org/1999/xlink" x="0px" y="0px"
	 viewBox="0 0 194 43" style="enable-background:new 0 0 194 43;" xml:space="preserve">
<g id="Layer_1_00000017507819602032935820000009492585425250562443_">
	<g>
		<path fill="white" d="M33.7,20.2c1.1-1,1.7-2.5,1.8-4c0-2.4-1.4-4.6-3.6-5.4c0-0.3,0.1-0.6,0.1-0.9c0-4.2-3.4-7.6-7.6-7.6
			c-0.2,0-0.4,0-0.6,0c-0.3-0.6-0.7-1-1.3-1.5c-0.1-0.1-0.1-0.1-0.2-0.2c-0.1-0.1-0.3-0.2-0.4-0.3c-0.6-0.3-1.2-0.3-1.8-0.1
			c-0.6,0.3-1,0.8-1.2,1.5l-0.2,0.9l0.3,0.1c0,0,0,0,0.1,0h0c0.5,0,1,0.3,1.4,0.6c0.3,0.3,0.5,0.6,0.7,0.9c0.4,0.8,1.2,1.3,2.1,1.3
			l1,0l0,0c0,0,0,0,0,0h0.1c2.4,0,4.3,1.9,4.4,4.2c0,0.5,0,1-0.2,1.5c0,0,0,0.1,0,0.2c-0.4,1.1,0,2.3,1,2.9l0.9,0.6l0.2-0.3
			c0.1-0.2,0.3-0.4,0.4-0.7c0.9,0.4,1.5,1.4,1.4,2.4c-0.1,0.9-0.4,1.9-1.8,2.5l-0.1,0l-0.1,0.1c-0.3,0.4-0.5,1.5,0.4,2.6
			c0.8,1,1.1,2.3,0.8,3.6c-0.5,2.2-2.7,3.7-5,3.4c-0.6-0.1-1.1-0.3-1.6-0.6l-0.3-0.2l-0.5,0.8c-0.3,0.6-0.4,1.3-0.1,1.9
			c0.3,0.6,0.8,1,1.4,1.2c0.3,0.1,0.5,0.1,0.8,0.1c0.3,0,0.6,0.1,0.9,0.1c3.5,0,6.7-2.4,7.5-5.9C35,23.9,34.7,21.9,33.7,20.2
			C33.7,20.2,33.7,20.2,33.7,20.2z"/>
		<path fill="white" d="M15.6,0.2c-0.6-0.3-1.3-0.2-1.8,0.1c-0.2,0.1-0.3,0.2-0.5,0.3c-0.1,0-0.1,0.1-0.2,0.2
			c-0.5,0.4-0.9,0.9-1.3,1.5c-0.2,0-0.4,0-0.6,0C7,2.2,3.6,5.6,3.6,9.9c0,0.3,0,0.6,0.1,0.9c-2.2,0.9-3.7,3-3.6,5.4
			c0,1.5,0.6,2.9,1.7,4c0,0,0,0,0.1,0.1C0.8,22,0.4,24,0.9,26c0.8,3.4,4,5.9,7.5,5.9c0.3,0,0.6,0,0.9-0.1c0.3,0,0.5-0.1,0.8-0.1
			c0.6-0.1,1.2-0.6,1.4-1.2c0.3-0.6,0.2-1.3-0.1-1.9l-0.5-0.8L10.6,28c-0.5,0.3-1,0.5-1.6,0.6c-2.3,0.3-4.5-1.2-5-3.4
			c-0.3-1.3,0-2.6,0.8-3.6c0.9-1,0.7-2.2,0.4-2.6l-0.1-0.1l-0.1,0c-1.5-0.6-1.8-1.7-1.8-2.5c-0.1-1,0.5-2,1.4-2.4
			c0.1,0.3,0.3,0.5,0.4,0.7l0.2,0.3l0.9-0.6c0.9-0.7,1.3-1.9,1-2.9c0-0.1,0-0.1,0-0.1c-0.1-0.5-0.2-1-0.2-1.5
			c0.1-2.3,2.1-4.2,4.4-4.2l0,0l0.1,0l1,0c0.9,0,1.7-0.5,2.1-1.3c0.1-0.3,0.4-0.7,0.7-0.9c0.4-0.3,0.9-0.5,1.4-0.6h0c0,0,0,0,0.1,0
			l0.3-0.1l-0.2-0.9C16.7,1,16.2,0.5,15.6,0.2z"/>
	</g>
	<g>
		<path fill="white" d="M17.7,25.3c0.6,0,1.1-0.2,1.5-0.6c0.4-0.4,0.6-0.9,0.6-1.4s-0.2-1-0.6-1.4c-0.4-0.4-0.9-0.6-1.5-0.6
			s-1.1,0.2-1.5,0.6c-0.4,0.4-0.6,0.9-0.6,1.4s0.2,1,0.6,1.4C16.6,25.1,17.1,25.3,17.7,25.3z"/>
		<path fill="white" d="M25.8,23.9l0.1-0.3l-0.8-0.5c-1-0.6-2.3-0.3-3,0.7c-0.4,0.6-0.9,1.1-1.3,1.6c-0.5,0.5-1,0.9-1.6,1.3
			c-0.4,0.3-1,0.5-1.5,0.5s-1.1-0.2-1.5-0.5c-0.6-0.4-1.1-0.8-1.6-1.3s-0.9-1-1.3-1.6c-0.7-0.9-1.9-1.2-3-0.7l-0.8,0.5l0.1,0.3
			c1.6,2.9,3.8,4.8,6.4,6.1v1.1c0,0.6-0.1,1.2-0.2,1.9c-0.1,0.6-0.4,1.2-0.6,1.8L12,41.6l0.7,0.3c0.6,0.3,1.2,0.3,1.7,0.1
			c0.6-0.2,1-0.6,1.3-1.2l1.9-4.6l1.9,4.7c0.3,0.6,0.7,1,1.3,1.2c0.3,0.1,0.5,0.1,0.8,0.1c0.3,0,0.7-0.1,1-0.2l0.7-0.3l-3.2-6.8
			c-0.3-0.6-0.5-1.2-0.6-1.8c-0.1-0.7-0.2-1.3-0.2-1.9V30C22,28.7,24.2,26.8,25.8,23.9z"/>
	</g>
	<g>
		<path fill="white" d="M49.7,25.2c-0.6-0.2-1.2-0.4-1.7-0.7c-0.5-0.2-0.9-0.5-1.3-0.8c-0.4-0.3-0.7-0.7-0.9-1.1
			c-0.2-0.4-0.3-1-0.3-1.6c0-1.2,0.5-2.2,1.4-3c0.9-0.7,2.2-1.1,3.9-1.1c0.6,0,1.2,0,1.7,0.1s1,0.2,1.3,0.4c0.4,0.2,0.7,0.4,0.9,0.7
			c0.2,0.3,0.3,0.6,0.3,1c0,0.4-0.1,0.7-0.3,1c-0.2,0.3-0.4,0.5-0.6,0.7c-0.3-0.2-0.7-0.4-1.2-0.5c-0.5-0.1-1.1-0.2-1.7-0.2
			c-0.6,0-1.1,0.1-1.4,0.3c-0.3,0.2-0.4,0.4-0.4,0.7c0,0.2,0.1,0.4,0.3,0.5c0.2,0.1,0.4,0.3,0.8,0.4l1.1,0.4c1.3,0.4,2.4,1,3.1,1.7
			c0.7,0.7,1.1,1.6,1.1,2.8c0,1.2-0.5,2.2-1.4,3c-0.9,0.8-2.3,1.1-4.2,1.1c-0.6,0-1.3-0.1-1.8-0.2c-0.6-0.1-1-0.3-1.5-0.5
			c-0.4-0.2-0.7-0.5-1-0.8c-0.2-0.3-0.3-0.7-0.3-1.1c0-0.4,0.1-0.8,0.4-1.1c0.2-0.3,0.5-0.5,0.8-0.7c0.4,0.3,0.9,0.6,1.5,0.8
			c0.6,0.2,1.2,0.3,1.9,0.3c0.7,0,1.2-0.1,1.5-0.3c0.3-0.2,0.4-0.5,0.4-0.8s-0.1-0.5-0.3-0.7s-0.5-0.3-1-0.4L49.7,25.2z"/>
		<path fill="white" d="M67.5,28.6c-0.1,0.7-0.3,1.2-0.6,1.6c-0.3,0.4-0.8,0.5-1.4,0.5c-0.4,0-0.9-0.1-1.2-0.3
			c-0.4-0.2-0.7-0.6-1.1-1.1l-2.1-2.7v4c-0.1,0-0.4,0.1-0.7,0.1c-0.3,0-0.6,0.1-0.9,0.1c-0.3,0-0.6,0-0.8-0.1
			c-0.3,0-0.4-0.1-0.6-0.3c-0.2-0.1-0.3-0.3-0.4-0.5c-0.1-0.2-0.1-0.5-0.1-0.9V16.3c0.1,0,0.4-0.1,0.7-0.1c0.3,0,0.6-0.1,0.9-0.1
			c0.3,0,0.6,0,0.8,0.1c0.3,0,0.4,0.1,0.6,0.3c0.2,0.1,0.3,0.3,0.4,0.5c0.1,0.2,0.1,0.5,0.1,0.9v5.8l3.6-3.8c0.7,0,1.3,0.2,1.8,0.5
			c0.4,0.3,0.7,0.7,0.7,1.3c0,0.2,0,0.4-0.1,0.6c-0.1,0.2-0.2,0.4-0.3,0.6c-0.1,0.2-0.3,0.4-0.6,0.6c-0.2,0.2-0.5,0.4-0.8,0.7
			l-1.2,1.1L67.5,28.6z"/>
		<path fill="white" d="M79.4,25.2c0,0.9-0.1,1.7-0.4,2.4c-0.3,0.7-0.6,1.3-1.1,1.8c-0.5,0.5-1.1,0.8-1.8,1.1s-1.4,0.4-2.3,0.4
			c-0.8,0-1.6-0.1-2.3-0.4c-0.7-0.3-1.3-0.6-1.8-1.1c-0.5-0.5-0.9-1.1-1.1-1.8c-0.3-0.7-0.4-1.5-0.4-2.4c0-0.9,0.1-1.6,0.4-2.3
			c0.3-0.7,0.6-1.3,1.1-1.8s1.1-0.9,1.8-1.1c0.7-0.3,1.4-0.4,2.3-0.4c0.8,0,1.6,0.1,2.3,0.4c0.7,0.3,1.3,0.6,1.8,1.1
			s0.9,1.1,1.1,1.8C79.3,23.6,79.4,24.3,79.4,25.2z M72,25.2c0,0.9,0.2,1.6,0.5,2c0.3,0.5,0.8,0.7,1.4,0.7c0.6,0,1-0.2,1.4-0.7
			s0.5-1.2,0.5-2s-0.2-1.5-0.5-2c-0.3-0.5-0.8-0.7-1.4-0.7s-1,0.2-1.4,0.7C72.2,23.6,72,24.3,72,25.2z"/>
		<path fill="white" d="M87.8,30.2c-0.2,0.1-0.5,0.3-0.9,0.4c-0.4,0.1-0.8,0.1-1.3,0.1c-0.6,0-1-0.1-1.4-0.2
			c-0.4-0.1-0.7-0.4-0.8-0.7c-0.1-0.3-0.3-0.6-0.4-1c-0.2-0.4-0.4-0.9-0.6-1.5c-0.2-0.5-0.4-1.1-0.6-1.8c-0.2-0.6-0.4-1.2-0.6-1.9
			c-0.2-0.6-0.4-1.2-0.5-1.8c-0.1-0.6-0.3-1.1-0.4-1.5c0.2-0.2,0.5-0.4,0.8-0.5s0.7-0.2,1.1-0.2c0.5,0,0.9,0.1,1.2,0.3
			c0.3,0.2,0.6,0.6,0.7,1.2l0.8,3.3c0.1,0.7,0.3,1.2,0.4,1.8c0.1,0.5,0.3,0.9,0.3,1.2h0.1c0.3-1.1,0.6-2.3,0.9-3.6
			c0.3-1.3,0.6-2.6,0.8-3.9c0.2-0.1,0.5-0.2,0.8-0.3c0.3-0.1,0.6-0.1,0.9-0.1c0.5,0,0.9,0.1,1.2,0.3c0.3,0.2,0.5,0.6,0.5,1.1
			c0,0.2,0,0.6-0.1,1c-0.1,0.4-0.2,0.9-0.4,1.5c-0.2,0.6-0.4,1.2-0.6,1.8c-0.2,0.6-0.4,1.2-0.7,1.8c-0.2,0.6-0.4,1.2-0.7,1.7
			C88.2,29.4,88,29.8,87.8,30.2z"/>
		<path fill="white" d="M97.8,30.8c-0.8,0-1.6-0.1-2.3-0.4c-0.7-0.2-1.3-0.6-1.9-1.1c-0.5-0.5-0.9-1.1-1.2-1.8C92.1,26.9,92,26,92,25
			s0.1-1.8,0.4-2.5c0.3-0.7,0.7-1.3,1.2-1.7c0.5-0.4,1.1-0.8,1.7-1c0.6-0.2,1.3-0.3,1.9-0.3c0.7,0,1.4,0.1,2.1,0.3
			c0.6,0.2,1.1,0.6,1.6,1c0.4,0.4,0.8,0.9,1,1.5c0.3,0.6,0.4,1.2,0.4,1.9c0,0.5-0.1,0.9-0.4,1.1c-0.3,0.3-0.6,0.4-1.1,0.5l-5.2,0.8
			c0.1,0.5,0.5,0.8,1,1.1c0.5,0.2,1,0.4,1.6,0.4c0.6,0,1.1-0.1,1.6-0.2c0.5-0.1,0.9-0.3,1.3-0.5c0.2,0.1,0.4,0.3,0.6,0.6
			c0.1,0.3,0.2,0.5,0.2,0.8c0,0.7-0.3,1.1-0.9,1.5c-0.4,0.3-1,0.4-1.5,0.5C98.9,30.8,98.3,30.8,97.8,30.8z M97.2,22.3
			c-0.3,0-0.6,0.1-0.9,0.2c-0.3,0.1-0.4,0.3-0.6,0.4c-0.1,0.2-0.3,0.4-0.3,0.6c-0.1,0.2-0.1,0.4-0.1,0.7l3.6-0.6
			c0-0.3-0.2-0.6-0.5-0.9C98.1,22.4,97.8,22.3,97.2,22.3z"/>
		<path fill="white" d="M110.6,23.8c0-0.4-0.1-0.8-0.4-1c-0.3-0.2-0.6-0.3-1-0.3c-0.3,0-0.6,0-0.8,0.1c-0.3,0.1-0.5,0.2-0.7,0.3v7.6
			c-0.1,0-0.4,0.1-0.7,0.1c-0.3,0-0.6,0.1-0.9,0.1s-0.6,0-0.8-0.1c-0.3,0-0.4-0.1-0.6-0.3c-0.2-0.1-0.3-0.3-0.4-0.5
			c-0.1-0.2-0.1-0.5-0.1-0.9v-6.5c0-0.4,0.1-0.7,0.2-1c0.2-0.3,0.4-0.5,0.7-0.7c0.5-0.3,1.1-0.6,1.8-0.9s1.5-0.3,2.4-0.3
			c1.6,0,2.8,0.4,3.7,1.1c0.9,0.7,1.3,1.7,1.3,3v6.8c-0.1,0-0.4,0.1-0.7,0.1c-0.3,0-0.6,0.1-0.9,0.1s-0.6,0-0.8-0.1
			c-0.3,0-0.4-0.1-0.6-0.3c-0.2-0.1-0.3-0.3-0.4-0.5c-0.1-0.2-0.1-0.5-0.1-0.9L110.6,23.8L110.6,23.8z"/>
		<path fill="white" d="M120.5,16.9c0-0.6,0.2-1,0.5-1.4c0.4-0.4,0.8-0.6,1.4-0.6c0.6,0,1.1,0.2,1.4,0.6c0.4,0.4,0.5,0.8,0.5,1.4
			s-0.2,1-0.5,1.4c-0.4,0.4-0.8,0.6-1.4,0.6c-0.6,0-1.1-0.2-1.4-0.6C120.7,18,120.5,17.5,120.5,16.9z M124.3,30.4
			c-0.1,0-0.4,0.1-0.7,0.1c-0.3,0-0.6,0.1-0.9,0.1c-0.3,0-0.6,0-0.8-0.1c-0.3,0-0.4-0.1-0.6-0.3c-0.2-0.1-0.3-0.3-0.4-0.5
			c-0.1-0.2-0.1-0.5-0.1-0.9v-8.9c0.1,0,0.4-0.1,0.7-0.1c0.3,0,0.6-0.1,0.9-0.1c0.3,0,0.6,0,0.8,0.1c0.3,0,0.4,0.1,0.6,0.3
			c0.2,0.1,0.3,0.3,0.4,0.5c0.1,0.2,0.1,0.5,0.1,0.9V30.4z"/>
		<path fill="white" d="M134.8,25.2c-0.6-0.2-1.2-0.4-1.7-0.7c-0.5-0.2-0.9-0.5-1.3-0.8c-0.4-0.3-0.7-0.7-0.9-1.1
			c-0.2-0.4-0.3-1-0.3-1.6c0-1.2,0.5-2.2,1.4-3c0.9-0.7,2.2-1.1,3.9-1.1c0.6,0,1.2,0,1.7,0.1s1,0.2,1.3,0.4c0.4,0.2,0.7,0.4,0.9,0.7
			c0.2,0.3,0.3,0.6,0.3,1c0,0.4-0.1,0.7-0.3,1c-0.2,0.3-0.4,0.5-0.6,0.7c-0.3-0.2-0.7-0.4-1.2-0.5c-0.5-0.1-1.1-0.2-1.7-0.2
			c-0.6,0-1.1,0.1-1.4,0.3c-0.3,0.2-0.4,0.4-0.4,0.7c0,0.2,0.1,0.4,0.3,0.5c0.2,0.1,0.4,0.3,0.8,0.4l1.1,0.4c1.3,0.4,2.4,1,3.1,1.7
			c0.7,0.7,1.1,1.6,1.1,2.8c0,1.2-0.5,2.2-1.4,3c-0.9,0.8-2.3,1.1-4.2,1.1c-0.6,0-1.3-0.1-1.8-0.2c-0.6-0.1-1-0.3-1.5-0.5
			c-0.4-0.2-0.7-0.5-1-0.8c-0.2-0.3-0.3-0.7-0.3-1.1c0-0.4,0.1-0.8,0.4-1.1c0.2-0.3,0.5-0.5,0.8-0.7c0.4,0.3,0.9,0.6,1.5,0.8
			c0.6,0.2,1.2,0.3,1.9,0.3c0.7,0,1.2-0.1,1.5-0.3s0.4-0.5,0.4-0.8s-0.1-0.5-0.3-0.7c-0.2-0.1-0.5-0.3-1-0.4L134.8,25.2z"/>
		<path fill="white" d="M152.6,28.6c-0.1,0.7-0.3,1.2-0.6,1.6c-0.3,0.4-0.8,0.5-1.4,0.5c-0.4,0-0.9-0.1-1.2-0.3
			c-0.4-0.2-0.7-0.6-1.1-1.1l-2.1-2.7v4c-0.1,0-0.4,0.1-0.7,0.1c-0.3,0-0.6,0.1-0.9,0.1c-0.3,0-0.6,0-0.8-0.1
			c-0.3,0-0.4-0.1-0.6-0.3c-0.2-0.1-0.3-0.3-0.4-0.5c-0.1-0.2-0.1-0.5-0.1-0.9V16.3c0.1,0,0.4-0.1,0.7-0.1c0.3,0,0.6-0.1,0.9-0.1
			c0.3,0,0.6,0,0.8,0.1c0.3,0,0.4,0.1,0.6,0.3c0.2,0.1,0.3,0.3,0.4,0.5c0.1,0.2,0.1,0.5,0.1,0.9v5.8l3.6-3.8c0.7,0,1.3,0.2,1.8,0.5
			c0.4,0.3,0.7,0.7,0.7,1.3c0,0.2,0,0.4-0.1,0.6c-0.1,0.2-0.2,0.4-0.3,0.6c-0.1,0.2-0.3,0.4-0.6,0.6c-0.2,0.2-0.5,0.4-0.8,0.7
			l-1.2,1.1L152.6,28.6z"/>
		<path fill="white" d="M164.5,25.2c0,0.9-0.1,1.7-0.4,2.4c-0.3,0.7-0.6,1.3-1.1,1.8c-0.5,0.5-1.1,0.8-1.8,1.1s-1.4,0.4-2.3,0.4
			c-0.8,0-1.6-0.1-2.3-0.4c-0.7-0.3-1.3-0.6-1.8-1.1c-0.5-0.5-0.9-1.1-1.1-1.8c-0.3-0.7-0.4-1.5-0.4-2.4c0-0.9,0.1-1.6,0.4-2.3
			c0.3-0.7,0.6-1.3,1.1-1.8c0.5-0.5,1.1-0.9,1.8-1.1s1.4-0.4,2.3-0.4s1.6,0.1,2.3,0.4c0.7,0.3,1.3,0.6,1.8,1.1
			c0.5,0.5,0.9,1.1,1.1,1.8C164.4,23.6,164.5,24.3,164.5,25.2z M157.1,25.2c0,0.9,0.2,1.6,0.5,2c0.3,0.5,0.8,0.7,1.4,0.7
			s1-0.2,1.4-0.7c0.3-0.5,0.5-1.2,0.5-2s-0.2-1.5-0.5-2c-0.3-0.5-0.8-0.7-1.4-0.7c-0.6,0-1,0.2-1.4,0.7
			C157.2,23.6,157.1,24.3,157.1,25.2z"/>
		<path fill="white" d="M169.9,30.4c-0.1,0-0.4,0.1-0.7,0.1c-0.3,0-0.6,0.1-0.9,0.1c-0.3,0-0.6,0-0.8-0.1c-0.3,0-0.4-0.1-0.6-0.3
			c-0.2-0.1-0.3-0.3-0.4-0.5c-0.1-0.2-0.1-0.5-0.1-0.9V16.3c0.1,0,0.4-0.1,0.7-0.1c0.3,0,0.6-0.1,0.9-0.1c0.3,0,0.6,0,0.8,0.1
			c0.3,0,0.4,0.1,0.6,0.3c0.2,0.1,0.3,0.3,0.4,0.5c0.1,0.2,0.1,0.5,0.1,0.9V30.4z"/>
		<path fill="white" d="M177.7,30.8c-0.8,0-1.6-0.1-2.3-0.4c-0.7-0.2-1.3-0.6-1.9-1.1s-0.9-1.1-1.2-1.8c-0.3-0.7-0.4-1.6-0.4-2.5
			s0.1-1.8,0.4-2.5c0.3-0.7,0.7-1.3,1.2-1.7c0.5-0.4,1-0.8,1.7-1c0.6-0.2,1.3-0.3,1.9-0.3c0.7,0,1.4,0.1,2.1,0.3
			c0.6,0.2,1.1,0.6,1.6,1c0.4,0.4,0.8,0.9,1,1.5c0.3,0.6,0.4,1.2,0.4,1.9c0,0.5-0.1,0.9-0.4,1.1c-0.3,0.3-0.6,0.4-1.1,0.5l-5.2,0.8
			c0.1,0.5,0.5,0.8,1,1.1c0.5,0.2,1,0.4,1.6,0.4c0.6,0,1.1-0.1,1.6-0.2c0.5-0.1,0.9-0.3,1.3-0.5c0.2,0.1,0.4,0.3,0.6,0.6
			c0.1,0.3,0.2,0.5,0.2,0.8c0,0.7-0.3,1.1-0.9,1.5c-0.4,0.3-1,0.4-1.5,0.5C178.7,30.8,178.1,30.8,177.7,30.8z M177.1,22.3
			c-0.3,0-0.6,0.1-0.9,0.2c-0.3,0.1-0.4,0.3-0.6,0.4c-0.1,0.2-0.3,0.4-0.3,0.6c-0.1,0.2-0.1,0.4-0.1,0.7l3.6-0.6
			c0-0.3-0.2-0.6-0.5-0.9C178,22.4,177.6,22.3,177.1,22.3z"/>
		<path fill="white" d="M190.4,23.8c0-0.4-0.1-0.8-0.4-1c-0.3-0.2-0.6-0.3-1-0.3c-0.3,0-0.6,0-0.8,0.1c-0.3,0.1-0.5,0.2-0.7,0.3v7.6
			c-0.1,0-0.4,0.1-0.7,0.1c-0.3,0-0.6,0.1-0.9,0.1s-0.6,0-0.8-0.1c-0.3,0-0.4-0.1-0.6-0.3c-0.2-0.1-0.3-0.3-0.4-0.5
			c-0.1-0.2-0.1-0.5-0.1-0.9v-6.5c0-0.4,0.1-0.7,0.2-1c0.2-0.3,0.4-0.5,0.7-0.7c0.5-0.3,1.1-0.6,1.8-0.9s1.5-0.3,2.4-0.3
			c1.6,0,2.8,0.4,3.7,1.1c0.9,0.7,1.3,1.7,1.3,3v6.8c-0.1,0-0.4,0.1-0.7,0.1c-0.3,0-0.6,0.1-0.9,0.1s-0.6,0-0.8-0.1
			c-0.3,0-0.4-0.1-0.6-0.3c-0.2-0.1-0.3-0.3-0.4-0.5c-0.1-0.2-0.1-0.5-0.1-0.9L190.4,23.8L190.4,23.8z"/>
	</g>
	<g>
		<path fill="white" d="M46.7,40.8c-0.1-0.1-0.1-0.2-0.1-0.3v-5.1c0-0.1,0-0.2,0.1-0.3c0.1-0.1,0.2-0.1,0.3-0.1s0.2,0,0.3,0.1
			c0.1,0.1,0.1,0.2,0.1,0.3v5.1c0,0.1,0,0.2-0.1,0.3c-0.1,0.1-0.2,0.1-0.3,0.1C46.9,40.9,46.8,40.9,46.7,40.8z"/>
		<path fill="white" d="M52.4,38.3v2.2c0,0.1,0,0.2-0.1,0.3c-0.1,0.1-0.2,0.1-0.3,0.1c-0.1,0-0.2,0-0.3-0.1c-0.1-0.1-0.1-0.2-0.1-0.3
			v-2.1c0-0.3-0.1-0.6-0.2-0.8c-0.1-0.2-0.3-0.2-0.6-0.2c-0.3,0-0.6,0.1-0.8,0.3c-0.2,0.2-0.3,0.5-0.3,0.9v2c0,0.1,0,0.2-0.1,0.3
			c-0.1,0.1-0.2,0.1-0.3,0.1c-0.1,0-0.2,0-0.3-0.1c-0.1-0.1-0.1-0.2-0.1-0.3v-3.4c0-0.1,0-0.2,0.1-0.3s0.2-0.1,0.3-0.1
			c0.1,0,0.2,0,0.3,0.1c0.1,0.1,0.1,0.2,0.1,0.3v0.3c0.1-0.2,0.3-0.4,0.6-0.6c0.2-0.1,0.5-0.2,0.8-0.2
			C51.9,36.7,52.4,37.3,52.4,38.3z"/>
		<path fill="white" d="M53.6,40.6c-0.1-0.1-0.2-0.1-0.2-0.2c0-0.1-0.1-0.1-0.1-0.2s0-0.2,0.1-0.2c0-0.1,0.1-0.1,0.2-0.1
			c0.1,0,0.2,0,0.3,0.1c0.2,0.1,0.3,0.2,0.5,0.2c0.2,0,0.4,0.1,0.6,0.1c0.3,0,0.5,0,0.6-0.1c0.1-0.1,0.2-0.2,0.2-0.4
			c0-0.1,0-0.2-0.1-0.3c-0.1-0.1-0.2-0.1-0.3-0.2c-0.1,0-0.4-0.1-0.6-0.2c-0.5-0.1-0.8-0.3-1.1-0.4c-0.2-0.2-0.3-0.4-0.3-0.7
			c0-0.2,0.1-0.4,0.2-0.6c0.1-0.2,0.3-0.3,0.6-0.4c0.2-0.1,0.5-0.1,0.8-0.1c0.2,0,0.4,0,0.7,0.1s0.4,0.1,0.6,0.3
			c0.2,0.1,0.3,0.3,0.3,0.4c0,0.1,0,0.2-0.1,0.2c0,0.1-0.1,0.1-0.2,0.1c0,0-0.1,0-0.1,0s-0.1-0.1-0.2-0.1c-0.1-0.1-0.3-0.1-0.4-0.2
			c-0.1,0-0.3-0.1-0.5-0.1c-0.2,0-0.4,0-0.6,0.1c-0.1,0.1-0.2,0.2-0.2,0.4c0,0.1,0.1,0.3,0.2,0.4c0.1,0.1,0.4,0.2,0.7,0.3
			c0.4,0.1,0.7,0.2,0.9,0.3c0.2,0.1,0.4,0.2,0.4,0.4c0.1,0.1,0.1,0.3,0.1,0.6c0,0.4-0.1,0.7-0.4,0.9c-0.3,0.2-0.7,0.3-1.2,0.3
			C54.4,41,53.9,40.8,53.6,40.6z"/>
		<path fill="white" d="M60.7,37c0.3,0.2,0.5,0.4,0.6,0.7s0.2,0.7,0.2,1.1c0,0.4-0.1,0.8-0.2,1.1c-0.1,0.3-0.4,0.6-0.6,0.7
			c-0.3,0.2-0.6,0.3-0.9,0.3c-0.3,0-0.6-0.1-0.8-0.2s-0.4-0.3-0.5-0.6v1.9c0,0.1,0,0.2-0.1,0.3c-0.1,0.1-0.2,0.1-0.3,0.1
			c-0.1,0-0.2,0-0.3-0.1c-0.1-0.1-0.1-0.2-0.1-0.3v-4.9c0-0.1,0-0.2,0.1-0.3c0.1-0.1,0.2-0.1,0.3-0.1c0.1,0,0.2,0,0.3,0.1
			c0.1,0.1,0.1,0.2,0.1,0.3v0.3c0.1-0.2,0.3-0.4,0.5-0.6c0.2-0.1,0.5-0.2,0.8-0.2C60.1,36.7,60.5,36.8,60.7,37z M60.4,39.9
			c0.2-0.3,0.3-0.6,0.3-1.1s-0.1-0.8-0.3-1.1c-0.2-0.3-0.5-0.4-0.9-0.4s-0.6,0.1-0.9,0.4c-0.2,0.3-0.3,0.6-0.3,1.1
			c0,0.5,0.1,0.8,0.3,1.1s0.5,0.4,0.9,0.4S60.2,40.1,60.4,39.9z"/>
		<path fill="white" d="M62.6,35.8c-0.1-0.1-0.1-0.2-0.1-0.3c0-0.1,0-0.3,0.1-0.3c0.1-0.1,0.2-0.1,0.4-0.1c0.1,0,0.3,0,0.4,0.1
			c0.1,0.1,0.1,0.2,0.1,0.3s0,0.3-0.1,0.3c-0.1,0.1-0.2,0.1-0.4,0.1C62.8,35.9,62.7,35.8,62.6,35.8z M62.7,40.8
			c-0.1-0.1-0.1-0.2-0.1-0.3v-3.4c0-0.1,0-0.2,0.1-0.3c0.1-0.1,0.2-0.1,0.3-0.1c0.1,0,0.2,0,0.3,0.1c0.1,0.1,0.1,0.2,0.1,0.3v3.4
			c0,0.1,0,0.2-0.1,0.3c-0.1,0.1-0.2,0.1-0.3,0.1C62.9,40.9,62.8,40.9,62.7,40.8z"/>
		<path fill="white" d="M67.1,37.1c0,0.1,0,0.2-0.1,0.3c-0.1,0.1-0.2,0.1-0.3,0.1l-0.3,0c-0.3,0-0.6,0.1-0.8,0.4
			c-0.2,0.2-0.3,0.5-0.3,0.8v1.9c0,0.1,0,0.2-0.1,0.3c-0.1,0.1-0.2,0.1-0.3,0.1c-0.1,0-0.2,0-0.3-0.1c-0.1-0.1-0.1-0.2-0.1-0.3v-3.4
			c0-0.1,0-0.2,0.1-0.3c0.1-0.1,0.2-0.1,0.3-0.1s0.2,0,0.3,0.1s0.1,0.2,0.1,0.3v0.4c0.1-0.2,0.3-0.4,0.5-0.6
			c0.2-0.1,0.4-0.2,0.7-0.2h0.1C67,36.7,67.1,36.8,67.1,37.1z"/>
		<path fill="white" d="M70.6,37.1c0.3,0.3,0.4,0.7,0.4,1.2v2.2c0,0.1,0,0.2-0.1,0.3c-0.1,0.1-0.2,0.1-0.3,0.1c-0.1,0-0.2,0-0.3-0.1
			c-0.1-0.1-0.1-0.2-0.1-0.3v-0.3c-0.1,0.2-0.3,0.4-0.5,0.5c-0.2,0.1-0.4,0.2-0.7,0.2c-0.3,0-0.5-0.1-0.7-0.2
			c-0.2-0.1-0.4-0.3-0.5-0.4c-0.1-0.2-0.2-0.4-0.2-0.7c0-0.3,0.1-0.5,0.2-0.7c0.1-0.2,0.4-0.3,0.8-0.4c0.4-0.1,0.8-0.1,1.5-0.1h0.2
			v-0.2c0-0.3-0.1-0.5-0.2-0.7c-0.1-0.1-0.3-0.2-0.6-0.2c-0.2,0-0.4,0-0.6,0.1c-0.2,0-0.4,0.1-0.6,0.2c-0.1,0.1-0.3,0.1-0.3,0.1
			c-0.1,0-0.1,0-0.2-0.1c0-0.1-0.1-0.1-0.1-0.2s0-0.1,0.1-0.2c0-0.1,0.1-0.1,0.2-0.2c0.2-0.1,0.4-0.2,0.7-0.3
			c0.3-0.1,0.5-0.1,0.8-0.1C69.9,36.7,70.3,36.8,70.6,37.1z M69.8,40c0.2-0.2,0.3-0.5,0.3-0.8V39H70c-0.4,0-0.8,0-1,0.1
			c-0.2,0-0.4,0.1-0.5,0.2c-0.1,0.1-0.1,0.2-0.1,0.4c0,0.2,0.1,0.4,0.2,0.5c0.1,0.1,0.3,0.2,0.5,0.2C69.4,40.3,69.7,40.2,69.8,40z"
			/>
		<path fill="white" d="M74.4,40.4c0,0,0.1,0.1,0.1,0.2c0,0.1,0,0.2-0.1,0.3c-0.1,0.1-0.2,0.1-0.4,0.1l-0.2,0c-0.4,0-0.8-0.2-1-0.4
			c-0.2-0.2-0.3-0.6-0.3-1.1v-2h-0.5c-0.2,0-0.4-0.1-0.4-0.3c0-0.1,0-0.2,0.1-0.2c0.1-0.1,0.1-0.1,0.3-0.1h0.5v-0.9
			c0-0.1,0-0.2,0.1-0.3c0.1-0.1,0.2-0.1,0.3-0.1c0.1,0,0.2,0,0.3,0.1c0.1,0.1,0.1,0.2,0.1,0.3v0.9H74c0.1,0,0.2,0,0.3,0.1
			c0.1,0.1,0.1,0.1,0.1,0.2c0,0.1,0,0.2-0.1,0.2c-0.1,0.1-0.1,0.1-0.3,0.1h-0.8v2c0,0.3,0.1,0.4,0.2,0.6c0.1,0.1,0.3,0.2,0.5,0.2
			l0.2,0C74.2,40.3,74.3,40.3,74.4,40.4z"/>
		<path fill="white" d="M75.1,35.8C75,35.7,75,35.5,75,35.4c0-0.1,0-0.3,0.1-0.3c0.1-0.1,0.2-0.1,0.4-0.1c0.1,0,0.3,0,0.4,0.1
			c0.1,0.1,0.1,0.2,0.1,0.3s0,0.3-0.1,0.3c-0.1,0.1-0.2,0.1-0.4,0.1C75.4,35.9,75.2,35.8,75.1,35.8z M75.2,40.8
			c-0.1-0.1-0.1-0.2-0.1-0.3v-3.4c0-0.1,0-0.2,0.1-0.3c0.1-0.1,0.2-0.1,0.3-0.1c0.1,0,0.2,0,0.3,0.1c0.1,0.1,0.1,0.2,0.1,0.3v3.4
			c0,0.1,0,0.2-0.1,0.3c-0.1,0.1-0.2,0.1-0.3,0.1S75.3,40.9,75.2,40.8z"/>
		<path fill="white" d="M77.8,40.7c-0.3-0.2-0.5-0.4-0.7-0.7c-0.2-0.3-0.3-0.7-0.3-1.1c0-0.4,0.1-0.8,0.3-1.1
			c0.2-0.3,0.4-0.6,0.7-0.7c0.3-0.2,0.7-0.3,1.1-0.3c0.4,0,0.7,0.1,1.1,0.3c0.3,0.2,0.5,0.4,0.7,0.7c0.2,0.3,0.3,0.7,0.3,1.1
			c0,0.4-0.1,0.8-0.3,1.1c-0.2,0.3-0.4,0.6-0.7,0.7c-0.3,0.2-0.7,0.3-1.1,0.3C78.5,40.9,78.1,40.9,77.8,40.7z M79.7,39.9
			c0.2-0.2,0.3-0.6,0.3-1.1c0-0.5-0.1-0.8-0.3-1.1c-0.2-0.3-0.5-0.4-0.9-0.4s-0.7,0.1-0.9,0.4c-0.2,0.3-0.3,0.6-0.3,1.1
			c0,0.5,0.1,0.8,0.3,1.1c0.2,0.2,0.5,0.4,0.9,0.4S79.6,40.1,79.7,39.9z"/>
		<path fill="white" d="M85.5,38.3v2.2c0,0.1,0,0.2-0.1,0.3c-0.1,0.1-0.2,0.1-0.3,0.1c-0.1,0-0.2,0-0.3-0.1s-0.1-0.2-0.1-0.3v-2.1
			c0-0.3-0.1-0.6-0.2-0.8c-0.1-0.2-0.3-0.2-0.6-0.2c-0.3,0-0.6,0.1-0.8,0.3c-0.2,0.2-0.3,0.5-0.3,0.9v2c0,0.1,0,0.2-0.1,0.3
			c-0.1,0.1-0.2,0.1-0.3,0.1c-0.1,0-0.2,0-0.3-0.1c-0.1-0.1-0.1-0.2-0.1-0.3v-3.4c0-0.1,0-0.2,0.1-0.3c0.1-0.1,0.2-0.1,0.3-0.1
			c0.1,0,0.2,0,0.3,0.1c0.1,0.1,0.1,0.2,0.1,0.3v0.3c0.1-0.2,0.3-0.4,0.6-0.6s0.5-0.2,0.8-0.2C85,36.7,85.5,37.3,85.5,38.3z"/>
		<path fill="white" d="M91.2,40.4c0,0,0.1,0.1,0.1,0.2c0,0.1,0,0.2-0.1,0.3c-0.1,0.1-0.2,0.1-0.4,0.1l-0.2,0c-0.4,0-0.8-0.2-1-0.4
			c-0.2-0.2-0.3-0.6-0.3-1.1v-2h-0.5c-0.2,0-0.4-0.1-0.4-0.3c0-0.1,0-0.2,0.1-0.2c0.1-0.1,0.1-0.1,0.3-0.1h0.5v-0.9
			c0-0.1,0-0.2,0.1-0.3c0.1-0.1,0.2-0.1,0.3-0.1c0.1,0,0.2,0,0.3,0.1c0.1,0.1,0.1,0.2,0.1,0.3v0.9h0.8c0.1,0,0.2,0,0.3,0.1
			c0.1,0.1,0.1,0.1,0.1,0.2c0,0.1,0,0.2-0.1,0.2c-0.1,0.1-0.1,0.1-0.3,0.1H90v2c0,0.3,0.1,0.4,0.2,0.6c0.1,0.1,0.3,0.2,0.5,0.2
			l0.2,0C91,40.3,91.1,40.3,91.2,40.4z"/>
		<path fill="white" d="M91.9,35.8c-0.1-0.1-0.1-0.2-0.1-0.3c0-0.1,0-0.3,0.1-0.3c0.1-0.1,0.2-0.1,0.4-0.1c0.1,0,0.3,0,0.4,0.1
			s0.1,0.2,0.1,0.3s0,0.3-0.1,0.3c-0.1,0.1-0.2,0.1-0.4,0.1C92.1,35.9,92,35.8,91.9,35.8z M92,40.8c-0.1-0.1-0.1-0.2-0.1-0.3v-3.4
			c0-0.1,0-0.2,0.1-0.3c0.1-0.1,0.2-0.1,0.3-0.1c0.1,0,0.2,0,0.3,0.1c0.1,0.1,0.1,0.2,0.1,0.3v3.4c0,0.1,0,0.2-0.1,0.3
			c-0.1,0.1-0.2,0.1-0.3,0.1C92.1,40.9,92,40.9,92,40.8z"/>
		<path fill="white" d="M94,40.8c-0.1-0.1-0.1-0.2-0.1-0.3v-5.2c0-0.1,0-0.2,0.1-0.3c0.1-0.1,0.2-0.1,0.3-0.1c0.1,0,0.2,0,0.3,0.1
			c0.1,0.1,0.1,0.2,0.1,0.3v5.2c0,0.1,0,0.2-0.1,0.3c-0.1,0.1-0.2,0.1-0.3,0.1C94.2,40.9,94.1,40.9,94,40.8z"/>
		<path fill="white" d="M101.6,36.8c0.1,0.1,0.1,0.2,0.1,0.3v3.4c0,0.1,0,0.2-0.1,0.3c-0.1,0.1-0.2,0.1-0.3,0.1c-0.1,0-0.2,0-0.3-0.1
			c-0.1-0.1-0.1-0.2-0.1-0.3v-0.3c-0.1,0.2-0.3,0.4-0.5,0.5c-0.2,0.1-0.5,0.2-0.7,0.2c-1,0-1.5-0.6-1.5-1.6v-2.2
			c0-0.1,0-0.2,0.1-0.3c0.1-0.1,0.2-0.1,0.3-0.1c0.1,0,0.2,0,0.3,0.1c0.1,0.1,0.1,0.2,0.1,0.3v2.2c0,0.3,0.1,0.6,0.2,0.7
			c0.1,0.1,0.3,0.2,0.6,0.2c0.3,0,0.6-0.1,0.8-0.3s0.3-0.5,0.3-0.9v-2c0-0.1,0-0.2,0.1-0.3c0.1-0.1,0.2-0.1,0.3-0.1
			C101.4,36.7,101.5,36.7,101.6,36.8z"/>
		<path fill="white" d="M106.6,35c0.1,0.1,0.1,0.2,0.1,0.3v5.2c0,0.1,0,0.2-0.1,0.3s-0.2,0.1-0.3,0.1c-0.1,0-0.2,0-0.3-0.1
			s-0.1-0.2-0.1-0.3v-0.3c-0.1,0.2-0.3,0.4-0.5,0.6s-0.5,0.2-0.8,0.2c-0.3,0-0.7-0.1-0.9-0.3c-0.3-0.2-0.5-0.4-0.6-0.7
			c-0.1-0.3-0.2-0.7-0.2-1.1c0-0.4,0.1-0.8,0.2-1.1c0.1-0.3,0.4-0.6,0.6-0.7s0.6-0.3,0.9-0.3c0.3,0,0.6,0.1,0.8,0.2
			c0.2,0.1,0.4,0.3,0.5,0.6v-2.1c0-0.1,0-0.2,0.1-0.3s0.2-0.1,0.3-0.1S106.5,35,106.6,35z M105.5,39.9c0.2-0.3,0.3-0.6,0.3-1.1
			s-0.1-0.8-0.3-1.1c-0.2-0.3-0.5-0.4-0.9-0.4s-0.7,0.1-0.9,0.4c-0.2,0.3-0.3,0.6-0.3,1.1c0,0.4,0.1,0.8,0.3,1.1
			c0.2,0.3,0.5,0.4,0.9,0.4S105.3,40.1,105.5,39.9z"/>
		<path fill="white" d="M111.3,40c0,0.1,0.1,0.1,0.1,0.2c0,0.2-0.1,0.3-0.3,0.4c-0.2,0.1-0.4,0.2-0.6,0.3c-0.2,0.1-0.4,0.1-0.7,0.1
			c-0.6,0-1.2-0.2-1.5-0.6c-0.4-0.4-0.6-0.9-0.6-1.5c0-0.4,0.1-0.8,0.3-1.1s0.4-0.6,0.7-0.7c0.3-0.2,0.6-0.3,1-0.3
			c0.6,0,1,0.2,1.3,0.5c0.3,0.3,0.5,0.8,0.5,1.4c0,0.2-0.1,0.3-0.3,0.3h-2.6c0.1,0.9,0.5,1.3,1.2,1.3c0.2,0,0.4,0,0.5-0.1
			c0.1-0.1,0.3-0.1,0.5-0.2c0,0,0.1,0,0.1-0.1s0.1-0.1,0.2-0.1C111.1,39.9,111.2,39.9,111.3,40z M108.8,37.6
			c-0.2,0.2-0.3,0.5-0.3,0.9h2.2c0-0.4-0.1-0.7-0.3-0.9c-0.2-0.2-0.4-0.3-0.7-0.3C109.3,37.3,109,37.4,108.8,37.6z"/>
		<path fill="white" d="M112.3,40.6c-0.1-0.1-0.2-0.1-0.2-0.2s-0.1-0.1-0.1-0.2s0-0.2,0.1-0.2c0-0.1,0.1-0.1,0.2-0.1
			c0.1,0,0.2,0,0.3,0.1c0.2,0.1,0.3,0.2,0.5,0.2c0.2,0,0.4,0.1,0.6,0.1c0.3,0,0.5,0,0.6-0.1c0.1-0.1,0.2-0.2,0.2-0.4
			c0-0.1,0-0.2-0.1-0.3c-0.1-0.1-0.2-0.1-0.3-0.2c-0.1,0-0.4-0.1-0.6-0.2c-0.5-0.1-0.8-0.3-1.1-0.4c-0.2-0.2-0.3-0.4-0.3-0.7
			c0-0.2,0.1-0.4,0.2-0.6c0.1-0.2,0.3-0.3,0.6-0.4c0.2-0.1,0.5-0.1,0.8-0.1c0.2,0,0.4,0,0.7,0.1c0.2,0.1,0.4,0.1,0.6,0.3
			c0.2,0.1,0.3,0.3,0.3,0.4c0,0.1,0,0.2-0.1,0.2c0,0.1-0.1,0.1-0.2,0.1c0,0-0.1,0-0.1,0c0,0-0.1-0.1-0.2-0.1
			c-0.1-0.1-0.3-0.1-0.4-0.2c-0.1,0-0.3-0.1-0.5-0.1c-0.2,0-0.4,0-0.6,0.1c-0.1,0.1-0.2,0.2-0.2,0.4c0,0.1,0.1,0.3,0.2,0.4
			c0.1,0.1,0.4,0.2,0.7,0.3c0.4,0.1,0.7,0.2,0.9,0.3c0.2,0.1,0.4,0.2,0.4,0.4c0.1,0.1,0.1,0.3,0.1,0.6c0,0.4-0.1,0.7-0.4,0.9
			c-0.3,0.2-0.7,0.3-1.2,0.3C113.1,41,112.7,40.8,112.3,40.6z"/>
		<path fill="white" d="M119.9,40.5c0,0.1,0,0.2-0.1,0.3s-0.1,0.1-0.3,0.1s-0.2,0-0.3-0.1l-2.1-1.8v1.5c0,0.1,0,0.2-0.1,0.3
			c-0.1,0.1-0.2,0.1-0.3,0.1c-0.1,0-0.2,0-0.3-0.1c-0.1-0.1-0.1-0.2-0.1-0.3v-5.2c0-0.1,0-0.2,0.1-0.3c0.1-0.1,0.2-0.1,0.3-0.1
			c0.1,0,0.2,0,0.3,0.1c0.1,0.1,0.1,0.2,0.1,0.3v3.3l1.9-1.8c0.1-0.1,0.2-0.1,0.3-0.1c0.1,0,0.2,0,0.3,0.1c0.1,0.1,0.1,0.2,0.1,0.3
			c0,0.1,0,0.2-0.1,0.3l-1.5,1.4l1.6,1.5C119.9,40.3,119.9,40.4,119.9,40.5z"/>
		<path fill="white" d="M121.3,40.7c-0.3-0.2-0.5-0.4-0.7-0.7c-0.2-0.3-0.3-0.7-0.3-1.1c0-0.4,0.1-0.8,0.3-1.1
			c0.2-0.3,0.4-0.6,0.7-0.7c0.3-0.2,0.7-0.3,1.1-0.3c0.4,0,0.7,0.1,1.1,0.3c0.3,0.2,0.5,0.4,0.7,0.7c0.2,0.3,0.3,0.7,0.3,1.1
			c0,0.4-0.1,0.8-0.3,1.1c-0.2,0.3-0.4,0.6-0.7,0.7s-0.7,0.3-1.1,0.3C122,40.9,121.6,40.9,121.3,40.7z M123.3,39.9
			c0.2-0.2,0.3-0.6,0.3-1.1c0-0.5-0.1-0.8-0.3-1.1c-0.2-0.3-0.5-0.4-0.9-0.4s-0.7,0.1-0.9,0.4c-0.2,0.3-0.3,0.6-0.3,1.1
			c0,0.5,0.1,0.8,0.3,1.1c0.2,0.2,0.5,0.4,0.9,0.4S123,40.1,123.3,39.9z"/>
		<path fill="white" d="M125.5,40.8c-0.1-0.1-0.1-0.2-0.1-0.3v-5.2c0-0.1,0-0.2,0.1-0.3c0.1-0.1,0.2-0.1,0.3-0.1c0.1,0,0.2,0,0.3,0.1
			c0.1,0.1,0.1,0.2,0.1,0.3v5.2c0,0.1,0,0.2-0.1,0.3c-0.1,0.1-0.2,0.1-0.3,0.1C125.7,40.9,125.5,40.9,125.5,40.8z"/>
		<path fill="white" d="M130.8,40c0,0.1,0.1,0.1,0.1,0.2c0,0.2-0.1,0.3-0.3,0.4c-0.2,0.1-0.4,0.2-0.6,0.3c-0.2,0.1-0.4,0.1-0.7,0.1
			c-0.6,0-1.2-0.2-1.5-0.6c-0.4-0.4-0.6-0.9-0.6-1.5c0-0.4,0.1-0.8,0.3-1.1c0.2-0.3,0.4-0.6,0.7-0.7c0.3-0.2,0.6-0.3,1-0.3
			c0.6,0,1,0.2,1.3,0.5c0.3,0.3,0.5,0.8,0.5,1.4c0,0.2-0.1,0.3-0.3,0.3H128c0.1,0.9,0.5,1.3,1.2,1.3c0.2,0,0.4,0,0.5-0.1
			s0.3-0.1,0.5-0.2c0,0,0.1,0,0.1-0.1s0.1-0.1,0.2-0.1C130.6,39.9,130.7,39.9,130.8,40z M128.3,37.6c-0.2,0.2-0.3,0.5-0.3,0.9h2.2
			c0-0.4-0.1-0.7-0.3-0.9c-0.2-0.2-0.4-0.3-0.7-0.3C128.8,37.3,128.5,37.4,128.3,37.6z"/>
		<path fill="white" d="M134.1,35.8c-0.1-0.1-0.1-0.2-0.1-0.3c0-0.1,0-0.3,0.1-0.3c0.1-0.1,0.2-0.1,0.4-0.1c0.1,0,0.3,0,0.4,0.1
			c0.1,0.1,0.1,0.2,0.1,0.3s0,0.3-0.1,0.3c-0.1,0.1-0.2,0.1-0.4,0.1S134.2,35.8,134.1,35.8z M134.1,40.8c-0.1-0.1-0.1-0.2-0.1-0.3
			v-3.4c0-0.1,0-0.2,0.1-0.3c0.1-0.1,0.2-0.1,0.3-0.1c0.1,0,0.2,0,0.3,0.1c0.1,0.1,0.1,0.2,0.1,0.3v3.4c0,0.1,0,0.2-0.1,0.3
			c-0.1,0.1-0.2,0.1-0.3,0.1C134.3,40.9,134.2,40.9,134.1,40.8z"/>
		<path fill="white" d="M141.9,38.3v2.2c0,0.1,0,0.2-0.1,0.3s-0.2,0.1-0.3,0.1c-0.1,0-0.2,0-0.3-0.1c-0.1-0.1-0.1-0.2-0.1-0.3v-2.1
			c0-0.3-0.1-0.6-0.2-0.8c-0.1-0.2-0.3-0.2-0.6-0.2c-0.3,0-0.6,0.1-0.8,0.3c-0.2,0.2-0.3,0.5-0.3,0.9v2c0,0.1,0,0.2-0.1,0.3
			s-0.2,0.1-0.3,0.1c-0.1,0-0.2,0-0.3-0.1c-0.1-0.1-0.1-0.2-0.1-0.3v-3.4c0-0.1,0-0.2,0.1-0.3c0.1-0.1,0.2-0.1,0.3-0.1
			c0.1,0,0.2,0,0.3,0.1c0.1,0.1,0.1,0.2,0.1,0.3v0.3c0.1-0.2,0.3-0.4,0.6-0.6c0.2-0.1,0.5-0.2,0.8-0.2
			C141.5,36.7,141.9,37.3,141.9,38.3z"/>
		<path fill="white" d="M146,37.1c0.3,0.3,0.4,0.7,0.4,1.2v2.2c0,0.1,0,0.2-0.1,0.3c-0.1,0.1-0.2,0.1-0.3,0.1c-0.1,0-0.2,0-0.3-0.1
			c-0.1-0.1-0.1-0.2-0.1-0.3v-0.3c-0.1,0.2-0.3,0.4-0.5,0.5c-0.2,0.1-0.4,0.2-0.7,0.2c-0.3,0-0.5-0.1-0.7-0.2
			c-0.2-0.1-0.4-0.3-0.5-0.4c-0.1-0.2-0.2-0.4-0.2-0.7c0-0.3,0.1-0.5,0.2-0.7s0.4-0.3,0.8-0.4c0.4-0.1,0.8-0.1,1.5-0.1h0.2v-0.2
			c0-0.3-0.1-0.5-0.2-0.7c-0.1-0.1-0.3-0.2-0.6-0.2c-0.2,0-0.4,0-0.6,0.1c-0.2,0-0.4,0.1-0.6,0.2c-0.1,0.1-0.3,0.1-0.3,0.1
			c-0.1,0-0.1,0-0.2-0.1c0-0.1-0.1-0.1-0.1-0.2s0-0.1,0.1-0.2c0-0.1,0.1-0.1,0.2-0.2c0.2-0.1,0.4-0.2,0.7-0.3
			c0.3-0.1,0.5-0.1,0.8-0.1C145.4,36.7,145.8,36.8,146,37.1z M145.3,40c0.2-0.2,0.3-0.5,0.3-0.8V39h-0.1c-0.4,0-0.8,0-1,0.1
			c-0.2,0-0.4,0.1-0.5,0.2c-0.1,0.1-0.1,0.2-0.1,0.4c0,0.2,0.1,0.4,0.2,0.5c0.1,0.1,0.3,0.2,0.5,0.2C144.9,40.3,145.1,40.2,145.3,40
			z"/>
		<path fill="white" d="M149.9,40.4c0,0,0.1,0.1,0.1,0.2c0,0.1,0,0.2-0.1,0.3c-0.1,0.1-0.2,0.1-0.4,0.1l-0.2,0c-0.4,0-0.8-0.2-1-0.4
			c-0.2-0.2-0.3-0.6-0.3-1.1v-2h-0.5c-0.2,0-0.4-0.1-0.4-0.3c0-0.1,0-0.2,0.1-0.2c0.1-0.1,0.1-0.1,0.3-0.1h0.5v-0.9
			c0-0.1,0-0.2,0.1-0.3c0.1-0.1,0.2-0.1,0.3-0.1s0.2,0,0.3,0.1c0.1,0.1,0.1,0.2,0.1,0.3v0.9h0.8c0.1,0,0.2,0,0.3,0.1
			c0.1,0.1,0.1,0.1,0.1,0.2c0,0.1,0,0.2-0.1,0.2c-0.1,0.1-0.1,0.1-0.3,0.1h-0.8v2c0,0.3,0.1,0.4,0.2,0.6c0.1,0.1,0.3,0.2,0.5,0.2
			l0.2,0C149.7,40.3,149.8,40.3,149.9,40.4z"/>
		<path fill="white" d="M154,36.8c0.1,0.1,0.1,0.2,0.1,0.3v3.4c0,0.1,0,0.2-0.1,0.3c-0.1,0.1-0.2,0.1-0.3,0.1c-0.1,0-0.2,0-0.3-0.1
			c-0.1-0.1-0.1-0.2-0.1-0.3v-0.3c-0.1,0.2-0.3,0.4-0.5,0.5c-0.2,0.1-0.5,0.2-0.7,0.2c-1,0-1.5-0.6-1.5-1.6v-2.2
			c0-0.1,0-0.2,0.1-0.3c0.1-0.1,0.2-0.1,0.3-0.1c0.1,0,0.2,0,0.3,0.1c0.1,0.1,0.1,0.2,0.1,0.3v2.2c0,0.3,0.1,0.6,0.2,0.7
			c0.1,0.1,0.3,0.2,0.6,0.2c0.3,0,0.6-0.1,0.8-0.3s0.3-0.5,0.3-0.9v-2c0-0.1,0-0.2,0.1-0.3s0.2-0.1,0.3-0.1
			C153.9,36.7,154,36.7,154,36.8z"/>
		<path fill="white" d="M157.9,37.1c0,0.1,0,0.2-0.1,0.3c-0.1,0.1-0.2,0.1-0.3,0.1l-0.3,0c-0.3,0-0.6,0.1-0.8,0.4
			c-0.2,0.2-0.3,0.5-0.3,0.8v1.9c0,0.1,0,0.2-0.1,0.3c-0.1,0.1-0.2,0.1-0.3,0.1c-0.1,0-0.2,0-0.3-0.1c-0.1-0.1-0.1-0.2-0.1-0.3v-3.4
			c0-0.1,0-0.2,0.1-0.3c0.1-0.1,0.2-0.1,0.3-0.1c0.1,0,0.2,0,0.3,0.1s0.1,0.2,0.1,0.3v0.4c0.1-0.2,0.3-0.4,0.5-0.6s0.4-0.2,0.7-0.2
			h0.1C157.7,36.7,157.9,36.8,157.9,37.1z"/>
		<path fill="white" d="M161.3,40.7c-0.3-0.2-0.5-0.4-0.7-0.7c-0.2-0.3-0.3-0.7-0.3-1.1c0-0.4,0.1-0.8,0.3-1.1
			c0.2-0.3,0.4-0.6,0.7-0.7c0.3-0.2,0.7-0.3,1.1-0.3s0.7,0.1,1.1,0.3c0.3,0.2,0.5,0.4,0.7,0.7c0.2,0.3,0.3,0.7,0.3,1.1
			c0,0.4-0.1,0.8-0.3,1.1c-0.2,0.3-0.4,0.6-0.7,0.7c-0.3,0.2-0.7,0.3-1.1,0.3S161.6,40.9,161.3,40.7z M163.3,39.9
			c0.2-0.2,0.3-0.6,0.3-1.1c0-0.5-0.1-0.8-0.3-1.1c-0.2-0.3-0.5-0.4-0.9-0.4s-0.7,0.1-0.9,0.4c-0.2,0.3-0.3,0.6-0.3,1.1
			c0,0.5,0.1,0.8,0.3,1.1c0.2,0.2,0.5,0.4,0.9,0.4S163.1,40.1,163.3,39.9z"/>
		<path fill="white" d="M169,36.8c0.1,0.1,0.1,0.2,0.1,0.3v3.4c0,0.6-0.2,1.1-0.5,1.4c-0.3,0.3-0.8,0.5-1.5,0.5
			c-0.6,0-1.1-0.1-1.5-0.3c-0.2-0.1-0.3-0.3-0.3-0.4c0-0.1,0-0.2,0.1-0.2c0-0.1,0.1-0.1,0.2-0.1s0.2,0,0.3,0.1
			c0.2,0.1,0.4,0.2,0.6,0.2c0.2,0,0.4,0.1,0.6,0.1c0.8,0,1.2-0.4,1.2-1.2V40c-0.1,0.2-0.3,0.4-0.5,0.6c-0.2,0.1-0.5,0.2-0.8,0.2
			c-0.4,0-0.7-0.1-1-0.3c-0.3-0.2-0.5-0.4-0.6-0.7c-0.1-0.3-0.2-0.7-0.2-1.1c0-0.4,0.1-0.7,0.2-1.1c0.1-0.3,0.4-0.6,0.6-0.7
			c0.3-0.2,0.6-0.3,0.9-0.3c0.3,0,0.6,0.1,0.8,0.2c0.2,0.1,0.4,0.3,0.5,0.6v-0.3c0-0.1,0-0.2,0.1-0.3c0.1-0.1,0.2-0.1,0.3-0.1
			C168.9,36.7,169,36.8,169,36.8z M168,39.7c0.2-0.2,0.3-0.6,0.3-1c0-0.4-0.1-0.7-0.3-1c-0.2-0.2-0.5-0.4-0.9-0.4
			c-0.4,0-0.7,0.1-0.9,0.4c-0.2,0.2-0.3,0.6-0.3,1s0.1,0.7,0.3,1c0.2,0.2,0.5,0.4,0.9,0.4C167.5,40.1,167.8,40,168,39.7z"/>
		<path fill="white" d="M176.2,40.5c0,0.1,0,0.2-0.1,0.3s-0.1,0.1-0.3,0.1c-0.1,0-0.2,0-0.3-0.1l-2.1-1.8v1.5c0,0.1,0,0.2-0.1,0.3
			c-0.1,0.1-0.2,0.1-0.3,0.1s-0.2,0-0.3-0.1c-0.1-0.1-0.1-0.2-0.1-0.3v-5.2c0-0.1,0-0.2,0.1-0.3c0.1-0.1,0.2-0.1,0.3-0.1
			c0.1,0,0.2,0,0.3,0.1s0.1,0.2,0.1,0.3v3.3l1.9-1.8c0.1-0.1,0.2-0.1,0.3-0.1c0.1,0,0.2,0,0.3,0.1c0.1,0.1,0.1,0.2,0.1,0.3
			c0,0.1,0,0.2-0.1,0.3l-1.5,1.4l1.6,1.5C176.1,40.3,176.2,40.4,176.2,40.5z"/>
		<path fill="white" d="M180.4,36.8c0.1,0.1,0.1,0.2,0.1,0.3v3.4c0,0.1,0,0.2-0.1,0.3c-0.1,0.1-0.2,0.1-0.3,0.1c-0.1,0-0.2,0-0.3-0.1
			c-0.1-0.1-0.1-0.2-0.1-0.3v-0.3c-0.1,0.2-0.3,0.4-0.5,0.5c-0.2,0.1-0.5,0.2-0.7,0.2c-1,0-1.5-0.6-1.5-1.6v-2.2
			c0-0.1,0-0.2,0.1-0.3c0.1-0.1,0.2-0.1,0.3-0.1c0.1,0,0.2,0,0.3,0.1c0.1,0.1,0.1,0.2,0.1,0.3v2.2c0,0.3,0.1,0.6,0.2,0.7
			c0.1,0.1,0.3,0.2,0.6,0.2c0.3,0,0.6-0.1,0.8-0.3c0.2-0.2,0.3-0.5,0.3-0.9v-2c0-0.1,0-0.2,0.1-0.3s0.2-0.1,0.3-0.1
			C180.2,36.7,180.3,36.7,180.4,36.8z"/>
		<path fill="white" d="M181.8,40.8c-0.1-0.1-0.1-0.2-0.1-0.3v-5.2c0-0.1,0-0.2,0.1-0.3c0.1-0.1,0.2-0.1,0.3-0.1c0.1,0,0.2,0,0.3,0.1
			c0.1,0.1,0.1,0.2,0.1,0.3v5.2c0,0.1,0,0.2-0.1,0.3c-0.1,0.1-0.2,0.1-0.3,0.1C182,40.9,181.9,40.9,181.8,40.8z"/>
		<path fill="white" d="M186,40.4c0,0,0.1,0.1,0.1,0.2c0,0.1,0,0.2-0.1,0.3c-0.1,0.1-0.2,0.1-0.4,0.1l-0.2,0c-0.4,0-0.8-0.2-1-0.4
			c-0.2-0.2-0.3-0.6-0.3-1.1v-2h-0.5c-0.2,0-0.4-0.1-0.4-0.3c0-0.1,0-0.2,0.1-0.2c0.1-0.1,0.1-0.1,0.3-0.1h0.5v-0.9
			c0-0.1,0-0.2,0.1-0.3c0.1-0.1,0.2-0.1,0.3-0.1s0.2,0,0.3,0.1c0.1,0.1,0.1,0.2,0.1,0.3v0.9h0.8c0.1,0,0.2,0,0.3,0.1
			C186,37,186,37,186,37.1c0,0.1,0,0.2-0.1,0.2c-0.1,0.1-0.1,0.1-0.3,0.1h-0.8v2c0,0.3,0.1,0.4,0.2,0.6c0.1,0.1,0.3,0.2,0.5,0.2
			l0.2,0C185.8,40.3,185.9,40.3,186,40.4z"/>
		<path fill="white" d="M190.1,36.8c0.1,0.1,0.1,0.2,0.1,0.3v3.4c0,0.1,0,0.2-0.1,0.3c-0.1,0.1-0.2,0.1-0.3,0.1c-0.1,0-0.2,0-0.3-0.1
			c-0.1-0.1-0.1-0.2-0.1-0.3v-0.3c-0.1,0.2-0.3,0.4-0.5,0.5c-0.2,0.1-0.5,0.2-0.7,0.2c-1,0-1.5-0.6-1.5-1.6v-2.2
			c0-0.1,0-0.2,0.1-0.3c0.1-0.1,0.2-0.1,0.3-0.1c0.1,0,0.2,0,0.3,0.1c0.1,0.1,0.1,0.2,0.1,0.3v2.2c0,0.3,0.1,0.6,0.2,0.7
			c0.1,0.1,0.3,0.2,0.6,0.2c0.3,0,0.6-0.1,0.8-0.3c0.2-0.2,0.3-0.5,0.3-0.9v-2c0-0.1,0-0.2,0.1-0.3s0.2-0.1,0.3-0.1
			C190,36.7,190.1,36.7,190.1,36.8z"/>
		<path fill="white" d="M194,37.1c0,0.1,0,0.2-0.1,0.3s-0.2,0.1-0.3,0.1l-0.3,0c-0.3,0-0.6,0.1-0.8,0.4c-0.2,0.2-0.3,0.5-0.3,0.8v1.9
			c0,0.1,0,0.2-0.1,0.3c-0.1,0.1-0.2,0.1-0.3,0.1s-0.2,0-0.3-0.1c-0.1-0.1-0.1-0.2-0.1-0.3v-3.4c0-0.1,0-0.2,0.1-0.3
			c0.1-0.1,0.2-0.1,0.3-0.1c0.1,0,0.2,0,0.3,0.1s0.1,0.2,0.1,0.3v0.4c0.1-0.2,0.3-0.4,0.5-0.6s0.4-0.2,0.7-0.2h0.1
			C193.9,36.7,194,36.8,194,37.1z"/>
	</g>
	<g>
		<path fill="#29AB65" d="M33.8,20.2c1.1-1,1.7-2.5,1.8-4c0-2.4-1.4-4.6-3.6-5.4c0-0.3,0.1-0.6,0.1-0.9c0-4.2-3.4-7.6-7.6-7.6
			c-0.2,0-0.4,0-0.6,0c-0.3-0.6-0.7-1-1.3-1.5c-0.1-0.1-0.1-0.1-0.2-0.2c-0.1-0.1-0.3-0.2-0.4-0.3C21.2,0,20.5,0,19.9,0.2
			c-0.6,0.3-1,0.8-1.2,1.5l-0.2,0.9l0.3,0.1c0,0,0,0,0.1,0h0c0.5,0,1,0.3,1.4,0.6c0.3,0.3,0.5,0.6,0.7,0.9c0.4,0.8,1.2,1.3,2.1,1.3
			l1,0l0,0c0,0,0,0,0,0h0.1c2.4,0,4.3,1.9,4.4,4.2c0,0.5,0,1-0.2,1.5c0,0,0,0.1,0,0.2c-0.4,1.1,0,2.3,1,2.9l0.9,0.6l0.2-0.3
			c0.1-0.2,0.3-0.4,0.4-0.7c0.9,0.4,1.5,1.4,1.4,2.4c-0.1,0.9-0.4,1.9-1.8,2.5l-0.1,0L30.3,19c-0.3,0.4-0.5,1.5,0.4,2.6
			c0.8,1,1.1,2.3,0.8,3.6c-0.5,2.2-2.7,3.7-5,3.4c-0.6-0.1-1.1-0.3-1.6-0.6l-0.3-0.2l-0.5,0.8c-0.3,0.6-0.4,1.3-0.1,1.9
			c0.3,0.6,0.8,1,1.4,1.2c0.3,0.1,0.5,0.1,0.8,0.1c0.3,0,0.6,0.1,0.9,0.1c3.5,0,6.7-2.4,7.5-5.9C35.1,24,34.8,21.9,33.8,20.2
			C33.7,20.2,33.7,20.2,33.8,20.2z"/>
		<path fill="#29AB65" d="M15.7,0.2c-0.6-0.3-1.3-0.2-1.8,0.1c-0.2,0.1-0.3,0.2-0.5,0.3c-0.1,0-0.1,0.1-0.2,0.2
			c-0.5,0.4-0.9,0.9-1.3,1.5c-0.2,0-0.4,0-0.6,0C7,2.3,3.6,5.7,3.6,9.9c0,0.3,0,0.6,0.1,0.9c-2.2,0.9-3.7,3-3.6,5.4
			c0,1.5,0.6,2.9,1.7,4c0,0,0,0,0.1,0.1C0.8,22,0.5,24,0.9,26c0.8,3.4,4,5.9,7.5,5.9c0.3,0,0.6,0,0.9-0.1c0.3,0,0.5-0.1,0.8-0.1
			c0.6-0.1,1.2-0.6,1.4-1.2c0.3-0.6,0.2-1.3-0.1-1.9l-0.5-0.8L10.6,28c-0.5,0.3-1,0.5-1.6,0.6c-2.3,0.3-4.5-1.2-5-3.4
			c-0.3-1.3,0-2.6,0.8-3.6c0.9-1,0.7-2.2,0.4-2.6l-0.1-0.1l-0.1,0c-1.5-0.6-1.8-1.7-1.8-2.5c-0.1-1,0.5-2,1.4-2.4
			c0.1,0.3,0.3,0.5,0.4,0.7l0.2,0.3l0.9-0.6c0.9-0.7,1.3-1.9,1-2.9c0-0.1,0-0.1,0-0.1c-0.1-0.5-0.2-1-0.2-1.5
			c0.1-2.3,2.1-4.2,4.4-4.2l0,0l0.1,0l1,0c0.9,0,1.7-0.5,2.1-1.3c0.1-0.3,0.4-0.7,0.7-0.9c0.4-0.3,0.9-0.5,1.4-0.6h0c0,0,0,0,0.1,0
			L17,2.6l-0.2-0.9C16.7,1.1,16.3,0.5,15.7,0.2z"/>
	</g>
</g>
</svg>
